<svg width="247" height="233" viewBox="0 0 247 233" fill="none" xmlns="http://www.w3.org/2000/svg">
<g clip-path="url(#clip0)">
<path d="M13.8144 157.601C15.1656 157.396 16.5307 157.298 17.8974 157.308C21.9311 157.333 26.1026 158.264 27.8481 160.499C29.3906 162.767 30.6444 165.217 31.5807 167.794C32.0886 169.275 33.0252 170.574 34.2724 171.525C35.5195 172.476 37.0212 173.038 38.5882 173.139C39.0356 173.188 39.4763 173.222 39.9152 173.234C46.2779 173.448 51.5502 170.265 53.2055 177.357L73.0746 152.381L107.386 109.273L38.4164 138.325L13.7803 156.975C13.1203 157.304 13.0761 157.713 13.8144 157.601Z" fill="#ED1B24"/>
<g opacity="0.2">
<g opacity="0.2">
<path opacity="0.2" d="M13.8144 157.601C15.1656 157.396 16.5307 157.298 17.8974 157.308C21.9311 157.333 26.1026 158.264 27.8481 160.499C29.3906 162.767 30.6444 165.217 31.5807 167.794C32.0886 169.275 33.0252 170.574 34.2724 171.525C35.5195 172.476 37.0212 173.038 38.5882 173.139C39.0356 173.188 39.4763 173.222 39.9152 173.234C46.2779 173.448 51.5502 170.265 53.2055 177.357L73.0746 152.381L107.386 109.273L38.4164 138.325L13.7803 156.975C13.1203 157.304 13.0761 157.713 13.8144 157.601Z" fill="#371A45"/>
</g>
</g>
<g opacity="0.35">
<g opacity="0.35">
<path opacity="0.35" d="M17.9058 157.308C21.9395 157.333 26.111 158.264 27.8565 160.499C29.3989 162.767 30.6528 165.217 31.5891 167.794C31.7544 165.559 32.5723 163.422 33.9419 161.645C37.9637 156.078 79.985 135.608 77.8737 133.574C76.5774 132.332 18.7887 156.933 17.9058 157.308Z" fill="#371A45"/>
</g>
</g>
<g opacity="0.35">
<g opacity="0.35">
<path opacity="0.35" d="M39.9233 173.241C46.2861 173.455 51.5583 170.272 53.2136 177.363L73.0826 152.388C59.3943 160.816 43.8516 170.727 39.9233 173.241Z" fill="#371A45"/>
</g>
</g>
<path d="M53.1256 177.755L53.0438 177.403C51.853 172.327 48.8503 172.662 44.6907 173.127C42.6672 173.425 40.6161 173.488 38.578 173.317C33.4368 172.727 32.1455 169.646 30.6518 166.078C29.9313 164.128 28.9438 162.286 27.7172 160.606C25.4596 157.722 18.8807 156.994 13.8382 157.774C13.3278 157.852 13.1576 157.694 13.1134 157.548C13.0369 157.316 13.2512 157.04 13.6885 156.817L38.3093 138.178L107.947 108.828L53.1256 177.755ZM47.8278 172.534C50.3797 172.534 52.3464 173.348 53.2991 176.975L106.818 109.692L38.4844 138.478L13.862 157.123C13.6973 157.187 13.5554 157.299 13.4537 157.443C13.4656 157.443 13.5014 157.443 13.566 157.443C13.6395 157.443 13.7128 157.437 13.7854 157.426C18.9267 156.631 25.6535 157.399 27.9944 160.388C29.2431 162.091 30.2491 163.958 30.9836 165.936C32.4347 169.402 33.6886 172.396 38.624 172.963C40.6361 173.129 42.6608 173.066 44.6584 172.773C45.7093 172.637 46.7667 172.557 47.8261 172.534H47.8278Z" fill="#371A45"/>
<path d="M52.37 181.113L51.5823 177.742C50.7402 174.133 49.2959 174.118 44.8573 174.613C42.7215 174.926 40.5565 174.989 38.406 174.803C32.3903 174.111 30.8031 170.321 29.2685 166.66C28.5962 164.835 27.677 163.109 26.5363 161.532C24.7227 159.216 18.6526 158.548 14.0677 159.257C13.5867 159.384 13.0753 159.327 12.6345 159.097C12.1936 158.866 11.8552 158.48 11.6859 158.013C11.55 157.53 11.5962 157.014 11.8156 156.563C12.035 156.112 12.4125 155.756 12.8768 155.563L37.5758 136.865L37.768 136.783L112.773 105.186L52.37 181.113ZM47.7579 171.049C48.9334 170.935 50.1172 171.156 51.1726 171.684C52.228 172.213 53.112 173.028 53.7226 174.037L101.998 113.345L39.2618 139.773L18.314 155.63C22.6948 155.708 27.1011 156.817 29.1766 159.467C30.5054 161.278 31.5766 163.263 32.3598 165.366C33.7854 168.767 34.7262 171.015 38.7888 171.482C40.6879 171.637 42.5985 171.573 44.4829 171.292C45.5693 171.151 46.6626 171.07 47.7579 171.049Z" fill="#371A45"/>
<path d="M129.876 99.0092L15.8592 140.404C11.2137 142.091 7.29095 145.32 4.74811 149.548C2.20527 153.776 1.19687 158.747 1.89186 163.629C1.89186 163.629 18.3941 153.928 30.6722 146.789C54.6311 132.854 129.876 99.0092 129.876 99.0092Z" fill="#ED1B24"/>
<g opacity="0.7">
<g opacity="0.7">
<path opacity="0.7" d="M1.8917 163.627L3.72224 162.555C3.82163 158.226 5.22831 154.028 7.75849 150.51C10.2887 146.991 13.8246 144.316 17.904 142.833L96.5263 114.286C114.73 105.832 129.31 99.2704 129.871 99.0176L15.8726 140.412C11.2276 142.098 7.30439 145.325 4.75937 149.55C2.21434 153.776 1.20201 158.746 1.8917 163.627Z" fill="white"/>
</g>
</g>
<path d="M0.578327 166.335L0.227877 163.863C-0.498717 158.604 0.598188 153.256 3.33676 148.705C6.07533 144.153 10.2912 140.671 15.2858 138.836L129.303 97.4415L130.565 100.534C129.813 100.874 55.1294 134.495 31.5108 148.233C19.3824 155.289 2.90223 164.972 2.7372 165.069L0.578327 166.335ZM92.1303 114.491L16.4325 141.975C12.5724 143.394 9.24507 145.966 6.90418 149.34C4.56329 152.714 3.32267 156.725 3.3514 160.828C8.33611 157.901 20.393 150.829 29.8231 145.344C42.4414 138.006 69.4507 125.067 92.1303 114.491Z" fill="#371A45"/>
<path d="M83.6105 228.764C90.635 233.713 105.885 233.103 103.485 212.71C112.703 211.506 121.702 208.992 130.206 205.245C136.18 202.385 141.489 198.526 144.007 193.38L112.045 145.7C112.045 145.7 103.958 164.701 97.11 174.615C93.1163 180.154 88.1737 184.947 82.5097 188.774C81.2807 189.611 80.0056 190.379 78.6903 191.075C70.3167 195.44 74.0783 222.047 83.6105 228.764Z" fill="white"/>
<g opacity="0.35">
<g opacity="0.35">
<path opacity="0.35" d="M80.0137 224.959C80.9774 226.429 82.1951 227.718 83.6102 228.764C90.6347 233.713 105.885 233.104 103.484 212.71C112.699 211.505 121.694 208.991 130.194 205.245C131.385 204.674 132.556 204.058 133.678 203.408C133.888 203.288 134.097 203.163 134.306 203.031C135.893 202.088 137.398 201.014 138.806 199.82L139.133 199.537C139.606 199.119 140.062 198.688 140.494 198.242C140.623 198.108 140.752 197.974 140.878 197.837C141.133 197.56 141.389 197.285 141.615 197C141.72 196.877 141.826 196.746 141.93 196.617C142.168 196.317 142.399 196.011 142.61 195.698C142.71 195.557 142.807 195.414 142.899 195.272C142.991 195.129 143.109 194.954 143.209 194.792C143.309 194.629 143.393 194.486 143.481 194.328C143.547 194.215 143.61 194.103 143.673 193.989C143.719 193.909 143.762 193.819 143.803 193.743C143.871 193.621 143.929 193.504 143.988 193.383L112.026 145.703V145.717V145.729C112.018 145.746 112.009 145.766 111.994 145.8C111.914 145.989 111.717 146.447 111.419 147.123C109.405 151.704 102.821 166.336 97.0994 174.619C93.1057 180.158 88.1632 184.951 82.4992 188.778C88.2211 195.305 95.5508 200.231 103.765 203.07C104.412 203.297 104.961 203.739 105.319 204.323C105.676 204.907 105.821 205.596 105.727 206.273C105.634 206.951 105.308 207.575 104.806 208.041C104.303 208.507 103.655 208.785 102.971 208.828C98.812 209.141 94.6324 209.034 90.4952 208.511C100.31 225.632 87.2951 229.081 80.0137 224.959Z" fill="#371A45"/>
</g>
</g>
<path d="M91.9722 233C88.6447 232.994 85.3955 231.993 82.6442 230.126C75.715 225.245 71.7816 211.237 72.4536 201.218C72.8517 195.268 74.7402 191.249 77.913 189.595C84.946 185.645 91.0272 180.209 95.7303 173.667C102.406 163.997 110.423 145.235 110.502 145.047C110.683 144.65 111.012 144.34 111.42 144.182C111.827 144.024 112.28 144.03 112.682 144.2C113.084 144.371 113.404 144.691 113.573 145.093C113.742 145.494 113.747 145.946 113.587 146.352C113.247 147.134 105.356 165.62 98.4898 175.562C93.4681 182.542 86.9764 188.343 79.4696 192.557C77.4468 193.611 76.1079 196.849 75.8017 201.44C75.2028 210.37 78.6615 223.226 84.5819 227.396C87.7072 229.602 93.1478 230.683 97.0744 228.353C101.093 225.978 102.734 220.629 101.824 212.903L101.629 211.244L103.294 211.049C103.614 211.012 135.414 207.147 142.507 192.644C142.702 192.245 143.047 191.94 143.467 191.796C143.888 191.652 144.348 191.68 144.748 191.874C145.148 192.069 145.453 192.413 145.598 192.833C145.743 193.252 145.714 193.711 145.52 194.11C138.532 208.387 112.229 213.134 105.312 214.149C106.118 224.534 102.265 229.164 98.7875 231.225C96.718 232.42 94.363 233.033 91.9722 233Z" fill="#371A45"/>
<path d="M114.429 211.911C114.349 211.911 114.27 211.904 114.192 211.889C104.908 210.13 86.3219 202.936 82.4345 188.308C82.3593 187.99 82.4114 187.655 82.5797 187.375C82.748 187.095 83.0191 186.891 83.3356 186.808C83.6521 186.724 83.9889 186.767 84.2743 186.927C84.5597 187.087 84.7713 187.351 84.864 187.665C88.1729 200.112 104.497 207.497 114.662 209.424C114.967 209.484 115.239 209.655 115.426 209.904C115.612 210.153 115.699 210.461 115.67 210.771C115.641 211.08 115.498 211.367 115.269 211.577C115.039 211.787 114.74 211.905 114.429 211.908V211.911Z" fill="#371A45"/>
<path d="M103.627 214.286C102.817 214.356 102.002 214.35 101.193 214.267C100.796 214.238 100.404 214.189 100.012 214.123C99.621 214.057 99.2297 213.994 98.8435 213.903C97.2838 213.557 95.7709 213.027 94.3368 212.325C92.8934 211.613 91.5546 210.707 90.3576 209.632C89.1984 208.545 88.2694 207.236 87.6253 205.785C87.6127 205.756 87.6059 205.724 87.6055 205.692C87.6051 205.66 87.611 205.629 87.6228 205.599C87.6347 205.569 87.6522 205.542 87.6745 205.52C87.6969 205.497 87.7235 205.478 87.7529 205.466C87.7957 205.447 87.8428 205.442 87.8888 205.45C87.9347 205.457 87.9773 205.478 88.0115 205.51L88.0234 205.52C89.0776 206.501 90.255 207.341 91.5263 208.019C92.7758 208.639 94.0815 209.14 95.4257 209.515C96.7748 209.877 98.1476 210.108 99.5273 210.343C100.216 210.455 100.909 210.554 101.6 210.652C102.29 210.75 103.015 210.842 103.627 210.946L103.758 210.968C104.16 211.036 104.524 211.248 104.781 211.564C105.038 211.879 105.17 212.278 105.154 212.684C105.138 213.091 104.975 213.477 104.694 213.772C104.413 214.067 104.034 214.249 103.627 214.286Z" fill="#371A45"/>
<path d="M171.319 175.19C174.264 177.634 177.492 179.716 180.935 181.393C203.347 191.475 214.827 171.49 212.645 161.287C209.696 147.514 195.878 153.288 195.878 153.288C193.325 153.076 190.867 152.218 188.739 150.795C186.611 149.371 184.882 147.43 183.716 145.154C180.256 138.897 179.009 128.727 181.324 113.462C181.705 110.951 182.184 108.299 182.762 105.505L178.447 111.707L156.098 143.842C150.843 154.06 161.35 167.184 171.319 175.19Z" fill="white"/>
<g opacity="0.35">
<g opacity="0.35">
<path opacity="0.35" d="M154.696 149.734C154.696 149.928 154.696 150.119 154.708 150.316C154.708 150.345 154.708 150.374 154.708 150.399C154.716 150.569 154.725 150.739 154.742 150.92C154.742 150.951 154.742 150.974 154.742 151.005C154.757 151.188 154.774 151.371 154.8 151.556C154.817 151.714 154.842 151.877 154.866 152.036C154.875 152.119 154.888 152.201 154.905 152.283C155 152.859 155.126 153.431 155.278 154.008C155.332 154.211 155.39 154.417 155.448 154.622V154.63C155.502 154.81 155.562 154.993 155.618 155.177C155.63 155.214 155.643 155.251 155.655 155.294C155.718 155.482 155.785 155.67 155.856 155.857C155.928 156.044 156.008 156.271 156.091 156.476C156.128 156.576 156.171 156.676 156.213 156.773C156.297 156.985 156.384 157.194 156.481 157.403L156.518 157.487C156.572 157.616 156.635 157.745 156.688 157.876C156.788 158.096 156.897 158.317 157.006 158.539C157.069 158.673 157.135 158.807 157.207 158.936C157.428 159.37 157.668 159.805 157.915 160.239C158.015 160.409 158.121 160.59 158.224 160.765C158.935 161.952 159.707 163.103 160.536 164.211C160.637 164.348 160.742 164.482 160.846 164.619C160.95 164.757 161.052 164.891 161.161 165.03C161.37 165.296 161.584 165.568 161.802 165.836C162.02 166.104 162.221 166.345 162.433 166.599C163 167.278 163.59 167.936 164.192 168.587C164.31 168.713 164.427 168.842 164.55 168.968C165.889 170.393 167.297 171.75 168.725 173.019C168.905 173.178 169.089 173.336 169.269 173.499C169.311 173.533 169.349 173.567 169.386 173.601C169.642 173.827 169.897 174.044 170.154 174.252C170.535 174.573 170.916 174.887 171.297 175.19C174.242 177.634 177.47 179.716 180.912 181.393C199.254 189.643 210.273 177.76 212.476 167.576C207.777 175.25 197.939 181.018 183.668 174.598L183.595 174.564C181.198 173.458 179.324 171.467 178.368 169.012C177.412 166.556 177.447 163.826 178.468 161.396C180.62 156.122 182.367 150.692 183.694 145.154C180.234 138.897 178.987 128.727 181.302 113.462L178.425 111.707L157.476 141.832L156.076 143.842C155.149 145.668 154.676 147.688 154.696 149.734Z" fill="#371A45"/>
</g>
</g>
<path d="M192.643 185.812C188.351 185.734 184.125 184.746 180.246 182.914C172.16 179.277 158.228 167.646 154.193 156.137C153.341 154.052 152.939 151.812 153.01 149.561C153.082 147.311 153.626 145.101 154.608 143.074C154.708 142.879 154.846 142.705 155.014 142.563C155.182 142.421 155.376 142.313 155.586 142.246C155.795 142.179 156.016 142.153 156.235 142.171C156.455 142.189 156.669 142.25 156.864 142.35C157.06 142.451 157.234 142.588 157.377 142.756C157.519 142.923 157.627 143.117 157.695 143.326C157.762 143.535 157.787 143.755 157.769 143.974C157.751 144.192 157.691 144.405 157.59 144.601C156.824 146.226 156.408 147.994 156.367 149.789C156.327 151.585 156.663 153.369 157.355 155.027C160.945 165.266 173.909 176.393 181.624 179.864C192.568 184.784 199.761 181.888 203.868 178.587C209.616 173.964 212.012 166.335 211.013 161.622C210.833 160.208 210.336 158.852 209.559 157.657C208.782 156.461 207.744 155.455 206.523 154.714C202.284 152.491 196.59 154.797 196.534 154.82L196.141 154.99L195.714 154.948C193.324 154.755 191.005 154.045 188.918 152.866C186.832 151.688 185.029 150.07 183.635 148.124C177.726 140.064 176.881 125.608 181.125 105.159C181.216 104.725 181.475 104.345 181.847 104.101C182.218 103.858 182.671 103.772 183.106 103.862C183.542 103.952 183.923 104.211 184.167 104.581C184.411 104.952 184.497 105.404 184.407 105.838C180.419 125.05 181.088 138.99 186.34 146.155C187.423 147.665 188.814 148.929 190.422 149.865C192.03 150.8 193.818 151.386 195.669 151.583C197.301 150.993 203.155 149.195 208.06 151.753C209.729 152.711 211.158 154.035 212.237 155.626C213.316 157.216 214.018 159.031 214.288 160.933C215.487 166.548 212.983 175.555 205.976 181.189C202.207 184.231 197.491 185.866 192.643 185.812Z" fill="#371A45"/>
<path d="M98.0779 197.102C104.613 200.035 111.669 201.638 118.834 201.819C125.998 202 133.126 200.754 139.802 198.154C166.733 188.114 177.127 159.876 181.142 139.577C182.639 132.208 183.482 124.721 183.664 117.204L123.684 80.6412C121.296 89.4797 117.018 97.698 111.144 104.731C101.698 115.759 90.3236 120.431 81.6998 130.388C78.3905 134.212 75.7455 138.561 73.8741 143.255C73.7941 143.447 73.7158 143.644 73.6393 143.841C72.9743 145.532 72.4258 147.266 71.9975 149.032C67.1387 168.99 79.1054 188.418 98.0779 197.102Z" fill="white"/>
<g opacity="0.35">
<g opacity="0.35">
<path opacity="0.35" d="M139.801 198.154C159.16 190.937 169.973 174.318 176.014 158.005C169.647 172.364 159.214 186.075 142.118 192.444C101.96 207.417 64.1647 173.899 75.1549 140.341C74.6184 141.447 74.1115 142.61 73.634 143.829C60.1855 178.11 98.76 213.456 139.801 198.154Z" fill="#371A45"/>
</g>
</g>
<path d="M119.878 203.488C115.796 203.491 111.726 203.036 107.746 202.131C98.0372 199.959 89.1545 195.063 82.147 188.019C69.7566 175.475 65.985 158.729 72.0755 143.232C77.3494 129.814 85.7469 123.573 94.6462 116.965C105.068 109.227 115.846 101.225 122.067 80.1798L122.685 78.0897L185.332 116.274V117.211C185.032 129.013 183.165 140.722 179.779 152.035C172.45 176.359 158.828 192.851 140.386 199.728C133.831 202.194 126.884 203.468 119.878 203.488ZM124.641 83.1911C118.027 103.761 107.164 111.828 96.6469 119.637C88.1405 125.95 80.1122 131.914 75.1956 144.441C69.6086 158.683 73.0979 174.096 84.5339 185.666C95.4577 196.726 115.56 205.401 139.213 196.581C161.2 188.382 171.651 167.342 176.547 151.136C179.722 140.398 181.542 129.307 181.964 118.12L124.641 83.1911Z" fill="#371A45"/>
<g opacity="0.35">
<g opacity="0.35">
<path opacity="0.35" d="M111.137 104.725C123.342 130.198 153.058 145.675 181.135 139.577C182.632 132.208 183.475 124.721 183.657 117.204L123.677 80.6412C121.288 89.4773 117.01 97.6932 111.137 104.725Z" fill="#371A45"/>
</g>
</g>
<g opacity="0.35">
<g opacity="0.35">
<path opacity="0.35" d="M123.063 105.162C131.909 104.523 138.144 93.6415 136.358 81.4962C131.023 94.3506 117.203 73.5397 116.152 67.5239C93.5286 73.6466 106.848 106.682 123.063 105.162Z" fill="#371A45"/>
</g>
</g>
<g opacity="0.7">
<g opacity="0.7">
<path opacity="0.7" d="M141.989 70.2298C145.542 82.0526 159.08 78.2355 157.736 67.4984C155.276 54.052 139.247 58.2949 141.989 70.2298Z" fill="white"/>
</g>
</g>
<path d="M236.326 101.213C188.553 176.178 81.8089 113.75 119.757 37.0363C166.828 -40.8668 277.107 23.7697 236.326 101.213Z" fill="white"/>
<path d="M236.326 101.213C188.553 176.178 81.8089 113.75 119.757 37.0363C166.828 -40.8668 277.107 23.7697 236.326 101.213Z" fill="white"/>
<path d="M236.326 101.213C188.553 176.178 81.8089 113.75 119.757 37.0363C166.828 -40.8668 277.107 23.7697 236.326 101.213Z" fill="white"/>
<path d="M179.334 136.283C165.096 136.14 151.236 131.692 139.586 123.528C127.937 115.363 119.045 103.866 114.087 90.5555C108.025 73.3988 109.587 54.6983 118.602 36.4729L118.653 36.3796C129.711 18.0812 145.084 6.23117 163.106 2.11039C179.551 -1.47452 196.746 1.19806 211.318 9.60379C226.154 17.7497 237.462 31.0593 243.082 46.9912C249.071 64.4804 247.121 83.4336 237.446 101.803L237.393 101.895C226.156 119.526 210.824 130.905 193.055 134.807C188.548 135.793 183.948 136.287 179.334 136.283ZM120.872 37.6469C101.508 76.8545 120.737 110.443 146.811 125.06C173.499 140.024 211.178 138.252 235.215 100.575C256.037 60.9924 236.781 26.8249 210.071 11.8211C183.621 -3.03508 144.432 -1.2911 120.872 37.6469Z" fill="#371A45"/>
<g opacity="0.35">
<g opacity="0.35">
<path opacity="0.35" d="M236.326 101.209C196.193 166.676 100.533 128.523 113.058 55.8452C116.777 79.6063 124.939 80.7837 137.088 93.1884C174.301 133.791 235.363 106.511 244.366 58.9718C246.457 73.5506 243.629 88.4088 236.326 101.209Z" fill="#293856"/>
</g>
</g>
<path d="M179.334 136.795C164.989 136.652 151.026 132.171 139.289 123.945C127.553 115.719 118.596 104.136 113.602 90.7252C107.494 73.4362 109.063 54.5898 118.141 36.2473L118.214 36.115C129.345 17.6944 144.83 5.763 162.991 1.60998C179.561 -2.00156 196.887 0.690279 211.569 9.15765C226.515 17.3635 237.906 30.7708 243.568 46.8199C249.603 64.4447 247.643 83.5388 237.9 102.036L237.827 102.163C226.515 119.913 211.071 131.37 193.165 135.297C188.623 136.294 183.985 136.796 179.334 136.795ZM121.321 37.8895C102.115 76.7935 121.193 110.109 147.059 124.611C173.531 139.452 210.909 137.691 234.768 100.314C255.411 61.0433 236.311 27.1473 209.815 12.2656C183.587 -2.47013 144.708 -0.73119 121.321 37.8929V37.8895Z" fill="#371A45"/>
<path d="M226.068 114.81C159.836 156.274 100.514 79.5028 150.326 32.6575C209.315 -16.4374 279.047 55.6348 226.068 114.81Z" fill="#371A45"/>
<path d="M242.791 68.1499C245.034 138.599 144.152 147.244 131.501 83.1724C164.921 120.207 224.794 102.763 242.791 68.1499Z" fill="#21102B"/>
<path d="M185.118 134.627C176.392 134.595 167.778 132.661 159.88 128.961C146.442 122.761 135.601 112.071 129.233 98.741C125.814 91.4175 123.876 83.4934 123.531 75.4222C123.186 67.351 124.44 59.2912 127.223 51.704C133.442 35.0546 147.16 21.3079 164.872 13.9502C182.645 6.56876 202.204 6.55856 218.535 13.9247L218.756 14.0486C225.679 18.8214 231.58 24.9204 236.115 31.9902C240.651 39.06 243.73 46.9593 245.173 55.2276C248.34 71.2114 245.657 87.7976 237.611 101.978V101.986C228.211 117.606 215.408 128.141 200.583 132.452C195.557 133.904 190.35 134.637 185.118 134.627ZM192.264 11.3851C183.246 11.414 174.323 13.2204 166.008 16.7002C149.06 23.7407 135.945 36.863 130.026 52.7032C118.505 86.1445 136.949 115.024 161.129 126.25C182.174 136.02 214.152 135.124 235.025 100.446C249.671 75.6772 245.981 36.1064 217.172 16.5865C209.331 13.1171 200.842 11.3443 192.264 11.3851Z" fill="#371A45"/>
<path d="M187.868 128.47C184.438 128.472 181.014 128.18 177.634 127.597C163.366 125.137 150.54 117.433 141.69 106.004C133.576 95.6956 129.461 82.8152 130.101 69.726C130.901 55.5619 137.471 42.2936 149.097 31.3597L149.179 31.2868C163.145 19.6658 178.706 13.913 194.184 14.6611C208.127 15.3404 221.282 21.3116 230.952 31.3512C240.952 41.6327 246.582 55.3692 246.667 69.692C246.796 85.7697 240.134 101.785 227.401 116.006L227.231 116.195L227.017 116.329C214.193 124.351 200.836 128.47 187.868 128.47ZM151.513 33.9927C127.103 56.9853 130.417 85.6255 144.521 103.82C160.065 123.859 190.928 134.576 224.901 113.433C251.429 83.6355 245.316 51.2986 228.38 33.8315C211.342 16.266 180.972 9.51056 151.513 33.9927Z" fill="#371A45"/>
<path d="M103.355 84.0969C108.459 114.999 139.953 112.493 138.061 82.5022C133.893 49.9176 100.235 52.593 103.355 84.0969Z" fill="white"/>
<path d="M122.527 107.943C114.021 107.943 104.31 100.84 101.589 84.3888L101.576 84.2734C99.8933 67.3085 108.442 58.5291 117.096 57.5519C119.741 57.3272 122.402 57.7017 124.881 58.6474C127.36 59.5931 129.592 61.0855 131.411 63.013C135.88 67.4748 138.793 74.1352 139.832 82.2766L139.844 82.3886C140.865 98.636 132.736 106.883 124.218 107.848C123.656 107.911 123.092 107.943 122.527 107.943ZM105.131 83.8646C107.666 99.0736 116.593 105.123 123.813 104.302C130.639 103.529 137.132 96.5408 136.275 82.6702C134.296 67.3424 125.336 60.2154 117.5 61.0993C110.543 61.8831 103.713 69.3426 105.131 83.8646Z" fill="#371A45"/>
<path d="M102.164 85.8461C106.332 110.883 129.953 109.404 128.423 85.1454C125.137 58.429 99.4679 60.0746 102.164 85.8461Z" fill="white"/>
<path d="M117.04 105.773C110.38 105.773 102.68 99.8353 100.4 86.1378L100.385 86.031C98.922 72.0383 105.489 64.8485 112.204 64.0868C119.764 63.2385 128.378 70.1144 130.2 84.9282L130.21 85.0334C131.045 98.2796 124.822 104.959 118.286 105.704C117.872 105.75 117.456 105.773 117.04 105.773ZM103.941 85.6068C105.994 97.8335 112.598 102.76 117.881 102.158C122.728 101.605 127.313 96.1828 126.642 85.3099C125.091 72.8373 118.408 66.9725 112.609 67.6342C107.593 68.2008 102.748 74.0673 103.939 85.6068H103.941Z" fill="#371A45"/>
<g opacity="0.6">
<g opacity="0.6">
<path opacity="0.6" d="M151.935 88.6961C153.665 93.4462 160.025 91.7803 158.623 86.4499C156.893 81.7031 150.533 83.364 151.935 88.6961Z" fill="white"/>
</g>
</g>
<g opacity="0.6">
<g opacity="0.6">
<path opacity="0.6" d="M233.094 72.7813C240.535 26.5569 192.498 20.9653 178.034 30.8779C208.807 32.7339 222.584 51.5582 233.094 72.7813Z" fill="white"/>
</g>
</g>
<g opacity="0.35">
<g opacity="0.35">
<path opacity="0.35" d="M129.742 90.8202C130.129 87.2351 129.647 83.6096 128.335 80.2493C124.001 97.2533 106.821 89.9193 102.743 77.786C99.1909 102.908 124.87 114.403 129.742 90.8202Z" fill="#371A45"/>
</g>
</g>
<path d="M196.697 154.749C196.591 154.817 196.357 154.982 196.187 155.119C196.016 155.256 195.807 155.419 195.622 155.585C195.436 155.752 195.251 155.915 195.074 156.094C194.897 156.274 194.72 156.447 194.55 156.632C193.858 157.371 193.247 158.181 192.726 159.048C192.44 159.467 192.24 159.94 191.995 160.387C191.775 160.848 191.578 161.323 191.384 161.8C191.233 162.292 191.044 162.774 190.916 163.277C190.788 163.781 190.642 164.283 190.56 164.804C190.479 165.325 190.38 165.842 190.326 166.368C190.271 166.894 190.253 167.429 190.205 167.961C190.158 168.95 190.277 169.94 190.557 170.89C191.248 172.879 192.424 174.666 193.978 176.091L193.992 176.105C194.018 176.131 194.033 176.167 194.033 176.205C194.033 176.242 194.018 176.278 193.992 176.305C193.976 176.322 193.956 176.334 193.933 176.341C193.911 176.349 193.887 176.35 193.864 176.346C192.637 176.082 191.494 175.521 190.536 174.711C189.579 173.901 188.837 172.868 188.376 171.704C187.885 170.522 187.597 169.266 187.525 167.989C187.512 167.39 187.505 166.789 187.502 166.189C187.498 165.588 187.587 164.982 187.628 164.378C187.871 161.916 188.624 159.53 189.839 157.372C190.448 156.273 191.186 155.252 192.039 154.328C192.25 154.094 192.466 153.865 192.701 153.65C192.935 153.434 193.162 153.214 193.41 153.01C193.658 152.807 193.909 152.606 194.171 152.413C194.459 152.205 194.757 152.012 195.065 151.835C195.442 151.626 195.885 151.57 196.302 151.679C196.719 151.787 197.078 152.052 197.304 152.418C197.53 152.784 197.606 153.223 197.515 153.643C197.425 154.064 197.176 154.433 196.819 154.674L196.697 154.749Z" fill="#371A45"/>
<path d="M200.259 152.208C197.774 152.909 195.476 154.152 193.531 155.847C191.587 157.542 190.044 159.647 189.016 162.01C188.048 161.895 187.147 161.456 186.461 160.765C185.775 160.075 185.344 159.173 185.237 158.207C184.964 155.643 185.722 153.077 187.346 151.071C188.969 149.065 191.325 147.784 193.895 147.509C198.441 147.185 200.259 152.208 200.259 152.208Z" fill="white"/>
<g opacity="0.35">
<g opacity="0.35">
<path opacity="0.35" d="M185.237 158.205C185.343 159.172 185.773 160.074 186.459 160.765C187.145 161.456 188.046 161.895 189.014 162.01C190.043 159.647 191.585 157.542 193.53 155.847C195.475 154.151 197.774 152.909 200.259 152.208C199.94 151.406 199.507 150.654 198.975 149.974C195.321 150.717 192.003 152.612 189.512 155.38C189.252 155.693 188.916 155.933 188.536 156.079C188.156 156.225 187.745 156.271 187.342 156.214C186.939 156.156 186.557 155.996 186.234 155.75C185.91 155.503 185.656 155.178 185.494 154.805L185.47 154.747C185.145 155.87 185.065 157.049 185.237 158.205Z" fill="#371A45"/>
</g>
</g>
<path d="M190.101 163.719L188.91 163.637C187.577 163.495 186.33 162.908 185.373 161.971C184.416 161.035 183.804 159.803 183.636 158.476C183.453 156.982 183.574 155.465 183.993 154.018C184.411 152.571 185.118 151.223 186.071 150.055C186.99 148.857 188.153 147.866 189.483 147.147C190.813 146.428 192.281 145.997 193.789 145.883C199.506 145.483 201.716 151.402 201.807 151.651L202.425 153.348L200.662 153.779C198.433 154.424 196.373 155.548 194.625 157.072C192.878 158.596 191.487 160.483 190.548 162.601L190.101 163.719ZM194.3 149.129C194.206 149.129 194.109 149.129 194.012 149.141C192.958 149.224 191.934 149.529 191.006 150.035C190.078 150.541 189.268 151.237 188.629 152.077C187.96 152.889 187.458 153.826 187.152 154.832C186.847 155.839 186.744 156.896 186.85 157.942C186.895 158.361 187.031 158.765 187.249 159.126C187.467 159.487 187.762 159.795 188.112 160.03C190.217 156.031 193.702 152.926 197.923 151.288C197.545 150.659 197.017 150.132 196.386 149.755C195.754 149.377 195.04 149.161 194.305 149.124L194.3 149.129Z" fill="#371A45"/>
<path d="M95.1211 122.792L126.047 131.784C136.85 118.427 149.9 87.8665 149.9 87.8665C152.561 87.6665 155.165 87.0003 157.593 85.8986C161.21 84.3332 164.228 81.6535 166.205 78.2525C166.973 76.9084 167.576 75.4762 167.998 73.9875C172.525 58.3136 154.104 46.657 138.495 51.2545C113.947 58.4731 116.431 93.9027 95.1211 122.792Z" fill="white"/>
<g opacity="0.35">
<g opacity="0.35">
<path opacity="0.35" d="M141.314 83.1469C145.832 85.2234 152.313 85.8155 157.585 85.8986C161.201 84.3333 164.219 81.6536 166.197 78.2526C157.559 78.6784 135.676 78.5698 132.945 66.8538C132.945 66.8605 127.576 76.841 141.314 83.1469Z" fill="#371A45"/>
</g>
</g>
<path d="M94.6634 122.463C95.3031 120.936 96.0873 119.544 96.7934 118.098C97.5351 116.676 98.2513 115.251 99.005 113.857C100.49 111.039 101.906 108.191 103.289 105.317C104.672 102.443 105.985 99.5197 107.181 96.5424C108.405 93.5752 109.507 90.5504 110.62 87.5187C112.85 81.4589 114.971 75.304 117.801 69.3255C119.207 66.2945 120.888 63.3984 122.824 60.6734C124.809 57.8764 127.256 55.4364 130.062 53.4582L131.137 52.7355C131.489 52.4844 131.885 52.3029 132.258 52.084L133.393 51.4581C133.784 51.2748 134.182 51.1052 134.584 50.9287C134.985 50.7523 135.371 50.5708 135.775 50.4198L136.996 50.0025C137.404 49.8701 137.804 49.7124 138.223 49.6021L139.48 49.2746C142.856 48.5054 146.348 48.3771 149.772 48.8963C153.194 49.398 156.493 50.5277 159.502 52.2282C162.571 53.9335 165.207 56.317 167.209 59.1958C168.214 60.6665 169.003 62.2737 169.55 63.968C170.091 65.6771 170.362 67.4602 170.351 69.2526C170.335 71.0273 170.078 72.7918 169.589 74.4982C169.104 76.1891 168.408 77.8124 167.517 79.3298C165.693 82.3796 163.083 84.8859 159.958 86.5874C158.43 87.4252 156.816 88.0969 155.143 88.591C154.311 88.8375 153.468 89.0416 152.615 89.2034C152.188 89.2848 151.765 89.356 151.324 89.4137C150.883 89.4714 150.473 89.5172 149.953 89.5444L151.435 88.5265C149.762 92.3962 148.019 96.1895 146.222 99.9812C144.425 103.773 142.571 107.529 140.625 111.251C139.67 113.117 138.648 114.956 137.654 116.809C136.634 118.646 135.669 120.521 134.592 122.341C134.332 122.801 134.058 123.252 133.787 123.698C133.517 124.144 133.206 124.584 132.913 125.025C132.62 125.466 132.314 125.899 132.011 126.333L131.554 126.983L131.06 127.61C130.38 128.44 129.699 129.258 128.947 130.021C128.172 130.78 127.346 131.485 126.474 132.131C126.371 132.204 126.248 132.242 126.123 132.239C125.997 132.236 125.876 132.192 125.777 132.115C125.678 132.037 125.608 131.929 125.576 131.808C125.544 131.687 125.552 131.559 125.599 131.443V131.433C127.288 127.645 129.264 123.991 131.509 120.502C132.038 119.615 132.614 118.758 133.136 117.864C133.658 116.97 134.191 116.083 134.703 115.183C135.698 113.367 136.693 111.55 137.641 109.702C139.565 106.026 141.402 102.3 143.183 98.546C144.965 94.7916 146.702 91.0034 148.342 87.21L148.755 86.2515L149.824 86.1955C150.106 86.1802 150.514 86.1395 150.871 86.0903C151.229 86.0411 151.61 85.9817 151.981 85.9105C152.719 85.7697 153.454 85.5915 154.177 85.3778C155.617 84.9533 157.007 84.3761 158.323 83.6559C160.925 82.2433 163.099 80.1598 164.618 77.6231C165.367 76.3442 165.952 74.9762 166.358 73.5515C166.76 72.1456 166.971 70.6924 166.986 69.2305C166.996 67.7823 166.778 66.3415 166.341 64.9604C165.891 63.5746 165.244 62.2605 164.419 61.0585C162.705 58.6036 160.451 56.5725 157.828 55.1208C155.179 53.6245 152.274 52.6311 149.262 52.191C146.256 51.7338 143.191 51.8449 140.227 52.5184L139.131 52.8034C138.765 52.8984 138.41 53.0426 138.049 53.1596L136.969 53.5261C136.615 53.6618 136.275 53.8298 135.928 53.979L134.89 54.4405L133.898 54.9902C133.573 55.1819 133.218 55.3294 132.916 55.5568L131.977 56.1912C129.475 57.9577 127.294 60.1381 125.529 62.638C123.716 65.1945 122.141 67.9112 120.824 70.754C118.102 76.4831 115.999 82.5802 113.764 88.6588C111.528 94.7373 109.269 100.874 106.555 106.842C105.16 109.818 103.586 112.707 101.841 115.494C100.95 116.882 99.9805 118.218 98.937 119.496C97.9041 120.789 96.7722 122 95.5515 123.118C95.4569 123.207 95.3345 123.26 95.205 123.27C95.0754 123.28 94.9464 123.244 94.8398 123.17C94.7331 123.096 94.6551 122.988 94.619 122.864C94.5829 122.739 94.5908 122.606 94.6413 122.487L94.6634 122.463Z" fill="#371A45"/>
<path d="M133.185 63.0995C133.742 64.0104 134.188 64.9842 134.514 66.0005C134.879 66.92 135.213 67.8666 135.679 68.8149C136.175 69.7636 136.785 70.6489 137.494 71.4513C137.567 71.5463 137.646 71.6369 137.729 71.7227C137.797 71.7984 137.871 71.8693 137.949 71.9348C138.029 72.0112 138.114 72.0832 138.202 72.1503C138.289 72.2215 138.384 72.2927 138.485 72.3606C138.9 72.6516 139.335 72.9124 139.788 73.141C141.777 74.0977 143.878 74.801 146.043 75.2345C148.241 75.7078 150.478 75.9748 152.726 76.0318C154.929 76.1111 157.133 75.8972 159.279 75.3956C161.271 74.9893 163.099 74.0062 164.534 72.5693C165.156 71.8762 165.616 71.0539 165.88 70.162C166.138 69.2149 166.234 68.2313 166.164 67.2525C166.13 66.7345 166.065 66.219 165.97 65.7087C165.85 65.1883 165.69 64.6778 165.492 64.1818C165.304 63.6668 165.183 63.1296 165.133 62.5837C165.085 61.9079 165.209 61.2308 165.494 60.6158L165.507 60.5853C165.591 60.4011 165.742 60.2555 165.929 60.178C166.117 60.1005 166.326 60.097 166.516 60.1679C167.199 60.4095 167.785 60.864 168.189 61.464C168.545 61.9931 168.797 62.585 168.932 63.208C169.075 63.829 169.145 64.4702 169.272 65.103C169.389 65.7467 169.469 66.3964 169.514 67.0489C169.608 68.4153 169.468 69.7877 169.099 71.1069C168.694 72.4731 167.99 73.7327 167.039 74.7951C166.109 75.8147 165.001 76.6564 163.769 77.2788C162.604 77.8724 161.374 78.3279 160.102 78.636C157.663 79.2128 155.158 79.4604 152.653 79.3722C150.192 79.3109 147.743 79.0195 145.337 78.5019C142.884 78.0077 140.504 77.2045 138.255 76.1116C137.658 75.8094 137.085 75.4647 136.538 75.0801C136.395 74.9834 136.254 74.8782 136.115 74.7629C135.975 74.6475 135.834 74.5389 135.696 74.41C135.423 74.1663 135.17 73.9008 134.941 73.616C134.121 72.6339 133.363 71.6021 132.671 70.5267C131.92 69.419 131.4 68.1724 131.14 66.8606C130.964 66.1537 130.96 65.4148 131.129 64.7062C131.299 63.9976 131.637 63.3401 132.115 62.789C132.168 62.7318 132.232 62.6857 132.303 62.6532C132.374 62.6208 132.451 62.6026 132.529 62.5998C132.607 62.5969 132.685 62.6095 132.758 62.6367C132.831 62.6639 132.898 62.7053 132.955 62.7584C132.994 62.7945 133.027 62.8349 133.056 62.8789L133.185 63.0995Z" fill="#371A45"/>
<path d="M168.645 70.3435C168.645 70.3435 155.79 69.2882 153.726 73.1885C151.231 77.9065 155.428 80.3375 159.524 81.1875C163.495 82.012 166.406 82.4649 168.408 79.3875C171.141 75.1887 168.645 70.3435 168.645 70.3435Z" fill="white"/>
<g opacity="0.35">
<g opacity="0.35">
<path opacity="0.35" d="M159.524 81.1892C163.495 82.012 166.406 82.4633 168.408 79.3892C169.016 78.3997 169.419 77.2992 169.594 76.1523C169.769 75.0054 169.713 73.8351 169.429 72.7101C169.227 73.554 168.882 74.3572 168.408 75.0852C166.406 78.1593 163.495 77.708 159.524 76.8852C157.174 76.586 155.031 75.3913 153.544 73.5515C151.453 78.0354 155.533 80.3579 159.524 81.1892Z" fill="#371A45"/>
</g>
</g>
<path d="M163.825 83.4251C162.263 83.367 160.711 83.1521 159.193 82.7838C157.057 82.3411 153.269 81.1535 151.858 78.1694C151.458 77.2497 151.288 76.247 151.361 75.2472C151.435 74.2473 151.75 73.2802 152.28 72.4284C154.723 67.8106 166.452 68.5265 168.782 68.7199L169.688 68.7945L170.103 69.6004C170.222 69.8311 172.995 75.3396 169.781 80.2747C169.167 81.2879 168.289 82.116 167.24 82.6708C166.191 83.2256 165.011 83.4863 163.825 83.4251ZM164.972 71.8279C160.329 71.8279 155.914 72.5472 155.172 73.9485C154.891 74.3583 154.712 74.8291 154.65 75.3219C154.587 75.8147 154.644 76.3152 154.815 76.7817C155.395 78.0065 157.28 79.0583 159.858 79.5927C164.204 80.4936 165.761 80.4613 167.037 78.5019C167.605 77.5063 167.943 76.3969 168.026 75.2546C168.109 74.1123 167.935 72.9659 167.517 71.8991C166.675 71.8516 165.819 71.8279 164.972 71.8279Z" fill="#371A45"/>
<path d="M75.3423 144.151C75.3423 144.151 63.8809 161.393 55.3116 169.923C49.2823 175.708 42.0606 180.113 34.1496 182.831C25.1074 185.634 23.896 212.46 32.0332 220.755C38.0319 226.862 53.1459 228.983 54.5478 208.508C54.5478 208.508 89.6602 208.847 99.9818 194.956C101.25 193.554 102.023 191.777 102.185 189.896C102.347 188.015 101.888 186.133 100.878 184.536L75.3423 144.151Z" fill="white"/>
<g opacity="0.35">
<g opacity="0.35">
<path opacity="0.35" d="M27.8564 212.496C28.5298 215.556 29.9657 218.398 32.0314 220.758C38.0301 226.866 53.1458 228.981 54.5493 208.508C54.5493 208.508 89.6583 208.847 99.9833 194.954C101.422 193.363 102.217 191.296 102.215 189.154V189.105C102.202 188.554 102.03 188.019 101.72 187.563C101.409 187.107 100.973 186.751 100.464 186.536C99.9557 186.321 99.3956 186.257 98.8513 186.351C98.307 186.446 97.8015 186.695 97.3957 187.069C97.1507 187.293 96.9194 187.52 96.7152 187.748C77.035 209.655 42.2151 199.23 42.2151 199.23C53.942 219.342 32.8225 222.239 28.7752 213.551C28.5727 213.141 28.1406 212.876 27.8564 212.496Z" fill="#371A45"/>
</g>
</g>
<path d="M42.1012 226.648C37.8764 226.577 33.8419 224.884 30.8355 221.924C24.9611 215.935 23.6494 201.522 26.1094 191.816C27.5929 185.965 30.1924 182.305 33.6527 181.237C41.3057 178.601 48.2921 174.337 54.1275 168.74C62.4314 160.475 72.0469 143.395 72.1422 143.223C72.359 142.836 72.7211 142.551 73.1488 142.43C73.5765 142.31 74.0347 142.363 74.4228 142.579C74.8108 142.796 75.0968 143.157 75.2179 143.583C75.3389 144.01 75.2852 144.467 75.0684 144.854C74.6669 145.569 65.1296 162.509 56.494 171.105C50.266 177.073 42.8113 181.619 34.6463 184.428C32.4347 185.106 30.5055 188.104 29.3571 192.635C27.1659 201.287 28.2172 214.478 33.2308 219.588C34.7642 221.166 36.7017 222.295 38.8332 222.853C40.9646 223.411 43.2086 223.377 45.3217 222.753C49.7314 221.133 52.3446 216.167 52.8754 208.394L52.9826 206.823L54.563 206.837C54.9033 206.847 88.9422 207.006 98.636 193.962L98.7738 193.792C99.5841 192.871 100.143 191.758 100.397 190.559C100.481 190.13 100.729 189.751 101.09 189.503C101.45 189.255 101.894 189.157 102.326 189.231C102.758 189.305 103.143 189.545 103.4 189.899C103.656 190.253 103.764 190.693 103.699 191.125C103.346 192.945 102.507 194.635 101.271 196.018C91.6591 208.806 63.163 210.052 56.084 210.162C54.9748 220.597 50.2997 224.477 46.4803 225.88C45.0779 226.393 43.5951 226.653 42.1012 226.648Z" fill="#371A45"/>
<path d="M144.458 101.048C144.418 101.048 144.381 101.048 144.342 101.048C143.136 100.94 114.772 98.2457 112.026 85.4643C111.992 85.3034 111.989 85.1374 112.019 84.9756C112.049 84.8138 112.111 84.6595 112.2 84.5214C112.29 84.3833 112.406 84.2642 112.542 84.1708C112.678 84.0775 112.831 84.0117 112.992 83.9773C113.153 83.9429 113.32 83.9405 113.482 83.9703C113.644 84 113.799 84.0613 113.937 84.1507C114.076 84.2401 114.195 84.3559 114.289 84.4913C114.383 84.6267 114.448 84.7792 114.483 84.9401C116.441 94.057 136.865 97.8572 144.568 98.5511C144.887 98.5839 145.181 98.737 145.391 98.9791C145.6 99.2212 145.709 99.534 145.695 99.8534C145.681 100.173 145.545 100.475 145.315 100.697C145.085 100.92 144.778 101.047 144.458 101.052V101.048Z" fill="#371A45"/>
<path d="M65.7757 209.178C65.7113 209.178 65.6471 209.173 65.5835 209.163C61.5943 208.343 57.8765 206.534 54.7736 203.903C49.9369 199.888 44.2172 192.028 44.4435 177.348C44.4437 177.183 44.4771 177.019 44.5417 176.867C44.6064 176.715 44.7011 176.577 44.82 176.462C44.939 176.347 45.0799 176.257 45.2344 176.198C45.3889 176.138 45.5538 176.11 45.7195 176.115C45.8845 176.117 46.0475 176.152 46.199 176.217C46.3505 176.283 46.4876 176.377 46.6025 176.495C46.7174 176.613 46.8077 176.753 46.8684 176.906C46.9291 177.059 46.959 177.223 46.9563 177.387C46.7861 188.313 49.9267 196.558 56.2844 201.895C59.0651 204.266 62.3913 205.914 65.9662 206.691C66.2784 206.74 66.5607 206.904 66.7567 207.151C66.9528 207.399 67.0484 207.71 67.0243 208.024C67.0003 208.339 66.8584 208.632 66.6271 208.847C66.3957 209.062 66.0917 209.182 65.7757 209.183V209.178Z" fill="#371A45"/>
<path d="M54.5866 209.904C54.1862 209.94 53.7836 209.948 53.3821 209.926C53.0053 209.906 52.6299 209.865 52.2576 209.804C51.8833 209.751 51.5192 209.661 51.1535 209.576C50.7877 209.492 50.4304 209.371 50.0782 209.237C47.2543 208.194 44.9087 206.16 43.4807 203.517C43.1398 202.887 42.8551 202.229 42.6301 201.55C42.5122 201.218 42.4195 200.878 42.3528 200.532C42.2711 200.193 42.2031 199.854 42.1334 199.515C42.1236 199.469 42.13 199.422 42.1514 199.381C42.1728 199.339 42.208 199.307 42.2508 199.289C42.2936 199.27 42.3414 199.267 42.3861 199.281C42.4308 199.294 42.4696 199.322 42.4957 199.36L42.511 199.382C42.904 199.949 43.2255 200.531 43.6151 201.063C43.9939 201.59 44.4065 202.093 44.8502 202.567C45.6831 203.496 46.6532 204.292 47.7271 204.93C48.768 205.549 49.884 206.033 51.048 206.37C51.3389 206.45 51.6298 206.528 51.9191 206.614C52.2151 206.67 52.5059 206.754 52.8002 206.813C53.0945 206.872 53.3906 206.935 53.6849 206.983L54.51 207.118L54.692 207.149C55.0278 207.204 55.3319 207.379 55.5472 207.642C55.7626 207.904 55.8744 208.236 55.8616 208.575C55.8489 208.914 55.7125 209.237 55.4781 209.483C55.2436 209.729 54.9272 209.881 54.5883 209.911L54.5866 209.904Z" fill="#371A45"/>
<path d="M176.768 161.93L174.521 158.734C173.429 157.178 171.885 155.994 170.097 155.341L140.169 144.472C139.674 144.302 138.316 150.669 138.143 151.163L141.144 158.982L176.768 161.93Z" fill="white"/>
<path d="M175.918 163.023C175.872 163.023 175.828 163.023 175.782 163.023L140.307 160.09L136.892 151.19L137.032 150.788C137.063 150.689 137.19 150.157 137.304 149.688C138.578 144.375 138.896 143.815 139.545 143.464C139.698 143.381 139.867 143.331 140.042 143.318C140.216 143.304 140.391 143.327 140.555 143.386L170.487 154.25C172.504 154.981 174.245 156.313 175.475 158.066L177.209 160.532C177.376 160.769 177.474 161.047 177.494 161.335C177.513 161.624 177.453 161.912 177.32 162.169C177.187 162.425 176.985 162.641 176.738 162.791C176.49 162.942 176.206 163.022 175.916 163.023H175.918ZM141.955 157.884L174.376 160.566L173.558 159.403C172.603 158.04 171.25 157.005 169.683 156.439L140.7 145.921C140.322 147.088 139.796 149.28 139.567 150.231C139.471 150.632 139.397 150.91 139.354 151.11L141.955 157.884Z" fill="#371A45"/>
<path d="M118.571 182.463C123.408 186 131.081 191.546 131.258 191.266L137.938 179.391L152.74 153.095C148.755 149.932 144.554 147.05 140.167 144.47C138.236 143.379 136.096 145.997 134.83 147.999L125.473 162.713L117.464 175.306C116.705 176.417 116.397 177.774 116.603 179.102C116.808 180.431 117.512 181.632 118.571 182.463Z" fill="white"/>
<g opacity="0.35">
<g opacity="0.35">
<path opacity="0.35" d="M118.571 182.463C123.408 186 131.081 191.546 131.258 191.266L137.939 179.391L141.681 164.109C141.681 164.109 134.116 169.198 128.161 165.127C127.158 164.448 126.254 163.633 125.477 162.704L117.467 175.297C116.706 176.408 116.396 177.767 116.601 179.097C116.806 180.428 117.51 181.631 118.571 182.463Z" fill="#371A45"/>
</g>
</g>
<path d="M131.239 192.445C130.579 192.445 129.078 191.597 117.882 183.401C116.586 182.395 115.721 180.936 115.46 179.319C115.2 177.703 115.563 176.047 116.477 174.686L133.838 147.383C137.003 142.372 139.519 142.775 140.735 143.462C143.575 145.064 147.37 147.692 148.884 148.749C150.123 149.617 151.288 150.459 152.163 151.124C153.619 152.22 154.282 152.72 153.76 153.669L132.249 191.887L131.979 192.318L131.468 192.423C131.393 192.438 131.316 192.445 131.239 192.445ZM139.218 145.39C138.375 145.39 137.098 146.586 135.815 148.613L118.45 175.927C117.853 176.788 117.606 177.844 117.757 178.88C117.908 179.917 118.447 180.858 119.265 181.515C126.599 186.879 129.585 188.925 130.798 189.702L151.263 153.356C147.52 150.523 143.624 147.897 139.592 145.49C139.478 145.426 139.349 145.393 139.218 145.396V145.39Z" fill="#371A45"/>
<path d="M131.613 191.329L155.941 194.954C159.786 194.963 162.546 194.42 164.757 190.883L165.884 189.083L177.172 171.053C177.898 169.906 178.397 168.632 178.641 167.298C179.152 164.338 177.192 162.358 174.419 160.619L154.075 153.212C152.494 152.636 150.764 152.608 149.164 153.131C147.564 153.654 146.187 154.698 145.254 156.096L143.131 159.55L128.146 183.919C127.722 184.609 127.477 185.394 127.431 186.203C127.385 187.011 127.541 187.818 127.884 188.552C128.228 189.286 128.748 189.924 129.399 190.408C130.049 190.893 130.81 191.209 131.613 191.329Z" fill="white"/>
<g opacity="0.35">
<g opacity="0.35">
<path opacity="0.35" d="M131.613 191.329L155.941 194.954C159.786 194.963 162.546 194.42 164.757 190.883L165.884 189.083C160.489 189.739 152.063 189.368 146.203 182.492C140.608 175.935 141.52 166.216 143.124 159.538L128.146 183.919C127.722 184.609 127.477 185.394 127.431 186.203C127.385 187.011 127.541 187.818 127.884 188.552C128.228 189.286 128.748 189.924 129.399 190.408C130.049 190.893 130.81 191.209 131.613 191.329Z" fill="#371A45"/>
</g>
</g>
<path d="M156.026 196.12H155.94L155.77 196.108L131.433 192.483C130.438 192.335 129.496 191.943 128.691 191.343C127.885 190.743 127.241 189.954 126.816 189.045C126.391 188.136 126.199 187.136 126.256 186.135C126.313 185.134 126.618 184.163 127.144 183.308L144.254 155.485C145.326 153.86 146.918 152.644 148.771 152.033C150.623 151.422 152.629 151.453 154.461 152.121L174.928 159.577L175.033 159.642C177.604 161.255 180.477 163.605 179.783 167.509C179.512 168.989 178.96 170.405 178.157 171.678L165.737 191.509C163.104 195.74 159.504 196.12 156.026 196.12ZM151.484 153.915C150.442 153.915 149.416 154.172 148.497 154.664C147.579 155.156 146.797 155.866 146.22 156.732L129.146 184.524C128.822 185.051 128.634 185.65 128.599 186.267C128.563 186.884 128.682 187.501 128.944 188.061C129.206 188.621 129.603 189.108 130.1 189.478C130.596 189.848 131.177 190.089 131.79 190.18L156.04 193.792C159.713 193.792 161.926 193.234 163.781 190.27L176.2 170.438C176.845 169.419 177.29 168.287 177.508 167.101C177.861 165.091 176.828 163.512 173.917 161.673L153.684 154.301C152.981 154.045 152.239 153.914 151.491 153.915H151.484Z" fill="#371A45"/>
<path d="M149.562 174.549C149.206 175.228 145.55 180.348 145.55 180.348L142.338 178.692C140.126 177.552 139.776 173.848 141.554 170.42C143.332 166.991 146.566 165.135 148.777 166.277L151.988 167.933C151.988 167.933 150.143 173.434 149.562 174.549Z" fill="#22A7F0"/>
<path d="M149.562 174.549C149.206 175.228 145.55 180.348 145.55 180.348L142.338 178.692C140.126 177.552 139.776 173.848 141.554 170.42C143.332 166.991 146.566 165.135 148.777 166.277L151.988 167.933C151.988 167.933 150.143 173.434 149.562 174.549Z" fill="#22A7F0"/>
<g opacity="0.35">
<g opacity="0.35">
<path opacity="0.35" d="M149.562 174.549C149.206 175.228 145.55 180.348 145.55 180.348L142.338 178.692C140.126 177.552 139.776 173.848 141.554 170.42C143.332 166.991 146.566 165.135 148.777 166.277L151.988 167.933C151.988 167.933 150.143 173.434 149.562 174.549Z" fill="#371A45"/>
</g>
</g>
<path d="M145.916 181.846L141.805 179.725C138.98 178.268 138.415 173.945 140.521 169.885C141.396 168.126 142.753 166.65 144.434 165.627C145.148 165.15 145.973 164.865 146.829 164.798C147.686 164.73 148.545 164.884 149.325 165.244L153.425 167.358L153.107 168.304C152.915 168.876 151.212 173.923 150.609 175.09C150.245 175.793 147.377 179.815 146.513 181.028L145.916 181.846ZM147.352 167.103C146.728 167.133 146.122 167.319 145.589 167.644C144.302 168.449 143.266 169.595 142.595 170.954C141.14 173.758 141.269 176.827 142.879 177.657L145.189 178.845C146.773 176.617 148.338 174.367 148.527 174.008C148.867 173.351 149.835 170.632 150.569 168.501L148.248 167.313C147.97 167.172 147.662 167.099 147.35 167.103H147.352Z" fill="#371A45"/>
<path d="M153.859 176.746C155.636 173.319 155.284 169.617 153.074 168.478C150.864 167.339 147.632 169.194 145.856 172.621C144.079 176.048 144.431 179.749 146.641 180.889C148.851 182.028 152.083 180.173 153.859 176.746Z" fill="#22A7F0"/>
<path d="M148.078 182.392C147.393 182.395 146.716 182.234 146.106 181.922C143.281 180.463 142.716 176.14 144.822 172.082C145.694 170.323 147.048 168.847 148.726 167.822C149.44 167.346 150.265 167.061 151.122 166.994C151.978 166.926 152.838 167.08 153.617 167.439C156.443 168.898 157.008 173.221 154.902 177.279C154.319 178.656 153.38 179.855 152.182 180.753C150.983 181.651 149.567 182.217 148.078 182.392ZM151.651 169.298C151.028 169.329 150.422 169.515 149.89 169.839C148.603 170.644 147.567 171.79 146.896 173.149C145.441 175.954 145.571 179.024 147.18 179.854C148.789 180.683 151.374 179.014 152.828 176.21C154.283 173.406 154.153 170.335 152.546 169.505C152.268 169.367 151.961 169.297 151.651 169.302V169.298Z" fill="#371A45"/>
<g opacity="0.6">
<g opacity="0.6">
<path opacity="0.6" d="M152.546 169.509C152.268 169.369 151.961 169.298 151.651 169.302C151.027 169.332 150.422 169.518 149.89 169.843C148.603 170.648 147.566 171.794 146.896 173.153C146.79 173.356 146.695 173.56 146.606 173.765C147.269 172.542 148.239 171.511 149.422 170.774C149.955 170.449 150.561 170.263 151.185 170.233C151.495 170.229 151.801 170.3 152.078 170.44C153.57 171.21 153.787 173.908 152.649 176.532C152.711 176.425 152.772 176.322 152.819 176.213C154.283 173.409 154.155 170.347 152.546 169.509Z" fill="white"/>
</g>
</g>
<g opacity="0.35">
<g opacity="0.35">
<path opacity="0.35" d="M149.444 177.631C147.232 176.491 146.882 172.788 148.66 169.359C148.69 169.302 148.723 169.247 148.753 169.19C147.532 170.089 146.541 171.263 145.861 172.617C144.083 176.045 144.436 179.742 146.646 180.889C148.82 182.01 151.979 180.232 153.774 176.914C153.189 177.42 152.475 177.755 151.711 177.882C150.946 178.008 150.162 177.922 149.444 177.631Z" fill="#371A45"/>
</g>
</g>
<path d="M87.1795 124.755C96.4887 138.34 109.56 148.931 124.8 155.238C126.662 155.931 128.187 157.309 129.062 159.089C129.937 160.869 130.096 162.915 129.505 164.808C129.154 165.962 128.412 166.959 127.405 167.628C126.399 168.297 125.19 168.598 123.986 168.477C110.39 168.455 78.1288 143.057 77.826 133.032C77.5419 123.666 87.1795 124.755 87.1795 124.755Z" fill="white"/>
<g opacity="0.35">
<g opacity="0.35">
<path opacity="0.35" d="M77.8242 133.034C78.1288 143.059 110.39 168.455 123.986 168.479C125.19 168.599 126.398 168.299 127.404 167.63C128.411 166.961 129.153 165.965 129.505 164.811C129.825 163.855 129.944 162.844 129.857 161.84C129.769 160.837 129.476 159.861 128.995 158.975C128.991 158.998 128.984 159.02 128.974 159.041C128.623 160.196 127.881 161.193 126.874 161.863C125.868 162.532 124.66 162.833 123.456 162.714C111.052 162.694 83.1135 141.55 78.076 130.231C77.871 131.151 77.7863 132.093 77.8242 133.034Z" fill="#371A45"/>
</g>
</g>
<path d="M124.002 170.108H123.985C116.14 170.094 103.827 162.704 94.9171 155.793C86.0076 148.881 76.3733 139.26 76.1912 133.082C76.0636 131.711 76.2432 130.328 76.7169 129.035C77.1906 127.742 77.9466 126.57 78.9303 125.603C81.3119 123.717 84.3376 122.832 87.3635 123.137L88.1494 123.225L88.568 123.904C97.7224 137.162 110.51 147.513 125.404 153.721C127.658 154.565 129.502 156.24 130.554 158.4C131.606 160.56 131.786 163.04 131.057 165.329C130.591 166.8 129.642 168.072 128.361 168.939C127.081 169.806 125.546 170.218 124.002 170.108ZM86.2746 126.348C84.4191 126.276 82.5985 126.866 81.1402 128.012C80.5142 128.669 80.0399 129.454 79.7507 130.313C79.4615 131.171 79.3644 132.083 79.4662 132.983C79.7265 141.615 110.759 166.827 123.997 166.849H124.01C124.866 166.962 125.735 166.767 126.458 166.297C127.182 165.827 127.713 165.115 127.956 164.289C128.418 162.792 128.286 161.175 127.586 159.772C126.887 158.37 125.674 157.289 124.198 156.753C108.893 150.456 95.7282 139.902 86.2746 126.348Z" fill="#371A45"/>
<path d="M149.38 194.751C149.168 194.751 148.96 194.695 148.777 194.59C148.594 194.484 148.441 194.332 148.336 194.15C148.23 193.967 148.174 193.76 148.174 193.549C148.174 193.338 148.229 193.13 148.335 192.947L157.182 177.667C157.355 177.366 157.594 177.107 157.881 176.911C158.168 176.714 158.496 176.585 158.84 176.532L161.435 176.132L171.345 160.22C171.524 159.976 171.79 159.808 172.089 159.75C172.388 159.693 172.698 159.75 172.956 159.91C173.214 160.071 173.402 160.323 173.482 160.616C173.562 160.908 173.527 161.221 173.386 161.489L163.456 177.436C163.279 177.721 163.042 177.963 162.762 178.148C162.483 178.332 162.166 178.454 161.835 178.505L159.243 178.906L150.428 194.15C150.321 194.333 150.168 194.485 149.984 194.591C149.8 194.696 149.592 194.751 149.38 194.751Z" fill="#371A45"/>
</g>
<defs>
<clipPath id="clip0">
<rect width="247" height="233" fill="white"/>
</clipPath>
</defs>
</svg>
