<svg width="15" height="15" viewBox="0 0 15 15" fill="none" xmlns="http://www.w3.org/2000/svg">
<path opacity="0.66" d="M13.7503 1.50098H12.5005V1.00018C12.5005 0.734939 12.3952 0.480578 12.2076 0.293023C12.02 0.105469 11.7656 7.98702e-05 11.5004 7.98702e-05C11.2352 7.98702e-05 10.9808 0.105469 10.7932 0.293023C10.6057 0.480578 10.5003 0.734939 10.5003 1.00018V1.50098H8.50014V1.00018C8.50531 0.865711 8.48325 0.731585 8.43536 0.605825C8.38746 0.480066 8.31471 0.365262 8.2214 0.268296C8.12809 0.17133 8.01617 0.0942002 7.89234 0.0415103C7.76852 -0.0111796 7.63533 -0.0383301 7.50076 -0.0383301C7.36619 -0.0383301 7.233 -0.0111796 7.10918 0.0415103C6.98535 0.0942002 6.87343 0.17133 6.78012 0.268296C6.68681 0.365262 6.61401 0.480066 6.56612 0.605825C6.51823 0.731585 6.49621 0.865711 6.50138 1.00018V1.50098H4.50122V1.00018C4.50122 0.868846 4.47534 0.738794 4.42508 0.617457C4.37482 0.496119 4.30115 0.385891 4.20828 0.293023C4.11541 0.200156 4.00516 0.126483 3.88382 0.0762235C3.76249 0.0259639 3.63246 7.98702e-05 3.50112 7.98702e-05C3.36979 7.98702e-05 3.23971 0.0259639 3.11837 0.0762235C2.99704 0.126483 2.88679 0.200156 2.79392 0.293023C2.70105 0.385891 2.62738 0.496119 2.57712 0.617457C2.52686 0.738794 2.50102 0.868846 2.50102 1.00018V1.50098H1.25125C1.08701 1.50078 0.924325 1.53297 0.772527 1.59569C0.620729 1.65841 0.482815 1.75043 0.366608 1.8665C0.250401 1.98257 0.158202 2.1204 0.0953036 2.27213C0.0324052 2.42385 -1.14741e-07 2.58647 0 2.75072V12.7502C0 13.0821 0.131866 13.4003 0.366517 13.635C0.601169 13.8696 0.919407 14.0015 1.25125 14.0015H8.25048C8.31356 13.9966 8.37248 13.9681 8.41548 13.9217C8.45847 13.8753 8.48233 13.8143 8.48233 13.7511C8.48233 13.6878 8.45847 13.6269 8.41548 13.5804C8.37248 13.534 8.31356 13.5055 8.25048 13.5007H1.25125C1.05234 13.5003 0.861694 13.4211 0.721043 13.2805C0.580392 13.1398 0.501207 12.9492 0.500817 12.7502V5.00059H14.5007V9.25063C14.5007 9.31704 14.5271 9.38074 14.5741 9.42769C14.621 9.47465 14.6847 9.50102 14.7511 9.50102C14.8175 9.50102 14.8812 9.47465 14.9282 9.42769C14.9751 9.38074 15.0015 9.31704 15.0015 9.25063V2.75072C15.0015 2.58647 14.9691 2.42385 14.9062 2.27213C14.8433 2.1204 14.7511 1.98257 14.6349 1.8665C14.5187 1.75043 14.3808 1.65841 14.229 1.59569C14.0772 1.53297 13.9145 1.50078 13.7503 1.50098ZM11.0011 1.00018C11.0081 0.87226 11.0638 0.751873 11.1568 0.663779C11.2498 0.575684 11.3731 0.526594 11.5012 0.526594C11.6293 0.526594 11.7525 0.575684 11.8455 0.663779C11.9385 0.751873 11.9943 0.87226 12.0012 1.00018V2.50108C11.9943 2.629 11.9385 2.74939 11.8455 2.83748C11.7525 2.92557 11.6293 2.97466 11.5012 2.97466C11.3731 2.97466 11.2498 2.92557 11.1568 2.83748C11.0638 2.74939 11.0081 2.629 11.0011 2.50108V1.00018ZM7.00071 1.00018C7.00767 0.87226 7.06336 0.751873 7.15638 0.663779C7.24939 0.575684 7.37265 0.526594 7.50076 0.526594C7.62887 0.526594 7.75213 0.575684 7.84514 0.663779C7.93816 0.751873 7.99386 0.87226 8.00081 1.00018V2.50108C7.99386 2.629 7.93816 2.74939 7.84514 2.83748C7.75213 2.92557 7.62887 2.97466 7.50076 2.97466C7.37265 2.97466 7.24939 2.92557 7.15638 2.83748C7.06336 2.74939 7.00767 2.629 7.00071 2.50108V1.00018ZM3.0003 1.00018C3.00726 0.87226 3.063 0.751873 3.15602 0.663779C3.24903 0.575684 3.37224 0.526594 3.50035 0.526594C3.62847 0.526594 3.75172 0.575684 3.84474 0.663779C3.93775 0.751873 3.99345 0.87226 4.00041 1.00018V2.50108C3.99345 2.629 3.93775 2.74939 3.84474 2.83748C3.75172 2.92557 3.62847 2.97466 3.50035 2.97466C3.37224 2.97466 3.24903 2.92557 3.15602 2.83748C3.063 2.74939 3.00726 2.629 3.0003 2.50108V1.00018ZM14.5007 4.50128H0.500817V2.75072C0.501207 2.55181 0.580392 2.36116 0.721043 2.22051C0.861694 2.07986 1.05234 2.00067 1.25125 2.00028H2.50102V2.50108C2.50102 2.76632 2.60636 3.0207 2.79392 3.20826C2.98147 3.39581 3.23588 3.50118 3.50112 3.50118C3.76636 3.50118 4.02072 3.39581 4.20828 3.20826C4.39583 3.0207 4.50122 2.76632 4.50122 2.50108V1.99586H6.50138V2.49664C6.49621 2.63111 6.51823 2.76526 6.56612 2.89101C6.61401 3.01677 6.68681 3.13156 6.78012 3.22852C6.87343 3.32549 6.98535 3.40264 7.10918 3.45533C7.233 3.50802 7.36619 3.53517 7.50076 3.53517C7.63533 3.53517 7.76852 3.50802 7.89234 3.45533C8.01617 3.40264 8.12809 3.32549 8.2214 3.22852C8.31471 3.13156 8.38746 3.01677 8.43536 2.89101C8.48325 2.76526 8.50531 2.63111 8.50014 2.49664V1.99586H10.5003V2.49664C10.5003 2.76188 10.6057 3.01626 10.7932 3.20382C10.9808 3.39137 11.2352 3.49674 11.5004 3.49674C11.7656 3.49674 12.02 3.39137 12.2076 3.20382C12.3952 3.01626 12.5005 2.76188 12.5005 2.49664V1.99586H13.7503C13.9492 1.99625 14.1398 2.07544 14.2805 2.21609C14.4211 2.35674 14.5003 2.54739 14.5007 2.7463V4.50128Z" fill="black"/>
<path opacity="0.66" d="M7.00118 6.75104C7.00137 6.68534 6.98859 6.62026 6.96358 6.55951C6.93858 6.49876 6.90186 6.44353 6.85547 6.39701C6.80909 6.35049 6.75394 6.31359 6.69327 6.28841C6.63259 6.26322 6.56754 6.25024 6.50185 6.25024H5.50175C5.36893 6.25024 5.24159 6.303 5.14767 6.39692C5.05376 6.49083 5.00098 6.61822 5.00098 6.75104V7.50001C5.00098 7.63283 5.05376 7.76019 5.14767 7.85411C5.24159 7.94802 5.36893 8.00078 5.50175 8.00078H6.50185C6.56754 8.00078 6.63259 7.98783 6.69327 7.96264C6.75394 7.93746 6.80909 7.90054 6.85547 7.85402C6.90186 7.8075 6.93858 7.75229 6.96358 7.69154C6.98859 7.63079 7.00137 7.56571 7.00118 7.50001V6.75104ZM5.50175 7.50001V6.75104H6.50185V7.50001H5.50175Z" fill="black"/>
<path opacity="0.66" d="M4.00093 6.75104C4.00113 6.68534 3.98839 6.62026 3.96338 6.55951C3.93838 6.49876 3.90161 6.44353 3.85523 6.39701C3.80884 6.35049 3.75374 6.31359 3.69307 6.28841C3.63239 6.26322 3.56735 6.25024 3.50165 6.25024H2.50155C2.36873 6.25024 2.24135 6.303 2.14743 6.39692C2.05351 6.49083 2.00073 6.61822 2.00073 6.75104V7.50001C2.00073 7.63283 2.05351 7.76019 2.14743 7.85411C2.24135 7.94802 2.36873 8.00078 2.50155 8.00078H3.50165C3.56735 8.00078 3.63239 7.98783 3.69307 7.96264C3.75374 7.93746 3.80884 7.90054 3.85523 7.85402C3.90161 7.8075 3.93838 7.75229 3.96338 7.69154C3.98839 7.63079 4.00113 7.56571 4.00093 7.50001V6.75104ZM2.50155 7.50001V6.75104H3.50165V7.50001H2.50155Z" fill="black"/>
<path opacity="0.66" d="M12.5006 8.00078C12.6334 8.00078 12.7608 7.94802 12.8547 7.85411C12.9486 7.76019 13.0014 7.63283 13.0014 7.50001V6.75104C13.0014 6.61822 12.9486 6.49083 12.8547 6.39692C12.7608 6.303 12.6334 6.25024 12.5006 6.25024H11.5005C11.4348 6.25024 11.3698 6.26322 11.3091 6.28841C11.2484 6.31359 11.1933 6.35049 11.1469 6.39701C11.1005 6.44353 11.0638 6.49876 11.0388 6.55951C11.0138 6.62026 11.001 6.68534 11.0012 6.75104V7.50001C11.001 7.56571 11.0138 7.63079 11.0388 7.69154C11.0638 7.75229 11.1005 7.8075 11.1469 7.85402C11.1933 7.90054 11.2484 7.93746 11.3091 7.96264C11.3698 7.98783 11.4348 8.00078 11.5005 8.00078H12.5006ZM11.5005 6.75104H12.5006V7.50001H11.5005V6.75104Z" fill="black"/>
<path opacity="0.66" d="M7.00118 9.00106C7.00196 8.935 6.98963 8.86944 6.96489 8.80818C6.94015 8.74692 6.90349 8.69116 6.85705 8.64417C6.81061 8.59718 6.75527 8.55988 6.6943 8.53442C6.63334 8.50896 6.56792 8.49584 6.50185 8.49585H5.50175C5.36893 8.49585 5.24159 8.54861 5.14767 8.64252C5.05376 8.73644 5.00098 8.86383 5.00098 8.99664V9.74708C5.00098 9.81277 5.01393 9.87782 5.03912 9.9385C5.0643 9.99917 5.10124 10.0543 5.14776 10.1007C5.19429 10.147 5.24949 10.1838 5.31024 10.2088C5.37099 10.2338 5.43605 10.2466 5.50175 10.2464H6.50185C6.63427 10.2464 6.76129 10.1938 6.85493 10.1001C6.94857 10.0065 7.00118 9.8795 7.00118 9.74708V9.00106ZM5.50175 9.75152V9.00106H6.50185V9.75152H5.50175Z" fill="black"/>
<path opacity="0.66" d="M4.00093 9.00102C4.00113 8.93532 3.98839 8.87023 3.96338 8.80949C3.93838 8.74874 3.90161 8.69353 3.85523 8.64701C3.80884 8.60049 3.75374 8.56357 3.69307 8.53838C3.63239 8.5132 3.56735 8.50024 3.50165 8.50024H2.50155C2.36873 8.50024 2.24135 8.553 2.14743 8.64692C2.05351 8.74083 2.00073 8.8682 2.00073 9.00102V9.75148C2.00073 9.81717 2.01373 9.88222 2.03892 9.9429C2.0641 10.0036 2.101 10.0587 2.14752 10.1051C2.19404 10.1514 2.24925 10.1882 2.31 10.2132C2.37075 10.2382 2.43585 10.251 2.50155 10.2508H3.50165C3.63408 10.2508 3.76105 10.1982 3.85469 10.1045C3.94833 10.0109 4.00093 9.8839 4.00093 9.75148V9.00102ZM2.50155 9.75148V9.00102H3.50165V9.75148H2.50155Z" fill="black"/>
<path opacity="0.66" d="M6.50185 10.75H5.50175C5.36893 10.75 5.24159 10.8028 5.14767 10.8967C5.05376 10.9906 5.00098 11.118 5.00098 11.2508V12.0012C5.00098 12.0669 5.01393 12.132 5.03912 12.1926C5.0643 12.2533 5.10124 12.3084 5.14776 12.3548C5.19429 12.4012 5.24949 12.438 5.31024 12.463C5.37099 12.488 5.43605 12.5007 5.50175 12.5005H6.50185C6.63428 12.5005 6.76129 12.4479 6.85493 12.3543C6.94857 12.2607 7.00118 12.1337 7.00118 12.0012V11.2508C7.00137 11.1851 6.98859 11.12 6.96358 11.0593C6.93858 10.9985 6.90186 10.9433 6.85547 10.8968C6.80909 10.8502 6.75394 10.8133 6.69327 10.7881C6.63259 10.763 6.56754 10.75 6.50185 10.75ZM5.50175 12.0012V11.2508H6.50185V12.0012H5.50175Z" fill="black"/>
<path opacity="0.66" d="M8.50031 8.00078H9.50036C9.63318 8.00078 9.76057 7.94802 9.85448 7.85411C9.9484 7.76019 10.0012 7.63283 10.0012 7.50001V6.75104C10.0012 6.61822 9.9484 6.49083 9.85448 6.39692C9.76057 6.303 9.63318 6.25024 9.50036 6.25024H8.50031C8.43461 6.25024 8.36952 6.26322 8.30884 6.28841C8.24817 6.31359 8.19307 6.35049 8.14668 6.39701C8.1003 6.44353 8.06358 6.49876 8.03858 6.55951C8.01357 6.62026 8.00078 6.68534 8.00098 6.75104V7.50001C8.00078 7.56571 8.01357 7.63079 8.03858 7.69154C8.06358 7.75229 8.1003 7.8075 8.14668 7.85402C8.19307 7.90054 8.24817 7.93746 8.30884 7.96264C8.36952 7.98783 8.43461 8.00078 8.50031 8.00078ZM8.50031 6.75104H9.50036V7.50001H8.50031V6.75104Z" fill="black"/>
<path opacity="0.66" d="M8.00098 9.75148C8.00098 9.8839 8.05359 10.0109 8.14722 10.1045C8.24086 10.1982 8.36788 10.2508 8.50031 10.2508C8.56652 10.2508 8.62998 10.2245 8.6768 10.1777C8.72362 10.1308 8.74993 10.0673 8.74993 10.0011C8.74993 9.93491 8.72362 9.87142 8.6768 9.8246C8.62998 9.77778 8.56652 9.75148 8.50031 9.75148V9.00102H9.50036C9.56677 9.00102 9.63049 8.97465 9.67744 8.92769C9.7244 8.88073 9.75079 8.81704 9.75079 8.75063C9.75079 8.68422 9.7244 8.62053 9.67744 8.57357C9.63049 8.52661 9.56677 8.50024 9.50036 8.50024H8.50031C8.43461 8.50024 8.36952 8.5132 8.30884 8.53838C8.24817 8.56357 8.19307 8.60049 8.14668 8.64701C8.1003 8.69353 8.06358 8.74874 8.03858 8.80948C8.01357 8.87023 8.00078 8.93532 8.00098 9.00102V9.75148Z" fill="black"/>
<g opacity="0.66">
<path d="M3.50165 10.7502H2.50155C2.36873 10.7502 2.24135 10.803 2.14743 10.8969C2.05351 10.9908 2.00073 11.1182 2.00073 11.251V12.0015C2.00073 12.0672 2.01373 12.1322 2.03892 12.1929C2.0641 12.2536 2.101 12.3087 2.14752 12.3551C2.19404 12.4014 2.24925 12.4382 2.31 12.4632C2.37075 12.4882 2.43585 12.501 2.50155 12.5008H3.50165C3.63408 12.5008 3.76105 12.4482 3.85469 12.3545C3.94833 12.2609 4.00093 12.1339 4.00093 12.0015V11.251C4.00113 11.1853 3.98839 11.1203 3.96338 11.0595C3.93838 10.9988 3.90161 10.9435 3.85523 10.897C3.80884 10.8505 3.75374 10.8136 3.69307 10.7884C3.63239 10.7632 3.56735 10.7502 3.50165 10.7502ZM2.50155 12.0015V11.251H3.50165V12.0015H2.50155Z" fill="black"/>
<path d="M11.7519 8.49585C11.1091 8.49585 10.4808 8.68647 9.94634 9.04357C9.41189 9.40068 8.99535 9.90824 8.74937 10.5021C8.50338 11.0959 8.43899 11.7494 8.56439 12.3798C8.68979 13.0103 8.99935 13.5893 9.45386 14.0439C9.90838 14.4984 10.4875 14.8079 11.1179 14.9333C11.7483 15.0587 12.4018 14.9943 12.9956 14.7484C13.5895 14.5024 14.097 14.0858 14.4541 13.5514C14.8113 13.0169 15.0018 12.3886 15.0018 11.7458C15.0018 10.8839 14.6595 10.0572 14.05 9.44774C13.4405 8.83825 12.6139 8.49585 11.7519 8.49585ZM11.7519 14.4964C11.2083 14.4964 10.6768 14.3352 10.2247 14.0332C9.77266 13.7312 9.4203 13.3019 9.21218 12.7997C9.00406 12.2974 8.94952 11.7447 9.05547 11.2115C9.16143 10.6782 9.42311 10.1884 9.80744 9.80384C10.1918 9.4193 10.6815 9.15737 11.2147 9.05113C11.7479 8.94488 12.3006 8.9991 12.803 9.20695C13.3053 9.4148 13.7348 9.76694 14.037 10.2188C14.3393 10.6707 14.5008 11.2021 14.5011 11.7458C14.5011 12.4751 14.2115 13.1745 13.696 13.6903C13.1804 14.2061 12.4812 14.496 11.7519 14.4964Z" fill="black"/>
</g>
<path d="M13.1954 10.7028L11.2513 12.6469L10.365 11.7605C10.3182 11.7135 10.2546 11.687 10.1882 11.6869C10.1219 11.6867 10.0582 11.713 10.0112 11.7598C9.96415 11.8066 9.93764 11.8702 9.9375 11.9365C9.93736 12.0029 9.96358 12.0666 10.0104 12.1136L11.0711 13.1743C11.1182 13.2212 11.1819 13.2475 11.2484 13.2475C11.3148 13.2475 11.3785 13.2212 11.4256 13.1743L13.547 11.0529C13.5938 11.0059 13.62 10.9422 13.6199 10.8759C13.6197 10.8095 13.5932 10.7459 13.5462 10.6991C13.4992 10.6523 13.4355 10.6261 13.3692 10.6262C13.3028 10.6264 13.2392 10.6528 13.1924 10.6999L13.1954 10.7028Z" fill="black"/>
</svg>
