<svg width="151" height="24" viewBox="0 0 151 24" fill="none" xmlns="http://www.w3.org/2000/svg">
<path d="M8.84 18.798C6.98533 18.798 5.39933 18.4167 4.082 17.654C2.76467 16.8913 1.75067 15.808 1.04 14.404C0.346667 12.9827 0 11.31 0 9.386C0 7.94733 0.199333 6.656 0.598 5.512C0.996667 4.35067 1.56867 3.36267 2.314 2.548C3.07667 1.716 4.004 1.08333 5.096 0.650001C6.20533 0.216667 7.45333 0 8.84 0C9.86267 0 10.842 0.138667 11.778 0.416001C12.7313 0.693334 13.5547 1.092 14.248 1.612C14.5427 1.80267 14.7333 2.03667 14.82 2.314C14.924 2.574 14.9413 2.82533 14.872 3.068C14.82 3.31067 14.7073 3.51867 14.534 3.692C14.3607 3.848 14.1353 3.93467 13.858 3.952C13.598 3.96933 13.312 3.874 13 3.666C12.428 3.23267 11.7953 2.912 11.102 2.704C10.4087 2.496 9.68067 2.392 8.918 2.392C7.60067 2.392 6.49133 2.66933 5.59 3.224C4.68867 3.76133 4.004 4.55 3.536 5.59C3.068 6.63 2.834 7.89533 2.834 9.386C2.834 10.8767 3.068 12.1507 3.536 13.208C4.004 14.248 4.68867 15.0453 5.59 15.6C6.49133 16.1373 7.60067 16.406 8.918 16.406C9.68067 16.406 10.4087 16.302 11.102 16.094C11.8127 15.8687 12.48 15.5393 13.104 15.106C13.416 14.9153 13.6933 14.8287 13.936 14.846C14.196 14.8633 14.4127 14.95 14.586 15.106C14.7593 15.262 14.872 15.4613 14.924 15.704C14.9933 15.9293 14.9847 16.172 14.898 16.432C14.8287 16.6747 14.664 16.8827 14.404 17.056C13.6933 17.628 12.8527 18.0613 11.882 18.356C10.9113 18.6507 9.89733 18.798 8.84 18.798Z" fill="#353535"/>
<path d="M17.6841 18.746C17.3374 18.746 17.0601 18.668 16.8521 18.512C16.6441 18.356 16.5227 18.148 16.4881 17.888C16.4534 17.628 16.5054 17.3333 16.6441 17.004L23.6901 1.196C23.8634 0.78 24.0801 0.485334 24.3401 0.312001C24.6174 0.138667 24.9207 0.0520009 25.2501 0.0520009C25.5621 0.0520009 25.8481 0.138667 26.1081 0.312001C26.3854 0.485334 26.6107 0.78 26.7841 1.196L33.8301 17.004C33.9861 17.3333 34.0467 17.6367 34.0121 17.914C33.9774 18.174 33.8647 18.382 33.6741 18.538C33.4834 18.6767 33.2147 18.746 32.8681 18.746C32.4867 18.746 32.1834 18.6507 31.9581 18.46C31.7327 18.2693 31.5334 17.9747 31.3601 17.576L29.5401 13.364L30.7621 14.092H19.6861L20.8821 13.364L19.0881 17.576C18.9147 17.992 18.7241 18.2953 18.5161 18.486C18.3081 18.6593 18.0307 18.746 17.6841 18.746ZM25.1981 3.224L21.2721 12.532L20.6221 11.908H29.8001L29.2021 12.532L25.2501 3.224H25.1981Z" fill="#353535"/>
<path d="M38.2066 18.746C37.8079 18.746 37.4959 18.6333 37.2706 18.408C37.0453 18.1827 36.9326 17.862 36.9326 17.446V1.404C36.9326 0.970667 37.0366 0.641333 37.2446 0.416001C37.4699 0.173334 37.7646 0.0520009 38.1286 0.0520009C38.4406 0.0520009 38.6746 0.112667 38.8306 0.234C39.0039 0.338 39.2033 0.537333 39.4286 0.832L50.1406 14.95H49.4906V1.326C49.4906 0.927333 49.5946 0.615333 49.8026 0.39C50.0279 0.164667 50.3399 0.0520009 50.7386 0.0520009C51.1546 0.0520009 51.4666 0.164667 51.6746 0.39C51.8826 0.615333 51.9866 0.927333 51.9866 1.326V17.472C51.9866 17.8707 51.8826 18.1827 51.6746 18.408C51.4839 18.6333 51.2239 18.746 50.8946 18.746C50.5826 18.746 50.3226 18.6853 50.1146 18.564C49.9239 18.4427 49.7159 18.2347 49.4906 17.94L38.8306 3.848H39.4286V17.446C39.4286 17.862 39.3246 18.1827 39.1166 18.408C38.9086 18.6333 38.6053 18.746 38.2066 18.746Z" fill="#353535"/>
<path d="M62.3649 18.798C61.5675 18.798 60.7875 18.7373 60.0249 18.616C59.2622 18.4947 58.5429 18.3127 57.8669 18.07C57.1909 17.81 56.5842 17.498 56.0469 17.134C55.7869 16.9433 55.6049 16.7267 55.5009 16.484C55.4142 16.2413 55.3882 16.0073 55.4229 15.782C55.4749 15.5393 55.5789 15.3313 55.7349 15.158C55.8909 14.9847 56.0815 14.8807 56.3069 14.846C56.5322 14.794 56.7835 14.8633 57.0609 15.054C57.8409 15.5567 58.6642 15.9293 59.5309 16.172C60.3975 16.3973 61.3422 16.51 62.3649 16.51C63.8382 16.51 64.9215 16.25 65.6149 15.73C66.3255 15.1927 66.6809 14.4993 66.6809 13.65C66.6809 12.9567 66.4295 12.4107 65.9269 12.012C65.4242 11.596 64.5835 11.2667 63.4049 11.024L60.6229 10.452C58.9762 10.1053 57.7455 9.53333 56.9309 8.736C56.1335 7.93867 55.7349 6.864 55.7349 5.512C55.7349 4.69733 55.8995 3.952 56.2289 3.276C56.5755 2.6 57.0522 2.01933 57.6589 1.534C58.2655 1.03133 58.9935 0.65 59.8429 0.39C60.6922 0.13 61.6195 0 62.6249 0C63.6995 0 64.7049 0.138667 65.6409 0.416001C66.5942 0.693334 67.4435 1.118 68.1889 1.69C68.4142 1.846 68.5615 2.04533 68.6309 2.288C68.7175 2.51333 68.7349 2.73867 68.6829 2.964C68.6482 3.18933 68.5529 3.38 68.3969 3.536C68.2409 3.692 68.0415 3.78733 67.7989 3.822C67.5562 3.83933 67.2875 3.75267 66.9929 3.562C66.3169 3.11133 65.6235 2.79067 64.9129 2.6C64.2195 2.392 63.4482 2.288 62.5989 2.288C61.7495 2.288 61.0042 2.418 60.3629 2.678C59.7389 2.938 59.2535 3.302 58.9069 3.77C58.5775 4.238 58.4129 4.79267 58.4129 5.434C58.4129 6.162 58.6469 6.74267 59.1149 7.176C59.5829 7.60933 60.3629 7.93867 61.4549 8.164L64.2109 8.736C65.9442 9.1 67.2355 9.66333 68.0849 10.426C68.9342 11.1887 69.3589 12.2027 69.3589 13.468C69.3589 14.2827 69.1942 15.0193 68.8649 15.678C68.5355 16.3193 68.0675 16.874 67.4609 17.342C66.8542 17.81 66.1175 18.174 65.2509 18.434C64.4015 18.6767 63.4395 18.798 62.3649 18.798Z" fill="#353535"/>
<path d="M76.6667 18.798C75.644 18.798 74.786 18.6073 74.0927 18.226C73.4167 17.8447 72.9053 17.2813 72.5587 16.536C72.2294 15.7733 72.0647 14.82 72.0647 13.676V7.02C72.0647 6.56933 72.1774 6.24 72.4027 6.032C72.628 5.80667 72.9487 5.694 73.3647 5.694C73.7807 5.694 74.1014 5.80667 74.3267 6.032C74.5694 6.24 74.6907 6.56933 74.6907 7.02V13.702C74.6907 14.7247 74.8987 15.4787 75.3147 15.964C75.7307 16.4493 76.3894 16.692 77.2907 16.692C78.2787 16.692 79.076 16.3627 79.6827 15.704C80.3067 15.028 80.6187 14.144 80.6187 13.052V7.02C80.6187 6.56933 80.7314 6.24 80.9567 6.032C81.182 5.80667 81.5114 5.694 81.9447 5.694C82.3607 5.694 82.6814 5.80667 82.9067 6.032C83.132 6.24 83.2447 6.56933 83.2447 7.02V17.42C83.2447 18.304 82.82 18.746 81.9707 18.746C81.572 18.746 81.26 18.6333 81.0347 18.408C80.8094 18.1653 80.6967 17.836 80.6967 17.42V15.21L81.0347 15.782C80.688 16.7527 80.1334 17.498 79.3707 18.018C78.608 18.538 77.7067 18.798 76.6667 18.798Z" fill="#353535"/>
<path d="M88.2454 23.426C87.8294 23.426 87.5088 23.3133 87.2834 23.088C87.0581 22.8627 86.9454 22.5333 86.9454 22.1V7.02C86.9454 6.58667 87.0581 6.25733 87.2834 6.032C87.5088 5.80667 87.8208 5.694 88.2194 5.694C88.6354 5.694 88.9561 5.80667 89.1814 6.032C89.4068 6.25733 89.5194 6.58667 89.5194 7.02V9.282L89.2334 8.736C89.5108 7.8 90.0568 7.05467 90.8714 6.5C91.6861 5.928 92.6481 5.642 93.7574 5.642C94.8841 5.642 95.8634 5.91067 96.6954 6.448C97.5448 6.98533 98.1948 7.73933 98.6454 8.71C99.1134 9.68067 99.3474 10.8507 99.3474 12.22C99.3474 13.5547 99.1134 14.7247 98.6454 15.73C98.1948 16.718 97.5534 17.4807 96.7214 18.018C95.8894 18.538 94.9014 18.798 93.7574 18.798C92.6654 18.798 91.7121 18.5207 90.8974 17.966C90.0828 17.4113 89.5368 16.6747 89.2594 15.756H89.5714V22.1C89.5714 22.5333 89.4501 22.8627 89.2074 23.088C88.9821 23.3133 88.6614 23.426 88.2454 23.426ZM93.1074 16.77C93.8354 16.77 94.4681 16.5967 95.0054 16.25C95.5428 15.9033 95.9588 15.392 96.2534 14.716C96.5481 14.04 96.6954 13.208 96.6954 12.22C96.6954 10.7293 96.3661 9.60267 95.7074 8.84C95.0661 8.07733 94.1994 7.696 93.1074 7.696C92.3968 7.696 91.7641 7.86933 91.2094 8.216C90.6721 8.54533 90.2561 9.048 89.9614 9.724C89.6668 10.4 89.5194 11.232 89.5194 12.22C89.5194 13.6933 89.8488 14.82 90.5074 15.6C91.1661 16.38 92.0328 16.77 93.1074 16.77Z" fill="#353535"/>
<path d="M103.607 23.426C103.191 23.426 102.87 23.3133 102.645 23.088C102.419 22.8627 102.307 22.5333 102.307 22.1V7.02C102.307 6.58667 102.419 6.25733 102.645 6.032C102.87 5.80667 103.182 5.694 103.581 5.694C103.997 5.694 104.317 5.80667 104.543 6.032C104.768 6.25733 104.881 6.58667 104.881 7.02V9.282L104.595 8.736C104.872 7.8 105.418 7.05467 106.233 6.5C107.047 5.928 108.009 5.642 109.119 5.642C110.245 5.642 111.225 5.91067 112.057 6.448C112.906 6.98533 113.556 7.73933 114.007 8.71C114.475 9.68067 114.709 10.8507 114.709 12.22C114.709 13.5547 114.475 14.7247 114.007 15.73C113.556 16.718 112.915 17.4807 112.083 18.018C111.251 18.538 110.263 18.798 109.119 18.798C108.027 18.798 107.073 18.5207 106.259 17.966C105.444 17.4113 104.898 16.6747 104.621 15.756H104.933V22.1C104.933 22.5333 104.811 22.8627 104.569 23.088C104.343 23.3133 104.023 23.426 103.607 23.426ZM108.469 16.77C109.197 16.77 109.829 16.5967 110.367 16.25C110.904 15.9033 111.32 15.392 111.615 14.716C111.909 14.04 112.057 13.208 112.057 12.22C112.057 10.7293 111.727 9.60267 111.069 8.84C110.427 8.07733 109.561 7.696 108.469 7.696C107.758 7.696 107.125 7.86933 106.571 8.216C106.033 8.54533 105.617 9.048 105.323 9.724C105.028 10.4 104.881 11.232 104.881 12.22C104.881 13.6933 105.21 14.82 105.869 15.6C106.527 16.38 107.394 16.77 108.469 16.77Z" fill="#353535"/>
<path d="M123.18 18.798C121.897 18.798 120.788 18.5293 119.852 17.992C118.933 17.4547 118.214 16.692 117.694 15.704C117.174 14.716 116.914 13.5547 116.914 12.22C116.914 11.1973 117.061 10.2873 117.356 9.49C117.651 8.69267 118.067 8.008 118.604 7.436C119.159 6.84667 119.817 6.40467 120.58 6.11C121.36 5.798 122.227 5.642 123.18 5.642C124.445 5.642 125.537 5.91067 126.456 6.448C127.392 6.98533 128.12 7.748 128.64 8.736C129.16 9.70667 129.42 10.868 129.42 12.22C129.42 13.2253 129.273 14.1353 128.978 14.95C128.683 15.7647 128.259 16.458 127.704 17.03C127.167 17.602 126.508 18.044 125.728 18.356C124.965 18.6507 124.116 18.798 123.18 18.798ZM123.18 16.77C123.891 16.77 124.515 16.5967 125.052 16.25C125.589 15.9033 126.005 15.392 126.3 14.716C126.612 14.04 126.768 13.208 126.768 12.22C126.768 10.7293 126.439 9.60267 125.78 8.84C125.121 8.07733 124.255 7.696 123.18 7.696C122.452 7.696 121.819 7.86933 121.282 8.216C120.745 8.54533 120.32 9.048 120.008 9.724C119.713 10.4 119.566 11.232 119.566 12.22C119.566 13.6933 119.895 14.82 120.554 15.6C121.213 16.38 122.088 16.77 123.18 16.77Z" fill="#353535"/>
<path d="M133.695 18.746C133.262 18.746 132.933 18.6333 132.707 18.408C132.482 18.1653 132.369 17.836 132.369 17.42V7.02C132.369 6.58667 132.482 6.25733 132.707 6.032C132.933 5.80667 133.245 5.694 133.643 5.694C134.059 5.694 134.371 5.80667 134.579 6.032C134.805 6.25733 134.917 6.58667 134.917 7.02V8.918H134.657C134.935 7.878 135.446 7.08933 136.191 6.552C136.937 6.01467 137.89 5.70267 139.051 5.616C139.363 5.59867 139.606 5.67667 139.779 5.85C139.97 6.02333 140.074 6.292 140.091 6.656C140.126 7.02 140.048 7.31467 139.857 7.54C139.667 7.748 139.372 7.86933 138.973 7.904L138.479 7.956C137.353 8.06 136.495 8.41533 135.905 9.022C135.316 9.62867 135.021 10.4607 135.021 11.518V17.42C135.021 17.836 134.909 18.1653 134.683 18.408C134.475 18.6333 134.146 18.746 133.695 18.746Z" fill="#353535"/>
<path d="M148.187 18.798C147.147 18.798 146.272 18.616 145.561 18.252C144.851 17.888 144.322 17.3507 143.975 16.64C143.629 15.9293 143.455 15.0627 143.455 14.04V7.904H141.895C141.549 7.904 141.28 7.81733 141.089 7.644C140.899 7.45333 140.803 7.202 140.803 6.89C140.803 6.56067 140.899 6.30933 141.089 6.136C141.28 5.96267 141.549 5.876 141.895 5.876H143.455V3.198C143.455 2.76467 143.568 2.43533 143.793 2.21C144.036 1.98467 144.365 1.872 144.781 1.872C145.197 1.872 145.518 1.98467 145.743 2.21C145.969 2.43533 146.081 2.76467 146.081 3.198V5.876H149.123C149.47 5.876 149.739 5.96267 149.929 6.136C150.12 6.30933 150.215 6.56067 150.215 6.89C150.215 7.202 150.12 7.45333 149.929 7.644C149.739 7.81733 149.47 7.904 149.123 7.904H146.081V13.832C146.081 14.7507 146.272 15.444 146.653 15.912C147.052 16.38 147.693 16.614 148.577 16.614C148.889 16.614 149.158 16.588 149.383 16.536C149.626 16.4667 149.825 16.4233 149.981 16.406C150.172 16.406 150.328 16.4753 150.449 16.614C150.571 16.7353 150.631 16.978 150.631 17.342C150.631 17.602 150.579 17.8447 150.475 18.07C150.389 18.2953 150.224 18.4427 149.981 18.512C149.773 18.5813 149.487 18.642 149.123 18.694C148.777 18.7633 148.465 18.798 148.187 18.798Z" fill="#353535"/>
</svg>
