<svg width="15" height="15" viewBox="0 0 15 15" fill="none" xmlns="http://www.w3.org/2000/svg">
<path opacity="0.66" d="M7.50026 0C6.01709 2.52907e-08 4.56724 0.43979 3.33402 1.26376C2.10079 2.08774 1.13961 3.25888 0.571969 4.62911C0.00432352 5.99935 -0.144276 7.50714 0.144974 8.96183C0.434224 10.4165 1.14833 11.7528 2.19699 12.8016C3.24564 13.8505 4.58176 14.5648 6.03639 14.8543C7.49102 15.1439 8.99885 14.9955 10.3692 14.4282C11.7395 13.8608 12.9108 12.8998 13.735 11.6667C14.5592 10.4336 14.9993 8.98386 14.9996 7.50069C14.997 5.51241 14.2062 3.60627 12.8004 2.20021C11.3946 0.794154 9.48854 0.00293146 7.50026 0ZM7.50026 14.0624C6.20247 14.0624 4.93387 13.6776 3.8548 12.9566C2.77573 12.2355 1.93469 11.2108 1.43805 10.0118C0.941406 8.81276 0.811457 7.4934 1.06464 6.22055C1.31783 4.9477 1.94278 3.77852 2.86045 2.86084C3.77812 1.94317 4.94731 1.31824 6.22016 1.06506C7.49301 0.811873 8.81234 0.9418 10.0113 1.43844C11.2103 1.93508 12.2351 2.77612 12.9561 3.85519C13.6772 4.93426 14.062 6.20291 14.062 7.50069C14.0598 9.24029 13.3678 10.908 12.1377 12.1381C10.9076 13.3682 9.23986 14.0602 7.50026 14.0624Z" fill="black"/>
<path opacity="0.66" d="M7.9689 2.81274H7.02856V7.69458L9.97839 10.6431L10.6418 9.98107L7.96615 7.30541L7.9689 2.81274Z" fill="black"/>
</svg>
