<svg width="48" height="39" viewBox="0 0 48 39" fill="none" xmlns="http://www.w3.org/2000/svg">
<path d="M23.3654 2.53485V0H18V9.54792C17.9992 11.7715 18.803 13.9203 20.2628 15.5976C21.7227 17.2749 23.7401 18.3674 25.9425 18.6734V29.1507C25.9425 31.571 26.9039 33.892 28.6153 35.6034C30.3267 37.3148 32.6477 38.2762 35.068 38.2762C37.4882 38.2762 39.8093 37.3148 41.5206 35.6034C43.232 33.892 44.1934 31.571 44.1934 29.1507V23.4896C45.3073 23.1828 46.2722 22.4826 46.9091 21.5186C47.546 20.5546 47.8117 19.3924 47.6569 18.2475C47.5022 17.1025 46.9374 16.0525 46.0675 15.2922C45.1975 14.532 44.0814 14.113 42.926 14.113C41.7706 14.113 40.6545 14.532 39.7845 15.2922C38.9145 16.0525 38.3498 17.1025 38.1951 18.2475C38.0403 19.3924 38.306 20.5546 38.9429 21.5186C39.5798 22.4826 40.5447 23.1828 41.6586 23.4896V29.1507C41.6586 30.0162 41.4881 30.8732 41.1569 31.6728C40.8257 32.4725 40.3402 33.199 39.7282 33.811C39.1162 34.423 38.3897 34.9084 37.5901 35.2397C36.7905 35.5709 35.9335 35.7413 35.068 35.7413C34.2025 35.7413 33.3455 35.5709 32.5459 35.2397C31.7462 34.9084 31.0197 34.423 30.4077 33.811C29.7957 33.199 29.3103 32.4725 28.979 31.6728C28.6478 30.8732 28.4774 30.0162 28.4774 29.1507V18.6734C30.6721 18.3581 32.6795 17.2616 34.1307 15.5852C35.582 13.9089 36.3798 11.7652 36.3776 9.54792V0H31.0122V2.53485H33.8428V9.54792C33.8428 11.3127 33.1417 13.0051 31.8939 14.253C30.646 15.5009 28.9536 16.2019 27.1888 16.2019C25.4241 16.2019 23.7316 15.5009 22.4838 14.253C21.2359 13.0051 20.5348 11.3127 20.5348 9.54792V2.53485H23.3654ZM40.6446 18.8846C40.6446 18.4418 40.776 18.0088 41.022 17.6406C41.268 17.2724 41.6177 16.9854 42.0269 16.8159C42.436 16.6465 42.8862 16.6021 43.3206 16.6885C43.7549 16.7749 44.1539 16.9882 44.467 17.3013C44.7802 17.6145 44.9934 18.0134 45.0798 18.4478C45.1662 18.8821 45.1219 19.3323 44.9524 19.7415C44.7829 20.1506 44.496 20.5003 44.1277 20.7464C43.7595 20.9924 43.3266 21.1237 42.8837 21.1237C42.2899 21.1237 41.7204 20.8878 41.3005 20.4679C40.8805 20.048 40.6446 19.4785 40.6446 18.8846Z" fill="white"/>
<path d="M40.8141 17.5017C40.5406 17.9111 40.3946 18.3923 40.3946 18.8846C40.3946 19.5448 40.6569 20.1779 41.1237 20.6447C41.5905 21.1115 42.2236 21.3737 42.8837 21.3737C43.376 21.3737 43.8573 21.2277 44.2666 20.9542C44.676 20.6807 44.995 20.292 45.1834 19.8371C45.3718 19.3823 45.4211 18.8818 45.325 18.399C45.229 17.9162 44.9919 17.4726 44.6438 17.1245C44.2957 16.7764 43.8522 16.5394 43.3693 16.4433C42.8865 16.3473 42.386 16.3966 41.9312 16.585C41.4764 16.7734 41.0876 17.0924 40.8141 17.5017Z" stroke="black" stroke-opacity="0.5" stroke-width="0.5"/>
<path d="M6.08241 13.9834L6.0807 13.9852C6.08008 13.9858 6.07939 13.9865 6.07861 13.9872C6.05957 14.0063 5.99329 14.0725 5.94537 14.1818C5.90003 14.2853 5.88509 14.3923 5.88445 14.4935H5.88444V14.4966C5.88444 14.7983 6.01104 15.242 6.43658 15.92C6.86683 16.6055 7.62956 17.5726 8.97104 18.9321C10.0999 20.0774 11.0798 20.9327 11.8795 21.4588C12.2864 21.7281 12.642 21.9052 12.9338 21.9962C13.0783 22.0413 13.2277 22.0718 13.371 22.0713C13.5003 22.0708 13.7134 22.0441 13.8808 21.8777L13.8808 21.8778L13.8845 21.874L14.096 21.6592C14.0961 21.659 14.0963 21.6589 14.0964 21.6587C14.8054 20.9418 15.3497 20.5076 15.9918 20.4343C16.6227 20.3623 17.5021 20.6282 18.8939 21.7618L18.8941 21.7619C19.9148 22.5925 20.3083 23.3319 20.3083 24.0285C20.3083 24.5079 20.1197 24.9491 19.8122 25.3787C19.5012 25.8131 19.0956 26.1998 18.6962 26.5788C18.5574 26.7068 18.4277 26.833 18.3062 26.9531L18.3044 26.9549C17.9733 27.2855 17.4208 27.4986 16.623 27.5097C15.8291 27.5207 14.8427 27.3291 13.7232 26.9096C11.4867 26.0715 8.79659 24.3527 6.19473 21.7188C1.9399 17.4056 0.500038 13.3533 0.500038 11.2857C0.500038 10.4278 0.729116 9.83459 1.07047 9.49235C1.19873 9.36622 1.32447 9.23387 1.45015 9.0998C1.84154 8.69123 2.23878 8.27701 2.68466 7.96573C3.12421 7.65888 3.57362 7.47953 4.06274 7.50188L4.0628 7.50188C4.73158 7.53236 5.44186 7.93598 6.23584 8.9346C7.18634 10.1329 7.54997 10.9896 7.54997 11.6658C7.54997 12.5074 7.01313 13.0662 6.29923 13.7675L6.29922 13.7675L6.29679 13.7699L6.08241 13.9834Z" fill="#23A24D" stroke="white"/>
</svg>
