<svg width="279" height="279" viewBox="0 0 279 279" fill="none" xmlns="http://www.w3.org/2000/svg">
<g clip-path="url(#clip0)">
<path d="M9.42351 172.191C9.46738 172.639 8.58119 173.117 7.22469 173.464C6.88967 173.549 6.59034 173.738 6.36964 174.004C6.14894 174.269 6.01831 174.598 5.99637 174.942C5.91214 176.343 5.6085 177.294 5.1575 177.338C4.7065 177.381 4.22919 176.497 3.88173 175.143C3.79662 174.809 3.60731 174.51 3.34116 174.29C3.075 174.069 2.74574 173.939 2.40064 173.918C0.996751 173.833 0.0403609 173.529 -0.00351059 173.08C-0.0473821 172.632 0.84052 172.149 2.19703 171.804C2.53256 171.72 2.83249 171.531 3.05336 171.265C3.27423 170.999 3.40458 170.67 3.42545 170.326C3.50968 168.925 3.81508 167.972 4.26432 167.93C4.71357 167.888 5.19434 168.769 5.5418 170.124C5.62726 170.459 5.81689 170.758 6.08334 170.978C6.34979 171.198 6.67939 171.329 7.02471 171.35C8.42158 171.434 9.38139 171.739 9.42351 172.191Z" fill="white"/>
<path d="M241.578 216.252C241.578 216.767 240.525 217.216 238.945 217.463C238.557 217.523 238.197 217.706 237.919 217.983C237.641 218.261 237.458 218.619 237.397 219.007C237.15 220.583 236.696 221.634 236.185 221.634C235.674 221.634 235.22 220.583 234.972 219.007C234.911 218.619 234.728 218.261 234.449 217.983C234.171 217.706 233.811 217.523 233.423 217.463C231.843 217.216 230.79 216.762 230.79 216.252C230.79 215.743 231.843 215.286 233.423 215.041C233.812 214.98 234.172 214.798 234.451 214.52C234.73 214.242 234.913 213.883 234.974 213.494C235.221 211.918 235.676 210.867 236.187 210.867C236.697 210.867 237.152 211.918 237.399 213.494C237.46 213.882 237.643 214.241 237.922 214.519C238.2 214.797 238.56 214.98 238.949 215.041C240.525 215.286 241.578 215.736 241.578 216.252Z" fill="white"/>
<path d="M121.249 35.2493C121.012 35.7747 119.704 35.766 117.948 35.3001C117.515 35.1849 117.056 35.2099 116.639 35.3713C116.221 35.5328 115.865 35.8224 115.623 36.1985C114.638 37.7256 113.692 38.617 113.148 38.3806C112.604 38.1441 112.622 36.8395 113.097 35.0864C113.212 34.6542 113.187 34.1968 113.024 33.7799C112.862 33.363 112.572 33.008 112.195 32.766C110.665 31.7836 109.768 30.8397 110.005 30.295C110.242 29.7504 111.553 29.7696 113.31 30.2425C113.743 30.3578 114.202 30.3329 114.62 30.1715C115.038 30.01 115.394 29.7203 115.637 29.3441C116.621 27.8152 117.567 26.9238 118.113 27.1603C118.659 27.3967 118.63 28.7014 118.162 30.4561C118.047 30.8888 118.072 31.3469 118.235 31.7642C118.397 32.1815 118.688 32.5366 119.066 32.7783C120.594 33.7573 121.487 34.7099 121.249 35.2493Z" fill="white"/>
<path d="M261.469 147.086C262.39 147.086 263.136 146.342 263.136 145.423C263.136 144.504 262.39 143.759 261.469 143.759C260.548 143.759 259.802 144.504 259.802 145.423C259.802 146.342 260.548 147.086 261.469 147.086Z" fill="white"/>
<path d="M220.893 174.532C221.985 174.532 222.871 173.649 222.871 172.559C222.871 171.468 221.985 170.585 220.893 170.585C219.801 170.585 218.915 171.468 218.915 172.559C218.915 173.649 219.801 174.532 220.893 174.532Z" fill="white"/>
<path d="M194.395 277.356C195.487 277.356 196.372 276.472 196.372 275.382C196.372 274.292 195.487 273.408 194.395 273.408C193.302 273.408 192.417 274.292 192.417 275.382C192.417 276.472 193.302 277.356 194.395 277.356Z" fill="white"/>
<path d="M54.5306 65.6249C54.4845 65.8799 54.3885 66.1233 54.248 66.3412C54.1076 66.5592 53.9255 66.7473 53.7122 66.895C53.4989 67.0427 53.2585 67.147 53.0047 67.2019C52.751 67.2568 52.4889 67.2613 52.2334 67.215C51.1577 67.0206 50.8436 65.2886 51.0366 64.2116C51.2297 63.1346 51.8632 63.1381 52.9371 63.336C53.4522 63.4294 53.9092 63.7227 54.2079 64.1518C54.5066 64.5809 54.6226 65.1106 54.5306 65.6249Z" fill="white"/>
<path d="M257.454 9.86133C258.375 9.86133 259.121 9.11647 259.121 8.19763C259.121 7.2788 258.375 6.53394 257.454 6.53394C256.533 6.53394 255.787 7.2788 255.787 8.19763C255.787 9.11647 256.533 9.86133 257.454 9.86133Z" fill="white"/>
<path d="M63.9647 17.7595C65.0569 17.7595 65.9424 16.8759 65.9424 15.7858C65.9424 14.6958 65.0569 13.8122 63.9647 13.8122C62.8724 13.8122 61.9869 14.6958 61.9869 15.7858C61.9869 16.8759 62.8724 17.7595 63.9647 17.7595Z" fill="white"/>
<path d="M16.2412 251.668C16.2412 252.038 16.1314 252.399 15.9257 252.706C15.7199 253.014 15.4275 253.253 15.0854 253.394C14.7433 253.536 14.3667 253.573 14.0035 253.501C13.6403 253.429 13.3066 253.251 13.0448 252.989C12.7829 252.728 12.6046 252.395 12.5324 252.033C12.4601 251.67 12.4972 251.294 12.6389 250.953C12.7807 250.612 13.0206 250.32 13.3285 250.114C13.6364 249.909 13.9985 249.799 14.3688 249.799C14.8655 249.799 15.3417 249.996 15.6928 250.347C16.044 250.697 16.2412 251.173 16.2412 251.668Z" fill="white"/>
<path d="M278.142 43.1685C278.616 43.1685 279 42.7851 279 42.3122C279 41.8392 278.616 41.4558 278.142 41.4558C277.668 41.4558 277.284 41.8392 277.284 42.3122C277.284 42.7851 277.668 43.1685 278.142 43.1685Z" fill="white"/>
<path d="M234.204 258.043C234.765 258.043 235.22 257.589 235.22 257.029C235.22 256.469 234.765 256.015 234.204 256.015C233.642 256.015 233.188 256.469 233.188 257.029C233.188 257.589 233.642 258.043 234.204 258.043Z" fill="white"/>
<path d="M211.799 2.02796C212.361 2.02796 212.815 1.57398 212.815 1.01398C212.815 0.453974 212.361 0 211.799 0C211.238 0 210.783 0.453974 210.783 1.01398C210.783 1.57398 211.238 2.02796 211.799 2.02796Z" fill="white"/>
<path d="M10.8135 84.4369C10.7777 84.6342 10.684 84.8165 10.5444 84.9607C10.4048 85.1049 10.2255 85.2046 10.0291 85.2471C9.83278 85.2897 9.62826 85.2732 9.44132 85.1997C9.25437 85.1262 9.09337 84.999 8.97883 84.8343C8.86428 84.6696 8.80126 84.4746 8.79771 84.2742C8.79415 84.0737 8.85026 83.8766 8.9589 83.708C9.06754 83.5393 9.22389 83.4065 9.40811 83.3265C9.59234 83.2465 9.79615 83.2228 9.99389 83.2583C10.1253 83.282 10.2507 83.3312 10.363 83.4033C10.4753 83.4753 10.5723 83.5687 10.6484 83.6782C10.7245 83.7876 10.7783 83.911 10.8066 84.0412C10.8349 84.1714 10.8373 84.3058 10.8135 84.4369Z" fill="white"/>
<path d="M35.0342 269.739C35.5662 269.739 35.9976 269.309 35.9976 268.778C35.9976 268.247 35.5662 267.816 35.0342 267.816C34.5021 267.816 34.0707 268.247 34.0707 268.778C34.0707 269.309 34.5021 269.739 35.0342 269.739Z" fill="white"/>
<path d="M222.844 230.86C223.406 230.86 223.861 230.406 223.861 229.846C223.861 229.286 223.406 228.832 222.844 228.832C222.283 228.832 221.828 229.286 221.828 229.846C221.828 230.406 222.283 230.86 222.844 230.86Z" fill="white"/>
<path d="M28.4797 134.766C29.5138 134.766 30.3521 133.93 30.3521 132.898C30.3521 131.866 29.5138 131.029 28.4797 131.029C27.4456 131.029 26.6072 131.866 26.6072 132.898C26.6072 133.93 27.4456 134.766 28.4797 134.766Z" fill="white"/>
<path d="M264.357 55.7373C264.621 56.2627 264.884 56.7986 265.128 57.3327C271.527 71.1582 272.279 86.9275 267.224 101.297C262.169 115.666 251.704 127.506 238.049 134.305C224.393 141.104 208.621 142.327 194.077 137.717C179.533 133.106 167.36 123.023 160.14 109.606C159.861 109.088 159.59 108.562 159.325 108.03C152.432 94.2733 151.244 78.3614 156.017 63.737C160.79 49.1125 171.141 36.9515 184.831 29.8852C185.096 29.7451 185.368 29.6103 185.64 29.4737C185.912 29.3371 186.185 29.2022 186.461 29.0727C200.351 22.411 216.311 21.4736 230.888 26.4632C245.465 31.4528 257.489 41.9684 264.357 55.7356V55.7373Z" fill="#00BDFF"/>
<g opacity="0.4">
<g opacity="0.4">
<path opacity="0.4" d="M219.026 35.7239C232.047 35.3982 249.613 42.8305 253.563 58.3152C257.31 73.0047 243.298 63.5181 235.376 54.7338C228.844 47.4854 210.085 35.9481 219.026 35.7239Z" fill="white"/>
</g>
</g>
<g opacity="0.6">
<g opacity="0.6">
<path opacity="0.6" d="M183.892 34.5699C184.157 34.4298 184.429 34.2949 184.701 34.1601C184.973 34.0252 185.246 33.8869 185.522 33.759C199.412 27.0968 215.372 26.1588 229.949 31.1482C244.526 36.1375 256.55 46.653 263.419 60.4202C263.684 60.9491 263.941 61.4809 264.189 62.0156C269.07 72.522 270.704 84.2413 268.881 95.6783C272.02 82.8389 270.696 69.3165 265.128 57.3257C264.88 56.7916 264.621 56.2592 264.357 55.7303C257.489 41.9627 245.465 31.4468 230.887 26.4571C216.309 21.4675 200.35 22.4052 186.459 29.0674C186.185 29.197 185.91 29.3336 185.64 29.4685C185.369 29.6033 185.096 29.7399 184.831 29.88C176.661 34.0998 169.601 40.1795 164.222 47.6272C158.844 55.075 155.297 63.6816 153.87 72.7508C155.841 64.6119 159.542 56.9908 164.722 50.4034C169.901 43.8161 176.439 38.4164 183.892 34.5699Z" fill="white"/>
</g>
</g>
<path d="M211.842 141.848C197.034 141.839 182.752 136.369 171.74 126.49C160.728 116.611 153.762 103.019 152.181 88.3267C150.6 73.6341 154.514 58.8765 163.173 46.889C171.831 34.9015 184.623 26.5297 199.091 23.3818C213.559 20.2338 228.681 22.5319 241.555 29.8345C254.428 37.137 264.143 48.9291 268.834 62.9451C273.524 76.9612 272.86 92.2127 266.968 105.77C261.076 119.327 250.373 130.233 236.913 136.393C233.197 138.123 229.305 139.445 225.303 140.337H225.273C220.867 141.341 216.361 141.848 211.842 141.848ZM211.842 24.7085C203.778 24.7155 195.807 26.4208 188.45 29.713C181.092 33.0051 174.514 37.8099 169.145 43.8132C163.776 49.8166 159.737 56.8832 157.292 64.5512C154.847 72.2191 154.052 80.3156 154.958 88.3114C155.864 96.3071 158.451 104.022 162.549 110.952C166.648 117.881 172.166 123.869 178.743 128.525C185.32 133.18 192.807 136.398 200.715 137.967C208.624 139.537 216.775 139.423 224.636 137.633C228.463 136.787 232.185 135.525 235.736 133.868C247.617 128.427 257.276 119.095 263.112 107.422C268.947 95.7486 270.608 82.4349 267.818 69.6901C265.028 56.9453 257.956 45.5354 247.774 37.3536C237.592 29.1719 224.914 24.7101 211.842 24.7085Z" fill="#371A45"/>
<path d="M108.127 160.142C139.506 151.705 151.718 137.469 156.993 123.171C162.268 108.874 159.541 97.2877 164.904 99.6607C170.267 102.034 178.201 108.983 177.334 123.896C176.841 132.402 184.023 129.05 187.1 132.339C190.176 135.628 180.068 136.068 176.881 138.26C173.694 140.453 155.328 181.972 122.803 187.674" fill="white"/>
<path d="M169.225 151.873C169.091 151.872 168.958 151.849 168.832 151.804C154.603 146.776 152.971 130.964 152.91 130.299C152.881 129.99 152.976 129.682 153.175 129.443C153.374 129.204 153.659 129.054 153.969 129.025C154.279 128.996 154.587 129.091 154.826 129.289C155.066 129.488 155.217 129.773 155.245 130.082C155.265 130.271 156.837 145.081 169.616 149.598C169.877 149.69 170.098 149.871 170.238 150.109C170.379 150.348 170.43 150.628 170.383 150.901C170.336 151.174 170.194 151.421 169.982 151.599C169.77 151.777 169.502 151.875 169.225 151.874V151.873Z" fill="#371A45"/>
<g opacity="0.35">
<g opacity="0.35">
<path opacity="0.35" d="M186.731 134.731C184.529 136.075 179.071 136.754 176.881 138.26C173.696 140.453 155.328 181.97 122.802 187.672L108.127 160.142C111.225 159.31 130.539 156.025 133.273 155.084C133.567 157.258 134.436 159.313 135.79 161.04C137.145 162.767 138.935 164.103 140.978 164.911C143.021 165.719 145.242 165.969 147.414 165.636C149.586 165.304 151.63 164.4 153.336 163.018C165.397 153.106 173.408 135.553 175.879 134.488C178.027 133.558 182.395 134.02 186.731 134.731Z" fill="#371A45"/>
</g>
</g>
<path d="M122.802 189.066C122.464 189.047 122.145 188.908 121.902 188.673C121.659 188.438 121.51 188.124 121.48 187.788C121.451 187.452 121.544 187.117 121.743 186.844C121.942 186.571 122.232 186.379 122.561 186.302C147.938 181.852 164.762 154.627 171.947 143.001C174.266 139.244 175.242 137.698 176.09 137.115C177.853 136.139 179.751 135.431 181.723 135.013C183.276 134.676 184.78 134.142 186.198 133.425C186.168 133.388 186.129 133.343 186.08 133.29C185.048 132.474 183.797 131.982 182.484 131.877C179.559 131.29 175.555 130.485 175.941 123.821C176.874 107.767 167.296 102.249 164.339 100.939C163.846 100.722 163.618 100.738 163.574 100.764C162.872 101.153 162.405 104.538 162.028 107.259C161.403 112.847 160.153 118.346 158.302 123.656C155.279 131.962 150.08 139.306 143.246 144.925C134.833 151.979 123.14 157.554 108.491 161.492C108.135 161.583 107.759 161.53 107.442 161.345C107.126 161.161 106.895 160.859 106.799 160.506C106.704 160.152 106.751 159.776 106.932 159.457C107.113 159.139 107.412 158.904 107.764 158.804C133.968 151.757 149.195 140.285 155.682 122.695C157.46 117.572 158.662 112.267 159.264 106.879C159.91 102.212 160.3 99.3944 162.218 98.3297C162.725 98.0789 163.285 97.9536 163.851 97.9646C164.417 97.9756 164.972 98.1224 165.469 98.3927C168.842 99.8865 179.763 106.142 178.727 123.982C178.48 128.238 180.194 128.583 183.035 129.152C184.929 129.337 186.713 130.123 188.125 131.395C188.503 131.73 188.784 132.162 188.936 132.644C189.087 133.126 189.105 133.64 188.986 134.131C188.437 136.057 185.67 136.824 182.465 137.703C180.801 138.062 179.191 138.636 177.676 139.412C176.443 141.018 175.323 142.706 174.324 144.467C166.943 156.412 149.658 184.385 123.047 189.05C122.966 189.062 122.884 189.068 122.802 189.066Z" fill="#371A45"/>
<path d="M70.6542 233.119C73.0129 234.381 75.6181 235.116 78.2896 235.275C88.5538 236.269 101.95 232.693 101.95 232.693L98.9197 167.151L98.4933 157.937C97.572 158.438 74.185 163.892 62.8837 173.082C53.4671 180.746 60.7708 227.203 70.6542 233.119Z" fill="white"/>
<g opacity="0.35">
<g opacity="0.35">
<path opacity="0.35" d="M70.6542 233.119C73.0129 234.381 75.6181 235.116 78.2896 235.275L78.6844 235.31C78.8704 235.327 79.0564 235.341 79.2425 235.352C79.4548 235.369 79.6706 235.381 79.8865 235.392L80.2884 235.413C80.8417 235.434 81.4016 235.446 81.9678 235.45C82.2117 235.45 82.4574 235.45 82.7031 235.45C82.7733 235.45 82.8435 235.45 82.9137 235.45H83.4173H83.5928C83.87 235.45 84.1474 235.432 84.4264 235.422C84.9809 235.397 85.5343 235.366 86.0864 235.327L86.4988 235.299C86.7761 235.278 87.0516 235.255 87.3254 235.231L87.736 235.194C87.8711 235.184 88.008 235.168 88.1431 235.155C88.4695 235.126 88.7924 235.089 89.1135 235.054L89.5821 235.001C90.1671 234.932 90.7474 234.858 91.323 234.779C91.4546 234.763 91.5826 234.744 91.709 234.725L91.8967 234.698C91.9985 234.686 92.1004 234.67 92.2039 234.655C92.4268 234.621 92.6478 234.59 92.8654 234.555L93.527 234.45C94.143 234.35 94.7379 234.25 95.3082 234.145C95.5311 234.108 95.7504 234.066 95.9628 234.024C96.1751 233.982 96.4015 233.944 96.6104 233.903L97.0876 233.811L97.7756 233.672L98.0528 233.614C100.448 233.117 101.956 232.714 101.956 232.714L98.925 167.172C98.0739 167.403 97.2807 167.627 96.556 167.835C93.7727 168.634 91.9932 169.205 91.9932 169.205C91.9932 169.205 77.2244 169.944 76.1258 175.697C74.3569 184.942 74.2885 191.069 73.82 204.642C73.7732 206.024 73.7468 207.393 73.7409 208.748C73.742 209.495 73.5462 210.229 73.1731 210.876C72.7999 211.523 72.2627 212.061 71.6154 212.435C70.9681 212.809 70.2334 213.007 69.4852 213.008C68.7371 213.009 68.0019 212.814 67.3533 212.442L67.3006 212.408C63.9453 210.401 60.8867 203.724 58.6791 195.477C59.6443 211.14 64.6877 229.541 70.6542 233.119Z" fill="#371A45"/>
</g>
</g>
<path d="M82.2363 236.84C77.9919 237.067 73.7607 236.197 69.9522 234.313C63.4979 230.452 58.486 212.095 57.3682 196.579C56.8417 189.243 56.7399 176.294 62.0168 172.003C71.6685 164.16 89.3172 159.142 95.9628 157.253C96.8508 157 97.6913 156.762 97.9054 156.682C98.2336 156.525 98.61 156.503 98.9543 156.62C99.2987 156.736 99.5839 156.982 99.7491 157.306C99.9143 157.629 99.9464 158.004 99.8387 158.351C99.731 158.697 99.4919 158.988 99.1724 159.161C98.3805 159.485 97.5628 159.743 96.7279 159.93C90.8544 161.601 72.9811 166.681 63.7786 174.163C60.7322 176.639 59.3406 185.152 60.1496 196.379C61.3271 212.708 66.4671 228.984 71.3807 231.93C79.9322 237.045 101.389 231.404 101.598 231.354C101.782 231.282 101.979 231.249 102.176 231.259C102.373 231.268 102.567 231.319 102.743 231.408C102.919 231.497 103.075 231.622 103.199 231.775C103.324 231.928 103.415 232.106 103.466 232.296C103.517 232.486 103.527 232.686 103.496 232.88C103.464 233.075 103.392 233.261 103.284 233.426C103.176 233.591 103.034 233.731 102.867 233.837C102.701 233.944 102.514 234.014 102.319 234.043C95.7531 235.735 89.0153 236.673 82.2363 236.84ZM97.8826 156.69L97.8335 156.715L97.8826 156.69Z" fill="#371A45"/>
<path d="M61.3656 173.27C62.0553 173.147 62.6467 173.094 63.282 173.033C63.9173 172.972 64.5279 172.946 65.1474 172.932C66.3881 172.902 67.6252 172.932 68.8554 173.014C70.0855 173.096 71.3122 173.233 72.5248 173.439C73.7374 173.646 74.9395 173.893 76.131 174.18C76.3379 174.223 76.5192 174.346 76.6351 174.523C76.7509 174.699 76.7919 174.914 76.7488 175.121C76.7058 175.327 76.5823 175.508 76.4055 175.624C76.2288 175.739 76.0132 175.78 75.8064 175.737H75.7836C74.6218 175.53 73.4602 175.345 72.288 175.236C71.1157 175.128 69.9452 175.061 68.7782 175.04C67.6113 175.019 66.4372 175.075 65.2772 175.173C64.6981 175.22 64.1208 175.29 63.5505 175.371C62.9802 175.452 62.3905 175.555 61.9027 175.672H61.8711C61.5534 175.749 61.2184 175.696 60.9396 175.526C60.6609 175.356 60.4613 175.082 60.3847 174.765C60.3082 174.448 60.3609 174.114 60.5313 173.836C60.7018 173.557 60.9761 173.358 61.2937 173.282L61.3656 173.27Z" fill="#371A45"/>
<path d="M60.5162 208.053L72.3685 207.272C72.8817 207.237 73.3922 207.372 73.8199 207.658C74.2477 207.943 74.5685 208.361 74.7323 208.848C75.9607 212.526 78.3315 221.17 75.0657 224.597C73.6196 225.963 71.7666 226.822 69.7875 227.043C67.8084 227.265 65.811 226.836 64.0978 225.823C60.4582 223.546 58.9122 214.949 58.3577 210.668C58.3175 210.353 58.3423 210.033 58.4305 209.728C58.5188 209.423 58.6686 209.14 58.8708 208.895C59.073 208.65 59.3233 208.449 59.6062 208.304C59.8892 208.159 60.1989 208.074 60.5162 208.053Z" fill="white"/>
<g opacity="0.35">
<g opacity="0.35">
<path opacity="0.35" d="M74.7324 208.859C75.9608 212.536 78.3317 221.179 75.0641 224.606C73.6181 225.973 71.7652 226.831 69.7861 227.053C67.8069 227.274 65.8094 226.845 64.0963 225.832C61.8588 224.431 60.4111 220.634 59.5021 216.93C60.1385 218.522 61.1771 219.921 62.5168 220.993C69.2432 225.888 72.6951 218.506 72.6951 218.506C72.6951 218.506 73.6936 220.039 74.3183 220.046C76.9261 220.074 75.2642 212.176 74.3096 208.107C74.498 208.328 74.6416 208.583 74.7324 208.859Z" fill="#371A45"/>
</g>
</g>
<path d="M68.7641 228.497C66.8569 228.515 64.983 227.998 63.3557 227.005C59.495 224.583 57.7559 216.883 56.975 210.85C56.9099 210.346 56.9489 209.835 57.0895 209.347C57.2302 208.859 57.4695 208.404 57.7928 208.012C58.116 207.62 58.5163 207.298 58.969 207.066C59.4218 206.834 59.9173 206.698 60.4251 206.664L72.2774 205.883C73.1002 205.826 73.9186 206.045 74.6032 206.504C75.2878 206.963 75.7994 207.637 76.0573 208.419C77.6367 213.174 79.7426 221.729 76.0767 225.566C75.1155 226.516 73.9732 227.266 72.7174 227.769C71.4615 228.273 70.1173 228.52 68.7641 228.497ZM60.6093 209.444C60.4816 209.451 60.3569 209.485 60.2429 209.543C60.1289 209.601 60.0281 209.682 59.9467 209.781C59.8654 209.879 59.8053 209.993 59.7701 210.116C59.735 210.239 59.7255 210.368 59.7424 210.494C60.7093 217.96 62.6151 223.252 64.842 224.65C66.2799 225.498 67.9543 225.858 69.6146 225.678C71.275 225.497 72.8322 224.785 74.0533 223.648C76.3066 221.286 75.1975 214.685 73.4093 209.288C73.3439 209.092 73.2151 208.924 73.0432 208.809C72.8713 208.695 72.666 208.641 72.4599 208.655L60.6093 209.444Z" fill="#371A45"/>
<path d="M68.7817 226.063C68.8736 226.005 68.9616 225.942 69.0449 225.872C69.1485 225.785 69.252 225.697 69.352 225.594C69.5605 225.393 69.7546 225.177 69.9329 224.949C70.3052 224.478 70.6231 223.966 70.8806 223.424C71.4191 222.29 71.7574 221.072 71.8807 219.823C71.9968 218.52 71.9891 217.209 71.8579 215.907C71.8018 215.245 71.7211 214.587 71.6071 213.937C71.5073 213.303 71.3479 212.68 71.1314 212.076L71.114 212.032C71.081 211.945 71.0822 211.849 71.1175 211.763C71.1527 211.677 71.2194 211.608 71.3039 211.57C71.3883 211.531 71.4844 211.526 71.5726 211.555C71.6608 211.584 71.7346 211.646 71.779 211.727C72.0981 212.365 72.3516 213.034 72.5354 213.724C72.7267 214.391 72.8863 215.065 73.0144 215.741C73.3015 217.113 73.4567 218.509 73.4777 219.911C73.4878 221.371 73.2438 222.821 72.7565 224.198C72.5081 224.911 72.179 225.594 71.7755 226.233C71.57 226.562 71.3425 226.878 71.0946 227.177C70.9717 227.329 70.8348 227.478 70.6927 227.625C70.5332 227.791 70.362 227.946 70.1803 228.087L70.0312 228.203C69.7692 228.406 69.4368 228.498 69.1074 228.457C68.778 228.416 68.4784 228.246 68.2745 227.984C68.0707 227.723 67.9793 227.391 68.0205 227.062C68.0616 226.734 68.2318 226.435 68.4939 226.231C68.5826 226.164 68.6793 226.107 68.7817 226.063Z" fill="#371A45"/>
<path d="M181.463 259.05C165.545 263.286 164.341 254.637 156.741 243.09C150.062 232.944 120.329 243.463 120.329 243.463C120.329 243.463 121.961 269.499 106.234 274.636C91.6195 279.405 82.4801 266.794 82.4801 266.794C82.4801 266.794 82.08 276.293 73.5303 277.504C67.9428 278.298 60.2548 275.014 60.346 260.528C60.4636 241.535 70.2557 237.558 77.0944 239.089C81.4131 240.057 84.0401 240.579 85.2984 240.816C85.8845 240.928 86.1758 240.975 86.1986 240.978C86.146 240.875 84.4649 237.651 82.71 228.417C82.1695 225.59 81.6255 222.203 81.1201 218.172C80.4918 213.209 79.9233 207.267 79.4951 200.193C79.4249 199.034 79.3588 197.845 79.2968 196.626C78.9721 190.364 78.7581 183.283 78.7002 175.296C78.6897 173.753 78.6862 172.18 78.6862 170.567C78.6862 168.609 78.6966 166.603 78.7176 164.548L131.188 160.696C133.255 165.021 135.024 168.944 136.539 172.545C144.174 190.689 145.352 200.544 145.948 211.72L145.959 211.909L146.015 211.899C147.222 211.652 168.147 207.564 176.702 216.037C184.248 223.51 184.188 235.53 184.188 235.53C184.188 235.53 199.559 230.527 200.18 242.185C200.466 247.602 195.074 255.43 181.463 259.05Z" fill="white"/>
<g opacity="0.35">
<g opacity="0.35">
<path opacity="0.35" d="M181.463 259.05C165.545 263.286 164.341 254.637 156.741 243.09C150.062 232.944 120.329 243.463 120.329 243.463C120.329 243.463 121.961 269.499 106.234 274.636C91.6195 279.405 82.4802 266.794 82.4802 266.794C82.4802 266.794 82.08 276.293 73.5303 277.504C68.2464 278.256 61.0849 275.359 60.4023 262.794C62.5713 270.699 68.2781 272.547 72.6863 272.025C79.4355 271.23 79.9514 264.985 79.267 260.039C79.2357 259.83 79.2763 259.617 79.3823 259.435C79.4882 259.252 79.6532 259.111 79.8501 259.034C80.0471 258.957 80.2644 258.949 80.4664 259.011C80.6685 259.074 80.8433 259.203 80.9622 259.377C84.9475 265.249 92.4635 273.399 102.275 270.911C116.498 267.302 117.528 246.955 117.309 238.338C117.251 236.071 119.239 235.238 121.478 234.849C123.88 234.343 126.307 233.961 128.749 233.705C139.531 232.849 153.054 233.693 156.144 236.36C167.83 246.43 164.743 258.41 180.982 255.598C195.583 253.067 198.98 244.304 199.329 238.611C199.849 239.74 200.137 240.961 200.177 242.203C200.466 247.602 195.074 255.43 181.463 259.05Z" fill="#371A45"/>
</g>
</g>
<g opacity="0.35">
<g opacity="0.35">
<path opacity="0.35" d="M144.239 216.41C143.126 217.002 141.749 217.743 140.134 218.512C129.079 223.799 115.014 228.387 111.564 228.235C110.802 228.297 110.04 228.13 109.374 227.755C108.709 227.381 108.171 226.816 107.831 226.133L106.725 222.806C103.478 224.574 100.062 226.014 96.5279 227.103C83.1506 230.793 99.5778 233.98 99.5778 235.451C99.5778 236.923 87.4693 232.73 90.8667 240.646C91.0165 241.011 91.0469 241.414 90.9536 241.797C90.8603 242.181 90.648 242.525 90.3471 242.781C90.0462 243.037 89.6721 243.192 89.2779 243.223C88.8837 243.255 88.4896 243.161 88.152 242.956C87.1325 242.333 86.1748 241.615 85.2915 240.812C85.8776 240.924 86.169 240.971 86.1918 240.975C86.1391 240.872 84.458 237.648 82.7031 228.413C82.5639 227.694 82.4258 226.935 82.289 226.137C82.2609 225.961 82.2293 225.786 82.1977 225.597C81.9637 224.205 81.7297 222.697 81.4957 221.072C81.4641 220.842 81.4291 220.606 81.3975 220.371C81.2992 219.66 81.2026 218.927 81.1079 218.17C82.6995 218.221 84.2928 218.178 85.8794 218.042C91.9964 217.389 97.9386 215.608 103.403 212.788C103.403 212.788 101.171 206.134 101.496 202.582C101.617 201.249 108.415 202.689 108.415 202.689L108.821 202.514C108.909 202.479 109 202.45 109.093 202.426C115.336 200.752 127.736 197.3 134.426 194.63C135.322 194.273 136.322 194.278 137.215 194.642C138.108 195.006 138.825 195.702 139.215 196.582L142.972 205.034L144.516 208.512L145.894 211.606C145.911 211.645 145.925 211.678 145.939 211.717C145.965 211.774 145.987 211.832 146.006 211.892C146.301 212.731 146.285 213.649 145.961 214.477C145.637 215.306 145.026 215.992 144.239 216.41Z" fill="#371A45"/>
</g>
</g>
<g opacity="0.35">
<g opacity="0.35">
<path opacity="0.35" d="M85.8846 218.039C84.298 218.175 82.7048 218.217 81.1132 218.167C80.4849 213.203 79.9163 207.261 79.4881 200.188C79.4179 199.029 79.3519 197.84 79.2899 196.621L85.1002 198.435C83.5313 206.612 93.7306 203.528 93.7675 204.319C93.8043 205.111 88.0115 208.102 87.5868 209.808C87.2218 211.268 92.2652 210.333 92.4355 211.233C92.6057 212.133 85.56 214.836 85.8846 218.039Z" fill="#371A45"/>
</g>
</g>
<path d="M71.9843 279.002C69.1634 279.018 66.4323 278.013 64.298 276.172C60.6988 273.035 58.8984 267.766 58.944 260.516C59.0177 248.469 62.9345 242.844 66.2073 240.246C67.7628 239.016 69.5759 238.15 71.5122 237.714C73.4485 237.278 75.4584 237.282 77.3929 237.726C80.3252 238.383 82.4819 238.835 83.949 239.127C81.7501 232.781 76.8383 213.067 77.3156 164.524C77.3216 164.158 77.4709 163.808 77.7317 163.551C77.9924 163.293 78.3438 163.148 78.7107 163.146H78.7248C79.094 163.149 79.4468 163.298 79.7058 163.561C79.9647 163.823 80.1086 164.178 80.1058 164.547C79.5162 224.494 87.3517 240.166 87.4306 240.318C87.5488 240.548 87.6009 240.807 87.581 241.065C87.5611 241.322 87.4701 241.57 87.3181 241.779C87.166 241.989 86.9587 242.152 86.7193 242.251C86.4799 242.35 86.2178 242.381 85.9618 242.341C85.8513 242.322 83.1699 241.861 76.7804 240.43C75.253 240.078 73.6656 240.074 72.1361 240.417C70.6066 240.76 69.1741 241.442 67.9446 242.413C63.9348 245.597 61.7868 251.857 61.7342 260.521C61.6938 266.836 63.2153 271.519 66.1337 274.061C67.1127 274.903 68.263 275.522 69.5053 275.875C70.7476 276.229 72.0521 276.309 73.3285 276.11C80.6498 275.072 81.0728 267.06 81.0868 266.718C81.1039 266.432 81.2087 266.157 81.3871 265.932C81.5656 265.707 81.809 265.542 82.0845 265.46C82.36 265.377 82.6543 265.381 82.9275 265.471C83.2007 265.561 83.4396 265.732 83.612 265.962C83.963 266.44 92.3583 277.685 105.801 273.298C120.311 268.57 118.951 243.787 118.937 243.539C118.918 243.237 118.997 242.936 119.164 242.683C119.331 242.431 119.576 242.239 119.862 242.138C121.119 241.693 150.711 231.38 157.906 242.313C159.248 244.351 160.414 246.341 161.44 248.092C166.303 256.368 168.986 260.927 181.105 257.699C193.642 254.372 199.057 247.355 198.785 242.255C198.819 241.272 198.614 240.296 198.188 239.41C197.762 238.523 197.128 237.752 196.339 237.162C192.319 234.404 184.692 236.824 184.615 236.849C184.405 236.917 184.182 236.935 183.964 236.9C183.746 236.865 183.539 236.779 183.36 236.65C183.182 236.52 183.037 236.349 182.938 236.153C182.838 235.956 182.787 235.738 182.788 235.518C182.788 235.404 182.742 223.981 175.718 217.021C167.545 208.925 146.454 213.223 146.236 213.267C146.039 213.308 145.835 213.306 145.639 213.261C145.443 213.217 145.259 213.13 145.099 213.008C144.94 212.885 144.809 212.73 144.715 212.552C144.621 212.374 144.567 212.178 144.557 211.978C143.865 198.78 142.409 187.418 129.921 161.289C129.808 160.964 129.819 160.608 129.952 160.29C130.085 159.972 130.331 159.714 130.643 159.565C130.954 159.417 131.31 159.388 131.641 159.485C131.973 159.582 132.257 159.797 132.439 160.09C144.651 185.64 146.499 197.376 147.256 210.247C152.601 209.349 169.765 207.205 177.678 215.044C183.851 221.159 185.199 229.97 185.492 233.733C188.354 233.079 194.091 232.247 197.908 234.863C199.054 235.69 199.985 236.779 200.621 238.04C201.258 239.3 201.582 240.695 201.567 242.106C201.897 248.293 195.858 256.654 181.819 260.391C167.642 264.162 164.029 258.013 159.029 249.502C157.976 247.696 156.872 245.824 155.57 243.85C150.776 236.569 130.409 241.535 121.759 244.435C121.893 249.57 121.538 271.097 106.667 275.949C102.605 277.232 98.2623 277.342 94.1406 276.264C90.019 275.187 86.2872 272.967 83.3769 269.862C82.8674 272.16 81.6728 274.251 79.9501 275.86C78.2274 277.468 76.0573 278.518 73.7252 278.872C73.1487 278.956 72.5669 279 71.9843 279.002Z" fill="#371A45"/>
<path d="M92.8672 165.496L89.0311 181.761L85.1002 198.435C83.1801 198.852 81.3009 199.438 79.4846 200.186C67.9218 204.715 50.189 215.576 50.189 215.576C50.8683 217.022 51.2193 218.6 51.2168 220.197C51.2144 221.794 50.8587 223.37 50.175 224.814C49.2046 226.781 44.591 225.967 44.591 225.967C44.591 225.967 41.985 230.616 38.6052 231.324C35.2253 232.031 30.5644 224.814 25.7122 221.601C20.8601 218.387 23.7941 204.642 39.1597 191.435C48.1235 183.73 63.2574 176.725 75.1799 171.94C76.3803 171.455 77.549 170.996 78.6756 170.562C86.8972 167.389 92.8672 165.496 92.8672 165.496Z" fill="white"/>
<g opacity="0.35">
<g opacity="0.35">
<path opacity="0.35" d="M85.1002 198.444C83.1802 198.861 81.3009 199.447 79.4846 200.195C67.9219 204.724 50.1891 215.585 50.1891 215.585C50.8684 217.031 51.2193 218.609 51.2169 220.206C51.2144 221.803 50.8587 223.379 50.175 224.823C49.2046 226.79 44.5911 225.975 44.5911 225.975C44.5911 225.975 41.9851 230.625 38.6052 231.333C35.2253 232.04 30.5645 224.823 25.7123 221.61C24.6984 220.886 24.0061 219.798 23.7819 218.575C27.9935 222.096 34.4866 229.762 37.3926 228.886C42.0413 227.485 42.0044 222.324 42.0044 222.324C42.0044 222.324 45.514 223.11 47.0706 221.568C48.922 219.734 48.3938 215.984 47.1461 213.356C47.1461 213.356 60.8639 202.498 69.7715 199.404C74.1003 197.706 78.627 196.561 83.2436 195.997C83.5514 195.964 83.8626 196.011 84.1469 196.134C84.4311 196.256 84.6787 196.45 84.8657 196.696C85.0526 196.943 85.1724 197.233 85.2135 197.539C85.2546 197.846 85.2156 198.157 85.1002 198.444Z" fill="#371A45"/>
</g>
</g>
<path d="M93.0094 165.937C88.5416 168.246 83.9289 170.264 79.2003 171.979C76.8646 172.881 74.5306 173.783 72.2054 174.709L68.7413 176.154C67.5901 176.642 66.46 177.168 65.3141 177.676C64.1682 178.184 63.0433 178.726 61.9184 179.252C60.7936 179.777 59.6547 180.303 58.5527 180.894L55.2184 182.602L51.9561 184.415C47.638 186.817 43.5517 189.613 39.7493 192.766C36.0132 195.959 32.7066 199.62 29.9116 203.659C28.5422 205.653 27.3819 207.783 26.4492 210.014C25.9942 211.107 25.6286 212.234 25.356 213.386C25.0827 214.49 24.9529 215.626 24.9699 216.764C24.9811 217.295 25.0476 217.823 25.1682 218.34C25.2815 218.801 25.4643 219.242 25.7104 219.648C25.8292 219.823 25.9644 219.986 26.1141 220.135C26.1822 220.21 26.2594 220.277 26.3439 220.333L26.4633 220.427C26.5054 220.461 26.5966 220.52 26.6598 220.566C27.2284 220.949 27.7601 221.361 28.269 221.792C30.3011 223.485 32.0297 225.361 33.8038 227.061C34.6318 227.89 35.5301 228.646 36.4888 229.32C36.8756 229.593 37.3049 229.8 37.7593 229.933C37.9092 229.976 38.0655 229.991 38.2209 229.979C38.251 229.973 38.2815 229.97 38.3121 229.968L38.4683 229.923C38.5753 229.889 38.6824 229.868 38.7912 229.828C39.2537 229.644 39.6907 229.402 40.0915 229.107C40.5307 228.777 40.9417 228.412 41.3199 228.014C41.7148 227.6 42.0846 227.163 42.4272 226.706C42.7684 226.253 43.0841 225.782 43.3731 225.294C43.5154 225.046 43.7293 224.847 43.9869 224.722C44.2445 224.597 44.5339 224.552 44.8173 224.594H44.8332C45.9249 224.787 47.0423 224.787 48.134 224.594L48.4464 224.501C48.5236 224.459 48.6324 224.431 48.6885 224.391C48.7447 224.35 48.8254 224.322 48.8342 224.287C48.8488 224.272 48.866 224.258 48.8851 224.249C48.8851 224.235 48.8852 224.222 48.8992 224.214L48.9133 224.201C48.9133 224.201 48.9132 224.201 48.9237 224.201L48.9466 224.154L49.0343 223.967C49.0957 223.842 49.1414 223.711 49.1975 223.583C49.2993 223.324 49.3888 223.06 49.466 222.792C49.7736 221.711 49.877 220.583 49.7713 219.464C49.6574 218.317 49.3656 217.194 48.9062 216.137V216.119C48.7792 215.813 48.7659 215.472 48.8685 215.157C48.9711 214.842 49.183 214.574 49.466 214.401C52.2738 212.701 55.0816 211.063 57.9209 209.451C60.7603 207.838 63.6277 206.275 66.5197 204.757L70.8893 202.514C71.6175 202.141 72.3476 201.766 73.0864 201.405C73.8252 201.044 74.5517 200.663 75.3151 200.342C76.0785 200.022 76.8348 199.7 77.5964 199.397C78.3843 199.127 79.1758 198.852 79.969 198.621C80.7621 198.39 81.6151 198.248 82.4381 198.095C82.8623 198.031 83.2902 197.996 83.7191 197.989C84.1491 197.968 84.579 197.966 85.0037 197.989C85.1041 197.995 85.2 198.032 85.2777 198.096C85.3554 198.16 85.4109 198.246 85.4364 198.343C85.4619 198.44 85.456 198.543 85.4196 198.637C85.3832 198.73 85.318 198.81 85.2335 198.864L85.1791 198.896C84.4544 199.34 83.7366 199.64 83.0259 200.015C82.675 200.19 82.3135 200.382 81.9555 200.554C81.5975 200.726 81.2378 200.873 80.8798 201.062C80.1656 201.425 79.439 201.745 78.7125 202.067C77.986 202.389 77.2648 202.75 76.5295 203.067C73.5954 204.356 70.6542 205.694 67.8061 207.219C64.9579 208.745 62.1063 210.274 59.288 211.867C56.4697 213.461 53.6724 215.1 50.9155 216.771L51.4683 215.035C52.042 216.36 52.4055 217.767 52.5458 219.203C52.6842 220.667 52.5484 222.143 52.1457 223.557C52.0421 223.907 51.9245 224.257 51.7947 224.608C51.7227 224.783 51.6579 224.958 51.5771 225.117L51.4595 225.369L51.4297 225.432L51.3752 225.525L51.2559 225.716C51.1758 225.843 51.0891 225.965 50.9962 226.082C50.8979 226.182 50.7962 226.282 50.6926 226.376C50.4971 226.554 50.2809 226.707 50.0486 226.834C49.8412 226.945 49.6267 227.043 49.4064 227.126C49.1975 227.2 48.9957 227.252 48.7886 227.312C48.0402 227.479 47.274 227.554 46.5073 227.534C45.7825 227.524 45.0594 227.461 44.3436 227.347L45.8054 226.646C45.457 227.242 45.0737 227.817 44.6576 228.368C44.2471 228.915 43.8042 229.438 43.331 229.933C42.3383 231.024 41.114 231.88 39.7476 232.438C39.5616 232.506 39.3598 232.555 39.1667 232.613L38.8684 232.691L38.4928 232.746C38.0217 232.789 37.5467 232.749 37.0889 232.63C36.3289 232.424 35.6097 232.09 34.9621 231.642C33.8581 230.875 32.8245 230.012 31.8735 229.063C30.0221 227.284 28.3287 225.455 26.4896 223.93C26.0316 223.548 25.5666 223.191 25.0857 222.879L24.898 222.746L24.6418 222.553C24.469 222.43 24.3079 222.291 24.1609 222.138C23.8634 221.845 23.597 221.523 23.3659 221.175C22.9514 220.511 22.6446 219.785 22.4569 219.025C22.2889 218.316 22.1948 217.592 22.1762 216.864C22.1514 215.487 22.3053 214.112 22.6341 212.774C22.9411 211.48 23.3519 210.213 23.8626 208.985C24.8679 206.576 26.1187 204.277 27.5952 202.123C30.5255 197.883 33.9939 194.039 37.9138 190.688C41.8542 187.412 46.0911 184.51 50.5698 182.017L53.9041 180.164L57.2909 178.427C58.4123 177.833 59.5722 177.313 60.7076 176.76C61.843 176.206 62.989 175.66 64.149 175.152L67.6112 173.595L71.0929 172.084C73.4181 171.089 75.7415 170.086 78.1123 169.191C79.2881 168.725 80.4796 168.305 81.6729 167.886C82.8662 167.468 84.0648 167.067 85.2792 166.704C87.7083 165.938 90.2006 165.389 92.7268 165.061C92.8332 165.053 92.9395 165.08 93.0283 165.139C93.1172 165.198 93.1834 165.286 93.2163 165.387C93.2492 165.488 93.2468 165.598 93.2096 165.698C93.1723 165.797 93.1024 165.882 93.0111 165.937H93.0094Z" fill="#371A45"/>
<g opacity="0.35">
<g opacity="0.35">
<path opacity="0.35" d="M136.535 172.544C136.451 172.634 136.36 172.72 136.277 172.809C135.208 173.887 134.08 174.906 132.899 175.861C132.325 176.331 131.725 176.79 131.111 177.24C125.927 181.023 119.947 183.578 113.626 184.709C112.824 184.849 112.018 184.97 111.214 185.068C103.657 185.965 95.9963 184.823 89.0311 181.761C83.7959 179.459 79.0845 176.118 75.1835 171.942C76.3839 171.457 77.5526 170.998 78.6792 170.564C78.6792 168.606 78.6898 166.6 78.7108 164.545L131.181 160.692C133.252 165.021 135.021 168.944 136.535 172.544Z" fill="#371A45"/>
</g>
</g>
<path d="M149.524 144.25C147.375 152.022 143.258 159.11 137.57 164.835C136.374 166.038 135.114 167.177 133.797 168.246C133.151 168.771 132.48 169.286 131.796 169.789C125.997 174.014 119.311 176.866 112.243 178.128C111.347 178.285 110.449 178.417 109.55 178.526C97.8944 179.922 86.135 176.948 76.5517 170.183C66.9684 163.417 60.244 153.341 57.6824 141.909C55.1209 130.476 56.9047 118.502 62.6879 108.307C68.4712 98.1128 77.8418 90.4247 88.9828 86.7336C89.5092 86.5585 90.048 86.3834 90.5867 86.2345C92.0245 85.8131 93.4734 85.4628 94.9335 85.1838C101.642 83.908 108.548 84.0872 115.181 85.7091C116.234 85.9648 117.264 86.2538 118.294 86.5848C119.844 87.0763 121.367 87.6486 122.857 88.2993C133.305 92.8591 141.755 101.028 146.653 111.305C151.551 121.583 152.569 133.279 149.52 144.245L149.524 144.25Z" fill="white"/>
<path d="M103.944 179.015C92.6562 179.02 81.7355 175.014 73.1379 167.715C64.5403 160.417 58.8274 150.302 57.0224 139.182C55.2175 128.062 57.4384 116.665 63.2874 107.031C69.1364 97.3963 78.2314 90.1549 88.9433 86.6032C89.4505 86.4281 89.9963 86.2635 90.5544 86.1024C91.9881 85.6821 93.4551 85.3266 94.9133 85.0516C101.642 83.77 108.569 83.9492 115.222 85.577C116.275 85.8344 117.328 86.1304 118.348 86.4526C127.955 89.5115 136.336 95.5457 142.274 103.68C146.509 109.448 149.375 116.101 150.655 123.136C151.936 130.172 151.598 137.406 149.667 144.291C147.043 153.757 141.528 162.171 133.889 168.362C133.289 168.853 132.632 169.359 131.885 169.909C128.122 172.649 123.976 174.825 119.581 176.366C117.203 177.202 114.76 177.846 112.278 178.292C111.381 178.45 110.472 178.585 109.575 178.693C107.706 178.911 105.826 179.019 103.944 179.015ZM103.832 84.4965C100.858 84.4964 97.8905 84.7773 94.9696 85.3353C93.5201 85.6138 92.0617 85.9658 90.635 86.3861C90.077 86.5454 89.54 86.7118 89.0381 86.8834C77.9297 90.5613 68.5858 98.2252 62.8188 108.389C57.0518 118.552 55.2725 130.491 57.8263 141.889C60.38 153.288 67.0847 163.333 76.6399 170.078C86.1952 176.823 97.9199 179.785 109.54 178.392C110.432 178.285 111.335 178.15 112.225 177.994C116.777 177.181 121.184 175.701 125.302 173.602C127.539 172.464 129.682 171.149 131.711 169.672C132.455 169.126 133.106 168.622 133.705 168.137C135.017 167.069 136.273 165.933 137.467 164.734C143.145 159.004 147.255 151.916 149.404 144.149C151.553 136.381 151.67 128.193 149.743 120.367C147.816 112.542 143.909 105.34 138.397 99.4516C132.885 93.5629 125.951 89.1837 118.258 86.7328C117.249 86.4106 116.205 86.1181 115.154 85.8572C111.868 85.0533 108.505 84.6025 105.123 84.5122C104.699 84.5035 104.262 84.4965 103.832 84.4965Z" fill="#371A45"/>
<g opacity="0.35">
<g opacity="0.35">
<path opacity="0.35" d="M65.6353 159.45C70.5929 166.244 77.2771 171.595 84.9984 174.95C92.7197 178.306 101.198 179.545 109.559 178.539C110.458 178.431 111.355 178.297 112.25 178.14C116.816 177.325 121.236 175.841 125.367 173.735C127.612 172.594 129.763 171.276 131.799 169.795C132.48 169.289 133.15 168.779 133.798 168.252C135.114 167.181 136.374 166.042 137.571 164.839C143.261 159.115 147.377 152.026 149.525 144.253C150.687 140.065 151.269 135.739 151.253 131.393C148.521 140.408 143.15 148.401 135.83 154.345C135.186 154.871 134.515 155.382 133.831 155.887C130.079 158.617 125.948 160.785 121.568 162.322C119.196 163.153 116.76 163.792 114.285 164.233C113.387 164.391 112.489 164.523 111.592 164.631C104.96 165.425 98.2351 164.811 91.8582 162.83C85.4812 160.848 79.5963 157.542 74.5896 153.13C69.583 148.719 65.5677 143.3 62.8075 137.231C60.0473 131.161 58.6046 124.578 58.5738 117.912C56.4446 124.909 55.9743 132.303 57.1998 139.512C58.4253 146.721 61.3131 153.546 65.6353 159.45Z" fill="#371A45"/>
</g>
</g>
<path d="M103.946 179.998C92.4236 180.003 81.2759 175.915 72.4995 168.465C63.7231 161.015 57.8914 150.689 56.049 139.339C54.2066 127.988 56.4739 116.354 62.4447 106.52C68.4156 96.6859 77.6998 89.2945 88.6345 85.6698C89.1469 85.4947 89.705 85.3196 90.2841 85.1585C91.7406 84.7312 93.2393 84.3686 94.7275 84.0832C101.596 82.7757 108.666 82.9585 115.458 84.6191C116.537 84.8835 117.611 85.1847 118.648 85.5157C128.454 88.6366 137.009 94.7956 143.069 103.098C147.391 108.986 150.317 115.777 151.624 122.958C152.931 130.14 152.586 137.524 150.614 144.552C148.406 152.508 144.191 159.765 138.373 165.632C137.148 166.863 135.859 168.028 134.512 169.124C133.901 169.622 133.233 170.138 132.471 170.7C128.629 173.498 124.397 175.72 119.91 177.294C117.48 178.144 114.986 178.798 112.452 179.25C111.535 179.411 110.611 179.548 109.696 179.66C107.788 179.886 105.868 179.998 103.946 179.998ZM103.832 85.479C100.92 85.4791 98.0152 85.7541 95.1556 86.3003C93.7359 86.5717 92.3092 86.9185 90.9124 87.3265C90.3631 87.4841 89.8419 87.6452 89.3558 87.8116C78.4773 91.411 69.3261 98.9143 63.6774 108.866C58.0288 118.818 56.2854 130.508 58.7854 141.67C61.2853 152.832 67.8505 162.67 77.2072 169.274C86.564 175.879 98.0455 178.78 109.424 177.415C110.302 177.31 111.179 177.178 112.057 177.024C116.512 176.23 120.825 174.781 124.855 172.725C127.046 171.609 129.145 170.32 131.132 168.872C131.859 168.338 132.497 167.844 133.082 167.368C134.368 166.324 135.598 165.214 136.767 164.04C142.313 158.449 146.331 151.532 148.435 143.95C151.411 133.246 150.417 121.829 145.636 111.797C140.855 101.765 132.607 93.7916 122.409 89.3405C120.955 88.7071 119.469 88.1483 117.958 87.6663C116.972 87.3528 115.949 87.0656 114.919 86.8134C111.7 86.0262 108.405 85.5847 105.092 85.4965C104.676 85.4877 104.255 85.4877 103.832 85.4877V85.479Z" fill="#371A45"/>
<path d="M103.946 180.325C92.346 180.33 81.1235 176.214 72.2882 168.713C63.4529 161.213 57.5822 150.818 55.7274 139.391C53.8726 127.964 56.1549 116.252 62.1656 106.351C68.1764 96.451 77.5229 89.0095 88.531 85.3599C89.0469 85.1847 89.6101 85.0096 90.1927 84.8433C91.658 84.4124 93.176 84.0482 94.6659 83.761C101.581 82.4447 108.699 82.6293 115.536 84.3021C116.623 84.5665 117.704 84.8713 118.748 85.204C130.771 89.038 140.839 97.3697 146.839 108.451C152.84 119.533 154.306 132.503 150.932 144.64C148.709 152.649 144.465 159.956 138.606 165.862C137.373 167.101 136.075 168.275 134.717 169.378C134.103 169.879 133.429 170.399 132.664 170.954C128.795 173.771 124.534 176.007 120.017 177.592C117.571 178.448 115.061 179.107 112.509 179.562C111.586 179.725 110.653 179.863 109.735 179.973C107.814 180.205 105.881 180.323 103.946 180.325ZM103.832 85.8064C100.941 85.8067 98.0563 86.0799 95.217 86.6225C93.8131 86.8922 92.3916 87.2355 91.0053 87.6417C90.4577 87.7982 89.943 87.9581 89.461 88.1216C78.6638 91.6984 69.5822 99.1489 63.9769 109.028C58.3717 118.908 56.6421 130.512 59.1235 141.592C61.605 152.672 68.1208 162.438 77.4074 168.996C86.6941 175.553 98.09 178.436 109.386 177.086C110.251 176.982 111.132 176.851 111.999 176.699C116.421 175.908 120.702 174.47 124.704 172.431C126.88 171.323 128.964 170.046 130.937 168.609C131.658 168.084 132.292 167.59 132.868 167.116C134.146 166.078 135.369 164.973 136.53 163.806C142.035 158.254 146.022 151.386 148.112 143.859C151.286 132.448 149.908 120.255 144.268 109.836C138.627 99.4172 129.163 91.5834 117.86 87.978C116.881 87.6663 115.866 87.3808 114.843 87.1322C111.648 86.3492 108.378 85.9106 105.09 85.824C104.67 85.8134 104.251 85.8064 103.832 85.8064Z" fill="#371A45"/>
<path d="M144.816 155.41C122.133 180.478 82.2556 175.49 72.8039 143.395C66.3741 121.56 82.833 98.419 104.242 93.5996C119.825 90.097 136.576 93.4682 148.64 116.115C148.64 116.115 152.431 126.963 151.118 135.068C150.196 140.413 148.872 145.682 147.157 150.829L144.816 155.41Z" fill="#371A45"/>
<path d="M72.8057 143.395C82.2556 175.488 122.133 180.476 144.816 155.412L145.29 154.484C116.767 166.62 83.0241 155.661 72.8635 123.388C70.9276 129.914 70.9075 136.858 72.8057 143.395Z" fill="#220F2D"/>
<path d="M110.037 177.62C102.482 177.664 95.0301 175.871 88.3257 172.396C83.0387 169.583 78.3851 165.719 74.6517 161.043C70.9182 156.367 68.1842 150.977 66.6181 145.206C65.0076 139.467 64.6043 133.458 65.4336 127.557C66.2629 121.655 68.3068 115.989 71.4369 110.914C74.8538 105.08 79.4121 99.992 84.8402 95.9523C90.2684 91.9127 96.4554 89.0042 103.033 87.4001C109.625 85.796 116.484 85.6168 123.151 86.8747L123.3 86.9062L123.439 86.9658C134.21 91.6663 142.92 100.087 147.969 110.681C153.019 121.275 154.069 133.332 150.927 144.636C148.704 152.646 144.46 159.953 138.601 165.858C137.367 167.098 136.069 168.272 134.712 169.375C134.098 169.876 133.424 170.396 132.659 170.951C130.559 172.479 128.341 173.839 126.025 175.017L125.813 175.105C120.718 176.76 115.395 177.608 110.037 177.62ZM114.705 88.9569C110.994 88.9789 107.296 89.4117 103.681 90.2476C97.4913 91.7612 91.6702 94.5021 86.564 98.307C81.4579 102.112 77.171 106.903 73.9587 112.396C71.0329 117.128 69.1197 122.414 68.3393 127.919C67.559 133.425 67.9283 139.033 69.4241 144.39C70.884 149.784 73.4353 154.824 76.9209 159.197C80.4064 163.571 84.7524 167.186 89.691 169.82C95.8213 173.965 103.104 176.08 110.506 175.863C117.908 175.647 125.054 173.11 130.93 168.613C131.652 168.088 132.285 167.594 132.861 167.119C134.139 166.081 135.362 164.976 136.523 163.809C141.75 158.53 145.614 152.063 147.781 144.964C149.949 137.864 150.356 130.346 148.967 123.055C147.578 115.764 144.435 108.919 139.808 103.109C135.181 97.2989 129.209 92.6977 122.405 89.7012C119.868 89.1988 117.288 88.9494 114.701 88.9569H114.705Z" fill="#371A45"/>
<path d="M110.189 172.777C106.965 172.78 103.751 172.421 100.608 171.707C94.5381 170.335 88.8824 167.542 84.1067 163.559C79.3311 159.577 75.5724 154.518 73.1405 148.801C70.7086 143.084 69.6732 136.872 70.1196 130.678C70.566 124.483 72.4815 118.483 75.7082 113.172C78.7592 107.963 82.8293 103.419 87.6762 99.8127C92.5231 96.2059 98.0477 93.6094 103.921 92.1775C123.839 87.6925 139.32 95.5154 149.932 115.431L150.021 115.636C150.181 116.093 153.919 126.928 152.562 135.3C151.631 140.731 150.287 146.082 148.542 151.309L148.461 151.496L146.027 156.246L145.899 156.387C141.421 161.454 135.931 165.529 129.781 168.352C123.632 171.174 116.958 172.682 110.189 172.777ZM114.212 93.8885C110.962 93.9073 107.725 94.2867 104.56 95.0198C99.0745 96.3611 93.9158 98.7903 89.3908 102.163C84.8659 105.535 81.0673 109.782 78.2212 114.65C75.6288 118.841 73.9334 123.521 73.2415 128.398C72.5496 133.274 72.8761 138.241 74.2007 142.985C75.9097 149.354 79.3349 155.134 84.1044 159.697C88.8738 164.259 94.8051 167.43 101.254 168.865C116.242 172.278 132.45 166.804 143.6 154.577L145.81 150.265C147.476 145.224 148.766 140.066 149.67 134.835C150.842 127.6 147.659 117.797 147.289 116.695C139.185 101.527 128.082 93.8937 114.212 93.8937V93.8885Z" fill="#371A45"/>
<path d="M67.7757 161.117C74.4114 159.653 78.1536 151.078 76.1343 141.965C74.1149 132.852 67.0987 126.651 60.4631 128.115C53.8275 129.579 50.0852 138.154 52.1046 147.268C54.1239 156.381 61.1401 162.582 67.7757 161.117Z" fill="white"/>
<path d="M65.83 162.787C58.7509 162.787 52 155.701 50.4312 146.312C49.9007 143.707 49.8983 141.023 50.4242 138.417C50.9502 135.811 51.9938 133.336 53.4934 131.14C54.3826 129.882 55.5233 128.823 56.8436 128.028C58.1638 127.233 59.6349 126.72 61.1639 126.521C68.6835 125.646 76.1452 132.984 77.8053 142.92C78.3367 145.525 78.3395 148.211 77.8135 150.817C77.2876 153.423 76.2436 155.898 74.7431 158.095C73.8539 159.352 72.7131 160.411 71.3928 161.206C70.0726 162.001 68.6015 162.514 67.0725 162.713C66.6602 162.762 66.2453 162.786 65.83 162.787ZM62.4415 129.358C62.13 129.359 61.8189 129.378 61.5096 129.415C60.3738 129.57 59.2826 129.96 58.3049 130.557C57.3273 131.155 56.4843 131.948 55.8291 132.887C53.304 136.699 52.3988 141.355 53.3126 145.833C54.7165 154.258 60.7427 160.543 66.7286 159.82C67.8642 159.663 68.955 159.274 69.9326 158.676C70.9102 158.079 71.7533 157.286 72.4091 156.347C74.9334 152.535 75.8385 147.878 74.9256 143.4C73.5919 135.414 68.1114 129.358 62.4415 129.358Z" fill="#371A45"/>
<path d="M63.7776 159.638C69.1373 158.262 71.9839 151.334 70.1356 144.163C68.2873 136.993 62.444 132.295 57.0842 133.671C51.7245 135.047 48.8779 141.975 50.7262 149.146C52.5745 156.317 58.4178 161.014 63.7776 159.638Z" fill="white"/>
<path d="M61.9255 160.042C61.3055 160.04 60.6876 159.97 60.0829 159.834C58.326 159.338 56.6971 158.469 55.308 157.287C53.919 156.104 52.8025 154.636 52.0351 152.983C48.643 146.495 49.638 138.374 54.2532 134.882C55.1686 134.174 56.2318 133.68 57.3643 133.438C58.4968 133.195 59.6695 133.21 60.7954 133.481C62.5524 133.977 64.1811 134.845 65.5702 136.028C66.9593 137.21 68.0758 138.679 68.8432 140.332C72.2353 146.82 71.2403 154.941 66.625 158.433C65.2805 159.474 63.6274 160.04 61.9255 160.042ZM52.3054 152.843C53.0524 154.457 54.1401 155.89 55.494 157.046C56.8479 158.201 58.436 159.05 60.1495 159.536C61.2323 159.796 62.3598 159.81 63.4487 159.577C64.5376 159.344 65.5601 158.87 66.4408 158.189C70.9437 154.783 71.8984 146.836 68.5711 140.472C67.8241 138.858 66.7366 137.425 65.3831 136.27C64.0295 135.115 62.4418 134.265 60.7287 133.779C59.646 133.518 58.5183 133.504 57.4293 133.737C56.3403 133.97 55.3178 134.444 54.4375 135.125C49.9345 138.532 48.9782 146.479 52.3054 152.843Z" fill="#371A45"/>
<g opacity="0.35">
<g opacity="0.35">
<path opacity="0.35" d="M70.7174 150.706C70.8974 148.146 70.458 145.58 69.4364 143.225C68.4782 148.962 63.9033 151.997 58.7931 150.069C57.0634 149.316 55.5 148.229 54.1935 146.87C52.8869 145.511 51.8629 143.907 51.1805 142.151C51.1191 142.512 51.0752 142.889 51.0418 143.272C50.5154 149.722 54.5007 156.617 59.9355 158.668C65.3703 160.718 70.1944 157.153 70.7174 150.706Z" fill="#371A45"/>
</g>
</g>
<path d="M61.9166 161.384C56.2835 161.384 50.9926 155.54 49.6326 147.593C49.1691 145.401 49.1453 143.139 49.5625 140.939C49.9796 138.738 50.8295 136.641 52.0631 134.77C52.7335 133.822 53.5949 133.024 54.5922 132.428C55.5894 131.832 56.7004 131.45 57.8541 131.308C63.8207 130.654 69.6029 136.684 71.0332 145.05C71.4966 147.241 71.5205 149.503 71.1033 151.704C70.6862 153.905 69.8362 156.001 68.6027 157.872C67.9325 158.82 67.0711 159.618 66.0738 160.214C65.0766 160.811 63.9654 161.192 62.8116 161.335C62.5145 161.368 62.2156 161.384 61.9166 161.384ZM52.5106 147.102C53.6443 153.722 58.1981 158.913 62.4887 158.438C63.2437 158.331 63.9687 158.07 64.6181 157.671C65.2676 157.272 65.8276 156.744 66.2634 156.119C67.2585 154.566 67.9372 152.832 68.2606 151.017C68.5839 149.202 68.5458 147.341 68.1482 145.54C67.0163 138.922 62.4501 133.728 58.17 134.204C57.4151 134.312 56.6905 134.573 56.0411 134.972C55.3917 135.371 54.8315 135.899 54.3953 136.523C52.3865 139.661 51.7086 143.466 52.5106 147.102Z" fill="#371A45"/>
<g opacity="0.7">
<g opacity="0.7">
<path opacity="0.7" d="M95.0767 104.186C95.0767 104.186 116.321 100.804 130.56 110.242L130.606 110.272C133.599 112.266 136.006 115.02 137.579 118.25C139.204 121.546 140.381 125.043 141.079 128.649C142.909 137.423 142.121 141.877 142.121 141.877C144.172 139.238 145.62 136.184 146.363 132.928C147.106 129.673 147.127 126.294 146.424 123.029C146.278 122.308 146.102 121.57 145.897 120.816C145.85 120.641 145.801 120.466 145.748 120.301V120.29C145.086 118.396 144.309 116.542 143.423 114.741C140.287 108.357 134.617 100.361 125.292 98.0408C107.857 93.7011 94.1694 103.419 95.0767 104.186Z" fill="white"/>
</g>
</g>
<g opacity="0.7">
<g opacity="0.7">
<path opacity="0.7" d="M90.256 129.396C90.4841 125.339 87.8407 121.892 84.3519 121.696C80.863 121.501 77.8498 124.631 77.6217 128.688C77.3936 132.745 80.037 136.193 83.5258 136.388C87.0147 136.583 90.0278 133.453 90.256 129.396Z" fill="white"/>
</g>
</g>
<g opacity="0.7">
<g opacity="0.7">
<path opacity="0.7" d="M85.7776 142.757C86.0136 141.094 85.0465 139.583 83.6177 139.381C82.1888 139.179 80.8392 140.363 80.6033 142.026C80.3674 143.688 81.3344 145.199 82.7633 145.401C84.1921 145.603 85.5417 144.419 85.7776 142.757Z" fill="white"/>
</g>
</g>
<path d="M86.6497 238.723C88.366 242.751 89.5435 243.085 89.089 243.721C88.2607 244.884 85.8952 242.306 80.1393 241.138C80.148 241.131 85.5424 236.115 86.6497 238.723Z" fill="#371A45"/>
<path d="M144.53 202.575C147.413 202.575 149.749 200.243 149.749 197.367C149.749 194.49 147.413 192.159 144.53 192.159C141.648 192.159 139.311 194.49 139.311 197.367C139.311 200.243 141.648 202.575 144.53 202.575Z" fill="white"/>
<g opacity="0.35">
<g opacity="0.35">
<path opacity="0.35" d="M149.17 194.978C149.549 195.709 149.749 196.519 149.754 197.342C149.759 198.165 149.568 198.977 149.198 199.713C148.827 200.448 148.288 201.085 147.623 201.572C146.958 202.059 146.187 202.382 145.373 202.514C144.56 202.647 143.726 202.585 142.94 202.334C142.155 202.083 141.441 201.649 140.855 201.07C140.27 200.49 139.831 199.78 139.573 198.998C139.316 198.216 139.248 197.385 139.375 196.572C140.01 197.357 140.86 197.941 141.822 198.253C142.783 198.565 143.815 198.591 144.792 198.329C145.768 198.067 146.647 197.527 147.322 196.775C147.997 196.024 148.438 195.093 148.593 194.095C148.814 194.37 149.008 194.665 149.17 194.978Z" fill="#371A45"/>
</g>
</g>
<path d="M144.534 203.523C143.896 203.522 143.263 203.422 142.656 203.228C141.691 202.921 140.818 202.381 140.112 201.656C139.407 200.931 138.891 200.044 138.611 199.073C138.331 198.102 138.295 197.077 138.507 196.089C138.719 195.101 139.172 194.18 139.825 193.408C140.479 192.636 141.313 192.037 142.254 191.664C143.195 191.291 144.213 191.155 145.22 191.268C146.226 191.381 147.188 191.74 148.022 192.314C148.856 192.887 149.535 193.657 150 194.554C150.484 195.491 150.718 196.536 150.681 197.589C150.644 198.642 150.336 199.668 149.787 200.568C149.238 201.469 148.467 202.213 147.547 202.73C146.627 203.248 145.59 203.521 144.534 203.523ZM144.523 193.099C143.441 193.097 142.398 193.503 141.603 194.235C140.808 194.968 140.319 195.972 140.234 197.049C140.149 198.125 140.474 199.194 141.144 200.042C141.814 200.889 142.78 201.453 143.849 201.621C144.918 201.789 146.011 201.548 146.909 200.947C147.808 200.345 148.446 199.427 148.696 198.377C148.946 197.326 148.79 196.22 148.258 195.28C147.727 194.339 146.859 193.634 145.829 193.304C145.41 193.168 144.974 193.096 144.534 193.092L144.523 193.099Z" fill="#371A45"/>
<path d="M119.264 222.159L112.458 223.723C111.686 223.9 110.875 223.782 110.185 223.393C109.494 223.005 108.974 222.373 108.726 221.622L105.465 211.774L102.817 203.783C102.566 203.024 102.611 202.197 102.944 201.469C103.278 200.742 103.874 200.166 104.614 199.859L111.614 196.947L114.959 207.967L119.264 222.159Z" fill="white"/>
<g opacity="0.35">
<g opacity="0.35">
<path opacity="0.35" d="M119.264 222.159L112.458 223.723C111.686 223.9 110.875 223.782 110.185 223.393C109.494 223.005 108.974 222.373 108.726 221.622L105.465 211.774L114.959 207.967L119.264 222.159Z" fill="#371A45"/>
</g>
</g>
<path d="M111.732 224.975C110.819 224.976 109.929 224.688 109.189 224.153C108.449 223.619 107.898 222.864 107.613 221.998L101.715 204.151C101.375 203.112 101.439 201.982 101.894 200.988C102.349 199.993 103.162 199.205 104.172 198.78L111.172 195.868C111.314 195.809 111.467 195.778 111.621 195.778C111.775 195.777 111.927 195.807 112.07 195.866C112.212 195.925 112.342 196.011 112.451 196.119C112.56 196.227 112.647 196.356 112.706 196.498C112.765 196.64 112.796 196.792 112.796 196.946C112.796 197.1 112.766 197.252 112.708 197.394C112.649 197.536 112.563 197.665 112.454 197.774C112.346 197.883 112.216 197.97 112.074 198.029L105.074 200.941C104.608 201.137 104.233 201.5 104.024 201.959C103.814 202.418 103.785 202.938 103.942 203.417L109.849 221.258C110.004 221.733 110.332 222.132 110.768 222.377C111.204 222.622 111.717 222.694 112.204 222.58L119.008 221.019C119.3 220.975 119.599 221.042 119.844 221.208C120.089 221.374 120.262 221.626 120.328 221.914C120.395 222.202 120.35 222.504 120.203 222.76C120.055 223.017 119.817 223.208 119.534 223.296L112.73 224.858C112.403 224.934 112.068 224.974 111.732 224.975Z" fill="#371A45"/>
<path d="M106.238 207.295C107.271 207.332 108.271 207.677 109.106 208.286C109.942 208.895 110.575 209.74 110.925 210.711C112.199 214.149 111.241 217.282 101.514 221.522C91.7863 225.762 82.4785 227.245 79.1987 222.247C75.9189 217.249 79.2391 212.615 82.3101 212.571C85.3811 212.527 91.7634 214.864 106.238 207.295Z" fill="white"/>
<g opacity="0.35">
<g opacity="0.35">
<path opacity="0.35" d="M111.1 211.228C112.078 214.464 110.749 217.492 101.513 221.517C91.7863 225.758 82.4785 227.242 79.2004 222.242C78.3858 221.168 77.9153 219.874 77.8505 218.528C77.7857 217.183 78.1296 215.849 78.8372 214.703C79.061 215.713 79.4729 216.673 80.0515 217.533C83.3296 222.532 92.6374 221.049 102.365 216.809C107.113 214.745 109.772 212.939 111.1 211.228Z" fill="#371A45"/>
</g>
</g>
<path d="M86.5357 226.814C82.9979 226.814 79.8672 225.811 78.0316 223.005C77.1437 221.795 76.6073 220.363 76.4813 218.868C76.3553 217.373 76.6446 215.873 77.3174 214.531C77.7785 213.585 78.4812 212.776 79.3549 212.187C80.2286 211.598 81.2424 211.249 82.2942 211.176C82.9328 211.183 83.5707 211.223 84.2052 211.296C87.564 211.619 93.8149 212.216 105.59 206.058L105.89 205.901H106.241C107.561 205.935 108.84 206.366 109.91 207.138C110.979 207.911 111.79 208.988 112.236 210.228C114.082 215.205 111.137 218.846 102.075 222.797C97.1969 225.106 91.9236 226.469 86.5357 226.814ZM82.3837 213.96H82.3258C81.7761 214.032 81.2539 214.242 80.8084 214.571C80.3628 214.9 80.0087 215.337 79.7795 215.841C79.3511 216.744 79.1793 217.748 79.2826 218.742C79.3859 219.736 79.7605 220.683 80.3656 221.48C82.8399 225.249 90.5438 224.786 100.955 220.244C111.299 215.734 110.286 213 109.616 211.191C109.386 210.531 108.976 209.948 108.431 209.509C107.886 209.07 107.229 208.793 106.534 208.708C94.25 215.055 87.5518 214.415 83.9385 214.069C83.326 214.014 82.7961 213.964 82.3837 213.964V213.96Z" fill="#371A45"/>
<path d="M151.144 240.598C150.885 240.598 150.633 240.512 150.428 240.354C150.223 240.195 150.076 239.973 150.011 239.723C148.589 232.271 150.021 224.558 154.022 218.109C155.27 216.029 156.946 214.238 158.941 212.854C160.935 211.47 163.201 210.525 165.589 210.081C165.895 210.029 166.21 210.101 166.464 210.28C166.718 210.46 166.889 210.733 166.942 211.039C166.994 211.345 166.922 211.659 166.742 211.912C166.562 212.166 166.288 212.337 165.982 212.389C163.911 212.771 161.947 213.593 160.224 214.8C158.5 216.007 157.056 217.569 155.991 219.382C152.362 225.287 151.041 232.319 152.282 239.134C152.32 239.283 152.329 239.438 152.308 239.59C152.287 239.743 152.236 239.889 152.158 240.022C152.08 240.154 151.976 240.27 151.853 240.363C151.73 240.456 151.59 240.523 151.441 240.562C151.344 240.587 151.244 240.599 151.144 240.598Z" fill="#371A45"/>
<path d="M101.957 276.746H101.891C99.0494 276.562 96.2931 275.705 93.8499 274.246C91.4066 272.787 89.3469 270.768 87.8413 268.356C85.1984 264.301 83.4485 259.732 82.7076 254.952C81.9667 250.172 82.2517 245.289 83.5436 240.626C83.5869 240.475 83.6604 240.334 83.7597 240.211C83.859 240.088 83.982 239.987 84.1214 239.913C84.2609 239.839 84.4138 239.794 84.5712 239.78C84.7285 239.767 84.887 239.785 85.0371 239.834C85.1872 239.883 85.3259 239.961 85.4449 240.065C85.5638 240.169 85.6605 240.295 85.7293 240.437C85.7981 240.579 85.8377 240.733 85.8453 240.891C85.853 241.048 85.8288 241.205 85.7741 241.353C84.6114 245.674 84.3665 250.191 85.0552 254.612C85.7439 259.033 87.3511 263.262 89.7734 267.027C91.09 269.128 92.8831 270.891 95.0081 272.173C97.1331 273.455 99.5305 274.221 102.007 274.408C102.317 274.416 102.613 274.546 102.827 274.771C103.041 274.996 103.158 275.297 103.15 275.607C103.142 275.917 103.011 276.212 102.786 276.426C102.561 276.64 102.26 276.756 101.949 276.748L101.957 276.746Z" fill="#371A45"/>
<path d="M166.04 114.261C166.134 112.025 166.31 109.827 166.405 107.657C166.457 106.573 166.48 105.494 166.506 104.442C166.533 103.389 166.538 102.354 166.522 101.375V101.326C166.517 101.037 166.619 100.756 166.809 100.537C166.998 100.318 167.262 100.177 167.549 100.14C167.837 100.103 168.128 100.173 168.367 100.337C168.606 100.501 168.776 100.747 168.844 101.028C169.097 102.191 169.167 103.387 169.051 104.571C168.955 105.708 168.771 106.836 168.502 107.944C168.254 109.047 167.944 110.131 167.594 111.2C167.246 112.27 166.836 113.32 166.366 114.343C166.347 114.375 166.317 114.4 166.283 114.414C166.248 114.428 166.21 114.43 166.174 114.421C166.138 114.412 166.106 114.392 166.082 114.364C166.058 114.335 166.044 114.3 166.041 114.263L166.04 114.261Z" fill="#371A45"/>
<path d="M147.029 210.839C145.917 211.431 144.529 212.153 142.925 212.941C135.479 216.667 127.714 219.72 119.722 222.061C118.793 222.317 117.801 222.205 116.952 221.748C116.104 221.291 115.465 220.525 115.17 219.61L111.574 208.556L109.31 201.6C109.157 201.12 109.103 200.614 109.151 200.113C109.198 199.612 109.348 199.125 109.589 198.683C109.83 198.241 110.159 197.852 110.555 197.54C110.951 197.228 111.406 196.999 111.894 196.868C118.137 195.194 130.537 191.74 137.227 189.071C138.123 188.714 139.123 188.718 140.017 189.082C140.91 189.446 141.627 190.142 142.016 191.024L145.773 199.475L147.317 202.952L148.695 206.046C149.076 206.907 149.116 207.88 148.807 208.77C148.498 209.659 147.863 210.398 147.029 210.839Z" fill="white"/>
<g opacity="0.35">
<g opacity="0.35">
<path opacity="0.35" d="M147.029 210.839C145.917 211.431 144.529 212.153 142.925 212.941C135.479 216.667 127.714 219.72 119.722 222.061C118.793 222.317 117.8 222.205 116.952 221.748C116.104 221.291 115.465 220.525 115.17 219.61L111.574 208.556C115.486 215.286 123.535 215.359 128.421 213.361C135.056 210.643 135.454 201.899 135.454 201.899L143.297 201.176C143.8 201.741 144.42 202.19 145.114 202.492C145.808 202.795 146.56 202.943 147.317 202.927L148.695 206.022C149.083 206.885 149.127 207.864 148.817 208.759C148.508 209.654 147.869 210.398 147.029 210.839Z" fill="#371A45"/>
</g>
</g>
<path d="M118.709 223.377C117.674 223.375 116.665 223.046 115.829 222.437C114.993 221.827 114.372 220.968 114.055 219.984L108.196 201.973C107.991 201.341 107.917 200.675 107.978 200.014C108.039 199.353 108.234 198.711 108.551 198.128C108.868 197.544 109.3 197.031 109.821 196.619C110.343 196.207 110.943 195.905 111.584 195.731C118.185 193.957 130.233 190.591 136.786 187.977C137.964 187.504 139.279 187.507 140.455 187.986C141.63 188.464 142.572 189.381 143.083 190.54L149.761 205.565C150.259 206.696 150.312 207.973 149.908 209.142C149.505 210.31 148.675 211.284 147.584 211.869C138.812 216.573 129.58 220.367 120.032 223.189C119.602 223.311 119.157 223.375 118.709 223.377ZM112.195 197.992C111.86 198.082 111.546 198.239 111.274 198.454C111.001 198.669 110.776 198.937 110.61 199.242C110.445 199.546 110.343 199.882 110.311 200.227C110.28 200.572 110.319 200.92 110.426 201.249L116.281 219.261C116.481 219.889 116.918 220.415 117.499 220.728C118.081 221.041 118.761 221.116 119.397 220.939C128.781 218.162 137.854 214.431 146.475 209.806C147.044 209.5 147.477 208.991 147.687 208.381C147.897 207.771 147.87 207.104 147.61 206.514L140.929 191.491C140.664 190.886 140.174 190.408 139.562 190.158C138.949 189.907 138.264 189.904 137.649 190.15C130.981 192.808 118.837 196.206 112.188 197.992H112.195Z" fill="#371A45"/>
<path d="M134.51 217.976C134.274 217.975 134.043 217.904 133.848 217.771C133.653 217.638 133.503 217.449 133.417 217.23L129.983 208.419C129.963 208.368 129.932 208.323 129.892 208.285C129.852 208.248 129.805 208.22 129.753 208.204L124.879 206.675C124.486 206.552 124.125 206.341 123.826 206.057C123.526 205.774 123.296 205.425 123.153 205.039L119.357 194.892C119.303 194.748 119.278 194.595 119.284 194.442C119.289 194.288 119.325 194.137 119.389 193.997C119.453 193.858 119.544 193.732 119.656 193.627C119.769 193.522 119.901 193.441 120.046 193.387C120.19 193.333 120.343 193.309 120.497 193.314C120.651 193.32 120.802 193.355 120.942 193.419C121.083 193.483 121.209 193.574 121.314 193.686C121.418 193.799 121.5 193.931 121.554 194.074L125.351 204.22C125.37 204.272 125.4 204.319 125.441 204.358C125.481 204.396 125.53 204.424 125.583 204.44L130.455 205.969C130.843 206.09 131.198 206.297 131.495 206.574C131.792 206.851 132.022 207.191 132.169 207.57L135.602 216.38C135.671 216.558 135.695 216.749 135.673 216.938C135.652 217.127 135.584 217.308 135.476 217.465C135.369 217.623 135.224 217.751 135.056 217.84C134.887 217.929 134.699 217.975 134.508 217.976H134.51Z" fill="#371A45"/>
<path d="M143.456 199.722C143.679 200.262 144.725 204.932 144.725 204.932L141.645 206.204C139.524 207.079 136.895 205.598 135.774 202.894C134.652 200.19 135.463 197.29 137.585 196.414L140.666 195.141C140.666 195.141 143.091 198.843 143.456 199.722Z" fill="#22A7F0"/>
<path d="M143.454 199.722C143.679 200.262 144.727 204.932 144.727 204.932L144.625 204.974C144.314 203.628 143.923 202.036 143.805 201.734C143.442 200.859 141.017 197.151 141.017 197.151L137.935 198.423C137.188 198.79 136.568 199.372 136.155 200.093C135.742 200.815 135.554 201.643 135.615 202.472C135.124 201.399 135.053 200.181 135.418 199.059C135.783 197.937 136.557 196.992 137.586 196.412L140.666 195.141C140.666 195.141 143.093 198.843 143.454 199.722Z" fill="white"/>
<g opacity="0.35">
<g opacity="0.35">
<path opacity="0.35" d="M143.455 199.722C143.679 200.262 144.727 204.932 144.727 204.932L141.647 206.205C139.522 207.081 136.895 205.6 135.772 202.892C135.516 202.278 135.354 201.628 135.291 200.966C135.831 201.616 136.557 202.088 137.371 202.318C138.186 202.548 139.052 202.526 139.854 202.255L142.935 200.983C142.935 200.983 142.47 198.913 142.095 197.369C142.59 198.128 143.044 198.914 143.455 199.722Z" fill="#371A45"/>
</g>
</g>
<path d="M140.377 207.389C139.161 207.303 137.997 206.866 137.026 206.132C136.055 205.397 135.319 204.397 134.907 203.253C133.589 200.076 134.629 196.617 137.227 195.547L139.376 194.658C139.842 194.464 140.361 194.44 140.843 194.591C141.324 194.741 141.737 195.056 142.009 195.481C142.859 196.727 143.633 198.024 144.327 199.363C144.775 200.798 145.14 202.256 145.42 203.733C145.533 204.226 145.467 204.742 145.234 205.191C145.002 205.64 144.616 205.992 144.148 206.184L142.007 207.069C141.49 207.281 140.936 207.39 140.377 207.389ZM140.201 196.369C140.166 196.369 140.13 196.376 140.098 196.39L137.948 197.278C136.307 197.955 135.723 200.314 136.644 202.531C137.565 204.748 139.648 206.008 141.289 205.333L143.43 204.458C143.489 204.434 143.537 204.39 143.566 204.334C143.595 204.277 143.604 204.213 143.59 204.151C142.802 200.705 142.621 200.157 142.591 200.08C141.934 198.847 141.212 197.651 140.427 196.495C140.403 196.456 140.37 196.423 140.329 196.401C140.289 196.379 140.244 196.368 140.198 196.369H140.201Z" fill="#371A45"/>
<path d="M144.726 204.933C146.848 204.057 147.659 201.155 146.538 198.451C145.417 195.746 142.788 194.264 140.666 195.14C138.545 196.016 137.734 198.918 138.855 201.623C139.976 204.327 142.605 205.809 144.726 204.933Z" fill="#22A7F0"/>
<path d="M146.536 198.444C146.669 198.763 146.777 199.093 146.857 199.43C146.67 198.911 146.38 198.435 146.003 198.032C145.627 197.628 145.172 197.305 144.666 197.082C144.161 196.86 143.615 196.742 143.063 196.735C142.51 196.729 141.962 196.835 141.452 197.047C140.942 197.258 140.48 197.571 140.094 197.966C139.709 198.361 139.408 198.83 139.209 199.345C139.011 199.86 138.92 200.409 138.94 200.96C138.961 201.511 139.094 202.052 139.331 202.551C139.147 202.251 138.988 201.938 138.853 201.614C137.732 198.91 138.544 196.01 140.666 195.134C142.788 194.258 145.411 195.747 146.536 198.444Z" fill="white"/>
<g opacity="0.35">
<g opacity="0.35">
<path opacity="0.35" d="M146.536 198.444C147.657 201.146 146.847 204.048 144.727 204.924C142.607 205.799 139.976 204.318 138.853 201.612C138.587 200.974 138.424 200.298 138.369 199.608C138.852 200.395 139.6 200.985 140.479 201.271C141.358 201.556 142.311 201.52 143.165 201.168C144.02 200.816 144.721 200.171 145.142 199.349C145.563 198.528 145.676 197.583 145.462 196.686C145.912 197.211 146.275 197.804 146.536 198.444Z" fill="#371A45"/>
</g>
</g>
<path d="M143.437 206.123C142.564 206.112 141.708 205.875 140.954 205.435C139.622 204.628 138.583 203.417 137.987 201.98C137.391 200.543 137.27 198.954 137.641 197.444C137.798 196.741 138.122 196.086 138.586 195.535C139.051 194.984 139.641 194.553 140.308 194.278C140.975 194.003 141.699 193.892 142.417 193.956C143.136 194.019 143.829 194.254 144.437 194.642C145.782 195.433 146.826 196.647 147.405 198.094C148.023 199.525 148.146 201.12 147.756 202.629C147.586 203.327 147.258 203.977 146.795 204.527C146.332 205.077 145.748 205.512 145.088 205.799C144.565 206.015 144.003 206.125 143.437 206.123ZM141.951 195.826C141.633 195.823 141.319 195.883 141.024 196.001C140.629 196.182 140.281 196.451 140.007 196.788C139.733 197.125 139.541 197.52 139.445 197.943C139.187 199.05 139.283 200.21 139.718 201.26C140.154 202.311 140.907 203.199 141.873 203.801C142.234 204.049 142.65 204.203 143.085 204.248C143.52 204.294 143.96 204.231 144.364 204.064C144.768 203.897 145.124 203.632 145.399 203.293C145.674 202.953 145.86 202.551 145.939 202.122C146.219 201.016 146.123 199.849 145.666 198.805C145.25 197.743 144.492 196.849 143.511 196.265C143.037 195.987 142.5 195.836 141.951 195.826Z" fill="#371A45"/>
<path d="M177.213 244.502C178.78 243.401 180.109 241.995 181.117 240.369C181.579 239.597 181.968 238.785 182.281 237.942C182.581 237.125 182.826 236.289 183.014 235.439L183.027 235.387C183.092 235.108 183.258 234.862 183.492 234.696C183.726 234.531 184.013 234.456 184.298 234.486C184.584 234.516 184.849 234.649 185.043 234.86C185.237 235.071 185.348 235.345 185.354 235.632C185.355 236.765 185.109 237.885 184.632 238.914C184.175 239.921 183.555 240.846 182.797 241.653C181.357 243.249 179.449 244.352 177.344 244.805C177.3 244.813 177.254 244.803 177.216 244.778C177.179 244.753 177.152 244.714 177.143 244.67C177.138 244.638 177.142 244.606 177.154 244.576C177.166 244.547 177.187 244.521 177.213 244.502Z" fill="#371A45"/>
<path d="M60.2233 211.065C59.9707 211.065 59.7249 210.983 59.5225 210.833C59.3201 210.682 59.172 210.47 59.1002 210.228C54.427 194.596 43.3626 188.973 43.252 188.919C42.9837 188.775 42.7817 188.534 42.6885 188.245C42.5954 187.955 42.6183 187.642 42.7526 187.369C42.8868 187.096 43.122 186.887 43.4083 186.784C43.6946 186.681 44.0097 186.693 44.2873 186.817C44.7787 187.057 56.3679 192.898 61.3482 209.559C61.3924 209.706 61.407 209.861 61.3913 210.014C61.3756 210.166 61.33 210.315 61.2568 210.45C61.1836 210.585 61.0844 210.705 60.9648 210.801C60.8453 210.898 60.7078 210.971 60.5602 211.014C60.4511 211.048 60.3376 211.065 60.2233 211.065Z" fill="#371A45"/>
<mask id="mask0" mask-type="alpha" maskUnits="userSpaceOnUse" x="136" y="3" width="182" height="145">
<path d="M240.756 112.522C240.625 111.203 240.204 109.929 239.525 108.79C238.845 107.652 237.923 106.676 236.823 105.932C233.996 104.055 233.354 99.9406 232.968 96.9896C232.647 94.6076 231.152 92.7578 228.826 94.3992C223.479 98.171 215.727 92.4324 214.209 86.9295C213.622 84.1863 213.592 81.3538 214.119 78.5986C214.646 75.8435 215.72 73.2215 217.279 70.8871C218.283 69.2553 219.866 68.0607 221.713 67.5409C223.559 67.0211 225.535 67.2143 227.245 68.0819C231.383 70.1032 237.837 63.8485 238.51 59.7626C238.62 59.2782 238.607 58.7742 238.473 58.2959C238.051 57.4464 237.41 56.7239 236.617 56.2021C235.823 55.6803 234.905 55.3779 233.957 55.3258C233.008 55.2736 232.062 55.4736 231.216 55.9053C230.37 56.3369 229.654 56.9849 229.141 57.7829C228.873 58.3147 228.499 58.7867 228.043 59.1704C227.587 59.5541 227.058 59.8415 226.487 60.0151C225.917 60.1888 225.317 60.2452 224.724 60.1808C224.131 60.1165 223.557 59.9327 223.037 59.6407C218.822 57.3966 217.495 59.2705 216.061 63.3997C215.598 64.7301 215.592 67.1378 213.939 66.1151C212.315 65.1084 210.923 63.1031 211.766 61.194C213.923 56.4811 215.665 51.5896 216.972 46.5751C217.052 46.2545 217.38 45.804 217.614 45.7736C222.847 45.227 222.298 38.493 223.324 34.7404C223.686 33.4164 223.41 32.8169 222.554 32.2879C221.697 31.759 221.268 32.3601 220.938 33.2898C220.371 34.8511 219.813 36.4188 219.238 37.972C218.943 38.7735 218.835 39.9821 217.953 39.8523C216.911 39.692 216.376 38.4321 216.437 37.2876C216.51 33.8474 217.572 30.5007 219.497 27.6458C221.018 25.6277 223.957 24.169 226.291 25.7222C229.182 27.6458 231.449 27.4518 234.621 25.8248C235.956 25.0883 237.354 24.4704 238.797 23.9782C239.954 23.6217 240.995 22.9677 241.818 22.0819C242.64 21.1961 243.215 20.1097 243.483 18.9321C243.792 17.7689 244.427 16.7177 245.313 15.9019C246.2 15.0862 247.301 14.5398 248.488 14.3268C249.237 14.2182 249.931 13.8699 250.464 13.3343C250.998 12.7987 251.344 12.1047 251.448 11.3565C251.872 9.77013 252.69 8.31599 253.826 7.12879C254.962 5.9416 256.38 5.05972 257.949 4.56483C262.588 3.00355 266.417 3.26162 269.779 6.71759C270.696 7.66012 271.653 7.29306 272.55 7.1007C274.895 6.59738 277.399 6.21266 279.625 5.65804C280.568 5.48664 281.538 5.55496 282.447 5.85669C283.356 6.15842 284.174 6.68383 284.826 7.38442C285.104 7.7496 285.48 8.02769 285.911 8.18566C286.342 8.34364 286.81 8.37487 287.258 8.27566C288.416 8.11536 289.668 8.08812 290.76 7.95507C291.792 7.67709 292.89 7.79065 293.843 8.27381C294.796 8.75698 295.536 9.57545 295.919 10.5711C296.166 11.7866 295.983 13.05 295.401 14.1461C294.82 15.2421 293.875 16.103 292.729 16.5822C292.031 16.7583 291.315 16.8535 290.596 16.8659C288.549 16.8996 288.209 18.1835 288.895 20.7643C290.366 26.3009 288.525 34.4551 282.608 36.5085C281.172 37.007 280.377 37.5697 281.047 39.8443C281.504 41.0817 281.491 42.4437 281.01 43.6721C279.517 46.4377 279.089 49.6526 279.807 52.7112C279.988 53.2078 280.007 53.749 279.86 54.257C279.714 54.7649 279.41 55.2136 278.993 55.5386C278.575 55.8635 278.065 56.0481 277.536 56.0657C277.006 56.0833 276.485 55.933 276.046 55.6366C273.694 54.2467 271.426 52.7185 269.255 51.0601C267.577 49.7874 266.618 50.1881 265.906 52.4259C265.293 54.3494 264.277 56.3146 263.808 58.1805C263.211 60.556 261.214 62.1975 259.027 60.3749C256.53 58.7896 255.191 58.1853 252.614 58.8329C252.115 58.9174 251.604 58.8902 251.117 58.7533C250.629 58.6163 250.179 58.373 249.797 58.041C248.901 57.3629 247.862 56.608 247.388 58.4498C246.943 60.1826 248.379 60.0735 249.024 60.6009C250.199 61.5046 251.427 62.337 252.701 63.0935C253.178 63.3549 253.59 63.7195 253.908 64.1607C254.225 64.6019 254.439 65.1083 254.534 65.6429C254.63 66.1775 254.604 66.7266 254.459 67.2499C254.313 67.7732 254.053 68.2574 253.696 68.667C252.329 70.6498 249.755 72.2865 247.373 70.6434C245.767 69.6272 244.191 68.5596 242.593 67.5417C241.837 67.0608 241.123 66.2017 240.431 67.9441C239.697 69.7923 240.752 69.9285 241.462 70.403C244.256 72.2881 247.062 74.1475 249.921 75.93C251.096 76.6614 251.953 77.8079 252.319 79.1412C252.685 80.4744 252.535 81.8965 251.898 83.124C249.208 88.3705 249.709 94.0434 251.625 99.9374C252.388 102.331 253.022 104.764 253.525 107.224C254.603 112.168 252.276 119.545 246.801 120.877C245.792 121.056 244.752 120.843 243.896 120.28C243.039 119.717 242.432 118.848 242.198 117.852C241.636 116.135 241.204 114.298 240.756 112.522Z" fill="#5CE205"/>
<path d="M137.694 78.6582C135.411 73.9696 135.766 70.2988 140.998 68.2807C148.737 64.9252 156.371 61.3511 163.9 57.5585C165.169 56.9173 166.47 56.1527 167.594 57.5473C168.017 58.1609 168.276 58.8719 168.347 59.6132C168.417 60.3545 168.298 61.1016 167.999 61.7839C167.136 64.5731 169.211 65.2719 171.165 66.2177C172.809 67.0191 174.62 65.9901 175.972 64.6356C177.162 63.4446 175.948 61.9666 175.705 60.6458C175.535 59.7209 175.004 58.7351 175.705 57.9208C176.435 57.0792 177.183 57.8759 177.806 58.3071C178.342 58.7412 179.001 58.9954 179.69 59.0334C180.379 59.0714 181.062 58.8913 181.642 58.5187C181.912 58.3231 182.22 58.1865 182.546 58.118C182.873 58.0495 183.21 58.0505 183.536 58.1211C183.862 58.1916 184.169 58.33 184.437 58.5272C184.706 58.7245 184.93 58.9761 185.094 59.2657C185.495 59.9647 185.724 60.7485 185.762 61.5529C185.801 62.3574 185.648 63.1594 185.316 63.8934C183.046 70.1738 180.497 76.5439 178.271 82.656C177.318 85.2784 174.393 86.1825 172.061 87.1443C169.729 88.106 169.663 90.7141 170.676 92.6729C171.094 93.4743 171.558 94.069 172.3 93.7693C175.256 92.5783 177.726 94.731 179.907 96.2458C180.733 96.9163 181.726 97.349 182.78 97.4973C183.834 97.6456 184.908 97.5039 185.888 97.0874C186.92 96.4787 188.108 96.1837 189.307 96.2383C190.505 96.293 191.661 96.695 192.634 97.3952C194.492 98.5172 197.11 100.186 199.427 99.5303C202.45 98.6759 204.024 107.404 203.417 109.655C201.753 115.815 199.488 122.4 197.162 128.456C195.867 131.587 195.729 135.075 196.773 138.298C197.314 139.914 197.737 141.811 198.143 143.602C198.391 144.711 199.191 146.059 198.595 146.923C197.853 148 196.744 146.872 195.883 146.362C193.056 144.437 191.063 141.517 190.301 138.187C189.667 135.84 188.928 133.428 188.441 131.067C187.478 126.367 185.802 121.383 181.456 118.658C177.524 115.956 176.088 107.68 177.28 103.526C177.59 102.44 178.998 101.282 177.922 100.059C176.798 98.7913 175.288 97.1387 173.762 97.743C170.635 98.9805 167.2 97.0313 164.785 95.1783C162.467 93.2998 160.008 91.6016 157.43 90.0985C153.575 88.0147 152.497 83.4879 151.165 79.7819C150.041 76.6353 145.432 73.12 142.059 73.5512C139.594 73.859 138.794 76.6737 137.694 78.6582Z" fill="#5CE205"/>
<path d="M190.027 30.7394C190.991 30.2089 192.028 29.6414 192.941 29.1589C194.894 28.1282 198.272 25.2317 200.051 28.3414C201.299 30.2733 202.081 32.4677 202.335 34.7521C202.589 37.0364 202.309 39.3485 201.516 41.5065C200.13 45.3905 198.444 49.5662 197.118 53.6761C196.008 57.1225 194.63 57.5553 192.383 55.6077C190.91 54.6528 189.76 53.2769 189.082 51.6596C188.633 50.24 187.903 48.9251 186.934 47.7933C185.965 46.6614 184.778 45.7358 183.443 45.0715C182.526 44.728 181.766 44.0645 181.302 43.2042C180.838 42.3438 180.703 41.3448 180.921 40.3924C181.355 38.0521 181.865 35.1027 184.217 33.9165C186.127 32.9547 188.091 31.8182 190.032 30.7571L190.027 30.7394Z" fill="#5CE205"/>
<path d="M174.408 52.6999C172.744 53.7146 171.312 54.4328 169.77 53.79C169.43 53.6627 169.128 53.4487 168.896 53.1692C168.663 52.8897 168.508 52.5544 168.445 52.1966C168.269 51.1066 169.138 50.8966 169.711 50.5552C170.675 49.9813 171.675 49.5069 172.654 48.9522C174.395 47.976 176.377 47.4535 176.954 50.0663C177.485 52.4691 175.025 51.7382 174.408 52.6999Z" fill="#5CE205"/>
<path d="M279.429 61.9763C280.777 61.9844 282.106 62.2889 283.322 62.8683C284.538 63.4476 285.611 64.2875 286.465 65.328C286.591 65.502 286.668 65.7067 286.688 65.9208C286.708 66.1348 286.669 66.3501 286.577 66.5442C286.484 66.7383 286.341 66.9038 286.162 67.0235C285.983 67.1432 285.775 67.2126 285.56 67.2243C283.773 67.5353 279.58 65.3216 278.525 63.6978C278.138 63.0999 278.469 62.3802 279.429 61.9763Z" fill="#5CE205"/>
<path d="M254.121 100.171C253.733 98.1373 253.565 95.4877 255.496 94.1989C256.942 93.2371 257.141 95.353 257.424 96.5264C257.917 98.5445 258.118 101.199 256.106 102.501C254.5 103.543 254.683 101.221 254.121 100.171Z" fill="#5CE205"/>
<path d="M212.583 44.5377C213.03 46.2465 213.819 48.7951 211.962 49.9429C210.794 50.6642 210.629 48.8064 210.444 47.8318C210.123 46.1038 209.159 43.4958 210.857 42.2134C212.317 41.1106 211.907 44.068 212.583 44.5377Z" fill="#5CE205"/>
<path d="M209.462 48.925C209.729 50.0551 209.594 50.9511 208.651 51.3839C208.009 51.6773 207.527 51.4737 207.289 50.5969C207.119 50.137 207.093 49.6364 207.215 49.1614C207.336 48.6865 207.6 48.2597 207.97 47.9376C208.781 47.298 209.183 48.0161 209.462 48.925Z" fill="#5CE205"/>
</mask>
<g mask="url(#mask0)">
<circle cx="212.303" cy="82.528" r="58" fill="#5CE205"/>
</g>
</g>
<defs>
<clipPath id="clip0">
<rect width="279" height="279" fill="white"/>
</clipPath>
</defs>
</svg>
