<svg width="186" height="250" viewBox="0 0 186 250" fill="none" xmlns="http://www.w3.org/2000/svg">
<g opacity="0.3">
<path opacity="0.3" d="M77.7602 250C120.098 250 154.42 244.678 154.42 238.112C154.42 231.547 120.098 226.224 77.7602 226.224C35.4223 226.224 1.10059 231.547 1.10059 238.112C1.10059 244.678 35.4223 250 77.7602 250Z" fill="#371A45"/>
</g>
<path d="M30.6535 109.051C29.907 102.41 22.3788 85.4476 15.1846 77.4113C15.1846 77.4113 38.5829 88.6341 59.1503 88.6341" fill="#F92323"/>
<g opacity="0.7">
<path opacity="0.7" d="M53.3519 92.7871C37.1645 90.3069 23.6794 82.8475 22.9217 83.4882C22.164 84.1289 30.226 98.6318 31.7152 107.543L30.6533 109.051C29.9069 102.408 22.3842 85.4476 15.1919 77.415C15.5539 77.5874 38.7433 88.6341 59.1501 88.6341L53.3519 92.7871Z" fill="white"/>
</g>
<g opacity="0.35">
<path opacity="0.35" d="M48.4738 96.2827L35.8714 105.312C33.0273 99.722 27.871 89.1698 28.304 87.7386C28.7369 86.3075 34.0126 93.2311 48.4738 96.2827Z" fill="#371A45"/>
</g>
<path d="M30.6537 110.477C30.3049 110.476 29.9685 110.347 29.7086 110.113C29.4488 109.879 29.2837 109.558 29.2447 109.21C28.5467 103.041 21.3469 86.4199 14.1285 78.3648C13.9032 78.1205 13.7702 77.8048 13.7525 77.4723C13.7348 77.1399 13.8337 76.8117 14.0318 76.5447C14.2299 76.2777 14.5149 76.0888 14.8373 76.0107C15.1597 75.9325 15.4992 75.9701 15.7969 76.1169C16.0283 76.2274 39.1523 87.2011 59.1486 87.2011C59.5252 87.2011 59.8865 87.3513 60.1528 87.6186C60.4192 87.886 60.5688 88.2486 60.5688 88.6266C60.5688 89.0047 60.4192 89.3673 60.1528 89.6347C59.8865 89.902 59.5252 90.0522 59.1486 90.0522C44.1089 90.0522 27.8432 84.2713 19.742 80.95C26.0367 90.0634 31.4263 103.242 32.0589 108.882C32.1014 109.258 31.9936 109.635 31.7591 109.931C31.5246 110.227 31.1827 110.417 30.8085 110.46C30.7572 110.468 30.7056 110.473 30.6537 110.477Z" fill="#371A45"/>
<path d="M120.989 109.051C121.735 102.41 129.263 85.4476 136.457 77.4113C136.457 77.4113 113.059 88.6341 92.4937 88.6341" fill="#F92323"/>
<g opacity="0.7">
<path opacity="0.7" d="M98.2919 92.7871C114.479 90.3069 127.964 82.8475 128.722 83.4882C129.48 84.1289 121.418 98.6318 119.93 107.543L120.99 109.051C121.737 102.408 129.26 85.4476 136.454 77.415C136.081 77.5874 112.9 88.6341 92.4937 88.6341L98.2919 92.7871Z" fill="white"/>
</g>
<g opacity="0.35">
<path opacity="0.35" d="M103.17 96.2827L115.773 105.312C118.619 99.722 123.773 89.1698 123.34 87.7386C122.907 86.3075 117.635 93.2311 103.17 96.2827Z" fill="#371A45"/>
</g>
<path d="M120.99 110.477C120.936 110.476 120.882 110.473 120.828 110.467C120.454 110.424 120.113 110.234 119.878 109.938C119.644 109.642 119.536 109.265 119.578 108.89C120.218 103.242 125.606 90.0709 131.895 80.9574C123.794 84.2787 107.528 90.0597 92.4881 90.0597C92.1114 90.0597 91.7502 89.9095 91.4838 89.6421C91.2175 89.3748 91.0679 89.0122 91.0679 88.6341C91.0679 88.256 91.2175 87.8934 91.4838 87.6261C91.7502 87.3587 92.1114 87.2085 92.4881 87.2085C112.484 87.2085 135.608 76.2349 135.84 76.1243C136.137 75.9775 136.477 75.94 136.799 76.0181C137.122 76.0962 137.407 76.2852 137.605 76.5522C137.803 76.8191 137.902 77.1473 137.884 77.4798C137.867 77.8122 137.733 78.128 137.508 78.3723C130.293 86.4274 123.094 103.049 122.392 109.22C122.351 109.564 122.186 109.883 121.928 110.114C121.67 110.345 121.337 110.474 120.99 110.477Z" fill="#371A45"/>
<path d="M108.562 101.964C97.0711 101.756 85.6323 100.364 74.4252 97.8093H73.7366C62.512 100.25 51.0695 101.542 39.5852 101.665C39.5852 101.665 30.8271 157.505 5.57373 201.368C21.7637 204.707 38.5424 203.735 54.2423 198.549C60.0361 202.452 66.8504 204.548 73.828 204.573C80.8056 204.598 87.6349 202.552 93.4566 198.691C109.122 203.99 125.896 205.082 142.112 201.859C117.058 157.812 108.562 101.964 108.562 101.964Z" fill="#FF2261"/>
<path d="M142.108 201.855C139.86 202.35 137.588 202.726 135.3 202.979C121.208 204.708 106.908 203.241 93.4546 198.687C87.6333 202.549 80.8039 204.597 73.826 204.571C66.8481 204.546 60.0336 202.449 54.2403 198.545C40.7728 202.999 26.4817 204.365 12.4188 202.542C10.1171 202.272 7.83151 201.878 5.57178 201.362C30.8251 157.501 39.5831 101.661 39.5831 101.661C51.0675 101.538 62.5099 100.247 73.7346 97.8057H74.4213C85.6291 100.36 97.0686 101.752 108.56 101.959C108.56 101.959 117.058 157.814 142.108 201.855Z" fill="#F92323"/>
<g opacity="0.7">
<path opacity="0.7" d="M142.109 201.855C142.109 201.855 141.312 202.042 139.851 202.31C117.294 165.935 108.177 122.589 108.177 122.589C96.8433 122.418 85.5463 121.243 74.4179 119.079H73.7386C62.5948 121.146 51.2927 122.236 39.9605 122.336C39.9605 122.336 30.9599 165.674 8.23518 201.911C6.51455 201.606 5.56836 201.368 5.56836 201.368C30.8217 157.507 39.5798 101.666 39.5798 101.666C51.0642 101.544 62.5065 100.252 73.7312 97.8113H74.4179C85.6257 100.366 97.0652 101.757 108.556 101.964C108.556 101.964 117.059 157.814 142.109 201.855Z" fill="white"/>
</g>
<g opacity="0.35">
<path opacity="0.35" d="M135.3 202.981C121.208 204.71 106.908 203.243 93.4548 198.689C87.6335 202.551 80.8041 204.599 73.8262 204.573C66.8483 204.548 60.0337 202.451 54.2404 198.547C40.773 203.001 26.4818 204.367 12.4189 202.544C35.0298 168.4 42.8678 125.163 42.8678 125.163C53.2207 125.073 63.5456 124.071 73.7235 122.166H74.3487C84.513 124.167 94.8346 125.256 105.191 125.42C105.191 125.42 112.839 168.675 135.3 202.981Z" fill="#371A45"/>
</g>
<path d="M73.9398 205.997H73.8278C66.839 205.782 60.0244 203.756 54.0461 200.117C38.2757 205.241 21.446 206.145 5.22085 202.739L3.39014 202.282L4.3344 200.643C29.1548 157.524 38.0864 101.987 38.1723 101.43L38.3589 100.22H39.5794C50.9534 100.079 62.285 98.799 73.4061 96.4007L73.5666 96.3651H74.5855L74.7479 96.4044C85.8474 98.9265 97.1739 100.307 108.552 100.526H109.769L109.956 101.732C110.039 102.294 118.708 157.835 143.334 201.132L144.267 202.78L142.429 203.226C126.177 206.51 109.353 205.482 93.6188 200.242C87.6591 203.822 80.8824 205.804 73.9398 205.997ZM54.4455 196.968L55.0315 197.365C60.694 200.899 67.176 202.891 73.839 203.146H73.9361C80.5628 202.921 87.0184 200.976 92.6727 197.5L93.2605 197.11L93.9286 197.344C108.733 202.306 124.531 203.51 139.912 200.847C117.747 160.928 108.746 111.657 107.354 103.382C96.2141 103.076 85.1301 101.687 74.257 99.235H73.8838C62.995 101.578 51.9077 102.869 40.7737 103.09C39.3368 111.372 30.1122 160.617 7.76449 200.371C23.1247 203.141 38.9289 202.052 53.7681 197.202L54.4455 196.968Z" fill="#371A45"/>
<g opacity="0.6">
<path opacity="0.6" d="M184.497 83.1529C183.061 86.3504 180.668 89.0197 177.652 90.7902C178.766 89.2447 179.557 87.4894 179.979 85.6295C180.4 83.7697 180.444 81.8435 180.106 79.9664C178.471 73.129 167.362 70.4127 159.47 68.8429C160.619 68.251 164.27 66.3721 164.66 66.2016C169.187 64.2234 188.928 73.0035 184.497 83.1529Z" fill="white"/>
</g>
<path d="M183.945 83.5819C183.859 83.7692 183.773 83.9697 183.678 84.1551C183.607 84.3068 183.536 84.453 183.458 84.5916C183.379 84.7302 183.335 84.8314 183.271 84.9475C183.165 85.1348 183.053 85.3222 182.944 85.5095C182.847 85.6612 182.758 85.8111 182.657 85.9553C182.487 86.2157 182.312 86.4649 182.129 86.7046C182.03 86.8395 181.927 86.9725 181.827 87.1018C181.689 87.2891 181.541 87.4502 181.396 87.6188C181.25 87.7874 181.11 87.9429 180.961 88.1021C180.811 88.2613 180.664 88.4131 180.511 88.5648C180.138 88.9301 179.765 89.2766 179.369 89.6007C179.255 89.6963 179.141 89.788 179.024 89.8798C178.792 90.0672 178.557 90.2376 178.32 90.41C178.202 90.4943 178.081 90.5786 177.96 90.661C177.749 90.8052 177.533 90.9457 177.318 91.0844L177.103 91.2155C176.665 91.4834 176.221 91.7344 175.782 91.9648C175.676 92.0229 175.567 92.0772 175.463 92.1296C175.411 92.1577 175.355 92.184 175.302 92.2083C175.269 92.2214 175.239 92.2402 175.205 92.2533C174.348 92.6707 173.467 93.0367 172.567 93.3491C172.449 93.3941 172.339 93.4334 172.223 93.4672C171.546 93.6976 170.902 93.8849 170.307 94.0385C170.12 94.0891 169.918 94.1397 169.73 94.1809C169.541 94.2221 169.338 94.2764 169.157 94.3139C168.976 94.3513 168.851 94.3794 168.709 94.4057C167.937 94.5593 167.339 94.6398 166.977 94.6867L166.843 94.6998C166.686 94.7185 166.598 94.7241 166.598 94.7241L138.439 112.696L103.846 134.773L99.0254 101.547C99.0254 101.547 110.723 95.1775 124.219 87.8829C129.543 85.0074 135.144 81.9821 140.421 79.1497C142.997 77.7635 145.496 76.4241 147.849 75.1615C148.11 75.0247 148.366 74.8824 148.621 74.7438C151.585 73.159 154.289 71.7203 156.592 70.5064C156.87 70.3584 157.137 70.2142 157.398 70.0774C158.951 69.2607 160.294 68.5582 161.375 68C161.508 67.9344 161.636 67.8632 161.761 67.8014H161.774C161.981 67.6965 162.177 67.5953 162.362 67.4979C162.685 67.335 162.972 67.1945 163.221 67.0708C163.318 67.0221 163.407 66.9734 163.497 66.9322C163.754 66.8067 163.96 66.713 164.107 66.6456C168.634 64.6543 188.375 73.4343 183.945 83.5819Z" fill="white"/>
<path d="M183.945 83.5818C183.859 83.7691 183.773 83.9696 183.678 84.155C183.607 84.3068 183.536 84.4529 183.458 84.5915C183.379 84.7301 183.335 84.8313 183.271 84.9474C183.165 85.1347 183.053 85.3221 182.945 85.5094C182.848 85.6611 182.758 85.811 182.657 85.9552C182.487 86.2156 182.312 86.4648 182.129 86.7046C182.03 86.8394 181.928 86.9724 181.827 87.1017C181.689 87.289 181.541 87.4501 181.396 87.6187C181.25 87.7873 181.11 87.9428 180.961 88.102C180.812 88.2612 180.664 88.413 180.511 88.5647C180.138 88.93 179.765 89.2766 179.369 89.6006C179.255 89.6962 179.141 89.788 179.024 89.8798C178.792 90.0671 178.557 90.2376 178.32 90.4099C178.203 90.4942 178.081 90.5785 177.96 90.6609C177.747 90.8089 177.533 90.9457 177.318 91.0843L177.103 91.2154C176.665 91.4833 176.221 91.7343 175.782 91.9647C175.676 92.0228 175.568 92.0771 175.463 92.1296C175.411 92.1577 175.355 92.1839 175.303 92.2082C175.25 92.2326 175.239 92.2438 175.206 92.2569C174.348 92.6744 173.467 93.0403 172.567 93.3528C172.449 93.3978 172.339 93.4371 172.223 93.4708C171.546 93.7012 170.902 93.8886 170.307 94.0422C170.107 94.0965 169.913 94.1415 169.73 94.1845C169.547 94.2276 169.338 94.2801 169.157 94.3175C168.976 94.355 168.851 94.3831 168.709 94.4093C167.937 94.5629 167.34 94.6435 166.977 94.6903L166.843 94.7035C166.686 94.7222 166.599 94.7278 166.599 94.7278L138.44 112.7C136.419 109.53 135.099 105.963 134.567 102.238C132.779 89.7018 140.427 79.1421 140.427 79.1421C143.002 77.7559 145.501 76.4165 147.855 75.1539C148.116 75.0172 148.371 74.8748 148.627 74.7362C151.591 73.1514 154.295 71.7127 156.598 70.4988C156.876 70.3508 157.143 70.2066 157.404 70.0699C158.957 69.2531 160.3 68.5506 161.381 67.9924C161.513 67.9268 161.642 67.8556 161.767 67.7938H161.78C161.987 67.6889 162.183 67.5878 162.368 67.4904C162.691 67.3274 162.978 67.1869 163.226 67.0632C163.324 67.0145 163.413 66.9658 163.503 66.9246C163.76 66.7991 163.965 66.7054 164.113 66.638C168.635 64.6542 188.375 73.4343 183.945 83.5818Z" fill="white"/>
<path d="M103.846 136.202C103.505 136.203 103.175 136.079 102.917 135.855C102.659 135.632 102.489 135.322 102.441 134.983L97.6183 101.747C97.5764 101.458 97.6239 101.163 97.7544 100.902C97.8849 100.641 98.0921 100.427 98.348 100.288C100.823 98.9427 159.011 67.3049 163.542 65.3268C167.338 63.6689 177.077 67.4585 182.153 72.567C185.805 76.2423 186.905 80.3598 185.246 84.1569C180.905 94.1022 169.331 95.863 167.071 96.114L104.609 135.979C104.381 136.125 104.116 136.202 103.846 136.202ZM100.572 102.32L104.936 132.392L165.833 93.5271C166.03 93.4017 166.254 93.3265 166.487 93.3079C166.606 93.3079 178.617 92.2382 182.644 83.0142C183.835 80.2867 182.993 77.4487 180.143 74.5845C175.159 69.5679 166.707 67.0558 164.674 67.9456C160.541 69.7402 108.024 98.2683 100.572 102.316V102.32Z" fill="#371A45"/>
<path d="M163.469 77.9789C165.493 78.1725 167.478 78.6628 169.361 79.4344C170.324 79.8175 171.253 80.2839 172.136 80.8281C173.094 81.3905 173.958 82.1011 174.696 82.9337C175.124 83.4109 175.463 83.9609 175.698 84.5578C175.975 85.2451 176.058 85.9955 175.939 86.7271C175.896 86.9144 175.848 87.0867 175.797 87.2647C175.695 87.5624 175.57 87.8517 175.424 88.1302C175.356 88.273 175.278 88.4113 175.192 88.5441C174.848 89.1157 174.392 89.6119 173.853 90.0034C173.305 90.3922 172.682 90.6608 172.024 90.7921C171.419 90.9111 170.801 90.9421 170.187 90.8839C169.618 90.8318 169.056 90.7246 168.508 90.5635C168.239 90.4849 167.974 90.3987 167.711 90.3013C167.435 90.2008 167.164 90.0864 166.899 89.9585L168.754 88.8233C168.754 89.1155 168.741 89.3178 168.722 89.5576C168.704 89.7974 168.681 90.0165 168.653 90.2432C168.596 90.6979 168.515 91.1494 168.411 91.5957C168.202 92.5057 167.883 93.3865 167.461 94.2183C167.015 95.0878 166.423 95.8741 165.712 96.543C164.986 97.2213 164.135 97.7519 163.208 98.1054C162.312 98.4461 161.366 98.636 160.408 98.6673C159.501 98.7077 158.592 98.6303 157.704 98.4369C157.277 98.3264 156.846 98.2215 156.433 98.0791C156.021 97.9368 155.612 97.7869 155.224 97.594C154.44 97.2372 153.695 96.7976 153.003 96.2826C152.967 96.2545 152.94 96.2154 152.927 96.1709C152.914 96.1264 152.916 96.079 152.932 96.0355C152.947 95.992 152.977 95.9547 153.015 95.9291C153.054 95.9035 153.099 95.8908 153.145 95.893C154.845 96.011 156.437 96.2171 157.975 96.2545C159.411 96.3487 160.851 96.1341 162.198 95.6251C163.424 95.0787 164.433 94.1356 165.063 92.9464C165.405 92.3159 165.672 91.6468 165.858 90.9532C165.955 90.5988 166.033 90.2392 166.091 89.8761C166.123 89.6887 166.147 89.5108 166.166 89.3309C166.184 89.1511 166.199 88.9563 166.203 88.8289V88.7764C166.214 88.4397 166.358 88.1212 166.603 87.8908C166.848 87.6604 167.174 87.537 167.509 87.5476C167.7 87.5547 167.887 87.6047 168.056 87.6937C168.187 87.7611 168.411 87.8641 168.599 87.9391C168.788 88.014 168.999 88.0889 169.2 88.1489C169.593 88.2688 169.997 88.351 170.406 88.3943C171.09 88.5031 171.79 88.3449 172.361 87.9522C172.614 87.7532 172.822 87.503 172.972 87.2179C173.018 87.1419 173.058 87.0623 173.091 86.98C173.132 86.897 173.167 86.8112 173.196 86.7233C173.229 86.6418 173.257 86.5579 173.278 86.4723C173.286 86.4089 173.3 86.3462 173.319 86.285C173.335 86.0344 173.29 85.7838 173.188 85.5544C173.048 85.236 172.859 84.9415 172.628 84.6815C172.358 84.3666 172.066 84.0718 171.753 83.7991C171.417 83.5181 171.074 83.2372 170.702 82.9618C169.956 82.4242 169.172 81.9109 168.36 81.4107C166.735 80.4029 165.033 79.44 163.335 78.3685C163.287 78.3381 163.254 78.2902 163.241 78.2352C163.229 78.1802 163.238 78.1225 163.267 78.0744C163.289 78.0416 163.32 78.0154 163.355 77.9986C163.391 77.9818 163.43 77.9749 163.469 77.9789Z" fill="#371A45"/>
<path d="M169.848 74.6519C170.129 75.7759 170.363 76.8305 170.641 77.8253C170.771 78.3235 170.938 78.7994 171.053 79.2714C171.183 79.7361 171.273 80.2112 171.322 80.6914V80.8281C171.335 81.1102 171.254 81.3887 171.092 81.6193C170.929 81.8499 170.695 82.0193 170.425 82.1007C170.156 82.1821 169.867 82.1708 169.605 82.0685C169.343 81.9662 169.122 81.7788 168.978 81.5362C168.67 80.9962 168.472 80.4002 168.396 79.7828C168.317 79.181 168.317 78.5714 168.396 77.9695C168.461 77.3761 168.582 76.7903 168.758 76.2199C168.931 75.6457 169.177 75.0962 169.489 74.5845C169.502 74.5629 169.52 74.5442 169.54 74.5296C169.561 74.5149 169.584 74.5045 169.609 74.4991C169.633 74.4937 169.659 74.4933 169.683 74.498C169.708 74.5027 169.732 74.5124 169.752 74.5264C169.794 74.5523 169.823 74.5933 169.835 74.6407L169.848 74.6519Z" fill="#371A45"/>
<path d="M138.434 113.768C138.254 113.768 138.077 113.722 137.919 113.635C137.762 113.548 137.629 113.422 137.533 113.27C135.348 109.751 133.947 105.8 133.426 101.687C132.906 97.5741 133.277 93.3968 134.515 89.4414C135.601 85.5501 137.302 81.8589 139.554 78.509C139.721 78.2828 139.97 78.132 140.248 78.0894C140.525 78.0467 140.808 78.1156 141.035 78.2812C141.262 78.4467 141.415 78.6955 141.461 78.9735C141.506 79.2515 141.441 79.5363 141.278 79.766C141.159 79.9308 129.478 96.4587 139.33 112.129C139.432 112.29 139.489 112.477 139.494 112.668C139.5 112.859 139.454 113.049 139.362 113.216C139.27 113.384 139.135 113.523 138.971 113.62C138.806 113.717 138.619 113.768 138.428 113.768H138.434Z" fill="#371A45"/>
<g opacity="0.35">
<path opacity="0.35" d="M175.298 92.2065C175.265 92.2196 175.235 92.2383 175.201 92.2514C174.344 92.6689 173.463 93.0348 172.563 93.3473C172.445 93.3923 172.335 93.4316 172.219 93.4653C171.542 93.6957 170.898 93.8831 170.303 94.0367C170.103 94.091 169.909 94.136 169.726 94.1791C169.543 94.2221 169.334 94.2746 169.153 94.3121C168.972 94.3495 168.847 94.3776 168.705 94.4038C167.933 94.5574 167.335 94.638 166.973 94.6848L166.839 94.6979C166.682 94.7167 166.595 94.7223 166.595 94.7223L138.435 112.695L103.846 134.773L101.755 120.36L110.394 112.698C117.956 108.373 125.551 109.753 132.426 107.219C133.947 106.657 135.343 106.119 136.386 105.666C141.122 103.62 145.692 101.208 150.056 98.4539C146.21 96.3296 150.105 91.8131 150.105 91.8131C161.826 93.7369 163.422 85.163 165.059 84.6834C166.695 84.2038 174.526 86.9313 174.526 86.9313C176.329 88.1789 176.19 90.1777 175.298 92.2065Z" fill="#371A45"/>
</g>
<path d="M125.369 230.053C125.345 230.276 125.315 230.495 125.274 230.709C124.124 237.222 116.157 239.545 101.816 237.754C95.3193 236.941 86.341 235.98 83.9728 231.031C79.2476 221.15 84.0717 201.152 83.5119 188.341V188.319C79.6242 188.731 75.7041 188.731 71.8164 188.319L71.8052 188.631C71.3256 201.454 76.0434 221.226 71.3517 231.031C68.9835 235.98 60.009 236.941 53.5128 237.754C39.1431 239.545 31.1838 237.217 30.0472 230.686C30.0099 230.479 29.98 230.269 29.9558 230.053C29.129 222.098 40.7238 218.403 40.7238 218.403C40.7238 218.403 38.195 201.516 36.5285 186.28C32.3893 148.44 47.0856 102.871 47.0856 102.871H108.239C108.239 102.871 122.939 148.435 118.796 186.28C117.13 201.516 114.605 218.403 114.605 218.403C114.605 218.403 126.203 222.088 125.369 230.053Z" fill="white"/>
<path d="M38.9546 205.864C39.9381 213.147 40.7238 218.394 40.7238 218.394C40.7238 218.394 29.129 222.088 29.9558 230.044C29.98 230.259 30.0099 230.469 30.0472 230.677C31.1838 237.209 39.1524 239.536 53.5128 237.745C60.009 236.932 68.9835 235.971 71.3517 231.022C74.3563 224.741 73.5016 214.376 72.6245 204.367C56.3251 210.172 44.6129 207.844 38.9546 205.864Z" fill="#33AEF1"/>
<path d="M114.604 218.394C114.604 218.394 115.474 212.587 116.528 204.699C111.303 206.69 99.5087 209.526 82.7502 203.762C81.8563 213.96 80.9046 224.621 83.9689 231.029C86.3371 235.979 95.3153 236.94 101.812 237.753C116.153 239.543 124.12 237.221 125.27 230.707C125.311 230.494 125.341 230.274 125.365 230.052C126.203 222.088 114.604 218.394 114.604 218.394Z" fill="#33AEF1"/>
<g opacity="0.35">
<path opacity="0.35" d="M57.2617 182.414C63.5949 183.415 69.9866 183.997 76.3958 184.156C84.7321 184.156 98.0773 182.414 98.0773 182.414C91.9354 186.517 84.6646 188.58 77.2916 188.311C64.1984 188.038 57.2617 182.414 57.2617 182.414Z" fill="#371A45"/>
</g>
<g opacity="0.35">
<path opacity="0.35" d="M71.3514 231.022C68.9832 235.971 60.0087 236.932 53.5124 237.745C39.1427 239.536 31.1834 237.207 30.0469 230.677C41.8039 235.149 62.5187 232.595 66.0644 226.921C70.6534 219.574 71.3962 212.231 64.2599 203.076C59.8129 196.886 57.1537 189.585 56.5748 181.976C59.9844 184.381 66.9994 186.992 71.8011 188.622C71.3252 201.445 76.043 221.211 71.3514 231.022Z" fill="#371A45"/>
</g>
<g opacity="0.35">
<path opacity="0.35" d="M125.27 230.7C124.12 237.213 116.153 239.536 101.811 237.745C95.3152 236.932 86.337 235.971 83.9688 231.022C79.2436 221.14 84.0677 201.143 83.5078 188.332C87.4809 187.14 94.8394 184.705 98.7136 181.976C98.7136 181.976 100.667 190.568 92.3554 202.31C85.6502 211.785 85.1631 219.325 89.7428 226.663C93.0086 231.878 112.35 234.019 125.27 230.7Z" fill="#371A45"/>
</g>
<path d="M47.5372 103.008C46.4791 107.757 45.4154 112.503 44.417 117.245C44.1613 118.43 43.9037 119.616 43.6704 120.804L42.924 124.363C42.4668 126.746 41.976 129.119 41.5486 131.506L40.9141 135.086L40.595 136.875L40.3169 138.671C39.9437 141.063 39.52 143.452 39.2308 145.855C38.9415 148.259 38.572 150.655 38.3462 153.064L37.973 156.675C37.8405 157.878 37.7864 159.086 37.6968 160.293L37.4542 163.912C37.4019 164.515 37.3963 165.12 37.3795 165.723L37.331 167.535L37.2358 171.158C37.2078 171.763 37.2358 172.364 37.2358 172.967L37.2769 174.777L37.3628 178.396C37.3628 178.999 37.4262 179.599 37.471 180.198L37.6128 182L37.8946 185.601C37.9972 186.803 38.154 188.015 38.2846 189.222C39.4043 198.882 40.7107 208.541 42.1196 218.164L42.2951 219.351L41.1455 219.735C40.7051 219.881 40.1844 220.086 39.7085 220.297C39.2327 220.509 38.7419 220.726 38.2716 220.964C37.3364 221.433 36.4374 221.972 35.5824 222.575C33.924 223.649 32.6031 225.173 31.7734 226.97C31.4291 227.814 31.2841 228.727 31.3498 229.637C31.3994 230.56 31.641 231.462 32.059 232.284C33.0331 233.927 34.5874 235.142 36.4129 235.686C38.4037 236.346 40.4764 236.725 42.5713 236.81C44.7399 236.925 46.9136 236.898 49.0787 236.73C51.2584 236.585 53.44 236.299 55.6533 236.02C57.8233 235.764 59.9791 235.398 62.1122 234.924C64.1428 234.515 66.0908 233.767 67.875 232.712C68.6531 232.231 69.3164 231.584 69.8177 230.818C69.876 230.728 69.9289 230.635 69.9764 230.539C70.034 230.439 70.0845 230.335 70.1275 230.228L70.4299 229.533C70.6016 229.047 70.7882 228.572 70.9207 228.066C71.0532 227.56 71.1819 227.052 71.307 226.543C71.4022 226.02 71.516 225.503 71.5831 224.971C71.7511 223.917 71.8407 222.836 71.9153 221.753C72.0422 219.582 72.0329 217.383 71.9545 215.176C71.7828 210.755 71.3518 206.311 70.9673 201.838C70.4965 197.318 70.302 192.773 70.385 188.229L70.4429 186.709L71.9676 186.876C72.8783 186.975 73.8506 187.047 74.7968 187.097C75.7429 187.148 76.7003 187.172 77.6502 187.172C78.6 187.172 79.5518 187.146 80.5036 187.097C81.4553 187.049 82.422 186.975 83.3309 186.876L84.8574 186.709L84.9153 188.229C84.9983 192.773 84.8038 197.318 84.333 201.838C83.9486 206.311 83.5175 210.755 83.3458 215.176C83.2674 217.383 83.2562 219.582 83.3831 221.753C83.4596 222.836 83.5492 223.917 83.7172 224.971C83.7844 225.503 83.9038 226.02 83.9915 226.543C84.1184 227.052 84.2211 227.573 84.3797 228.066C84.5383 228.559 84.6988 229.047 84.8705 229.533L85.1728 230.228C85.2157 230.335 85.2662 230.439 85.3239 230.539C85.3713 230.635 85.4243 230.728 85.4826 230.818C85.9834 231.585 86.6468 232.231 87.4253 232.712C89.2095 233.767 91.1575 234.515 93.1881 234.924C95.3213 235.398 97.477 235.764 99.647 236.02C101.86 236.299 104.042 236.582 106.222 236.73C108.386 236.898 110.559 236.925 112.727 236.81C114.822 236.725 116.895 236.346 118.886 235.686C120.711 235.142 122.265 233.927 123.239 232.284C123.657 231.461 123.898 230.56 123.949 229.637C124.013 228.727 123.869 227.815 123.525 226.97C122.695 225.173 121.375 223.649 119.716 222.575C118.861 221.972 117.962 221.433 117.027 220.964C116.555 220.727 116.076 220.505 115.59 220.297C115.114 220.093 114.593 219.889 114.153 219.735L113.003 219.351L113.179 218.164C114.479 209.308 115.667 200.431 116.743 191.533C116.995 189.315 117.281 187.079 117.477 184.874C117.568 183.77 117.699 182.671 117.76 181.564L117.956 178.242C118.143 173.806 118.111 169.359 117.926 164.914C117.518 156.008 116.526 147.138 114.957 138.362C114.211 133.977 113.41 129.558 112.602 125.21C111.704 120.841 110.854 116.449 109.926 112.082C109.9 111.967 109.917 111.846 109.974 111.743C110.031 111.64 110.125 111.561 110.236 111.523C110.347 111.485 110.469 111.49 110.577 111.536C110.685 111.582 110.772 111.667 110.822 111.775C111.775 113.833 112.604 115.948 113.304 118.106C114.015 120.251 114.664 122.415 115.243 124.594C116.342 129.013 117.234 133.398 117.947 137.868C118.66 142.337 119.235 146.799 119.727 151.286C119.97 153.534 120.168 155.782 120.362 158.03L120.593 161.411C120.672 162.535 120.707 163.668 120.765 164.796C120.951 169.314 120.981 173.844 120.797 178.373L120.597 181.77C120.533 182.894 120.401 184.031 120.306 185.16C120.102 187.425 119.821 189.637 119.559 191.876C118.494 200.804 117.302 209.71 115.984 218.593L115.01 217.023C115.627 217.229 116.146 217.437 116.689 217.671C117.232 217.905 117.766 218.149 118.292 218.42C119.355 218.953 120.376 219.564 121.347 220.25C122.351 220.952 123.273 221.765 124.096 222.673C124.966 223.622 125.661 224.718 126.149 225.912C126.649 227.151 126.862 228.489 126.77 229.823C126.694 231.145 126.343 232.437 125.74 233.614C125.113 234.793 124.233 235.817 123.163 236.612C122.151 237.363 121.031 237.956 119.841 238.371C117.593 239.13 115.25 239.568 112.88 239.671C110.588 239.792 108.29 239.765 106.001 239.59C103.727 239.437 101.478 239.141 99.2626 238.861C96.9972 238.594 94.7468 238.211 92.52 237.715C90.1805 237.229 87.9399 236.348 85.8931 235.111C84.7684 234.404 83.8127 233.457 83.0938 232.337C82.9997 232.191 82.9137 232.041 82.8363 231.885C82.7551 231.742 82.6828 231.594 82.6198 231.441L82.2466 230.598C82.0413 230.027 81.8248 229.458 81.6699 228.881C81.515 228.304 81.3714 227.725 81.2314 227.148C81.125 226.567 80.9981 225.988 80.9253 225.41C80.7387 224.25 80.6473 223.094 80.5652 221.942C80.4308 219.638 80.4439 217.353 80.5241 215.082C80.7107 210.543 81.1381 206.06 81.5188 201.606C81.9777 197.209 82.1703 192.788 82.0955 188.367L83.6799 189.72C82.6479 189.834 81.6718 189.907 80.6678 189.956C79.6638 190.005 78.6691 190.036 77.667 190.036C76.6648 190.036 75.6645 190.008 74.6661 189.956C73.6677 189.903 72.6861 189.834 71.6541 189.72L73.2385 188.367C73.1628 192.788 73.3553 197.209 73.8151 201.606C74.1884 206.06 74.6325 210.543 74.8098 215.082C74.89 217.353 74.9031 219.638 74.7687 221.942C74.6866 223.094 74.5821 224.25 74.4086 225.41C74.3339 225.988 74.2089 226.567 74.1025 227.148C73.9625 227.725 73.845 228.306 73.664 228.881C73.483 229.456 73.2907 230.027 73.0873 230.598L72.7141 231.441C72.6511 231.594 72.5788 231.742 72.4976 231.885C72.4195 232.04 72.3335 232.191 72.2401 232.337C71.5207 233.456 70.5651 234.403 69.4408 235.111C67.3807 236.352 65.1252 237.232 62.771 237.713C60.5442 238.209 58.2938 238.592 56.0284 238.86C53.8132 239.139 51.5645 239.435 49.2896 239.588C47.0008 239.763 44.7031 239.79 42.4108 239.669C40.0406 239.566 37.6967 239.128 35.448 238.369C34.2588 237.954 33.1389 237.361 32.1262 236.61C31.0569 235.815 30.1772 234.791 29.5508 233.613C28.9471 232.435 28.5961 231.143 28.5207 229.821C28.4292 228.487 28.6418 227.149 29.1422 225.91C29.6297 224.716 30.3248 223.62 31.1949 222.671C32.0179 221.763 32.94 220.95 33.9439 220.249C34.9151 219.563 35.9363 218.951 36.9988 218.418C37.5251 218.151 38.0588 217.905 38.6 217.669C39.1412 217.433 39.6712 217.227 40.2796 217.021L39.3054 218.591C37.8871 208.927 36.5845 199.26 35.4573 189.555C35.3267 188.337 35.1681 187.133 35.0654 185.906L34.7743 182.219L34.6306 180.374C34.584 179.76 34.5186 179.145 34.5186 178.531L34.4328 174.839L34.388 172.993C34.3731 172.379 34.3451 171.763 34.3712 171.148L34.4477 167.462L34.485 165.618C34.5 165.004 34.5037 164.389 34.5522 163.777L34.7781 160.1C34.8602 158.876 34.8975 157.646 35.0188 156.424L35.3659 152.76L35.5394 150.928C35.5917 150.315 35.657 149.707 35.7391 149.098L36.2131 145.451C36.8402 140.58 37.6725 135.753 38.6243 130.946C38.8482 129.741 39.1356 128.55 39.3876 127.351C39.6395 126.152 39.8933 124.955 40.1863 123.766C40.7723 121.388 41.3358 119.006 42.0151 116.647C43.2933 111.916 44.8322 107.259 46.6246 102.699C46.6701 102.589 46.7545 102.501 46.8614 102.451C46.9683 102.401 47.09 102.392 47.2027 102.427C47.3154 102.463 47.411 102.539 47.4708 102.641C47.5306 102.743 47.5503 102.864 47.526 102.98L47.5372 103.008Z" fill="#371A45"/>
<g opacity="0.35">
<path opacity="0.35" d="M119.471 158.262C118.498 159.474 117.092 160.256 115.552 160.444C110.59 161.046 103.567 161.465 98.357 160.034C94.6732 166.167 88.093 172.317 76.3994 176.011C64.689 172.313 58.1106 166.145 54.4249 160.004C49.1995 161.473 42.108 161.049 37.1159 160.444C36.6737 160.391 36.2392 160.287 35.8208 160.133C35.8768 156.289 36.0802 152.453 36.3807 148.652C36.8555 148.528 37.3439 148.466 37.8344 148.465C37.9259 148.465 38.0211 148.465 38.1162 148.465C42.173 148.679 46.2383 148.679 50.295 148.465C49.8703 145.963 49.7831 143.416 50.0356 140.891C56.767 134.147 76.4031 133.647 76.4031 133.647C76.4031 133.647 96.043 134.138 102.774 140.891C103.027 143.418 102.938 145.968 102.511 148.472C106.525 148.682 110.546 148.682 114.559 148.472C114.651 148.472 114.746 148.472 114.843 148.472C115.632 148.473 116.413 148.631 117.14 148.936C117.868 149.242 118.528 149.689 119.083 150.252C119.264 152.904 119.402 155.581 119.471 158.262Z" fill="#371A45"/>
</g>
<path d="M57.6517 154.748C52.3703 156.894 44.1983 156.445 38.6277 155.769C37.8347 155.671 37.0692 155.416 36.3762 155.017C35.6832 154.618 35.0767 154.084 34.5925 153.447C34.1083 152.809 33.7562 152.08 33.5569 151.304C33.3576 150.527 33.3152 149.719 33.4322 148.925C33.6481 147.453 34.4011 146.113 35.5453 145.167C36.6894 144.22 38.143 143.734 39.6242 143.802C45.6256 144.231 51.656 143.98 57.6013 143.053" fill="#F92323"/>
<g opacity="0.7">
<path opacity="0.7" d="M39.6244 146.477C45.6257 146.907 51.6563 146.656 57.6015 145.728L57.6425 155.194H57.6518L57.6015 143.504C51.6562 144.431 45.6257 144.682 39.6244 144.254C38.1432 144.185 36.6896 144.672 35.5454 145.618C34.4013 146.565 33.6482 147.904 33.4323 149.377C33.3357 150.041 33.3509 150.717 33.4772 151.376C33.7394 149.952 34.5064 148.671 35.6364 147.77C36.7665 146.87 38.1831 146.411 39.6244 146.477Z" fill="white"/>
</g>
<g opacity="0.35">
<path opacity="0.35" d="M57.6517 154.748C52.3704 156.896 44.1983 156.434 38.6277 155.77C37.6675 155.651 36.7504 155.3 35.9547 154.748C35.159 154.195 34.5083 153.457 34.0583 152.598C33.6083 151.738 33.3724 150.781 33.3706 149.81C33.3688 148.839 33.6013 147.882 34.0481 147.02C34.4961 147.885 35.1473 148.627 35.9453 149.182C36.7433 149.736 37.664 150.088 38.6277 150.205C44.189 150.883 52.348 151.329 57.6293 149.195L57.6517 154.748Z" fill="#371A45"/>
</g>
<path d="M47.1523 157.745C44.2456 157.73 41.3423 157.543 38.4577 157.183C36.5687 156.936 34.8471 155.968 33.6509 154.48C32.4546 152.991 31.8758 151.098 32.0346 149.192C32.1934 147.287 33.0778 145.516 34.5037 144.248C35.9297 142.98 37.7876 142.312 39.6913 142.384C45.5668 142.836 51.4748 142.598 57.2952 141.674C58.0416 141.507 59.8836 141.5 60.9716 145.01C62.0726 148.57 61.9494 154.545 58.1834 156.076C54.6397 157.307 50.9003 157.873 47.1523 157.745ZM39.3405 145.213C38.1761 145.212 37.0553 145.657 36.2075 146.458C35.3597 147.26 34.849 148.356 34.7798 149.523C34.7107 150.689 35.0884 151.838 35.8356 152.735C36.5827 153.631 37.643 154.207 38.7993 154.345C46.7605 155.313 53.2679 154.984 57.1179 153.419C58.2376 152.962 58.5753 151.128 58.6649 150.36C58.9499 148.348 58.5926 146.297 57.6441 144.501C51.6602 145.405 45.5952 145.646 39.5588 145.218L39.3405 145.213Z" fill="#371A45"/>
<path d="M98.04 154.748C103.32 156.894 111.492 156.445 117.064 155.769C117.857 155.672 118.623 155.416 119.316 155.018C120.009 154.619 120.615 154.085 121.099 153.447C121.583 152.809 121.935 152.08 122.134 151.304C122.333 150.527 122.375 149.719 122.258 148.925C122.042 147.453 121.289 146.113 120.145 145.167C119 144.22 117.547 143.734 116.066 143.802C110.064 144.231 104.034 143.979 98.0886 143.053" fill="#F92323"/>
<g opacity="0.7">
<path opacity="0.7" d="M98.0886 145.733C104.034 146.661 110.064 146.912 116.066 146.483C117.466 146.417 118.845 146.848 119.961 147.701C121.077 148.553 121.858 149.773 122.168 151.145C122.376 150.243 122.372 149.305 122.158 148.405C121.943 147.504 121.524 146.666 120.933 145.955C120.342 145.245 119.595 144.681 118.75 144.309C117.906 143.936 116.987 143.766 116.066 143.81C110.064 144.238 104.034 143.987 98.0886 143.06L98.04 154.748H98.0513L98.0886 145.733Z" fill="white"/>
</g>
<g opacity="0.35">
<path opacity="0.35" d="M117.058 155.772C111.488 156.445 103.316 156.896 98.0342 154.749L98.0566 149.13C103.338 151.265 111.493 150.816 117.058 150.139C118.017 150.024 118.933 149.677 119.729 149.128C120.524 148.578 121.174 147.843 121.623 146.985C122.08 147.846 122.321 148.806 122.325 149.782C122.329 150.758 122.096 151.72 121.647 152.586C121.197 153.451 120.545 154.193 119.745 154.749C118.946 155.304 118.023 155.655 117.058 155.772Z" fill="#371A45"/>
</g>
<path d="M108.537 157.745C104.788 157.868 101.049 157.296 97.5063 156.059C93.7403 154.528 93.6171 148.551 94.7201 144.994C95.8062 141.483 97.6556 141.492 98.3965 141.657C104.217 142.58 110.125 142.818 116 142.367C117.904 142.296 119.762 142.963 121.188 144.231C122.614 145.499 123.498 147.27 123.657 149.175C123.816 151.081 123.237 152.975 122.041 154.463C120.844 155.951 119.123 156.919 117.234 157.166C114.349 157.532 111.445 157.725 108.537 157.745ZM98.0456 144.501C97.098 146.297 96.7413 148.348 97.0267 150.36C97.1162 151.128 97.4447 152.962 98.5719 153.42C102.424 154.984 108.929 155.313 116.892 154.345C118.067 154.204 119.141 153.612 119.889 152.692C120.637 151.772 121 150.597 120.901 149.414C120.803 148.23 120.251 147.132 119.361 146.349C118.472 145.567 117.314 145.161 116.133 145.218C110.096 145.65 104.03 145.413 98.0456 144.51V144.501Z" fill="#371A45"/>
<path d="M102.661 208.897C95.8602 208.72 89.1291 207.473 82.7132 205.202C82.3551 205.085 82.0581 204.83 81.8875 204.493C81.7169 204.156 81.6866 203.764 81.8034 203.405C81.9202 203.046 82.1745 202.747 82.5103 202.576C82.8461 202.405 83.2359 202.375 83.594 202.492C108.329 210.59 115.569 202.265 115.64 202.181C115.879 201.891 116.221 201.707 116.594 201.669C116.966 201.63 117.339 201.74 117.632 201.975C117.922 202.208 118.11 202.548 118.152 202.92C118.195 203.291 118.09 203.665 117.859 203.959C117.635 204.245 113.797 208.897 102.661 208.897Z" fill="#371A45"/>
<path d="M51.5457 209.505C46.2327 209.505 41.1249 208.548 37.8423 205.643C37.5644 205.391 37.3965 205.04 37.3749 204.666C37.3534 204.291 37.4799 203.923 37.7271 203.641C37.9743 203.359 38.3221 203.187 38.6952 203.161C39.0682 203.135 39.4364 203.258 39.7197 203.503C47.9533 210.79 71.7137 203.292 71.9526 203.215C72.3114 203.1 72.7011 203.133 73.0359 203.306C73.3706 203.479 73.623 203.779 73.7376 204.139C73.8522 204.5 73.8195 204.891 73.6468 205.227C73.4741 205.563 73.1755 205.816 72.8166 205.931C65.9183 208.076 58.7637 209.278 51.5457 209.505Z" fill="#371A45"/>
<path d="M76.3958 171.086C104.551 162.188 101.162 138.117 101.162 138.117C94.8394 131.77 76.3958 131.313 76.3958 131.313C76.3958 131.313 57.9503 131.77 51.6295 138.117C51.6295 138.113 48.2405 162.188 76.3958 171.086Z" fill="#33AEF1"/>
<g opacity="0.7">
<path opacity="0.7" d="M101.242 142.146C101.205 141.584 101.162 141.281 101.162 141.281C94.8393 134.938 76.3938 134.477 76.3938 134.477C76.3938 134.477 57.9521 134.938 51.6275 141.281C51.6275 141.281 51.5865 141.588 51.5473 142.146C51.4543 140.801 51.4812 139.451 51.6275 138.111C57.9521 131.766 76.3938 131.307 76.3938 131.307C76.3938 131.307 94.8393 131.766 101.162 138.111C101.31 139.451 101.336 140.801 101.242 142.146Z" fill="white"/>
</g>
<g opacity="0.35">
<path opacity="0.35" d="M101.162 138.113C100.879 137.83 100.579 137.563 100.264 137.315C99.9677 143.997 96.9743 158.341 77.6256 164.998C76.8284 165.272 75.9632 165.272 75.166 164.998C55.8154 158.341 52.8239 143.997 52.5272 137.315C52.2128 137.563 51.9131 137.83 51.6295 138.113C51.6295 138.113 48.2405 162.188 76.3958 171.083C104.555 162.188 101.162 138.113 101.162 138.113Z" fill="#371A45"/>
</g>
<path d="M80.373 144.149L85.3314 144.851C85.4819 144.873 85.6234 144.936 85.74 145.034C85.8565 145.132 85.9435 145.261 85.991 145.405C86.0386 145.55 86.0448 145.706 86.0091 145.854C85.9733 146.002 85.8969 146.138 85.7886 146.245L82.2186 149.768C82.124 149.861 82.0535 149.976 82.0132 150.102C81.9728 150.228 81.9639 150.363 81.9872 150.493L82.8531 155.443C82.8798 155.593 82.864 155.748 82.8075 155.889C82.751 156.031 82.656 156.154 82.5334 156.244C82.4108 156.335 82.2654 156.389 82.1138 156.4C81.9622 156.412 81.8104 156.381 81.6756 156.31L77.234 153.989C77.1168 153.928 76.9865 153.895 76.8543 153.895C76.722 153.895 76.5917 153.928 76.4745 153.989L72.0535 156.346C71.9192 156.417 71.7677 156.449 71.6161 156.439C71.4645 156.429 71.3188 156.376 71.1954 156.287C71.072 156.198 70.9758 156.076 70.9177 155.935C70.8596 155.794 70.8418 155.64 70.8665 155.489L71.6933 150.531C71.7146 150.4 71.7042 150.266 71.6629 150.14C71.6217 150.014 71.5508 149.9 71.4563 149.808L67.8545 146.318C67.7453 146.212 67.6679 146.077 67.6309 145.929C67.594 145.781 67.5989 145.625 67.6453 145.48C67.6917 145.335 67.7776 145.205 67.8934 145.106C68.0092 145.008 68.1502 144.943 68.3005 144.92L73.2534 144.171C73.3841 144.152 73.5081 144.1 73.6147 144.022C73.7214 143.944 73.8074 143.841 73.8655 143.722L76.0621 139.205C76.1296 139.068 76.2337 138.953 76.3628 138.873C76.4919 138.793 76.6407 138.75 76.7926 138.75C76.9445 138.75 77.0934 138.793 77.2225 138.873C77.3516 138.953 77.4558 139.068 77.5233 139.205L79.7627 143.701C79.8208 143.82 79.9066 143.922 80.0129 144C80.1192 144.078 80.2428 144.129 80.373 144.149Z" fill="white"/>
<path d="M76.3958 172.579L75.9684 172.445C60.8802 167.677 54.6732 158.567 52.124 151.765C50.4342 147.354 49.7834 142.609 50.2224 137.903L50.2895 137.433L50.6255 137.096C57.271 130.423 75.584 129.893 76.3603 129.874H76.4313C77.2057 129.893 95.5187 130.423 102.166 137.096L102.502 137.433L102.569 137.903C103.008 142.609 102.357 147.354 100.666 151.765C98.1164 158.567 91.9113 167.677 76.8213 172.445L76.3958 172.579ZM52.99 138.784C52.7362 142.902 53.3629 147.028 54.8281 150.883C58.1873 159.736 65.4468 166.029 76.3958 169.59C87.3429 166.03 94.5968 159.736 97.9615 150.883C99.4262 147.027 100.054 142.902 99.8016 138.784C93.7589 133.351 77.2766 132.763 76.3958 132.735C75.5131 132.763 59.0308 133.355 52.99 138.784Z" fill="#371A45"/>
<path d="M25.1111 176.015C10.3458 172.991 14.6119 159.058 14.7108 158.726C14.1062 158.341 13.5276 157.951 12.9678 157.565C12.9678 157.565 32.9361 155.13 36.8084 145.848C36.9528 145.515 37.0725 145.173 37.1667 144.823C48.9574 162.415 38.4824 178.752 25.1111 176.015Z" fill="white"/>
<path d="M32.0494 138.581C32.0848 138.617 32.1184 138.651 32.1483 138.686C51.3459 158.372 40.0329 179.07 25.1127 176.015C10.1925 172.96 14.7143 158.725 14.7143 158.725C-23.2068 134.494 32.0494 104.664 32.0494 104.664C38.8549 100.967 45.9382 97.8099 53.2344 95.2224L46.4862 115.928L41.1284 132.379C33.8838 135.535 32.0494 138.581 32.0494 138.581Z" fill="white"/>
<g opacity="0.35">
<path opacity="0.35" d="M42.7259 118.994L41.1284 132.379C33.8838 135.535 32.0493 138.581 32.0493 138.581C32.0848 138.617 32.1184 138.651 32.1483 138.686C29.9745 136.815 27.5176 135.304 24.8701 134.209C27.2979 132.906 29.5546 131.306 31.5884 129.443C38.8423 120.871 36.9705 113.757 43.7896 114.63C44.8664 114.768 43.435 117.522 42.7259 118.994Z" fill="#371A45"/>
</g>
<path d="M27.9867 177.735C26.926 177.733 25.8681 177.625 24.8291 177.411C22.7273 177.121 20.713 176.378 18.9254 175.231C17.1378 174.084 15.6196 172.561 14.4754 170.768C12.6477 167.261 12.1535 163.207 13.0851 159.361C4.12739 153.399 -0.265646 146.546 0.0124173 138.98C0.699177 120.178 30.1235 104.083 31.3757 103.407C38.2532 99.6761 45.4084 96.4863 52.7772 93.8661C53.1316 93.7531 53.516 93.7841 53.8479 93.9525C54.1798 94.1209 54.4326 94.4132 54.5521 94.7667C54.6716 95.1201 54.6483 95.5065 54.487 95.8429C54.3258 96.1792 54.0395 96.4387 53.6898 96.5655C46.475 99.1307 39.4689 102.253 32.7343 105.904C32.4301 106.069 3.47607 121.907 2.85089 139.08C2.60456 145.801 6.85385 152.005 15.4757 157.514L16.4088 158.105L16.0729 159.152C15.0898 162.537 15.4006 166.169 16.9444 169.337C17.8957 170.773 19.1433 171.987 20.6029 172.897C22.0624 173.807 23.6997 174.391 25.4039 174.61C28.0581 175.191 30.8294 174.869 33.2811 173.694C35.7328 172.52 37.7255 170.56 38.945 168.123C42.3975 161.737 42.1362 150.889 31.0435 139.572L30.269 138.782L30.842 137.834C31.0286 137.525 32.8463 134.728 39.1559 131.71C39.4939 131.563 39.8756 131.553 40.2205 131.683C40.5655 131.813 40.8468 132.072 41.0053 132.406C41.1637 132.74 41.1869 133.122 41.0699 133.473C40.953 133.824 40.705 134.115 40.3782 134.286C38.0197 135.322 35.8524 136.751 33.9679 138.512C45.2528 150.606 45.2807 162.383 41.4419 169.483C40.1639 171.961 38.2342 174.04 35.8621 175.495C33.4901 176.949 30.7664 177.724 27.9867 177.735Z" fill="#371A45"/>
<path d="M31.2713 139.574C30.7879 139.068 30.2467 138.547 29.7111 138.053C29.1755 137.558 28.6194 137.068 28.0539 136.592C26.9251 135.63 25.7128 134.771 24.4316 134.025C25.9037 134.391 27.3402 134.888 28.7239 135.511C29.42 135.818 30.1086 136.14 30.7916 136.483C31.4746 136.826 32.1428 137.172 32.8444 137.571L31.2713 139.574Z" fill="#371A45"/>
<path d="M15.3077 157.604C15.8974 157.96 16.5095 158.354 17.1104 158.728L18.9281 159.869L20.7645 161.008C21.3803 161.383 22.0055 161.757 22.6456 162.132C21.9048 162.094 21.1677 162.003 20.4397 161.86C19.7119 161.722 18.9935 161.546 18.2824 161.345C17.5714 161.145 16.8678 160.926 16.1773 160.673C15.4868 160.42 14.8038 160.165 14.1245 159.849L15.3077 157.604Z" fill="#371A45"/>
<g opacity="0.3">
<path opacity="0.3" d="M25.1109 176.015C10.3456 172.991 14.6117 159.058 14.7106 158.726C14.7106 158.726 17.2748 172.519 30.6237 168.735C39.1615 166.311 38.4393 154.234 36.8082 145.848C36.9526 145.515 37.0723 145.173 37.1666 144.823C48.9572 162.415 38.4822 178.752 25.1109 176.015Z" fill="#421861"/>
</g>
<path d="M76.1886 116.246V120.729C70.0307 121.298 63.8444 119.999 58.4297 117.001C53.015 114.003 48.6211 109.443 45.8162 103.911C44.1824 100.831 42.8943 97.578 41.9756 94.2126L52.7995 95.9192C55.7722 100.688 59.3027 105.083 63.3155 109.01C67.102 112.599 71.5847 115.679 76.1886 116.246Z" fill="#F92323"/>
<g opacity="0.35">
<path opacity="0.35" d="M76.1887 116.246V120.729C70.0309 121.298 63.8445 120 58.4299 117.001C53.0152 114.003 48.6213 109.443 45.8164 103.911C48.4832 106.816 56.1047 114.753 59.6262 114.556C62.8492 114.38 55.8528 109.399 56.185 108.156C56.5172 106.912 64.3402 116.759 66.0161 113.873C66.4733 113.078 62.6084 111.793 63.3232 109.002C67.1022 112.599 71.5848 115.679 76.1887 116.246Z" fill="#371A45"/>
</g>
<path d="M73.4885 121.947C69.5209 121.936 65.5875 121.21 61.8751 119.805C54.8078 117.115 45.4395 110.544 40.942 94.5012L40.4922 92.8977L53.4548 94.9396L53.7105 95.3667C53.8206 95.554 64.8815 113.773 76.3101 115.186L77.2432 115.3V121.654L76.3306 121.787C75.3877 121.903 74.4383 121.956 73.4885 121.947ZM43.4688 95.5334C47.0145 106.824 53.4474 114.313 62.6291 117.807C66.6126 119.315 70.8641 119.978 75.1157 119.755V117.162C63.9186 115.021 53.9213 99.7408 52.1485 96.9009L43.4688 95.5334Z" fill="#371A45"/>
<path d="M99.5627 95.9268C99.5627 95.9268 88.2666 114.761 76.1812 116.254V120.736C76.1812 120.736 101.92 124.446 110.394 94.2202L99.5627 95.9268Z" fill="#F92323"/>
<path d="M78.8724 121.947C77.9219 121.956 76.9718 121.903 76.0283 121.787L75.1157 121.654V115.3L76.0488 115.186C87.4774 113.773 98.5384 95.5503 98.6485 95.3667L98.906 94.9396L111.867 92.8977L111.417 94.5012C106.919 110.544 97.5512 117.115 90.4839 119.805C86.772 121.21 82.8393 121.935 78.8724 121.947ZM77.245 119.751C81.5285 119.973 85.8112 119.298 89.8214 117.771C98.9564 114.262 105.367 106.784 108.892 95.5315L100.212 96.899C98.4394 99.7408 88.4403 115.019 77.245 117.16V119.751Z" fill="#371A45"/>
<path d="M43.9896 114.68C43.5977 118.294 43.1255 121.862 42.6217 125.431C42.3623 127.212 42.1197 128.99 41.795 130.766C41.4702 132.542 41.1269 134.299 40.651 136.032C40.5668 136.39 40.3481 136.703 40.0403 136.904C39.7326 137.104 39.3596 137.178 38.9989 137.11C38.6382 137.042 38.3175 136.836 38.1039 136.537C37.8902 136.237 37.7999 135.866 37.8517 135.502C38.0591 133.703 38.365 131.918 38.768 130.153C39.1506 128.387 39.6246 126.639 40.1116 124.893C40.5987 123.147 41.125 121.413 41.6923 119.689C42.2596 117.966 42.8755 116.25 43.5921 114.572C43.6119 114.527 43.6468 114.491 43.6907 114.47C43.7346 114.448 43.7845 114.444 43.8316 114.456C43.8787 114.468 43.9198 114.497 43.9477 114.537C43.9757 114.577 43.9885 114.626 43.984 114.675L43.9896 114.68Z" fill="#371A45"/>
<path d="M4.73941 150.754C4.59972 150.754 4.46136 150.727 4.33221 150.673C4.20306 150.62 4.08563 150.541 3.98668 150.442C3.88773 150.343 3.8092 150.226 3.75552 150.096C3.70183 149.967 3.67409 149.828 3.67385 149.688C3.66452 145.473 7.1636 141.099 12.5905 138.544C16.3511 136.722 20.5541 136.025 24.6986 136.534C28.8432 137.043 32.7545 138.737 35.9665 141.415C36.1746 141.6 36.3028 141.859 36.3238 142.136C36.3448 142.414 36.2569 142.689 36.0789 142.903C35.9009 143.117 35.6468 143.253 35.3707 143.281C35.0946 143.31 34.8182 143.229 34.6004 143.056C31.699 140.641 28.1669 139.114 24.4251 138.657C20.6832 138.2 16.8894 138.832 13.4956 140.479C8.81522 142.684 5.79571 146.295 5.80504 149.682C5.80553 149.823 5.77837 149.962 5.72514 150.092C5.6719 150.222 5.59359 150.34 5.49477 150.44C5.39594 150.539 5.27854 150.618 5.14924 150.672C5.01994 150.726 4.8813 150.754 4.74129 150.754H4.73941Z" fill="#371A45"/>
<g opacity="0.35">
<path opacity="0.35" d="M76.189 116.246V120.729C82.3468 121.298 88.5332 120 93.9478 117.001C99.3625 114.003 103.756 109.443 106.561 103.911C103.896 106.816 96.2748 114.753 92.7514 114.556C89.5285 114.38 96.5249 109.399 96.1927 108.156C95.8605 106.912 88.0374 116.759 86.3616 113.873C85.9044 113.078 89.7674 111.793 89.0545 109.002C85.2586 112.599 80.7761 115.679 76.189 116.246Z" fill="#371A45"/>
</g>
<path d="M73.7851 114.079L75.3172 110.827C75.3865 110.679 75.4956 110.554 75.632 110.466C75.7684 110.377 75.9268 110.329 76.0892 110.326C76.2515 110.324 76.4115 110.367 76.5508 110.45C76.6901 110.534 76.8032 110.655 76.8774 110.801L78.5159 114C78.5797 114.126 78.6733 114.234 78.7885 114.316C78.9036 114.397 79.0368 114.449 79.1765 114.467L82.7223 114.925C82.8831 114.946 83.0347 115.012 83.1602 115.115C83.2858 115.218 83.3801 115.354 83.4327 115.508C83.4853 115.662 83.494 115.827 83.4578 115.986C83.4217 116.144 83.3421 116.29 83.2281 116.405L80.7031 118.959C80.604 119.059 80.5306 119.183 80.4894 119.318C80.4481 119.453 80.4401 119.597 80.4661 119.736L81.1304 123.271C81.1595 123.431 81.1436 123.595 81.0846 123.747C81.0255 123.898 80.9256 124.029 80.7961 124.127C80.6666 124.224 80.5126 124.283 80.3514 124.297C80.1903 124.312 80.0283 124.281 79.8838 124.208L76.6852 122.585C76.5591 122.522 76.4196 122.49 76.2786 122.492C76.1376 122.494 75.9992 122.531 75.8753 122.598L72.7325 124.326C72.5902 124.404 72.4289 124.44 72.267 124.431C72.105 124.422 71.9488 124.368 71.816 124.274C71.6832 124.181 71.5791 124.052 71.5155 123.902C71.4519 123.752 71.4313 123.587 71.4561 123.426L72.0029 119.867C72.0249 119.727 72.0126 119.585 71.9671 119.451C71.9215 119.317 71.8442 119.196 71.7416 119.099L69.1289 116.63C69.0096 116.519 68.924 116.376 68.8818 116.218C68.8395 116.06 68.8424 115.894 68.8901 115.737C68.9378 115.581 69.0284 115.441 69.1515 115.334C69.2746 115.227 69.4252 115.157 69.5862 115.132L73.1226 114.555C73.2633 114.536 73.3973 114.482 73.5128 114.399C73.6283 114.316 73.7218 114.206 73.7851 114.079Z" fill="#FFCE00"/>
<g opacity="0.7">
<path opacity="0.7" d="M83.2357 116.407L82.2373 117.417C82.1921 117.253 82.0995 117.107 81.9713 116.995C81.8431 116.884 81.6849 116.814 81.5169 116.793L77.9711 116.334C77.8307 116.317 77.6967 116.265 77.5809 116.183C77.4651 116.101 77.371 115.993 77.3068 115.866L75.6701 112.67C75.5796 112.492 75.4305 112.35 75.2479 112.269C75.0652 112.188 74.8604 112.173 74.668 112.226L75.3267 110.829C75.3958 110.681 75.5047 110.556 75.641 110.467C75.7774 110.379 75.9357 110.33 76.0981 110.327C76.2605 110.324 76.4204 110.367 76.5599 110.451C76.6993 110.535 76.8125 110.656 76.8869 110.801L78.5235 114.002C78.5883 114.128 78.6827 114.236 78.7985 114.316C78.9143 114.397 79.048 114.448 79.1879 114.465L82.7337 114.926C82.8944 114.947 83.0461 115.013 83.1714 115.116C83.2968 115.219 83.3909 115.356 83.4432 115.51C83.4954 115.664 83.5036 115.83 83.467 115.988C83.4303 116.147 83.3502 116.292 83.2357 116.407Z" fill="white"/>
</g>
<g opacity="0.35">
<path opacity="0.35" d="M74.9627 123.106L72.7401 124.328C72.5979 124.406 72.4366 124.443 72.2746 124.434C72.1127 124.425 71.9565 124.37 71.8238 124.277C71.691 124.183 71.5871 124.054 71.5237 123.904C71.4604 123.754 71.4402 123.589 71.4655 123.428L72.0104 119.869C72.0325 119.729 72.0207 119.587 71.9758 119.452C71.931 119.318 71.8545 119.197 71.7529 119.099L69.1402 116.634C69.0223 116.522 68.9379 116.379 68.8965 116.222C68.8551 116.064 68.8584 115.898 68.9059 115.742C68.9534 115.587 69.0433 115.447 69.1655 115.34C69.2877 115.233 69.4373 115.162 69.5974 115.135L71.3405 114.853C71.3727 115.034 71.4639 115.199 71.5998 115.323L74.2125 117.794C74.3154 117.89 74.3933 118.009 74.4392 118.143C74.485 118.276 74.4976 118.419 74.4757 118.558L73.9289 122.117C73.9064 122.256 73.9181 122.399 73.963 122.533C74.0078 122.667 74.0845 122.788 74.1863 122.885C74.2881 122.982 74.412 123.053 74.5473 123.092C74.6825 123.13 74.8251 123.135 74.9627 123.106Z" fill="#371A45"/>
</g>
<path d="M72.3237 125.508C72.0442 125.507 71.7681 125.445 71.5145 125.327C71.2609 125.209 71.0356 125.038 70.8541 124.824C70.6727 124.611 70.5393 124.36 70.4631 124.09C70.3869 123.82 70.3698 123.537 70.4128 123.26L70.9446 119.807L68.4122 117.411C68.1496 117.163 67.9614 116.845 67.8691 116.495C67.7767 116.145 67.7838 115.775 67.8896 115.429C67.9954 115.082 68.1957 114.772 68.4678 114.534C68.7399 114.296 69.0729 114.139 69.4293 114.081L72.8668 113.519L74.3598 110.36C74.5144 110.033 74.7572 109.756 75.0607 109.56C75.3641 109.363 75.7162 109.256 76.077 109.251C76.4379 109.245 76.7931 109.34 77.1027 109.526C77.4123 109.713 77.6639 109.982 77.829 110.304L79.4209 113.41L82.8734 113.856C83.2309 113.903 83.5682 114.049 83.8472 114.278C84.1262 114.508 84.3359 114.811 84.4523 115.153C84.5688 115.496 84.5875 115.864 84.5063 116.217C84.4252 116.57 84.2474 116.893 83.9931 117.149L81.5409 119.629L82.1866 123.063C82.253 123.419 82.219 123.787 82.0884 124.124C81.9577 124.462 81.7356 124.756 81.4472 124.974C81.1588 125.191 80.8155 125.324 80.4561 125.356C80.0968 125.388 79.7356 125.318 79.4134 125.155L76.3062 123.58L73.2531 125.257C72.9694 125.418 72.6496 125.504 72.3237 125.508ZM70.1627 116.141L72.4805 118.337C72.7083 118.552 72.8807 118.82 72.9827 119.118C73.0848 119.415 73.1135 119.732 73.0665 120.043L72.5776 123.207L75.3769 121.671C75.652 121.521 75.9594 121.439 76.2726 121.434C76.5859 121.429 76.8958 121.5 77.1758 121.641L80.0218 123.084L79.4302 119.94C79.3724 119.631 79.3903 119.312 79.4823 119.011C79.5743 118.711 79.7376 118.437 79.9583 118.213L82.1978 115.943L79.0383 115.534C78.727 115.495 78.4299 115.38 78.173 115.199C77.9161 115.018 77.7071 114.777 77.564 114.497L76.1065 111.653L74.7442 114.543C74.6096 114.828 74.4085 115.075 74.1579 115.264C73.9073 115.453 73.6148 115.579 73.3053 115.63L70.1627 116.141Z" fill="#371A45"/>
<path d="M131.351 68.9853C131.207 68.9965 131.061 68.979 130.923 68.9336C130.785 68.8882 130.657 68.816 130.547 68.7209C130.437 68.6259 130.347 68.51 130.281 68.3798C130.216 68.2497 130.177 68.1078 130.166 67.9625L127.794 36.098C127.773 35.8046 127.869 35.5147 128.06 35.2917C128.251 35.0688 128.523 34.931 128.815 34.9085C131.881 34.6794 134.913 35.682 137.243 37.6959C139.573 39.7098 141.011 42.5702 141.24 45.648L142.048 56.513C142.162 58.037 141.975 59.5685 141.499 61.0201C141.023 62.4717 140.267 63.8149 139.273 64.9731C138.28 66.1313 137.069 67.0817 135.71 67.7701C134.351 68.4585 132.87 68.8714 131.351 68.9853Z" fill="white"/>
<path d="M131.266 69.2456C130.923 69.2447 130.593 69.1139 130.342 68.8795C130.091 68.6451 129.938 68.3242 129.913 67.9811L127.541 36.1167C127.527 35.9378 127.549 35.7579 127.604 35.5873C127.66 35.4168 127.749 35.259 127.866 35.1231C127.982 34.9871 128.125 34.8757 128.284 34.7951C128.444 34.7145 128.618 34.6665 128.797 34.6537C131.929 34.421 135.026 35.4464 137.405 37.5045C139.785 39.5626 141.253 42.4849 141.487 45.6292L142.295 56.4942C142.525 59.639 141.504 62.7471 139.454 65.1368C137.405 67.5266 134.495 69.0028 131.363 69.2419L131.266 69.2456ZM129.696 35.1314C129.41 35.1314 129.123 35.1426 128.834 35.1651C128.723 35.1734 128.614 35.2036 128.514 35.2541C128.415 35.3045 128.326 35.3742 128.253 35.4591C128.18 35.544 128.125 35.6425 128.09 35.7489C128.055 35.8553 128.042 35.9676 128.05 36.0792L130.42 67.9437C130.428 68.0554 130.458 68.1645 130.509 68.2645C130.559 68.3645 130.628 68.4534 130.713 68.5263C130.884 68.6736 131.106 68.747 131.331 68.7305C134.329 68.502 137.114 67.0894 139.075 64.8026C141.037 62.5157 142.015 59.5413 141.795 56.5317L140.985 45.6667C140.772 42.8058 139.491 40.131 137.398 38.1776C135.305 36.2241 132.554 35.1362 129.696 35.1314Z" fill="#371A45"/>
<g opacity="0.35">
<path opacity="0.35" d="M141.67 51.4177L142.043 56.5149C142.271 59.5932 141.271 62.6364 139.265 64.9755C137.258 67.3146 134.409 68.7582 131.342 68.9891C131.05 69.0073 130.763 68.91 130.541 68.7182C130.32 68.5263 130.182 68.2551 130.157 67.9625L129.524 59.4916C129.626 59.6796 129.779 59.8344 129.966 59.9374C130.152 60.0404 130.364 60.0872 130.577 60.0723L131.323 60.0142C133.724 59.8379 136.01 58.9154 137.864 57.3748C139.719 55.8342 141.049 53.752 141.67 51.4177Z" fill="#371A45"/>
</g>
<path d="M131.264 70.4147C130.627 70.4127 130.015 70.17 129.549 69.7349C129.083 69.2998 128.798 68.7044 128.75 68.0674L126.378 36.2049C126.328 35.5342 126.546 34.8711 126.983 34.3614C127.42 33.8516 128.041 33.537 128.709 33.4867C132.151 33.2287 135.554 34.3538 138.17 36.6144C140.786 38.8751 142.4 42.0862 142.657 45.5413L143.465 56.4063C143.718 59.8603 142.596 63.2741 140.344 65.8985C138.093 68.5229 134.896 70.1437 131.456 70.4053C131.393 70.4128 131.327 70.4147 131.264 70.4147ZM129.235 36.3117L131.559 67.5354C134.186 67.2529 136.602 65.9564 138.295 63.9196C139.988 61.8829 140.826 59.2653 140.632 56.6198L139.824 45.7548C139.627 43.1083 138.412 40.6427 136.435 38.88C134.459 37.1174 131.877 36.1962 129.235 36.3117Z" fill="#371A45"/>
<path d="M24.0358 42.7651C24.3281 42.7439 24.6169 42.8398 24.839 43.0319C25.0611 43.2239 25.1984 43.4964 25.2208 43.7898L27.5909 75.6542C27.6018 75.7994 27.5841 75.9453 27.5388 76.0836C27.4935 76.2219 27.4215 76.3499 27.3268 76.4602C27.2322 76.5705 27.1168 76.661 26.9872 76.7265C26.8577 76.792 26.7166 76.8312 26.5719 76.8419C25.0537 76.9558 23.528 76.7685 22.0819 76.2906C20.6357 75.8126 19.2976 75.0534 18.1438 74.0563C16.99 73.0592 16.0432 71.8438 15.3574 70.4793C14.6716 69.1149 14.2602 67.6283 14.1468 66.1042L13.3369 55.2392C13.1081 52.161 14.1067 49.1176 16.113 46.7783C18.1194 44.439 20.9692 42.9955 24.0358 42.7651Z" fill="white"/>
<path d="M25.6892 77.1322C22.7027 77.1264 19.8284 75.9893 17.641 73.9482C15.4536 71.9071 14.1144 69.1124 13.8911 66.1229L13.0831 55.2579C12.8552 52.1144 13.8782 49.0085 15.9277 46.6208C17.9773 44.233 20.8862 42.7583 24.0171 42.5196C24.1954 42.5059 24.3746 42.5276 24.5445 42.5836C24.7144 42.6395 24.8715 42.7287 25.007 42.8458C25.1424 42.963 25.2535 43.1059 25.3337 43.2662C25.414 43.4266 25.4618 43.6014 25.4746 43.7804L27.8465 75.6429C27.8728 76.0042 27.7553 76.3612 27.5199 76.6357C27.2845 76.9103 26.9504 77.0801 26.5906 77.1078C26.2883 77.1241 25.9878 77.1322 25.6892 77.1322ZM24.1197 43.018H24.0544C21.0568 43.2455 18.2717 44.6576 16.3102 46.9443C14.3488 49.231 13.3714 52.2055 13.5925 55.2148L14.4006 66.0799C14.6253 69.0899 16.0318 71.8871 18.3107 73.8565C20.5897 75.8258 23.5545 76.806 26.5532 76.5815C26.7778 76.5642 26.9864 76.4583 27.1333 76.2869C27.2803 76.1156 27.3535 75.8928 27.3371 75.6673L24.9651 43.8029C24.9487 43.5886 24.8527 43.3885 24.6961 43.242C24.5395 43.0956 24.3338 43.0136 24.1197 43.0123V43.018Z" fill="#371A45"/>
<g opacity="0.35">
<path opacity="0.35" d="M26.9358 66.8142L27.5927 75.6542C27.6034 75.7996 27.5854 75.9457 27.5397 76.0842C27.4941 76.2226 27.4217 76.3506 27.3267 76.4609C27.2318 76.5712 27.116 76.6617 26.9862 76.727C26.8563 76.7924 26.7149 76.8314 26.57 76.8419C25.052 76.9561 23.5264 76.769 22.0804 76.2912C20.6344 75.8135 19.2964 75.0544 18.1427 74.0575C16.989 73.0605 16.0424 71.8451 15.3567 70.4808C14.6711 69.1165 14.26 67.63 14.1468 66.1061L13.8071 61.5278C14.8759 63.4906 16.4853 65.1028 18.4429 66.1715C20.4005 67.2402 22.6235 67.7203 24.8457 67.5542L26.0046 67.4661C26.2036 67.4506 26.3949 67.382 26.5586 67.2674C26.7224 67.1528 26.8526 66.9963 26.9358 66.8142Z" fill="#371A45"/>
</g>
<path d="M25.6875 78.3011C22.4071 78.296 19.2496 77.0475 16.847 74.8053C14.4445 72.5632 12.9742 69.4929 12.7305 66.2091L11.9225 55.3441C11.6689 51.8901 12.7907 48.4761 15.0418 45.8513C17.2928 43.2265 20.4891 41.6052 23.9295 41.3432C24.2603 41.3182 24.5928 41.3589 24.9079 41.463C25.223 41.567 25.5146 41.7325 25.766 41.9498C26.0173 42.1671 26.2234 42.4321 26.3727 42.7295C26.5219 43.0269 26.6112 43.3509 26.6356 43.683L29.0075 75.5474C29.0568 76.2178 28.8391 76.8804 28.402 77.3897C27.965 77.899 27.3444 78.2133 26.6766 78.2636C26.3463 78.288 26.016 78.3011 25.6875 78.3011ZM23.8213 44.2075C21.1936 44.4904 18.7782 45.7874 17.0853 47.8244C15.3923 49.8615 14.5542 52.4792 14.7479 55.1249L15.5559 65.9899C15.7532 68.6364 16.969 71.1019 18.9459 72.8642C20.9227 74.6265 23.5053 75.5472 26.1466 75.4312L23.8213 44.2075Z" fill="#371A45"/>
<path d="M77.7003 110.325C107.659 110.325 131.945 85.9464 131.945 55.8742C131.945 25.802 107.659 1.42371 77.7003 1.42371C47.7417 1.42371 23.4556 25.802 23.4556 55.8742C23.4556 85.9464 47.7417 110.325 77.7003 110.325Z" fill="white"/>
<path d="M77.6949 110.581C63.3095 110.555 49.5231 104.797 39.3652 94.5719C29.2072 84.3473 23.5088 70.4927 23.522 56.0528C23.5352 41.6129 29.2591 27.7689 39.4357 17.563C49.6124 7.35709 63.4093 1.62427 77.7947 1.62427C92.1801 1.62427 105.977 7.35709 116.154 17.563C126.33 27.7689 132.054 41.6129 132.067 56.0528C132.081 70.4927 126.382 84.3473 116.224 94.5719C106.066 104.797 92.2799 110.555 77.8945 110.581H77.6949ZM77.706 1.68038H77.5063C63.24 1.7856 49.5951 7.55456 39.5529 17.7268C29.5107 27.899 23.8876 41.6475 23.9122 55.9683C23.9369 70.2892 29.6073 84.0181 39.6845 94.1554C49.7616 104.293 63.4264 110.014 77.693 110.07H77.8908C92.1571 109.965 105.802 104.196 115.844 94.0236C125.886 83.8514 131.51 70.1029 131.485 55.7821C131.46 41.4612 125.79 27.7323 115.713 17.595C105.635 7.45768 91.9707 1.7361 77.7041 1.68038H77.706Z" fill="#371A45"/>
<g opacity="0.35">
<path opacity="0.35" d="M131.398 48.1451C132.453 55.5381 131.982 63.0699 130.014 70.2723C128.046 77.4746 124.622 84.1936 119.957 90.0114C115.292 95.8292 109.484 100.621 102.895 104.09C96.3061 107.559 89.0767 109.63 81.6563 110.175C74.2359 110.72 66.7832 109.726 59.7616 107.257C52.7399 104.787 46.2995 100.894 40.8406 95.8192C35.3817 90.7446 31.0212 84.597 28.03 77.7587C25.0389 70.9203 23.4812 63.5375 23.4536 56.0691C23.4536 55.2055 23.4666 54.3401 23.504 53.4877C25.4238 66.9143 32.2667 79.1383 42.693 87.7669C53.1193 96.3955 66.3784 100.807 79.8749 100.139C93.3714 99.4708 106.134 93.7704 115.663 84.1536C125.193 74.5369 130.804 61.6962 131.398 48.1451Z" fill="#371A45"/>
</g>
<path d="M77.6948 111.752C62.9316 111.777 48.7632 105.914 38.3065 95.4527C27.8498 84.9915 21.9613 70.789 21.9366 55.9698C21.9119 41.1505 27.7528 26.9283 38.1745 16.432C48.5962 5.93559 62.745 0.0248416 77.5082 0H77.7135C92.4412 0.00139177 106.568 5.86146 117 16.2968C127.433 26.7321 133.32 40.8921 133.373 55.6757C133.399 63.0135 131.985 70.2847 129.212 77.074C126.439 83.8633 122.36 90.0378 117.209 95.2448C112.059 100.452 105.937 104.59 99.193 107.422C92.4492 110.254 85.2158 111.725 77.9057 111.75L77.6948 111.752ZM77.706 2.85113H77.5194C67.0713 2.88826 56.8688 6.03465 48.2023 11.8924C39.5357 17.7502 32.7943 26.0562 28.8306 35.76C24.867 45.4638 23.8591 56.1295 25.9344 66.4083C28.0098 76.6871 33.0752 86.1173 40.49 93.5063C47.9048 100.895 57.3359 105.911 67.5907 107.919C77.8455 109.928 88.4633 108.838 98.1014 104.789C107.739 100.74 115.965 93.9128 121.737 85.1709C127.509 76.4291 130.57 66.1653 130.531 55.6775C130.481 41.6499 124.895 28.2137 114.996 18.3122C105.097 8.41067 91.6919 2.85105 77.7172 2.85113H77.706Z" fill="#371A45"/>
<path d="M131.775 57.0806C131.96 67.4064 128.878 77.525 122.973 85.9816C118.68 92.2008 100.713 103.278 78.292 103.899C57.5063 104.478 38.3834 93.7051 33.8505 87.6525C27.6361 79.4224 24.1805 69.4269 23.9801 59.1019C23.4557 30.9091 47.3673 18.7702 77.135 18.212C106.903 17.6538 131.251 28.8878 131.775 57.0806Z" fill="#371A45"/>
<path d="M76.6476 105.349C55.7892 105.349 37.3511 94.7016 32.7155 88.5104C26.318 80.0419 22.7621 69.7542 22.5597 59.1281C22.3022 45.2939 27.6301 34.5245 38.3943 27.1175C47.7832 20.6585 61.1619 17.0843 77.1086 16.7864C93.0552 16.4886 106.559 19.5551 116.181 25.6601C127.214 32.6587 132.938 43.2202 133.195 57.0544C133.389 67.6807 130.218 78.0946 124.139 86.7964C119.893 92.9314 102.097 104.666 78.3309 105.325C77.7692 105.342 77.2056 105.349 76.6476 105.349ZM79.2286 19.6169C78.5431 19.6169 77.8545 19.6238 77.1627 19.6375C61.384 19.9335 24.7543 24.3676 25.4 59.0738C25.5912 69.1009 28.9479 78.8084 34.9867 86.7982C39.3069 92.5698 57.9726 103.045 78.2525 102.478C100.727 101.854 117.969 90.7153 121.808 85.1704C127.543 76.9599 130.536 67.1349 130.357 57.1087C130.118 44.2955 124.838 34.5245 114.664 28.0729C105.925 22.5261 93.7065 19.6169 79.2286 19.6169Z" fill="#371A45"/>
<g opacity="0.7">
<path opacity="0.7" d="M121.053 54.6942C121.901 49.4408 119.514 44.6822 115.722 44.0657C111.931 43.4491 108.169 47.2081 107.322 52.4615C106.474 57.7149 108.861 62.4734 112.652 63.09C116.444 63.7065 120.206 59.9476 121.053 54.6942Z" fill="white"/>
</g>
<g opacity="0.7">
<path opacity="0.7" d="M109.634 73.9424C110.352 71.6083 109.316 69.2153 107.32 68.5975C105.325 67.9796 103.126 69.371 102.409 71.7051C101.691 74.0392 102.727 76.4322 104.723 77.0501C106.718 77.6679 108.917 76.2766 109.634 73.9424Z" fill="white"/>
</g>
<g opacity="0.35">
<path opacity="0.35" d="M120.804 30.9766C127.509 37.1584 131.562 45.7548 131.775 57.0788C131.958 67.4046 128.877 77.5231 122.974 85.9816C118.671 92.2009 100.71 103.278 78.2919 103.901C70.7181 104.047 63.1748 102.9 55.9834 100.511C83.5247 99.1526 105.398 85.5601 110.736 77.8441C118.231 67.1124 122.143 54.2714 121.91 41.1672C121.857 37.7432 121.487 34.3317 120.804 30.9766Z" fill="#111A28"/>
</g>
<path d="M27.5912 36.4109C27.3307 36.4114 27.0751 36.3399 26.8523 36.2043C26.6296 36.0688 26.4482 35.8743 26.3282 35.6422C26.2082 35.4101 26.154 35.1493 26.1717 34.8884C26.1894 34.6275 26.2783 34.3766 26.4286 34.163C35.6905 19.9448 54.011 11.5469 76.702 11.1217C99.2102 10.6964 117.833 18.1333 127.767 31.5198C127.995 31.7923 128.114 32.1409 128.099 32.4969C128.084 32.8528 127.938 33.1904 127.687 33.443C127.437 33.6956 127.102 33.845 126.747 33.8618C126.393 33.8786 126.045 33.7614 125.772 33.5335L125.619 33.4155L125.533 33.2825C116.165 20.6042 98.3761 13.57 76.7543 13.9709C55.0038 14.3793 37.5194 22.3182 28.7931 35.7515L28.7184 35.8545C28.586 36.0282 28.4153 36.1689 28.2198 36.2654C28.0242 36.3619 27.8091 36.4117 27.5912 36.4109ZM27.4998 34.9123L27.5931 34.9853L27.4998 34.9123Z" fill="#371A45"/>
<g opacity="0.7">
<path opacity="0.7" d="M36.3955 75.6447C36.3955 75.6447 27.1803 47.997 41.9045 36.6337C56.6288 25.2704 78.1088 24.9126 77.6385 26.3064C77.6385 26.3064 53.962 32.5313 45.008 51.5787C41.2061 59.2336 38.3154 67.3112 36.3955 75.6447Z" fill="white"/>
</g>
<path d="M71.6033 189.63C70.8735 189.566 70.1494 189.449 69.4366 189.28C68.7368 189.12 68.0481 188.922 67.3688 188.697C66.0137 188.243 64.6953 187.685 63.4256 187.028C62.7817 186.723 62.1678 186.348 61.5463 186.003C60.9249 185.659 60.3314 185.254 59.751 184.844C58.5817 184.038 57.4846 183.132 56.4721 182.135C56.4535 182.117 56.4386 182.096 56.4285 182.073C56.4183 182.049 56.4131 182.024 56.4131 181.998C56.4131 181.973 56.4183 181.947 56.4285 181.924C56.4386 181.9 56.4535 181.879 56.4721 181.861C56.4987 181.833 56.5335 181.813 56.5716 181.806C56.6098 181.798 56.6494 181.802 56.6849 181.818C57.9725 182.38 59.2099 182.959 60.4957 183.437C61.119 183.707 61.7759 183.905 62.4029 184.154C63.0486 184.372 63.6869 184.593 64.3307 184.793C65.6165 185.207 66.9154 185.556 68.2049 185.917L69.1716 186.185C69.4951 186.269 69.8167 186.357 70.1364 186.451C70.7709 186.623 71.4427 186.807 72.025 186.985L72.0941 187.007C72.4161 187.097 72.6927 187.306 72.8691 187.591C73.0456 187.876 73.1089 188.217 73.0468 188.547C72.9846 188.876 72.8014 189.171 72.5333 189.371C72.2653 189.572 71.9321 189.664 71.5995 189.63H71.6033Z" fill="#371A45"/>
<path d="M83.2689 186.99C83.8549 186.803 84.5211 186.629 85.1575 186.457C85.4766 186.363 85.7995 186.269 86.1223 186.191L87.089 185.923C88.3767 185.559 89.6774 185.211 90.9613 184.799C91.607 184.598 92.2453 184.377 92.8891 184.16C93.5162 183.911 94.1731 183.712 94.7982 183.442C96.0822 182.965 97.3214 182.382 98.6072 181.824C98.6303 181.813 98.6555 181.807 98.6811 181.806C98.7067 181.805 98.7322 181.81 98.756 181.819C98.7798 181.829 98.8014 181.843 98.8195 181.861C98.8375 181.879 98.8516 181.901 98.8609 181.925C98.8773 181.961 98.882 182.001 98.8743 182.04C98.8666 182.079 98.8469 182.114 98.8181 182.141C97.8048 183.136 96.7077 184.043 95.5391 184.849C94.9569 185.263 94.3522 185.636 93.742 186.009C93.1318 186.382 92.5084 186.728 91.8646 187.034C90.5942 187.691 89.2752 188.249 87.9194 188.703C87.242 188.927 86.5534 189.126 85.8536 189.285C85.1408 189.455 84.4167 189.572 83.6869 189.636C83.3541 189.671 83.0203 189.579 82.7517 189.378C82.4831 189.178 82.2993 188.883 82.2368 188.553C82.1744 188.223 82.2378 187.882 82.4144 187.597C82.591 187.311 82.868 187.103 83.1905 187.013L83.2689 186.99Z" fill="#371A45"/>
<path d="M40.496 217.075C41.3894 216.866 42.296 216.717 43.2095 216.631C43.6611 216.579 44.1109 216.547 44.5625 216.525C45.0141 216.502 45.4676 216.483 45.9192 216.481C47.7312 216.468 49.5413 216.604 51.3312 216.888C53.1269 217.181 54.8917 217.64 56.6032 218.259C58.2973 218.906 59.8884 219.797 61.3265 220.904C61.3468 220.919 61.3637 220.939 61.3764 220.961C61.389 220.983 61.3971 221.007 61.4001 221.032C61.403 221.058 61.4008 221.083 61.3936 221.107C61.3865 221.132 61.3745 221.154 61.3583 221.174C61.3333 221.207 61.2982 221.231 61.2583 221.242C61.2185 221.253 61.1762 221.25 61.138 221.234C59.5378 220.593 57.879 220.11 56.1852 219.793C54.5056 219.517 52.8101 219.348 51.1091 219.288C49.409 219.245 47.7089 219.306 46.0106 219.381C44.3124 219.456 42.5918 219.599 40.957 219.711H40.9028C40.5702 219.732 40.2418 219.627 39.9823 219.417C39.7228 219.207 39.551 218.907 39.5006 218.576C39.4503 218.246 39.5252 217.908 39.7105 217.63C39.8957 217.352 40.1779 217.153 40.5016 217.073L40.496 217.075Z" fill="#371A45"/>
<path d="M114.379 219.709C112.744 219.597 111.02 219.46 109.325 219.379C107.631 219.299 105.927 219.243 104.225 219.286C102.524 219.346 100.83 219.515 99.1506 219.792C97.4568 220.108 95.7979 220.591 94.1977 221.232C94.1542 221.257 94.1026 221.263 94.0543 221.25C94.006 221.237 93.9649 221.205 93.9402 221.161C93.9154 221.117 93.909 221.065 93.9223 221.017C93.9356 220.968 93.9675 220.927 94.0111 220.902C95.4492 219.795 97.0404 218.904 98.7344 218.257C100.446 217.638 102.211 217.179 104.006 216.886C105.796 216.602 107.606 216.466 109.418 216.48C109.87 216.48 110.324 216.493 110.773 216.523C111.223 216.553 111.677 216.577 112.126 216.63C113.04 216.715 113.948 216.864 114.842 217.073C115.165 217.153 115.448 217.352 115.633 217.63C115.818 217.908 115.893 218.246 115.843 218.576C115.792 218.907 115.62 219.207 115.361 219.417C115.101 219.627 114.773 219.732 114.44 219.711L114.379 219.709Z" fill="#371A45"/>
</svg>
