<svg width="127" height="289" viewBox="0 0 127 289" fill="none" xmlns="http://www.w3.org/2000/svg">
<g clip-path="url(#clip0)">
<path d="M72.6651 162.954C67.2764 157.972 48.7782 149.235 36.9786 147.715C36.9786 147.715 64.6636 140.234 81.9208 125.435" fill="#E6101D"/>
<g opacity="0.7">
<path opacity="0.7" d="M80.0263 133.071C64.665 142.65 47.9975 146.135 47.8222 147.216C47.647 148.297 64.8193 154.58 72.4637 160.937L72.6573 162.957C67.2664 157.961 48.7785 149.237 36.9789 147.717C37.4056 147.601 64.7878 140.12 81.9067 125.437L80.0263 133.071Z" fill="white"/>
</g>
<g opacity="0.35">
<path opacity="0.35" d="M78.4428 139.494L74.3493 156.086C67.9496 153.474 56.052 148.39 55.3889 146.886C54.7257 145.381 64.1155 147.359 78.4428 139.494Z" fill="#261335"/>
</g>
<path d="M73.6798 164.146C73.3866 164.398 73.0105 164.533 72.6237 164.526C72.2369 164.519 71.8665 164.369 71.5837 164.106C66.5692 159.467 48.5993 150.793 36.7638 149.271C36.4027 149.226 36.0686 149.057 35.8186 148.793C35.5687 148.53 35.4185 148.187 35.3938 147.825C35.3691 147.463 35.4714 147.103 35.6832 146.808C35.895 146.512 36.2032 146.299 36.5549 146.206C36.8293 146.131 64.103 138.638 80.8799 124.25C81.197 123.978 81.6092 123.843 82.0257 123.875C82.4422 123.906 82.8289 124.102 83.1008 124.418C83.3728 124.734 83.5076 125.145 83.4756 125.561C83.4437 125.977 83.2475 126.363 82.9304 126.634C70.3118 137.456 52.5164 144.34 43.336 147.403C55.1596 150.469 69.1348 157.568 73.7232 161.814C74.0283 162.097 74.2084 162.489 74.2238 162.905C74.2392 163.32 74.0888 163.725 73.8056 164.03C73.7657 164.071 73.7236 164.109 73.6798 164.146Z" fill="#261335"/>
<path d="M148.438 97.9611C144.303 91.8856 138.436 72.3308 138.705 60.4601C138.705 60.4601 127.132 86.6505 109.879 101.448" fill="#E6101D"/>
<g opacity="0.7">
<path opacity="0.7" d="M117.728 100.737C129.525 87.021 135.485 71.1023 136.58 71.091C137.675 71.0796 141.321 88.967 146.469 97.4586L148.441 97.9543C144.304 91.8771 138.437 72.3328 138.706 60.4622C138.525 60.8661 127 86.7569 109.879 101.44L117.728 100.737Z" fill="white"/>
</g>
<g opacity="0.35">
<path opacity="0.35" d="M124.334 100.138L141.386 98.5953C139.76 91.8897 136.514 79.3869 135.123 78.5051C133.731 77.6232 134.272 87.1884 124.334 100.138Z" fill="#261335"/>
</g>
<path d="M149.462 99.1472C149.417 99.1861 149.37 99.2222 149.32 99.2552C149.15 99.371 148.958 99.4523 148.756 99.4941C148.554 99.536 148.346 99.5377 148.144 99.4992C147.941 99.4607 147.748 99.3827 147.576 99.2697C147.404 99.1567 147.255 99.0109 147.14 98.8406C143.621 93.6742 138.69 78.8205 137.436 66.6934C133.024 75.2899 123.528 91.8119 110.909 102.635C110.592 102.907 110.18 103.042 109.764 103.01C109.347 102.979 108.96 102.783 108.688 102.467C108.416 102.151 108.282 101.74 108.314 101.324C108.346 100.908 108.542 100.522 108.859 100.251C125.634 85.8627 137.167 60.0768 137.272 59.8203C137.419 59.4887 137.677 59.218 138.001 59.0545C138.325 58.8909 138.696 58.8445 139.051 58.9232C139.405 59.0018 139.721 59.2007 139.945 59.4859C140.169 59.7711 140.287 60.125 140.279 60.4874C140.007 72.3918 145.897 91.4258 149.74 97.0702C149.959 97.3895 150.051 97.7782 150 98.1616C149.949 98.5451 149.757 98.8962 149.462 99.1472Z" fill="#261335"/>
<path d="M132.927 100.998C123.139 109.091 112.544 116.161 101.309 122.095L100.729 122.587C93.0638 132.699 84.3904 142.01 74.8425 150.376C74.8425 150.376 107.574 203.217 117.872 257.944C133.851 249.078 147.229 236.196 156.677 220.577C164.34 219.662 171.562 216.505 177.434 211.506C183.306 206.506 187.566 199.886 189.678 192.478C206.624 185.624 221.48 174.466 232.77 160.112C180.144 141.427 132.927 100.998 132.927 100.998Z" fill="#E51051"/>
<path d="M232.77 160.11C231.24 162.141 229.602 164.09 227.864 165.947C217.284 177.529 204.236 186.595 189.68 192.478C187.569 199.885 183.309 206.505 177.437 211.504C171.565 216.504 164.343 219.66 156.681 220.574C148.58 233.978 137.57 245.4 124.463 253.999C122.339 255.43 120.139 256.746 117.874 257.942C107.578 203.217 74.8445 150.375 74.8445 150.375C84.3922 142.009 93.0655 132.699 100.731 122.587L101.309 122.095C112.545 116.161 123.141 109.09 132.929 100.995C132.929 100.995 180.144 141.427 232.77 160.11Z" fill="#E6101D"/>
<g opacity="0.7">
<path opacity="0.7" d="M232.77 160.11C232.77 160.11 232.241 160.846 231.207 162.113C186.175 148.027 147.416 118.462 147.416 118.462C137.786 126.476 127.466 133.627 116.577 139.831L116.004 140.316C108.14 150.057 99.4418 159.098 90.0074 167.334C90.0074 167.334 113.562 209.929 120.507 256.481C118.845 257.464 117.88 257.941 117.88 257.941C107.585 203.216 74.8506 150.375 74.8506 150.375C84.3983 142.008 93.0716 132.698 100.738 122.586L101.316 122.094C112.551 116.16 123.147 109.089 132.935 100.995C132.935 100.995 180.144 141.427 232.77 160.11Z" fill="white"/>
</g>
<g opacity="0.35">
<path opacity="0.35" d="M227.864 165.947C217.284 177.529 204.236 186.595 189.68 192.478C187.569 199.885 183.309 206.505 177.437 211.504C171.565 216.504 164.343 219.66 156.681 220.574C148.58 233.978 137.57 245.4 124.463 253.999C118.924 209.273 94.4669 167.597 94.4669 167.597C103.089 160.075 111.032 151.811 118.204 142.901L118.73 142.45C128.694 136.806 138.134 130.288 146.94 122.972C146.94 122.972 184.399 153.517 227.864 165.947Z" fill="#261335"/>
</g>
<path d="M178.56 212.61L178.468 212.69C172.452 217.537 165.282 220.751 157.657 222.019C148.107 237.638 134.639 250.503 118.585 259.342L116.721 260.278L116.338 258.232C106.215 204.432 73.8408 151.725 73.5142 151.196L72.8068 150.057L73.8343 149.185C83.2739 140.883 91.8618 131.663 99.471 121.664L99.5795 121.517L100.437 120.787L100.601 120.702C111.722 114.816 122.213 107.816 131.914 99.8101L132.937 98.9366L133.96 99.8164C134.43 100.219 181.571 140.277 233.306 158.644L235.275 159.343L234.054 161.036C222.778 175.467 207.926 186.715 190.965 193.669C188.525 200.938 184.254 207.461 178.56 212.61ZM155.726 219.112L156.503 219.02C163.791 217.892 170.661 214.889 176.434 210.306L176.517 210.235C181.915 205.28 185.934 199.014 188.181 192.049L188.394 191.3L189.122 191.015C205.104 184.5 219.221 174.136 230.212 160.85C182.965 143.529 140.05 108.936 132.944 103.045C123.38 110.806 113.085 117.623 102.202 123.4L101.894 123.658C94.442 133.446 86.0673 142.499 76.8846 150.694C81.6226 158.631 109.23 206.309 119.017 255.523C133.894 246.78 146.373 234.5 155.343 219.78L155.726 219.112Z" fill="#261335"/>
<path d="M182.975 31.4364C183.042 31.6593 183.109 31.8822 183.163 32.105C183.21 32.2831 183.256 32.4551 183.292 32.6287C183.328 32.8023 183.361 32.916 183.386 33.0621C183.437 33.3001 183.478 33.5373 183.519 33.7665C183.551 33.9699 183.581 34.1529 183.597 34.3463C183.65 34.6839 183.674 35.0179 183.693 35.3505C183.708 35.5338 183.716 35.7179 183.724 35.8981C183.737 36.1504 183.736 36.3945 183.733 36.6409C183.731 36.8874 183.727 37.1173 183.715 37.3569C183.703 37.5965 183.69 37.8279 183.671 38.0644C183.622 38.6352 183.552 39.1987 183.456 39.7519C183.43 39.9125 183.401 40.0735 183.368 40.233C183.306 40.5535 183.234 40.8651 183.157 41.1818C183.121 41.3356 183.078 41.4903 183.036 41.6471C182.961 41.9198 182.883 42.1928 182.8 42.4623L182.715 42.7261C182.539 43.2648 182.345 43.7939 182.129 44.2995C182.081 44.4217 182.03 44.5466 181.978 44.6653C181.954 44.7275 181.926 44.7903 181.9 44.8466C181.88 44.881 181.869 44.9161 181.85 44.9505C181.428 45.9162 180.949 46.8562 180.416 47.7656C180.348 47.887 180.283 47.9952 180.212 48.1108C179.808 48.79 179.404 49.4087 179.015 49.9689C178.889 50.1515 178.761 50.3344 178.634 50.5027C178.506 50.6711 178.374 50.8652 178.249 51.0267C178.124 51.1883 178.039 51.2998 177.938 51.4264C177.401 52.108 176.957 52.6058 176.687 52.9052L176.583 53.0134C176.466 53.1426 176.405 53.2065 176.405 53.2065L165.682 88.4481L152.521 131.731L124.622 107.5C124.622 107.5 129.869 93.7799 135.953 77.9834C138.355 71.7641 140.882 65.2037 143.277 59.048C144.441 56.038 145.575 53.1245 146.644 50.3819C146.765 50.0812 146.878 49.7776 146.994 49.4778C148.343 46.0256 149.578 42.8814 150.638 40.2132C150.766 39.8904 150.885 39.5754 151.007 39.2747C151.724 37.4761 152.355 35.9227 152.852 34.6824C152.916 34.5326 152.973 34.3817 153.034 34.2366L153.032 34.2223C153.13 33.9877 153.222 33.7626 153.31 33.5527C153.461 33.1868 153.603 32.8618 153.722 32.5803C153.769 32.4706 153.81 32.3578 153.854 32.2674C153.979 31.9744 154.085 31.7491 154.165 31.5926C156.549 26.6748 179.408 19.7895 182.975 31.4364Z" fill="white"/>
<path d="M153.546 132.921C153.259 133.166 152.894 133.3 152.516 133.299C152.139 133.298 151.775 133.161 151.49 132.914L123.589 108.684C123.347 108.473 123.175 108.193 123.097 107.882C123.019 107.571 123.039 107.243 123.154 106.943C124.265 104.042 150.373 35.8081 152.755 30.8991C154.747 26.786 165.639 22.9355 173.563 23.5408C179.275 23.9764 183.14 26.6065 184.479 30.9808C187.964 42.3948 179.528 52.1871 177.814 54.0231L154.025 132.19C153.938 132.474 153.771 132.727 153.546 132.921ZM126.475 107.039L151.719 128.962L174.912 52.7534C174.987 52.5071 175.121 52.2831 175.304 52.1012C175.397 52.0071 184.712 42.4755 181.471 31.8944C180.512 28.765 177.769 27.0072 173.326 26.6662C165.544 26.0718 156.656 30.0543 155.585 32.2613C153.412 36.7242 129.825 98.303 126.475 107.039Z" fill="#261335"/>
<path d="M238.958 195.651C239.099 195.852 239.232 196.056 239.348 196.264C243.058 202.518 238.043 210.189 224.728 219.019C218.697 223.017 210.474 228.676 204.934 226.254C193.876 221.42 183.572 201.292 173.906 191.007L173.888 190.989C170.925 194.131 167.636 196.951 164.078 199.403L164.295 199.673C173.094 210.706 191.241 223.786 194.346 235.335C195.912 241.166 189.071 248.424 184.206 253.773C173.444 265.601 165.089 269.392 159.448 264.767C159.266 264.623 159.089 264.468 158.917 264.305C152.513 258.271 159.588 246.848 159.588 246.848C159.588 246.848 145.344 234.593 133.012 223.095C102.375 194.532 82 145.982 82 145.982L133.3 101.973C133.3 101.973 178.336 129.371 202.027 163.894C211.563 177.791 221.566 193.683 221.566 193.683C221.566 193.683 233.943 188.425 238.958 195.651Z" fill="white"/>
<path d="M82.4748 145.776C84.9963 150.494 87.5099 155.215 90.0816 159.894C90.7192 161.066 91.3548 162.239 92.0136 163.4L93.9511 166.902C95.2758 169.216 96.5698 171.548 97.9231 173.845L99.9599 177.275L100.974 178.99L102.029 180.686C103.434 182.951 104.794 185.251 106.277 187.455C107.759 189.659 109.169 191.929 110.709 194.098L112.982 197.382C113.733 198.48 114.561 199.522 115.346 200.597L117.733 203.789C118.124 204.327 118.552 204.837 118.97 205.352L120.231 206.895L122.751 209.985C123.162 210.508 123.613 210.992 124.057 211.487L125.391 212.964L128.059 215.92C128.492 216.424 128.976 216.877 129.443 217.345L130.856 218.743L133.677 221.543C134.625 222.47 135.638 223.366 136.604 224.278C144.478 231.524 152.502 238.641 160.594 245.642L161.592 246.505L160.905 247.656C160.641 248.094 160.349 248.639 160.098 249.152C159.847 249.665 159.596 250.203 159.373 250.741C158.925 251.805 158.558 252.9 158.274 254.018C157.652 256.106 157.638 258.327 158.231 260.422C158.549 261.373 159.082 262.238 159.79 262.949C160.494 263.68 161.344 264.255 162.284 264.638C164.28 265.307 166.456 265.2 168.378 264.339C170.527 263.46 172.542 262.285 174.365 260.849C176.265 259.385 178.069 257.799 179.765 256.103C181.49 254.413 183.115 252.604 184.77 250.777C186.408 249.004 187.955 247.148 189.404 245.219C190.815 243.417 191.911 241.391 192.649 239.226C192.958 238.267 193.05 237.251 192.92 236.252C192.905 236.135 192.882 236.02 192.852 235.906C192.829 235.781 192.797 235.658 192.756 235.537L192.511 234.742C192.308 234.216 192.122 233.687 191.873 233.176C191.625 232.665 191.365 232.143 191.103 231.63C190.814 231.126 190.525 230.617 190.208 230.121C189.591 229.122 188.891 228.158 188.177 227.202C186.725 225.301 185.138 223.475 183.488 221.692C180.172 218.13 176.62 214.739 173.085 211.285C169.446 207.856 166.021 204.208 162.828 200.362L161.785 199.054L163.185 198.096C164.02 197.523 164.886 196.883 165.713 196.235C166.54 195.586 167.365 194.93 168.163 194.244C168.961 193.559 169.74 192.853 170.502 192.128C171.264 191.402 172.024 190.647 172.714 189.9L173.878 188.673L175.017 189.897C178.347 193.625 181.445 197.553 184.295 201.658C187.184 205.663 190.011 209.678 193.04 213.484C194.558 215.382 196.129 217.221 197.794 218.94C198.635 219.788 199.484 220.625 200.382 221.383C200.821 221.778 201.288 222.125 201.741 222.493C202.194 222.861 202.671 223.179 203.153 223.486C203.634 223.794 204.126 224.074 204.618 224.355L205.371 224.717C205.484 224.775 205.601 224.826 205.721 224.869C205.829 224.915 205.94 224.955 206.053 224.988C207.024 225.266 208.045 225.328 209.043 225.167C211.298 224.765 213.47 223.987 215.467 222.867C217.596 221.726 219.666 220.479 221.67 219.132C223.726 217.763 225.764 216.44 227.699 214.992C229.635 213.574 231.477 212.033 233.214 210.378C234.911 208.795 236.377 206.984 237.571 204.997C238.712 203.23 239.145 201.101 238.785 199.031C238.543 198.046 238.098 197.123 237.478 196.32C236.881 195.514 236.104 194.857 235.209 194.401C233.224 193.5 231.022 193.18 228.861 193.479C227.71 193.591 226.569 193.789 225.448 194.071C224.881 194.212 224.32 194.371 223.764 194.547C223.217 194.719 222.637 194.935 222.16 195.119L220.92 195.626L220.215 194.512C214.951 186.194 209.576 177.944 204.092 169.761C202.712 167.73 201.35 165.659 199.927 163.681C199.212 162.696 198.533 161.684 197.784 160.719L195.565 157.809C192.531 153.983 189.318 150.294 185.972 146.723C179.237 139.593 172.039 132.915 164.424 126.731C160.642 123.621 156.804 120.503 153.007 117.463C149.121 114.47 145.253 111.421 141.335 108.448C141.233 108.37 141.164 108.257 141.14 108.131C141.115 108.005 141.138 107.875 141.203 107.764C141.268 107.654 141.372 107.57 141.494 107.53C141.616 107.49 141.749 107.496 141.867 107.547C144.14 108.578 146.349 109.745 148.482 111.039C150.618 112.316 152.712 113.647 154.76 115.046C158.854 117.94 162.754 120.957 166.557 124.164C170.36 127.371 174.048 130.688 177.681 134.073C179.497 135.769 181.276 137.5 183.054 139.236L185.716 141.887C186.589 142.77 187.431 143.687 188.291 144.586C191.69 148.216 194.963 151.971 198.06 155.878L200.33 158.853C201.091 159.842 201.789 160.88 202.52 161.889C203.975 163.922 205.326 165.97 206.72 168.019C212.235 176.225 217.627 184.505 222.896 192.858L220.953 192.252C221.617 191.977 222.202 191.778 222.832 191.576C223.463 191.374 224.079 191.201 224.712 191.044C225.986 190.723 227.282 190.499 228.589 190.372C229.934 190.234 231.29 190.248 232.632 190.413C234.044 190.578 235.415 190.991 236.682 191.634C237.991 192.305 239.129 193.265 240.009 194.441C240.896 195.597 241.529 196.926 241.866 198.341C242.185 199.774 242.181 201.259 241.855 202.69C241.545 204.045 241.03 205.345 240.329 206.546C238.989 208.797 237.337 210.848 235.423 212.64C233.588 214.392 231.642 216.025 229.596 217.527C227.577 219.038 225.477 220.408 223.42 221.768C221.325 223.176 219.16 224.477 216.933 225.665C214.613 226.958 212.088 227.848 209.469 228.296C208.018 228.516 206.536 228.414 205.129 227.997C204.947 227.943 204.767 227.88 204.591 227.807C204.42 227.746 204.253 227.674 204.091 227.593L203.186 227.153C202.603 226.828 202.013 226.505 201.467 226.135C200.921 225.765 200.387 225.389 199.854 225.007C199.351 224.601 198.829 224.209 198.352 223.786C197.367 222.952 196.458 222.056 195.562 221.154C193.795 219.331 192.166 217.417 190.605 215.465C187.493 211.556 184.643 207.506 181.766 203.526C178.996 199.53 175.985 195.707 172.749 192.077L175.046 192.067C174.261 192.902 173.494 193.662 172.69 194.43C171.886 195.198 171.072 195.938 170.229 196.656C169.386 197.374 168.529 198.072 167.654 198.747C166.779 199.422 165.904 200.068 164.958 200.718L165.317 198.451C168.426 202.19 171.76 205.735 175.301 209.069C178.819 212.507 182.403 215.928 185.807 219.584C187.507 221.418 189.158 223.316 190.69 225.332C191.45 226.352 192.199 227.386 192.877 228.482C193.23 229.018 193.54 229.592 193.867 230.151C194.168 230.728 194.483 231.304 194.742 231.911C195.002 232.518 195.254 233.135 195.491 233.758L195.789 234.724C195.846 234.897 195.892 235.073 195.927 235.251C195.973 235.435 196.009 235.622 196.035 235.811C196.235 237.262 196.113 238.739 195.677 240.138C194.84 242.654 193.58 245.011 191.95 247.106C190.438 249.122 188.825 251.06 187.116 252.913C185.458 254.74 183.786 256.605 181.985 258.369C180.191 260.162 178.283 261.838 176.272 263.386C174.21 265.005 171.929 266.326 169.498 267.312C168.203 267.821 166.837 268.132 165.449 268.234C163.982 268.343 162.51 268.124 161.14 267.593C159.788 267.047 158.566 266.223 157.555 265.174C156.52 264.129 155.737 262.861 155.267 261.468C154.821 260.121 154.618 258.707 154.666 257.289C154.705 255.941 154.896 254.6 155.235 253.294C155.557 252.023 155.974 250.778 156.482 249.57C156.735 248.974 157.004 248.383 157.292 247.796C157.586 247.203 157.874 246.662 158.244 246.042L158.563 248.049C150.435 241.016 142.411 233.871 134.491 226.616C133.509 225.696 132.511 224.806 131.545 223.858L128.654 220.994L127.209 219.555C126.729 219.075 126.223 218.611 125.792 218.096L123.07 215.084L121.708 213.576C121.254 213.075 120.789 212.582 120.369 212.052L117.781 208.919L116.488 207.356C116.058 206.832 115.619 206.318 115.221 205.772L112.772 202.546C111.973 201.464 111.11 200.415 110.337 199.309L108.005 195.996L106.836 194.344C106.442 193.796 106.057 193.24 105.691 192.675L103.47 189.294C100.503 184.788 97.7332 180.162 95.0802 175.471C94.4041 174.306 93.7891 173.105 93.142 171.926C92.4949 170.746 91.8476 169.565 91.2387 168.362C90.0213 165.96 88.7867 163.569 87.666 161.118C85.3472 156.254 83.299 151.265 81.5311 146.176C81.4864 146.051 81.491 145.913 81.5441 145.791C81.5971 145.67 81.6945 145.572 81.8167 145.52C81.9388 145.467 82.0765 145.462 82.2018 145.507C82.3271 145.552 82.4305 145.642 82.4913 145.76L82.4748 145.776Z" fill="#261335"/>
<g opacity="0.35">
<path opacity="0.35" d="M182.488 140.066C182.546 141.782 181.927 143.453 180.764 144.719C177.022 148.793 171.444 154.195 166.045 156.749C167.357 164.512 166.246 174.373 159.092 185.865C146.615 191.208 136.664 190.803 129.168 188.325C125.844 193.304 119.587 198.055 114.963 201.145C114.553 201.42 114.113 201.647 113.651 201.821C110.941 198.575 108.351 195.226 105.878 191.851C106.19 191.409 106.556 191.007 106.967 190.654C107.044 190.59 107.127 190.518 107.207 190.455C110.764 187.715 114.174 184.79 117.423 181.692C115.272 179.913 113.371 177.853 111.771 175.567C112.572 165.095 128.696 150.558 128.696 150.558C128.696 150.558 145.522 136.835 156.018 137.62C158.041 139.546 159.795 141.735 161.231 144.129C164.746 141.412 168.118 138.517 171.334 135.454C171.407 135.384 171.49 135.312 171.567 135.246C172.23 134.679 172.998 134.248 173.829 133.979C174.659 133.71 175.534 133.608 176.404 133.679C178.47 135.74 180.507 137.881 182.488 140.066Z" fill="#261335"/>
</g>
<path d="M128.106 181.619C125.216 187.207 118.039 192.713 112.879 196.158C112.145 196.649 111.319 196.988 110.451 197.155C109.583 197.322 108.691 197.314 107.826 197.131C106.962 196.947 106.144 196.593 105.419 196.088C104.695 195.583 104.08 194.938 103.61 194.192C102.732 192.81 102.401 191.151 102.682 189.539C102.962 187.926 103.834 186.475 105.127 185.467C110.47 181.508 115.35 176.962 119.675 171.914" fill="#E6101D"/>
<g opacity="0.7">
<path opacity="0.7" d="M107.046 187.696C112.39 183.737 117.27 179.19 121.594 174.141L128.42 182.001L119.982 172.291C115.657 177.339 110.777 181.886 105.433 185.844C104.14 186.851 103.268 188.303 102.988 189.915C102.708 191.528 103.039 193.187 103.917 194.568C104.313 195.194 104.811 195.749 105.391 196.211C104.588 194.833 104.313 193.21 104.617 191.644C104.922 190.079 105.785 188.676 107.046 187.696Z" fill="white"/>
</g>
<g opacity="0.35">
<path opacity="0.35" d="M128.107 181.619C125.218 187.209 118.037 192.711 112.881 196.159C111.99 196.751 110.969 197.118 109.905 197.23C108.841 197.342 107.766 197.195 106.771 196.803C105.777 196.41 104.892 195.783 104.194 194.975C103.495 194.167 103.003 193.202 102.759 192.163C103.755 192.559 104.834 192.707 105.9 192.594C106.967 192.482 107.99 192.111 108.882 191.515C114.032 188.079 121.198 182.581 124.097 177.006L128.107 181.619Z" fill="#261335"/>
</g>
<path d="M121.456 191.678C119.005 193.755 116.432 195.685 113.752 197.459C111.99 198.627 109.844 199.069 107.763 198.694C105.682 198.318 103.828 197.155 102.589 195.446C101.349 193.737 100.821 191.615 101.114 189.525C101.406 187.435 102.498 185.538 104.16 184.232C109.414 180.383 114.199 175.933 118.419 170.976C118.922 170.303 120.467 168.968 123.898 171.11C127.378 173.282 131.562 178.353 129.502 182.338C127.417 185.918 124.69 189.084 121.456 191.678ZM105.905 186.851C104.944 187.693 104.338 188.867 104.21 190.137C104.083 191.406 104.442 192.676 105.216 193.691C105.991 194.706 107.122 195.389 108.382 195.604C109.642 195.818 110.937 195.548 112.006 194.847C119.374 189.924 124.603 184.969 126.716 180.893C127.332 179.701 126.293 177.935 125.817 177.231C124.613 175.348 122.84 173.895 120.755 173.081C116.385 178.142 111.469 182.707 106.097 186.693C106.029 186.752 105.966 186.802 105.905 186.855L105.905 186.851Z" fill="#261335"/>
<path d="M155.556 181.748C172.791 154.075 152.668 136.446 152.668 136.446C142.808 135.707 127.013 148.594 127.013 148.594C127.013 148.594 111.87 162.258 111.12 172.085C111.103 172.085 125.546 194.602 155.556 181.748Z" fill="#289DDB"/>
<g opacity="0.7">
<path opacity="0.7" d="M155.63 139.752C155.198 139.312 154.943 139.087 154.943 139.087C145.084 138.35 129.279 151.239 129.279 151.239C129.279 151.239 114.138 164.89 113.387 174.727C113.387 174.727 113.57 175.013 113.929 175.508C112.887 174.454 111.941 173.308 111.103 172.085C111.856 162.248 126.997 148.595 126.997 148.595C126.997 148.595 142.802 135.708 152.661 136.443C153.748 137.455 154.741 138.562 155.63 139.752Z" fill="white"/>
</g>
<g opacity="0.35">
<path opacity="0.35" d="M152.67 136.446C152.228 136.415 151.785 136.409 151.342 136.428C155.89 142.21 163.675 156.317 152.222 175.789C151.749 176.591 151.023 177.214 150.158 177.56C129.145 185.933 116.341 176.13 111.294 170.775C111.211 171.208 111.15 171.646 111.114 172.086C111.114 172.086 125.555 194.59 155.559 181.748C172.791 154.074 152.67 136.446 152.67 136.446Z" fill="#261335"/>
</g>
<path d="M156.63 182.993L156.174 183.189C140.094 190.071 128.35 186.943 121.328 183.109C116.746 180.65 112.797 177.167 109.79 172.932L109.511 172.491L109.551 171.969C110.339 161.628 125.319 148.008 125.958 147.434L125.987 147.406L126.016 147.383C126.683 146.841 142.424 134.106 152.79 134.884L153.314 134.922L153.709 135.276C157.452 138.88 160.309 143.299 162.056 148.188C164.798 155.692 166.133 167.75 156.894 182.576L156.63 182.993ZM112.736 171.668C115.48 175.281 118.967 178.267 122.962 180.426C132.14 185.386 142.744 185.416 154.483 180.501C161.118 169.648 162.68 159.183 159.154 149.392C157.615 145.124 155.18 141.235 152.013 137.983C143.047 137.806 128.796 149.176 128.036 149.785C127.309 150.443 113.907 162.794 112.736 171.668Z" fill="#261335"/>
<path d="M116.071 222.755C101.513 230.861 95.0907 216.177 94.9374 215.831C94.1531 215.945 93.39 216.035 92.6426 216.118C92.6426 216.118 107.641 199.715 104.234 189.197C104.116 188.817 103.969 188.445 103.796 188.087C126.315 194.271 129.253 215.415 116.071 222.755Z" fill="white"/>
<path d="M95.0243 186.565C95.0772 186.569 95.132 186.573 95.1812 186.58C125.416 189.175 130.782 214.566 116.071 222.755C101.361 230.944 94.9388 215.826 94.9388 215.826C45.7344 222.916 70.6717 158.298 70.6717 158.298C73.7269 150.32 77.403 142.593 81.6665 135.187L90.8667 157.298L98.1792 174.866C94.3755 182.705 95.0243 186.565 95.0243 186.565Z" fill="white"/>
<g opacity="0.35">
<path opacity="0.35" d="M89.9219 162.559L98.1875 174.865C94.3757 182.705 95.0305 186.564 95.0305 186.564C95.0834 186.568 95.1382 186.572 95.1874 186.579C92.0202 186.585 88.874 187.095 85.8669 188.089C86.9695 185.254 87.7152 182.294 88.0867 179.277C88.02 166.912 81.343 162.33 87.6904 158.153C88.6833 157.497 89.4621 160.822 89.9219 162.559Z" fill="#261335"/>
</g>
<path d="M119.717 222.119C118.827 222.882 117.861 223.553 116.836 224.122C114.865 225.393 112.641 226.223 110.318 226.553C107.995 226.884 105.629 226.707 103.381 226.036C99.3312 224.428 96.0067 221.404 94.0285 217.528C82.2382 219.001 73.6297 216.455 68.4313 209.948C55.5159 193.785 68.6458 159.199 69.2113 157.734C72.3051 149.678 76.0203 141.873 80.3235 134.389C80.5369 134.034 80.8826 133.777 81.285 133.675C81.6874 133.573 82.1139 133.634 82.4711 133.845C82.8283 134.056 83.0872 134.399 83.1912 134.8C83.2952 135.201 83.2358 135.627 83.026 135.985C78.8138 143.313 75.1769 150.955 72.148 158.843C72.0105 159.201 59.0896 193.234 70.8901 207.995C75.509 213.775 83.5262 215.888 94.7154 214.275L95.9146 214.101L96.3841 215.215C97.9897 218.744 100.857 221.548 104.425 223.078C106.254 223.591 108.172 223.705 110.05 223.413C111.928 223.121 113.721 222.429 115.308 221.385C117.952 219.96 120.045 217.697 121.259 214.955C122.473 212.212 122.737 209.145 122.011 206.237C120.324 198.43 112.314 189.573 94.894 188.127L93.6763 188.024L93.485 186.82C93.423 186.43 92.9368 182.789 96.0667 175.735C96.2406 175.363 96.5535 175.074 96.9384 174.93C97.3233 174.786 97.7495 174.798 98.1254 174.963C98.5014 175.129 98.797 175.435 98.949 175.816C99.101 176.197 99.0972 176.623 98.9384 177.001C97.7038 179.563 96.9114 182.314 96.5947 185.138C114.741 187.097 123.219 196.892 125.095 205.572C125.798 208.556 125.668 211.676 124.72 214.593C123.772 217.51 122.042 220.113 119.717 222.119Z" fill="#261335"/>
<path d="M95.0887 187.958C94.3185 187.884 93.4923 187.841 92.6874 187.812C91.8825 187.784 91.0646 187.778 90.2483 187.783C88.6102 187.793 86.9762 187.95 85.3656 188.249C86.8612 187.498 88.4206 186.882 90.0255 186.406C90.8223 186.16 91.6334 185.934 92.4588 185.728C93.2829 185.522 94.0885 185.331 94.9547 185.167L95.0887 187.958Z" fill="#261335"/>
<path d="M94.6391 214.465C95.3912 214.345 96.18 214.22 96.9545 214.097L99.2991 213.741L101.655 213.367C102.446 213.241 103.234 213.095 104.04 212.948C103.392 213.451 102.709 213.908 101.996 214.315C101.286 214.722 100.557 215.092 99.8172 215.437C99.0778 215.782 98.3285 216.103 97.5673 216.389C96.806 216.674 96.0522 216.955 95.247 217.174L94.6391 214.465Z" fill="#261335"/>
<g opacity="0.3">
<path opacity="0.3" d="M116.071 222.755C101.513 230.861 95.0908 216.178 94.9375 215.831C94.9375 215.831 106.99 225.482 115.473 212.723C120.895 204.565 111.615 195.016 104.234 189.197C104.116 188.817 103.969 188.446 103.796 188.087C126.315 194.272 129.253 215.415 116.071 222.755Z" fill="#2C1A50"/>
</g>
<path d="M116.014 136.197L119.232 139.933C114.475 144.839 108.354 148.208 101.659 149.606C94.9643 151.004 88.0048 150.366 81.6804 147.774C78.0984 146.383 74.6829 144.599 71.4967 142.455L81.8109 136.084C87.727 137.919 93.8426 139.041 100.027 139.426C105.785 139.694 111.752 139.04 116.014 136.197Z" fill="#E6101D"/>
<g opacity="0.35">
<path opacity="0.35" d="M116.015 136.197L119.233 139.933C114.475 144.839 108.354 148.208 101.659 149.606C94.9646 151.004 88.005 150.366 81.6806 147.774C86.0028 148.278 98.0915 149.408 100.908 146.711C103.486 144.244 94.0408 145.127 93.4264 143.85C92.812 142.574 106.443 145.152 105.778 141.542C105.591 140.553 101.428 142.26 100.027 139.426C105.785 139.694 111.752 139.04 116.015 136.197Z" fill="#261335"/>
</g>
<path d="M117.846 142.884C114.508 145.731 110.686 147.957 106.561 149.458C98.7014 152.301 86.1257 153.565 70.839 143.431L69.31 142.423L81.6506 134.798L82.1734 134.971C82.394 135.045 104.755 142.274 115.357 135.228L116.224 134.65L120.785 139.947L120.113 140.712C119.406 141.485 118.648 142.211 117.846 142.884ZM73.7037 142.469C84.7745 149.334 95.5539 150.943 105.764 147.247C110.188 145.638 114.231 143.131 117.637 139.886L115.777 137.725C104.849 143.996 85.4936 138.455 81.9663 137.364L73.7037 142.469Z" fill="#261335"/>
<path d="M121.039 102.432C121.039 102.432 125.082 126.256 116.015 136.199L119.23 139.933C119.23 139.933 143.486 124.505 128.902 93.2162L121.039 102.432Z" fill="#E6101D"/>
<path d="M122.359 139.011C121.569 139.704 120.733 140.343 119.858 140.926L118.998 141.48L114.437 136.183L115.14 135.414C123.713 126.013 119.914 102.869 119.874 102.636L119.788 102.095L129.196 91.0659L129.971 92.7254C137.712 109.333 134.571 121.551 130.571 128.877C128.462 132.717 125.681 136.149 122.359 139.011ZM119.419 138.354C123.17 135.456 126.278 131.812 128.546 127.654C133.691 118.157 133.701 107.313 128.582 95.398L122.282 102.783C122.834 106.427 125.412 126.356 117.558 136.194L119.419 138.354Z" fill="#261335"/>
<path d="M87.8831 158.052C90.1489 161.344 92.3159 164.659 94.4528 167.996C95.5146 169.668 96.5914 171.33 97.5878 173.037C98.5842 174.745 99.5656 176.464 100.407 178.25C100.579 178.607 100.609 179.016 100.491 179.394C100.373 179.772 100.117 180.093 99.7733 180.291C99.4294 180.488 99.0234 180.55 98.6365 180.462C98.2496 180.374 97.9103 180.143 97.6866 179.817C96.5701 178.168 95.5447 176.46 94.6149 174.7C93.6664 172.951 92.8126 171.154 91.9679 169.349C91.1233 167.545 90.3192 165.719 89.5581 163.873C88.7969 162.028 88.0838 160.157 87.4768 158.243C87.4679 158.215 87.4645 158.185 87.4672 158.155C87.4698 158.126 87.4783 158.097 87.4922 158.07C87.5061 158.044 87.525 158.02 87.548 158.001C87.5709 157.982 87.5974 157.968 87.6259 157.959C87.673 157.944 87.7238 157.945 87.7702 157.962C87.8167 157.978 87.8564 158.01 87.8831 158.052Z" fill="#261335"/>
<path d="M80.8493 216.361C80.6127 216.563 80.3055 216.664 79.9948 216.641C79.6842 216.618 79.3954 216.474 79.1915 216.239C76.1565 212.734 75.9527 206.57 78.6718 200.534C80.5194 196.31 83.5447 192.705 87.3871 190.148C91.2295 187.59 95.727 186.189 100.344 186.11C100.656 186.106 100.957 186.225 101.18 186.442C101.404 186.659 101.532 186.956 101.537 187.268C101.541 187.579 101.421 187.88 101.203 188.103C100.986 188.326 100.688 188.454 100.376 188.459C96.2079 188.533 92.1483 189.802 88.6811 192.114C85.2139 194.426 82.4854 197.683 80.8206 201.498C78.4749 206.701 78.5356 211.885 80.9742 214.7C81.1783 214.936 81.2799 215.244 81.2568 215.555C81.2337 215.866 81.0878 216.155 80.8511 216.359L80.8493 216.361Z" fill="#261335"/>
<g opacity="0.35">
<path opacity="0.35" d="M116.014 136.197L119.232 139.933C124.807 135.976 129.064 130.443 131.455 124.048C133.845 117.653 134.257 110.691 132.639 104.063C132.492 108.402 131.792 120.502 128.695 122.874C125.864 125.046 128.16 115.87 126.987 115.062C125.813 114.254 126.319 128.095 122.844 126.899C121.891 126.569 124.21 122.721 121.613 120.909C121.019 126.631 119.462 132.418 116.014 136.197Z" fill="#261335"/>
</g>
<path d="M112.449 136.115L111.4 132.301C111.354 132.13 111.357 131.949 111.408 131.778C111.459 131.608 111.556 131.455 111.689 131.337C111.822 131.219 111.985 131.139 112.16 131.108C112.335 131.077 112.516 131.095 112.682 131.159L116.353 132.647C116.498 132.706 116.654 132.728 116.81 132.713C116.965 132.698 117.114 132.645 117.244 132.559L120.554 130.384C120.704 130.286 120.878 130.231 121.057 130.226C121.237 130.222 121.414 130.267 121.569 130.357C121.723 130.448 121.85 130.58 121.933 130.738C122.017 130.896 122.054 131.075 122.042 131.253L121.755 135.198C121.743 135.353 121.77 135.509 121.833 135.651C121.896 135.794 121.992 135.919 122.115 136.016L125.209 138.485C125.348 138.597 125.453 138.744 125.513 138.912C125.573 139.08 125.585 139.26 125.547 139.434C125.51 139.608 125.425 139.769 125.301 139.897C125.178 140.026 125.021 140.118 124.849 140.162L121 141.114C120.849 141.151 120.708 141.224 120.592 141.328C120.475 141.432 120.386 141.562 120.332 141.708L118.93 145.406C118.866 145.573 118.757 145.72 118.615 145.829C118.472 145.937 118.302 146.004 118.123 146.022C117.945 146.039 117.765 146.007 117.604 145.928C117.444 145.849 117.308 145.726 117.213 145.574L115.121 142.218C115.039 142.086 114.926 141.976 114.792 141.898C114.657 141.819 114.506 141.774 114.35 141.767L110.392 141.585C110.213 141.577 110.04 141.519 109.893 141.417C109.745 141.316 109.629 141.176 109.557 141.012C109.485 140.848 109.46 140.668 109.486 140.491C109.511 140.314 109.586 140.147 109.701 140.01L112.257 136.983C112.357 136.865 112.427 136.724 112.46 136.573C112.494 136.421 112.49 136.264 112.449 136.115Z" fill="#FFC200"/>
<g opacity="0.7">
<path opacity="0.7" d="M122.048 131.254L121.937 132.815C121.782 132.712 121.6 132.657 121.414 132.656C121.229 132.656 121.047 132.71 120.891 132.812L117.58 134.987C117.45 135.074 117.3 135.128 117.145 135.144C116.989 135.159 116.832 135.136 116.687 135.077L113.019 133.589C112.815 133.505 112.588 133.495 112.377 133.559C112.165 133.623 111.982 133.757 111.859 133.94L111.411 132.302C111.364 132.13 111.366 131.949 111.417 131.778C111.468 131.608 111.565 131.455 111.698 131.336C111.831 131.217 111.994 131.138 112.17 131.106C112.345 131.075 112.526 131.093 112.692 131.158L116.362 132.647C116.506 132.706 116.662 132.729 116.817 132.713C116.972 132.697 117.121 132.643 117.25 132.556L120.564 130.381C120.714 130.283 120.888 130.229 121.068 130.225C121.247 130.221 121.423 130.267 121.578 130.357C121.732 130.448 121.858 130.58 121.941 130.739C122.024 130.897 122.061 131.076 122.048 131.254Z" fill="white"/>
</g>
<g opacity="0.35">
<path opacity="0.35" d="M119.918 142.791L118.928 145.408C118.865 145.576 118.756 145.722 118.614 145.831C118.471 145.94 118.301 146.007 118.123 146.025C117.945 146.042 117.765 146.009 117.604 145.93C117.443 145.851 117.308 145.728 117.214 145.576L115.122 142.222C115.04 142.09 114.928 141.979 114.794 141.9C114.659 141.821 114.508 141.775 114.352 141.767L110.393 141.589C110.214 141.581 110.04 141.523 109.893 141.421C109.745 141.32 109.628 141.179 109.557 141.015C109.485 140.851 109.461 140.67 109.487 140.493C109.513 140.315 109.588 140.149 109.704 140.012L110.961 138.522C111.119 138.649 111.315 138.721 111.518 138.727L115.476 138.912C115.632 138.917 115.783 138.961 115.917 139.039C116.052 139.118 116.164 139.228 116.245 139.361L118.342 142.718C118.424 142.85 118.536 142.96 118.67 143.038C118.804 143.116 118.955 143.161 119.111 143.168C119.266 143.176 119.421 143.145 119.561 143.079C119.702 143.013 119.825 142.914 119.918 142.791Z" fill="#261335"/>
</g>
<path d="M119.426 146.691C119.191 146.891 118.916 147.038 118.619 147.122C118.322 147.206 118.011 147.226 117.706 147.179C117.401 147.132 117.11 147.02 116.852 146.851C116.595 146.682 116.377 146.459 116.213 146.198L114.183 142.939L110.337 142.761C109.938 142.743 109.552 142.614 109.223 142.388C108.894 142.162 108.635 141.849 108.476 141.484C108.316 141.119 108.262 140.716 108.319 140.322C108.377 139.928 108.544 139.557 108.801 139.252L111.283 136.315L110.266 132.605C110.161 132.221 110.166 131.815 110.28 131.434C110.394 131.053 110.613 130.711 110.911 130.447C111.209 130.183 111.575 130.007 111.968 129.939C112.361 129.872 112.765 129.915 113.134 130.064L116.707 131.506L119.924 129.394C120.258 129.175 120.646 129.053 121.045 129.043C121.444 129.032 121.838 129.134 122.182 129.335C122.526 129.536 122.807 129.829 122.993 130.182C123.179 130.534 123.263 130.931 123.234 131.328L122.957 135.159L125.962 137.557C126.274 137.805 126.509 138.136 126.642 138.512C126.775 138.887 126.8 139.292 126.714 139.682C126.628 140.071 126.435 140.428 126.156 140.713C125.878 140.999 125.525 141.201 125.137 141.297L121.401 142.22L120.041 145.815C119.915 146.155 119.703 146.456 119.426 146.691ZM110.881 140.429L114.401 140.592C114.747 140.608 115.085 140.707 115.383 140.882C115.682 141.057 115.934 141.302 116.117 141.595L117.979 144.581L119.222 141.29C119.345 140.966 119.544 140.677 119.803 140.447C120.062 140.217 120.373 140.053 120.709 139.969L124.128 139.126L121.378 136.93C121.107 136.714 120.893 136.436 120.754 136.119C120.615 135.802 120.555 135.456 120.579 135.111L120.835 131.603L117.89 133.531C117.6 133.721 117.268 133.839 116.923 133.873C116.578 133.907 116.23 133.857 115.908 133.726L112.643 132.404L113.575 135.8C113.668 136.134 113.678 136.486 113.603 136.825C113.529 137.164 113.373 137.48 113.149 137.745L110.881 140.429Z" fill="#261335"/>
<path d="M128.367 57.1151C128.253 57.2283 128.118 57.3181 127.97 57.3793C127.822 57.4406 127.663 57.4721 127.502 57.472C127.342 57.472 127.183 57.4403 127.035 57.379C126.886 57.3176 126.752 57.2276 126.638 57.1143L101.788 32.2623C101.674 32.149 101.584 32.0146 101.523 31.8666C101.462 31.7186 101.43 31.56 101.43 31.3998C101.431 31.2397 101.462 31.0811 101.524 30.9332C101.586 30.7853 101.676 30.6509 101.79 30.5377C102.982 29.3502 104.396 28.4085 105.952 27.7663C107.509 27.1241 109.176 26.794 110.86 26.7949C112.544 26.7958 114.211 27.1276 115.766 27.7715C117.32 28.4154 118.732 29.3586 119.921 30.5474L128.399 39.0209C129.588 40.2103 130.53 41.6217 131.172 43.1747C131.813 44.7278 132.142 46.3919 132.139 48.0721C132.136 49.7523 131.801 51.4157 131.154 52.9673C130.507 54.5189 129.56 55.9283 128.367 57.1151Z" fill="white"/>
<path d="M128.492 57.3891C128.204 57.6355 127.834 57.7644 127.455 57.75C127.076 57.7355 126.716 57.5789 126.448 57.3113L101.587 32.4608C101.306 32.1787 101.149 31.7969 101.149 31.3989C101.15 31.0009 101.309 30.6194 101.591 30.3378C102.809 29.1243 104.255 28.1619 105.846 27.5057C107.436 26.8495 109.141 26.5122 110.861 26.5133C112.582 26.5143 114.286 26.8535 115.875 27.5116C117.464 28.1697 118.907 29.1338 120.122 30.3488L128.598 38.8225C131.049 41.2777 132.422 44.6033 132.418 48.0697C132.414 51.5361 131.032 54.8603 128.576 57.3132C128.549 57.3404 128.518 57.3578 128.492 57.3891ZM102.69 30.0881C102.444 30.2954 102.211 30.5117 101.991 30.7371C101.902 30.8244 101.832 30.9287 101.784 31.0437C101.737 31.1588 101.713 31.2821 101.715 31.4065C101.714 31.6558 101.813 31.8952 101.99 32.0717L126.848 56.9225C127.025 57.0977 127.265 57.1957 127.514 57.1951C127.764 57.1946 128.003 57.0956 128.179 56.9197C130.53 54.5725 131.852 51.3915 131.856 48.0744C131.86 44.7573 130.545 41.5749 128.2 39.2255L119.722 30.7521C117.49 28.521 114.496 27.2137 111.338 27.0918C108.18 26.9698 105.092 28.0421 102.691 30.0942L102.69 30.0881Z" fill="#261335"/>
<g opacity="0.35">
<path opacity="0.35" d="M124.423 35.0469L128.397 39.0212C130.798 41.4224 132.145 44.6773 132.141 48.0704C132.136 51.4635 130.782 54.717 128.375 57.1157C128.145 57.3444 127.834 57.4726 127.509 57.4722C127.185 57.4717 126.874 57.3427 126.645 57.1133L120.035 50.5094C120.255 50.5935 120.494 50.6125 120.724 50.564C120.955 50.5156 121.166 50.4019 121.333 50.2364L121.923 49.6466C123.807 47.7722 125.06 45.3595 125.508 42.7433C125.956 40.127 125.577 37.4371 124.423 35.0469Z" fill="#261335"/>
</g>
<path d="M129.328 58.3675C128.794 58.822 128.108 59.0591 127.406 59.0314C126.705 59.0037 126.04 58.7134 125.543 58.2182L100.684 33.3674C100.425 33.1089 100.219 32.8019 100.079 32.4639C99.9382 32.1258 99.8659 31.7634 99.866 31.3974C99.8661 31.0314 99.9385 30.669 100.079 30.3308C100.22 29.9927 100.426 29.6854 100.685 29.4267C102.023 28.094 103.611 27.0372 105.358 26.3165C107.105 25.5959 108.977 25.2255 110.866 25.2266C112.756 25.2277 114.627 25.6002 116.372 26.3228C118.117 27.0455 119.702 28.1041 121.037 29.4383L129.515 37.9138C132.207 40.6103 133.715 44.2628 133.71 48.0698C133.706 51.8769 132.187 55.5277 129.489 58.2211C129.434 58.2715 129.394 58.3196 129.328 58.3675ZM103.15 31.4037L127.511 55.7539C129.513 53.628 130.608 50.8096 130.566 47.8942C130.524 44.9788 129.348 42.1946 127.286 40.1297L118.81 31.6539C116.745 29.5898 113.956 28.4093 111.033 28.3626C108.11 28.3159 105.282 29.4066 103.15 31.4037Z" fill="#261335"/>
<path d="M19.5283 112.476C19.6419 112.362 19.7768 112.273 19.9251 112.211C20.0734 112.15 20.2324 112.119 20.3929 112.119C20.5534 112.119 20.7124 112.15 20.8606 112.212C21.0088 112.273 21.1434 112.363 21.2567 112.476L46.1156 137.327C46.229 137.44 46.3188 137.575 46.3801 137.723C46.4414 137.871 46.4729 138.029 46.4728 138.19C46.4726 138.35 46.4408 138.508 46.3791 138.656C46.3175 138.804 46.2273 138.939 46.1137 139.052C43.7061 141.45 40.4435 142.796 37.0431 142.794C33.6428 142.792 30.3833 141.442 27.9818 139.042L19.5055 130.566C18.3163 129.378 17.3737 127.967 16.7312 126.415C16.0888 124.862 15.7592 123.199 15.7614 121.519C15.7635 119.839 16.0973 118.176 16.7436 116.624C17.39 115.072 18.3362 113.663 19.5283 112.476Z" fill="white"/>
<path d="M45.5819 139.926C43.0722 142.07 39.8447 143.191 36.5446 143.063C33.2445 142.936 30.115 141.571 27.7815 139.241L19.3055 130.767C16.8546 128.312 15.4807 124.986 15.4852 121.519C15.4897 118.052 16.8723 114.728 19.3296 112.276C19.4691 112.136 19.6348 112.025 19.8173 111.95C19.9998 111.874 20.1956 111.835 20.3932 111.836C20.5907 111.836 20.7862 111.875 20.9685 111.951C21.1507 112.027 21.3161 112.138 21.4551 112.278L46.3167 137.133C46.4561 137.272 46.5666 137.437 46.6418 137.619C46.7171 137.801 46.7557 137.997 46.7553 138.194C46.755 138.39 46.7158 138.586 46.6399 138.767C46.564 138.949 46.4529 139.114 46.313 139.254C46.0755 139.486 45.8318 139.71 45.5819 139.926ZM19.78 112.625L19.727 112.673C17.3765 115.021 16.0541 118.201 16.0498 121.518C16.0454 124.835 17.3595 128.018 19.7039 130.368L28.182 138.841C29.3445 140.004 30.7256 140.927 32.2461 141.557C33.7666 142.187 35.3968 142.512 37.0436 142.513C38.6904 142.514 40.3215 142.191 41.8437 141.563C43.3658 140.935 44.7492 140.014 45.9148 138.852C46.0899 138.675 46.188 138.437 46.1877 138.188C46.1874 137.94 46.0888 137.702 45.9132 137.526L21.0523 112.676C20.8854 112.508 20.6609 112.409 20.424 112.4C20.1872 112.391 19.9557 112.472 19.776 112.626L19.78 112.625Z" fill="#261335"/>
<g opacity="0.35">
<path opacity="0.35" d="M39.2213 130.431L46.1173 137.325C46.3458 137.554 46.4737 137.865 46.4731 138.189C46.4724 138.513 46.3432 138.823 46.1137 139.052C44.9222 140.24 43.5079 141.182 41.9517 141.824C40.3955 142.467 38.7278 142.797 37.044 142.796C35.3603 142.795 33.6935 142.463 32.1389 141.819C30.5843 141.175 29.1725 140.231 27.9839 139.042L24.4117 135.47C26.7173 136.337 29.2249 136.523 31.6345 136.006C34.0442 135.488 36.2538 134.289 37.9992 132.551L38.9005 131.647C39.0582 131.491 39.1711 131.297 39.2275 131.083C39.2839 130.869 39.2818 130.643 39.2213 130.431Z" fill="#261335"/>
</g>
<path d="M46.4183 140.903C43.6625 143.261 40.1165 144.493 36.4905 144.353C32.8645 144.214 29.4263 142.712 26.8644 140.149L18.3884 131.676C15.6967 128.979 14.1875 125.327 14.192 121.519C14.1964 117.712 15.714 114.061 18.412 111.367C18.9363 110.845 19.6465 110.551 20.3869 110.551C21.1272 110.551 21.8371 110.843 22.3612 111.365L47.2201 136.216C47.7433 136.738 48.037 137.447 48.0368 138.186C48.0366 138.925 47.7426 139.633 47.2192 140.156C46.964 140.418 46.6943 140.667 46.4183 140.903ZM20.3858 113.834C18.3841 115.961 17.2883 118.779 17.33 121.695C17.3716 124.611 18.5473 127.396 20.6089 129.461L29.0849 137.935C31.1495 139.999 33.9389 141.179 36.8621 141.226C39.7853 141.273 42.6127 140.182 44.7453 138.185L20.3858 113.834Z" fill="#261335"/>
<path d="M83.3472 143.9C116.068 138.703 138.39 108.024 133.205 75.378C128.019 42.7315 97.2901 20.4795 64.569 25.6768C31.8479 30.8742 9.52591 61.5526 14.7114 94.1991C19.8968 126.846 50.6261 149.098 83.3472 143.9Z" fill="white"/>
<path d="M113.219 130.388C100.996 140.986 85.0596 146.31 68.9122 145.192C52.7648 144.073 37.7274 136.604 27.1046 124.424C16.4817 112.244 11.1425 96.3507 12.2601 80.2365C13.3777 64.1223 20.8607 49.1055 33.0648 38.486C45.2688 27.8665 61.1955 22.5131 77.345 23.6023C93.4944 24.6914 108.545 32.134 119.19 44.2945C129.835 56.4551 135.204 72.3386 134.115 88.4548C133.027 104.571 125.571 119.601 113.386 130.243L113.219 130.388ZM35.0657 39.6181L34.8979 39.7594C23.0724 50.1307 15.8258 64.7388 14.7344 80.4062C13.643 96.0736 18.7951 111.533 29.07 123.422C39.345 135.31 53.9116 142.667 69.6014 143.89C85.2912 145.114 100.835 140.107 112.852 129.957L113.019 129.813C124.937 119.468 132.266 104.836 133.402 89.1192C134.537 73.4024 129.386 57.8814 119.077 45.9531C108.768 34.0249 94.1401 26.6611 78.3949 25.4734C62.6498 24.2857 47.0699 29.3709 35.0653 39.616L35.0657 39.6181Z" fill="#261335"/>
<g opacity="0.35">
<path opacity="0.35" d="M113.457 39.7097C119.649 45.1118 124.66 51.728 128.179 59.1469C131.698 66.5658 133.649 74.6288 133.911 82.8346C134.174 91.0403 132.741 99.2134 129.704 106.846C126.666 114.478 122.087 121.406 116.253 127.199C110.419 132.992 103.453 137.527 95.7899 140.521C88.1264 143.515 79.9287 144.904 71.7066 144.603C63.4844 144.301 55.4136 142.314 47.9958 138.767C40.5781 135.22 33.972 130.187 28.5885 123.982C27.9645 123.264 27.3571 122.531 26.778 121.793C38.0249 131.605 52.5404 136.873 67.4824 136.564C82.4244 136.255 96.7166 130.392 107.561 120.123C118.405 109.854 125.02 95.9178 126.11 81.0442C127.201 66.1707 122.689 51.4304 113.457 39.7097Z" fill="#261335"/>
</g>
<path d="M114.058 131.362C101.681 141.933 85.6143 147.182 69.3757 145.961C53.1371 144.739 38.0501 137.145 27.4183 124.843C16.7866 112.541 11.4767 96.5328 12.6514 80.324C13.8261 64.1152 21.3896 49.0269 33.6858 38.3632L33.8566 38.2151C46.2137 27.6204 62.2712 22.3406 78.5129 23.5318C94.7546 24.723 109.857 32.2882 120.513 44.5706C125.801 50.6674 129.834 57.7447 132.38 65.3986C134.926 73.0524 135.937 81.1328 135.353 89.1784C134.769 97.224 132.604 105.077 128.979 112.29C125.354 119.502 120.342 125.933 114.228 131.214L114.058 131.362ZM35.9039 40.592L35.7422 40.7324C27.0047 48.2813 20.7049 58.2445 17.6396 69.3621C14.5743 80.4796 14.881 92.2522 18.5211 103.191C22.1613 114.13 28.9712 123.744 38.0898 130.817C47.2084 137.89 58.2262 142.104 69.7497 142.927C81.2732 143.751 92.785 141.145 102.829 135.441C112.873 129.737 120.999 121.19 126.179 110.881C131.358 100.572 133.359 88.9644 131.927 77.5256C130.496 66.0869 125.697 55.3309 118.138 46.6179C108.026 34.9614 93.6944 27.7817 78.2811 26.6511C62.8678 25.5206 47.6293 30.5312 35.9029 40.5859L35.9039 40.592Z" fill="#261335"/>
<path d="M120.186 46.8846C127.753 55.3581 132.43 66.0089 133.547 77.3064C134.4 85.5857 127.286 107.738 108.925 124.388C91.9008 139.825 68.1254 144.608 59.9802 142.823C48.859 140.434 38.7854 134.589 31.207 126.126C10.5308 103.007 21.8798 75.6928 46.4527 53.8008C71.0255 31.9089 99.5127 23.7667 120.186 46.8846Z" fill="#261335"/>
<path d="M108.584 126.779C91.0862 141.787 67.9758 146.179 59.6424 144.352C48.1954 141.896 37.8276 135.878 30.0323 127.164C19.8862 115.819 16.627 103.01 20.3402 89.0892C23.5801 76.951 32.2471 64.3407 45.4026 52.6229C58.558 40.905 72.0962 33.7424 84.5497 31.9061C98.8286 29.8008 111.212 34.4847 121.358 45.829C129.148 54.5463 133.962 65.5072 135.107 77.1335C135.949 85.302 129.443 107.885 109.987 125.533C109.52 125.966 109.053 126.378 108.584 126.779ZM49.2151 53.4705C48.6412 53.962 48.068 54.463 47.4958 54.9737C34.4719 66.5726 6.92373 96.6244 32.377 125.086C39.7353 133.302 49.5183 138.975 60.3177 141.289C68.0855 142.988 91.2624 138.292 107.869 123.224C126.274 106.539 132.746 84.8455 131.985 77.4626C130.903 66.4927 126.362 56.1504 119.014 47.9236C109.614 37.4179 98.1762 33.0735 85.008 35.015C73.6986 36.6862 61.3527 43.0548 49.2151 53.4705Z" fill="#261335"/>
<g opacity="0.7">
<path opacity="0.7" d="M108.457 65.6543C112.081 63.4399 112.538 57.6008 109.478 52.6125C106.419 47.6242 101.001 45.3756 97.3775 47.59C93.7539 49.8045 93.2966 55.6436 96.3562 60.6319C99.4157 65.6202 104.833 67.8688 108.457 65.6543Z" fill="white"/>
</g>
<g opacity="0.7">
<path opacity="0.7" d="M111.825 82.9912C113.943 82.0704 114.789 79.3286 113.715 76.8672C112.641 74.4058 110.055 73.1568 107.937 74.0776C105.82 74.9984 104.974 77.7402 106.047 80.2017C107.121 82.6631 109.708 83.912 111.825 82.9912Z" fill="white"/>
</g>
<g opacity="0.35">
<path opacity="0.35" d="M92.2458 33.0231C102.314 33.3545 111.88 37.5999 120.187 46.8846C127.751 55.3591 132.429 66.0091 133.549 77.3061C134.402 85.5854 127.284 107.738 108.925 124.39C102.676 129.961 95.5244 134.432 87.7756 137.613C109.905 116.666 118.502 89.5996 117.441 79.3329C116.025 64.9944 110.088 51.4766 100.484 40.7235C97.984 37.9066 95.226 35.3287 92.2458 33.0231Z" fill="#0C141E"/>
</g>
<path d="M17.9506 104.62C17.6862 104.848 17.3523 104.981 17.0031 104.996C16.601 105.016 16.2065 104.881 15.9016 104.619C15.5966 104.357 15.4044 103.988 15.3647 103.588C12.9299 85.0746 22.2709 64.8932 41.001 48.2117C59.5788 31.6629 80.5399 24.4617 98.4817 28.4714C98.869 28.5342 99.2185 28.7394 99.4615 29.0467C99.7046 29.3539 99.8236 29.741 99.7949 30.1315C99.7663 30.5221 99.592 30.8878 99.3067 31.1569C99.0213 31.4259 98.6456 31.5787 98.2532 31.5851L98.0457 31.5951L97.8792 31.5465C80.9196 27.7207 60.9487 34.6561 43.0964 50.5497C25.142 66.5366 16.1735 85.7353 18.4898 103.212L18.5015 103.352C18.5133 103.592 18.4698 103.83 18.3743 104.05C18.2787 104.27 18.1337 104.465 17.9506 104.62ZM16.7973 103.437L16.9281 103.431L16.7973 103.437Z" fill="#261335"/>
<g opacity="0.7">
<path opacity="0.7" d="M53.4969 130.988C53.4969 130.988 25.9204 114.577 30.1183 94.5122C34.3163 74.4472 52.0836 58.6901 52.682 60.1942C52.682 60.1942 37.2894 82.4168 43.4565 104.732C45.7589 113.848 49.1289 122.66 53.4969 130.988Z" fill="white"/>
</g>
</g>
<defs>
<clipPath id="clip0">
<rect width="213" height="257" fill="white" transform="translate(0.160645 34.2976) rotate(-9.02528)"/>
</clipPath>
</defs>
</svg>
