<svg width="47" height="45" viewBox="0 0 47 45" fill="none" xmlns="http://www.w3.org/2000/svg">
<g filter="url(#filter0_d)">
<path d="M9.53433 26.6063C11.9121 26.6063 13.8389 24.6795 13.8389 22.3017C13.8389 21.8917 13.7569 21.4818 13.6339 21.1128L20.6442 16.6033C21.4231 17.2182 22.407 17.6282 23.4729 17.6282C25.8507 17.6282 27.7775 15.7014 27.7775 13.3236C27.7775 12.9137 27.6955 12.5037 27.5725 12.1347L34.5828 7.62521C35.3207 8.28115 36.3046 8.6911 37.3705 8.6911C39.7482 8.6911 41.675 6.7643 41.675 4.38655C41.675 2.00879 39.7892 0 37.4115 0C35.0337 0 33.1069 1.9268 33.1069 4.30456C33.1069 4.71451 33.1889 5.12447 33.3119 5.49343L26.3016 10.003C25.5637 9.34704 24.5798 8.93708 23.5139 8.93708C21.1361 8.93708 19.2093 10.8639 19.2093 13.2416C19.2093 13.6516 19.2913 14.0616 19.4143 14.4305L12.404 18.94C11.6661 18.2841 10.6822 17.8742 9.61632 17.8742C7.23857 17.8742 5.31177 19.801 5.31177 22.1787C5.31177 24.5565 7.15658 26.6063 9.53433 26.6063Z" fill="white"/>
<path d="M14 22.5C14 24.9853 11.9853 27 9.49997 27C7.01469 27 4.99997 24.9853 4.99997 22.5C4.99997 20.0147 7.01469 18 9.49997 18C11.9853 18 14 20.0147 14 22.5Z" fill="#FFA500"/>
<path d="M28 13.5C28 15.9853 25.9853 18 23.5 18C21.0147 18 19 15.9853 19 13.5C19 11.0147 21.0147 9 23.5 9C25.9853 9 28 11.0147 28 13.5Z" fill="#FFFF00"/>
<path d="M42 4.5C42 6.98528 39.9853 9 37.5 9C35.0147 9 33 6.98528 33 4.5C33 2.01472 35.0147 0 37.5 0C39.9853 0 42 2.01472 42 4.5Z" fill="#1AE11A"/>
<path d="M14.3309 30.0089H4.73792C4.32797 30.0089 4 30.3369 4 30.7468V35.3384C4 35.7483 4.32797 36.0763 4.73792 36.0763H14.2899C14.6999 36.0763 15.0279 35.7483 15.0279 35.3384V30.7468C15.0689 30.3369 14.7409 30.0089 14.3309 30.0089Z" fill="#FFA500"/>
<path d="M28.2694 30.0089H18.6764C18.2664 30.0089 17.9385 30.3369 17.9385 30.7468V35.3384C17.9385 35.7483 18.2664 36.0763 18.6764 36.0763H28.2284C28.6384 36.0763 28.9663 35.7483 28.9663 35.3384V30.7468C29.0073 30.3369 28.6794 30.0089 28.2694 30.0089Z" fill="#FFFF00"/>
<path d="M28.2694 21.0308H18.6764C18.2664 21.0308 17.9385 21.3587 17.9385 21.7687V26.3602C17.9385 26.7702 18.2664 27.0981 18.6764 27.0981H28.2284C28.6384 27.0981 28.9663 26.7702 28.9663 26.3602V21.7687C29.0073 21.3587 28.6794 21.0308 28.2694 21.0308Z" fill="#FFFF00"/>
<path d="M42.2081 30.0089H32.6151C32.2052 30.0089 31.8772 30.3369 31.8772 30.7468V35.3384C31.8772 35.7483 32.2052 36.0763 32.6151 36.0763H42.1671C42.5771 36.0763 42.9051 35.7483 42.9051 35.3384V30.7468C42.9461 30.3369 42.6181 30.0089 42.2081 30.0089Z" fill="#1AE11A"/>
<path d="M42.2081 21.0308H32.6151C32.2052 21.0308 31.8772 21.3587 31.8772 21.7687V26.3602C31.8772 26.7702 32.2052 27.0981 32.6151 27.0981H42.1671C42.5771 27.0981 42.9051 26.7702 42.9051 26.3602V21.7687C42.9461 21.3587 42.6181 21.0308 42.2081 21.0308Z" fill="#1AE11A"/>
<path d="M42.2081 12.0529H32.6151C32.2052 12.0529 31.8772 12.3808 31.8772 12.7908V17.3823C31.8772 17.7923 32.2052 18.1202 32.6151 18.1202H42.1671C42.5771 18.1202 42.9051 17.7923 42.9051 17.3823V12.7908C42.9461 12.3808 42.6181 12.0529 42.2081 12.0529Z" fill="#1AE11A"/>
</g>
<defs>
<filter id="filter0_d" x="0" y="0" width="46.9085" height="44.0763" filterUnits="userSpaceOnUse" color-interpolation-filters="sRGB">
<feFlood flood-opacity="0" result="BackgroundImageFix"/>
<feColorMatrix in="SourceAlpha" type="matrix" values="0 0 0 0 0 0 0 0 0 0 0 0 0 0 0 0 0 0 127 0" result="hardAlpha"/>
<feOffset dy="4"/>
<feGaussianBlur stdDeviation="2"/>
<feComposite in2="hardAlpha" operator="out"/>
<feColorMatrix type="matrix" values="0 0 0 0 0 0 0 0 0 0 0 0 0 0 0 0 0 0 0.1 0"/>
<feBlend mode="normal" in2="BackgroundImageFix" result="effect1_dropShadow"/>
<feBlend mode="normal" in="SourceGraphic" in2="effect1_dropShadow" result="shape"/>
</filter>
</defs>
</svg>
