<svg width="160" height="40" viewBox="0 0 160 40" fill="none" xmlns="http://www.w3.org/2000/svg">
<rect x="0.5" y="0.5" width="159" height="39" rx="19.5" stroke="url(#paint0_linear)"/>
<path d="M57.316 16.2H59.136V24.46H64.26V26H57.316V16.2ZM70.0971 26.14C69.0985 26.14 68.1978 25.9253 67.3951 25.496C66.5925 25.0573 65.9625 24.4553 65.5051 23.69C65.0478 22.9153 64.8191 22.052 64.8191 21.1C64.8191 20.148 65.0478 19.2893 65.5051 18.524C65.9625 17.7493 66.5925 17.1473 67.3951 16.718C68.1978 16.2793 69.0985 16.06 70.0971 16.06C71.0958 16.06 71.9965 16.2793 72.7991 16.718C73.6018 17.1473 74.2318 17.7447 74.6891 18.51C75.1465 19.2753 75.3751 20.1387 75.3751 21.1C75.3751 22.0613 75.1465 22.9247 74.6891 23.69C74.2318 24.4553 73.6018 25.0573 72.7991 25.496C71.9965 25.9253 71.0958 26.14 70.0971 26.14ZM70.0971 24.544C70.7505 24.544 71.3385 24.3993 71.8611 24.11C72.3838 23.8113 72.7945 23.4007 73.0931 22.878C73.3918 22.346 73.5411 21.7533 73.5411 21.1C73.5411 20.4467 73.3918 19.8587 73.0931 19.336C72.7945 18.804 72.3838 18.3933 71.8611 18.104C71.3385 17.8053 70.7505 17.656 70.0971 17.656C69.4438 17.656 68.8558 17.8053 68.3331 18.104C67.8105 18.3933 67.3998 18.804 67.1011 19.336C66.8025 19.8587 66.6531 20.4467 66.6531 21.1C66.6531 21.7533 66.8025 22.346 67.1011 22.878C67.3998 23.4007 67.8105 23.8113 68.3331 24.11C68.8558 24.3993 69.4438 24.544 70.0971 24.544ZM83.9963 20.988H85.7183V24.894C85.2143 25.2953 84.6263 25.6033 83.9543 25.818C83.2823 26.0327 82.5916 26.14 81.8823 26.14C80.8836 26.14 79.9829 25.9253 79.1803 25.496C78.3776 25.0573 77.7476 24.4553 77.2903 23.69C76.8329 22.9247 76.6043 22.0613 76.6043 21.1C76.6043 20.1387 76.8329 19.2753 77.2903 18.51C77.7476 17.7447 78.3776 17.1473 79.1803 16.718C79.9923 16.2793 80.9023 16.06 81.9103 16.06C82.7316 16.06 83.4783 16.1953 84.1503 16.466C84.8223 16.7367 85.3869 17.1333 85.8443 17.656L84.6963 18.776C83.9496 18.0293 83.0489 17.656 81.9943 17.656C81.3036 17.656 80.6876 17.8007 80.1463 18.09C79.6143 18.3793 79.1943 18.7853 78.8863 19.308C78.5876 19.8307 78.4383 20.428 78.4383 21.1C78.4383 21.7533 78.5876 22.3413 78.8863 22.864C79.1943 23.3867 79.6143 23.7973 80.1463 24.096C80.6876 24.3947 81.2989 24.544 81.9803 24.544C82.7456 24.544 83.4176 24.376 83.9963 24.04V20.988ZM88.1187 16.2H89.9387V26H88.1187V16.2ZM101.297 16.2V26H99.7994L94.3954 19.364V26H92.5894V16.2H94.0874L99.4914 22.836V16.2H101.297Z" fill="black"/>
<defs>
<linearGradient id="paint0_linear" x1="4.8" y1="12" x2="156.688" y2="40.8907" gradientUnits="userSpaceOnUse">
<stop stop-color="#DB3CE5"/>
<stop offset="1" stop-color="#794899"/>
</linearGradient>
</defs>
</svg>
