<svg width="180" height="40" viewBox="0 0 180 40" fill="none" xmlns="http://www.w3.org/2000/svg">
<rect width="180" height="40" rx="20" fill="url(#paint0_linear)"/>
<path d="M67.316 16.2H69.136V24.46H74.26V26H67.316V16.2ZM80.0971 26.14C79.0985 26.14 78.1978 25.9253 77.3951 25.496C76.5925 25.0573 75.9625 24.4553 75.5051 23.69C75.0478 22.9153 74.8191 22.052 74.8191 21.1C74.8191 20.148 75.0478 19.2893 75.5051 18.524C75.9625 17.7493 76.5925 17.1473 77.3951 16.718C78.1978 16.2793 79.0985 16.06 80.0971 16.06C81.0958 16.06 81.9965 16.2793 82.7991 16.718C83.6018 17.1473 84.2318 17.7447 84.6891 18.51C85.1465 19.2753 85.3751 20.1387 85.3751 21.1C85.3751 22.0613 85.1465 22.9247 84.6891 23.69C84.2318 24.4553 83.6018 25.0573 82.7991 25.496C81.9965 25.9253 81.0958 26.14 80.0971 26.14ZM80.0971 24.544C80.7505 24.544 81.3385 24.3993 81.8611 24.11C82.3838 23.8113 82.7945 23.4007 83.0931 22.878C83.3918 22.346 83.5411 21.7533 83.5411 21.1C83.5411 20.4467 83.3918 19.8587 83.0931 19.336C82.7945 18.804 82.3838 18.3933 81.8611 18.104C81.3385 17.8053 80.7505 17.656 80.0971 17.656C79.4438 17.656 78.8558 17.8053 78.3331 18.104C77.8105 18.3933 77.3998 18.804 77.1011 19.336C76.8025 19.8587 76.6531 20.4467 76.6531 21.1C76.6531 21.7533 76.8025 22.346 77.1011 22.878C77.3998 23.4007 77.8105 23.8113 78.3331 24.11C78.8558 24.3993 79.4438 24.544 80.0971 24.544ZM93.9963 20.988H95.7183V24.894C95.2143 25.2953 94.6263 25.6033 93.9543 25.818C93.2823 26.0327 92.5916 26.14 91.8823 26.14C90.8836 26.14 89.9829 25.9253 89.1803 25.496C88.3776 25.0573 87.7476 24.4553 87.2903 23.69C86.8329 22.9247 86.6043 22.0613 86.6043 21.1C86.6043 20.1387 86.8329 19.2753 87.2903 18.51C87.7476 17.7447 88.3776 17.1473 89.1803 16.718C89.9923 16.2793 90.9023 16.06 91.9103 16.06C92.7316 16.06 93.4783 16.1953 94.1503 16.466C94.8223 16.7367 95.3869 17.1333 95.8443 17.656L94.6963 18.776C93.9496 18.0293 93.0489 17.656 91.9943 17.656C91.3036 17.656 90.6876 17.8007 90.1463 18.09C89.6143 18.3793 89.1943 18.7853 88.8863 19.308C88.5876 19.8307 88.4383 20.428 88.4383 21.1C88.4383 21.7533 88.5876 22.3413 88.8863 22.864C89.1943 23.3867 89.6143 23.7973 90.1463 24.096C90.6876 24.3947 91.2989 24.544 91.9803 24.544C92.7456 24.544 93.4176 24.376 93.9963 24.04V20.988ZM98.1187 16.2H99.9387V26H98.1187V16.2ZM111.297 16.2V26H109.799L104.395 19.364V26H102.589V16.2H104.087L109.491 22.836V16.2H111.297Z" fill="white"/>
<defs>
<linearGradient id="paint0_linear" x1="6.97374e-07" y1="8" x2="189.245" y2="45.0184" gradientUnits="userSpaceOnUse">
<stop stop-color="#E53C84"/>
<stop offset="1" stop-color="#794899"/>
</linearGradient>
</defs>
</svg>
