<svg width="12" height="13" viewBox="0 0 12 13" fill="none" xmlns="http://www.w3.org/2000/svg">
<g clip-path="url(#clip0_1538_1879)">
<path d="M11.46 6.685C11.46 7.46094 11.3083 8.20206 11.0049 8.90836C10.7015 9.61466 10.2936 10.224 9.78129 10.7363C9.26897 11.2486 8.65966 11.6565 7.95336 11.9599C7.24706 12.2633 6.50594 12.415 5.73 12.415C4.95406 12.415 4.21294 12.2633 3.50664 11.9599C2.80034 11.6565 2.19103 11.2486 1.67871 10.7363C1.16639 10.224 0.758529 9.61466 0.455117 8.90836C0.151706 8.20206 0 7.46094 0 6.685C0 5.77974 0.200202 4.92671 0.600605 4.1259C1.00101 3.32509 1.56431 2.65361 2.29051 2.11145C2.50439 1.95228 2.74189 1.8901 3.00303 1.92492C3.26416 1.95974 3.47182 2.08409 3.62602 2.29797C3.78518 2.50688 3.84611 2.74189 3.80881 3.00303C3.7715 3.26416 3.6484 3.47431 3.43949 3.63348C2.95204 4.00155 2.57527 4.45169 2.30916 4.98391C2.04305 5.51612 1.91 6.08315 1.91 6.685C1.91 7.20229 2.01072 7.69596 2.21217 8.166C2.41361 8.63603 2.68594 9.04266 3.02914 9.38586C3.37234 9.72906 3.77896 10.0014 4.249 10.2028C4.71904 10.4043 5.21271 10.505 5.73 10.505C6.24729 10.505 6.74096 10.4043 7.211 10.2028C7.68104 10.0014 8.08766 9.72906 8.43086 9.38586C8.77406 9.04266 9.04639 8.63603 9.24783 8.166C9.44928 7.69596 9.55 7.20229 9.55 6.685C9.55 6.08315 9.41695 5.51612 9.15084 4.98391C8.88473 4.45169 8.50796 4.00155 8.02051 3.63348C7.8116 3.47431 7.6885 3.26416 7.65119 3.00303C7.61389 2.74189 7.67482 2.50688 7.83398 2.29797C7.98818 2.08409 8.19708 1.95974 8.4607 1.92492C8.72432 1.8901 8.96059 1.95228 9.16949 2.11145C9.89569 2.65361 10.459 3.32509 10.8594 4.1259C11.2598 4.92671 11.46 5.77974 11.46 6.685ZM6.685 0.955V5.73C6.685 5.98865 6.59049 6.21247 6.40148 6.40148C6.21247 6.59049 5.98865 6.685 5.73 6.685C5.47135 6.685 5.24753 6.59049 5.05852 6.40148C4.8695 6.21247 4.775 5.98865 4.775 5.73V0.955C4.775 0.696354 4.8695 0.472526 5.05852 0.283516C5.24753 0.0945052 5.47135 0 5.73 0C5.98865 0 6.21247 0.0945052 6.40148 0.283516C6.59049 0.472526 6.685 0.696354 6.685 0.955Z" fill="#353535"/>
</g>
<defs>
<clipPath id="clip0_1538_1879">
<rect width="11.46" height="12.415" fill="white"/>
</clipPath>
</defs>
</svg>
