<svg width="172" height="32" viewBox="0 0 172 32" fill="none" xmlns="http://www.w3.org/2000/svg">
<g clip-path="url(#clip0)">
<path d="M7.50241 27.5864C7.11243 27.624 6.71869 27.5792 6.34787 27.4551C5.97705 27.331 5.63768 27.1304 5.35266 26.8669C5.06765 26.6034 4.84367 26.283 4.69568 25.9275C4.54769 25.5719 4.47922 25.1894 4.49486 24.8057C4.4819 25.9224 4.7365 27.0266 5.23821 28.0294C5.73993 29.0321 6.47471 29.9056 7.38355 30.5794C7.88881 30.8871 8.43614 31.1228 9.00912 31.2794C9.40376 31.3878 9.80577 31.4685 10.2121 31.521C11.6467 31.0097 12.8889 30.1756 14.7566 27.2269C13.8137 25.8432 12.985 24.3881 12.2783 22.8752C12.168 24.0841 11.6299 25.217 10.7572 26.0781C9.88452 26.9393 8.73211 27.4744 7.49938 27.5909" fill="#353535"/>
<path d="M14.3639 12.7381C12.84 14.2803 11.8129 16.2277 11.4105 18.3379C11.397 18.5604 11.3849 18.7799 11.3804 19.0084C11.3804 19.1145 11.3804 19.2191 11.3804 19.3252C11.3796 20.0854 11.4373 20.8445 11.5533 21.5961C11.7265 22.6155 12.0192 23.6119 12.4255 24.5655C12.6153 25.0184 12.8297 25.4611 13.0676 25.8917C13.3612 26.4244 13.6928 26.9361 14.0601 27.4229C14.4683 27.9349 14.9212 28.4112 15.4135 28.8464C17.7754 30.8645 20.8255 31.9382 23.958 31.8541C25.163 31.8633 26.3662 31.7617 27.5519 31.5505H27.561C27.8718 31.4916 28.1775 31.4213 28.4783 31.3398C24.5525 30.9907 20.9167 29.1667 18.3323 26.2498C18.1819 26.0907 18.0526 25.9227 17.9203 25.7503C17.8391 25.6574 17.7533 25.5661 17.6751 25.4703C17.458 25.1982 17.2605 24.9116 17.0841 24.6126C16.9774 24.4343 16.8782 24.253 16.7835 24.0659C16.6602 23.8227 16.5519 23.5693 16.4511 23.3114C16.0144 22.1621 15.777 20.9492 15.7488 19.7231C15.7488 19.6362 15.7488 19.5507 15.7413 19.4652C15.7413 19.4166 15.7413 19.3694 15.7413 19.3179C15.7413 19.2663 15.7413 19.2162 15.7413 19.1705C15.7413 18.9789 15.7518 18.7888 15.7624 18.6002V18.5353C15.7744 18.3526 15.7895 18.1713 15.809 17.9915C15.848 16.9413 16.0999 15.9091 16.5499 14.9551C16.9999 14.0012 17.639 13.1445 18.4301 12.4349C19.2213 11.7253 20.1485 11.1771 21.1579 10.8221C22.1673 10.467 23.2387 10.3123 24.3098 10.367C25.4281 10.3515 26.5412 10.5193 27.603 10.8636C27.379 10.7752 27.1519 10.6912 26.9279 10.6146C25.3814 10.0822 23.7549 9.80722 22.1158 9.8011C20.6887 9.76267 19.2681 10.0027 17.9365 10.5071C16.6049 11.0116 15.389 11.7704 14.3594 12.7395" fill="#353535"/>
<path d="M2.23455 0.000190975C1.9461 -0.00625896 1.6592 0.0433442 1.39042 0.146124C1.12164 0.248905 0.876302 0.402842 0.668547 0.599035C0.460792 0.795228 0.294742 1.0298 0.179986 1.28922C0.0652314 1.54863 0.00409487 1.82774 0 2.11045V21.3561C0 23.1893 0.405996 27.5277 1.83759 29.3727C2.54826 30.2837 3.49114 30.9952 4.57144 31.4358C5.45881 31.7977 6.40889 31.9893 7.36999 32.0002C7.92513 32.0082 8.47954 31.9588 9.0241 31.8528C9.24215 31.8101 9.46017 31.7614 9.67521 31.7054C9.86168 31.6539 10.0481 31.5935 10.2316 31.5272C9.82 31.4758 9.41286 31.3945 9.01355 31.284C8.44057 31.1274 7.89325 30.8917 7.38798 30.584C5.15939 29.2076 4.54742 26.6833 4.42862 24.2769V10.3864H10.0061C10.4811 10.3864 10.9366 10.2015 11.2725 9.87231C11.6084 9.54316 11.7971 9.09675 11.7971 8.63127C11.7971 8.16579 11.6084 7.71937 11.2725 7.39023C10.9366 7.06108 10.4811 6.87615 10.0061 6.87615H4.42862V2.11045C4.42949 1.82984 4.37305 1.55187 4.26268 1.29295C4.15231 1.03403 3.99024 0.799392 3.78596 0.602768C3.58167 0.406144 3.33924 0.251539 3.07308 0.148058C2.80692 0.0445777 2.52239 -0.00570535 2.23611 0.000190975" fill="#353535"/>
<path d="M2.23455 0.000190976C1.9461 -0.00625896 1.6592 0.0433442 1.39042 0.146124C1.12164 0.248905 0.876302 0.402842 0.668547 0.599035C0.460792 0.795228 0.294742 1.0298 0.179986 1.28922C0.0652314 1.54863 0.00409487 1.82774 0 2.11045C0 2.11045 0 11.2367 0 14.9591C0 10.0239 1.9278 6.87615 4.42256 6.87615V2.11045C4.42363 1.82991 4.36737 1.552 4.25717 1.29309C4.14697 1.03417 3.98508 0.799457 3.78091 0.602813C3.57674 0.406169 3.33448 0.251556 3.0684 0.148058C2.80232 0.0445607 2.51782 -0.00570869 2.23161 0.000190976" fill="#353535"/>
<path d="M39.4644 8.05188H39.4561V8.06155H39.4644V8.05188Z" fill="#353535"/>
<path d="M47.1103 25.1785C47.1103 27.3669 45.5509 28.3748 43.1403 28.3748C41.6553 28.3348 40.195 27.9915 38.8531 27.3669C38.6378 27.2416 38.3983 27.1615 38.1497 27.1319C37.9012 27.1022 37.6491 27.1235 37.4094 27.1945C37.1697 27.2655 36.9477 27.3846 36.7576 27.5442C36.5674 27.7038 36.4133 27.9005 36.3049 28.1216C36.1965 28.3428 36.1362 28.5837 36.1279 28.8289C36.1197 29.0741 36.1636 29.3184 36.2569 29.5461C36.3502 29.7738 36.4908 29.9799 36.6698 30.1515C36.8488 30.323 37.0623 30.4562 37.2967 30.5426C37.9195 30.8554 38.5698 31.1128 39.2396 31.3118C41.5153 31.9454 43.9103 32.0514 46.2351 31.6213C47.1648 31.4741 48.043 31.104 48.7915 30.544C48.8676 30.4793 48.9357 30.4061 48.9945 30.3259C49.364 29.7157 49.5433 29.0129 49.5104 28.3041C49.4683 27.2897 49.2111 26.295 48.7552 25.3834C48.2992 24.4718 47.6545 23.6633 46.8621 23.0093C46.3857 22.4856 45.8317 22.035 45.2186 21.6727C45.808 22.0556 46.2901 22.577 46.6211 23.1894C46.9521 23.8017 47.1212 24.4856 47.1133 25.1785" fill="#353535"/>
<path d="M38.581 8.858C38.4958 8.93148 38.4144 9.00922 38.3373 9.09086C37.7282 9.67384 37.2203 10.3503 36.8335 11.0935C36.4889 11.7522 36.2022 12.4385 35.9764 13.1448C35.7193 13.9318 35.5118 14.7408 35.3268 15.5601C34.9282 18.2756 34.1447 20.9232 32.9989 23.4264C31.9593 25.2494 30.3486 26.6962 28.4049 27.5525C27.1163 28.1163 25.7182 28.3989 24.3071 28.3807C23.5537 28.3851 22.8021 28.3065 22.0665 28.1464C20.4542 27.8088 18.9972 26.9674 17.9146 25.7488C18.0469 25.9212 18.1838 26.0893 18.3267 26.2484C20.911 29.1653 24.5467 30.9892 28.4725 31.3383C29.067 31.1852 29.6436 30.9718 30.1929 30.7017C30.7922 30.3994 31.3682 30.0546 31.9162 29.6702C32.7727 29.06 33.5565 28.3576 34.253 27.5762C35.3834 26.3031 36.2974 24.8601 36.9599 23.3026C37.2246 22.6846 37.4529 22.0524 37.644 21.4089C37.7493 21.0553 37.8471 20.6957 37.9358 20.3376C38.2276 19.1956 38.5374 17.7131 38.7885 16.5533C38.3278 15.3937 38.0083 14.1848 37.8366 12.9518C37.8071 11.9997 37.9417 11.0496 38.235 10.1415C38.303 9.77619 38.4397 9.42643 38.6381 9.11002C38.6561 9.0717 38.7087 9.03632 38.7283 8.99948C38.7478 8.96264 39.0576 8.76959 38.9719 8.71359L39.5178 8.12415C39.4441 8.17867 38.6546 8.79172 38.5855 8.85066" fill="#353535"/>
<path d="M20.1958 7.36225C19.1435 7.63924 18.1354 8.05779 17.2003 8.60599C16.3228 9.14815 15.5115 9.78695 14.7822 10.5099C14.6754 10.616 14.5642 10.7192 14.462 10.8297C14.086 11.2338 13.7425 11.6659 13.4348 12.1221C13.2469 12.405 13.0724 12.6953 12.91 12.996C12.0306 14.6514 11.5182 16.4704 11.4062 18.3335C11.8087 16.2233 12.8359 14.2758 14.3597 12.7336C17.6515 9.50932 22.6996 9.16451 26.9222 10.6087C27.1492 10.6853 27.3734 10.7693 27.5974 10.8577C28.1072 11.0567 28.6079 11.2791 29.1012 11.5194C29.2516 11.5886 29.3869 11.6668 29.5297 11.7404C29.8491 11.9358 30.2165 12.0432 30.5929 12.0514C30.7457 12.0518 30.8976 12.0305 31.044 11.988C31.4302 11.8741 31.7679 11.6397 32.0057 11.3205C32.2434 11.0013 32.3683 10.6148 32.3613 10.2196C32.3635 9.93318 32.2895 9.65114 32.1465 9.40127C32.0036 9.1514 31.7967 8.94229 31.5463 8.7946C29.9192 7.78366 28.0652 7.17671 26.1448 7.02626C25.3872 6.93043 24.6244 6.88121 23.8606 6.87889C22.6204 6.86992 21.3851 7.03265 20.1914 7.36225" fill="#353535"/>
<path d="M39.7115 7.99745C38.9674 8.49385 38.4289 9.23438 38.1928 10.0856C38.0013 10.6081 37.9633 11.1728 38.083 11.7154C38.3845 12.5462 38.982 13.2422 39.7657 13.6754C41.0739 14.5404 42.5476 15.1401 43.889 15.9595C43.1566 15.4741 42.5299 14.851 42.0454 14.1263C41.8065 13.762 41.6623 13.3458 41.6254 12.9143C41.5884 12.4827 41.6598 12.0489 41.8333 11.6506C42.0038 11.3469 42.2363 11.0808 42.5162 10.8689C42.7961 10.6569 43.1176 10.5037 43.4605 10.4186C44.1499 10.2516 44.8677 10.2315 45.5657 10.3597C46.3684 10.4899 47.1572 10.6922 47.9221 10.9639C48.304 11.1231 48.7109 11.2168 49.1251 11.2409C49.3739 11.2383 49.619 11.1811 49.8422 11.0734C50.0655 10.9658 50.2613 10.8105 50.4152 10.6189C50.5692 10.4274 50.6773 10.2045 50.7317 9.96654C50.7861 9.72862 50.7854 9.48178 50.7297 9.24416C50.6065 8.87883 50.4007 8.54549 50.1275 8.26912C49.8543 7.99276 49.5209 7.7805 49.1522 7.6482C48.107 7.23593 46.9969 7.0036 45.871 6.96148C44.8765 6.86666 43.8751 6.86323 42.88 6.95118C41.8952 7.03748 40.9394 7.32245 40.0725 7.7882C40.0214 7.81619 39.9702 7.84714 39.9221 7.87661L39.7115 7.99745Z" fill="#353535"/>
<path d="M38.8963 16.7419C39.6464 17.7733 40.604 18.6434 41.71 19.2987C42.8633 20.0901 44.0092 20.8888 45.1821 21.6565C46.0002 22.1985 46.7393 22.8469 47.3791 23.584C48.6781 24.8664 49.4307 26.5849 49.4844 28.391C49.4752 28.7195 49.4247 29.0457 49.3341 29.3621C49.179 29.9708 48.8173 30.5096 48.3085 30.8903C49.5385 30.155 50.4935 29.0505 51.0318 27.7409C51.5701 26.4312 51.663 24.9863 51.2965 23.6209C50.6439 20.8725 48.3957 19.0084 46.1596 17.4316C45.7085 17.1163 45.2574 16.8097 44.7957 16.5165C44.334 16.2232 43.8648 15.9462 43.3881 15.675C42.9986 15.454 42.6122 15.233 42.2272 14.9986C41.6829 14.6789 41.1415 14.3561 40.6167 14.0098C39.7248 13.4991 38.9837 12.7699 38.4663 11.8937C38.1885 11.3563 38.0872 10.7479 38.176 10.1519C37.8354 11.2427 37.7236 12.3898 37.8471 13.5241C37.9706 14.6584 38.327 15.7565 38.8949 16.7523" fill="#353535"/>
<path d="M86.3122 10.2948C86.4399 9.92042 86.6897 9.59754 87.0231 9.37598C87.3566 9.15442 87.7551 9.04648 88.1573 9.06878C88.3992 9.05509 88.6414 9.09011 88.8689 9.17163C89.0964 9.25315 89.3045 9.37945 89.4804 9.54278C89.6562 9.70611 89.796 9.903 89.8913 10.1213C89.9865 10.3396 90.0351 10.5747 90.0341 10.8121C90.0081 11.075 89.9531 11.3344 89.8702 11.5858L83.7046 29.7911C83.5218 30.3335 83.169 30.8056 82.6966 31.1403C82.2241 31.475 81.656 31.6551 81.073 31.6551C80.4901 31.6551 79.9219 31.475 79.4495 31.1403C78.977 30.8056 78.6243 30.3335 78.4414 29.7911L73.5016 15.9109L68.6594 29.7911C68.4814 30.3346 68.1319 30.8087 67.6612 31.1451C67.1906 31.4814 66.6231 31.6627 66.0406 31.6627C65.4581 31.6627 64.8906 31.4814 64.4199 31.1451C63.9493 30.8087 63.5998 30.3346 63.4218 29.7911L57.1646 11.518C57.0889 11.2991 57.0443 11.0709 57.0322 10.8401C57.0373 10.6002 57.0908 10.3637 57.1898 10.1442C57.2888 9.92472 57.4313 9.72669 57.6089 9.56153C57.7865 9.39638 57.9958 9.2674 58.2247 9.18206C58.4535 9.09672 58.6973 9.05672 58.942 9.06437C59.3526 9.04837 59.7562 9.17154 60.0849 9.41313C60.4136 9.65471 60.6473 9.99993 60.7466 10.3906L66.0504 26.9808L71.5496 10.4555C71.6627 10.0346 71.9222 9.6657 72.2832 9.41227C72.6442 9.15885 73.0841 9.03682 73.5271 9.06729C73.9681 9.02624 74.4092 9.1448 74.7671 9.40053C75.125 9.65626 75.3751 10.0315 75.4701 10.4555L81.1017 26.9808L86.3122 10.2948Z" fill="#353535"/>
<path d="M103.61 29.1456C103.61 29.8559 103.082 30.3407 102.063 30.7916C100.634 31.3771 99.0999 31.6739 97.5515 31.664C96.457 31.7132 95.364 31.5375 94.3429 31.1482C93.3218 30.7589 92.395 30.1646 91.6222 29.4035C90.2193 27.8755 89.4754 25.8741 89.547 23.8199C89.5055 21.838 90.2493 19.9175 91.6222 18.4617C93.0872 17.1296 95.0068 16.3814 97.0052 16.3634C99.0037 16.3454 100.937 17.059 102.427 18.3645C103.636 19.6438 104.284 21.3372 104.231 23.0801C104.255 23.3139 104.229 23.5501 104.154 23.7733C104.078 23.9964 103.956 24.2015 103.794 24.3752C103.633 24.5488 103.436 24.6872 103.216 24.7811C102.996 24.8751 102.758 24.9227 102.519 24.9207H93.0958C93.1644 25.9091 93.558 26.8491 94.2177 27.5998C94.6644 28.084 95.215 28.4653 95.8299 28.7162C96.4448 28.9672 97.1087 29.0816 97.7741 29.0513C98.8089 29.0498 99.8311 28.8297 100.771 28.4058C101.496 28.0831 101.858 27.7928 102.353 27.7928C102.702 27.81 103.031 27.9619 103.266 28.2153C103.502 28.4687 103.625 28.8031 103.61 29.1456ZM100.941 22.6616C100.94 21.728 100.601 20.825 99.9862 20.1122C99.615 19.7504 99.1724 19.4665 98.6856 19.2777C98.1988 19.089 97.6779 18.9993 97.1546 19.0143C96.5897 18.9898 96.0257 19.0805 95.4984 19.2806C94.9712 19.4807 94.492 19.786 94.0914 20.177C93.51 20.8865 93.1646 21.7537 93.1019 22.6616H100.941Z" fill="#353535"/>
<path d="M124.233 13.6194C122.88 13.6194 122.027 12.3609 118.732 12.3609C116.602 12.3896 114.57 13.2449 113.082 14.7394C111.594 16.2338 110.771 18.2454 110.794 20.3333C110.75 21.3778 110.926 22.42 111.309 23.3958C111.692 24.3715 112.275 25.26 113.021 26.0068C113.768 26.7536 114.662 27.3428 115.65 27.7381C116.637 28.1335 117.697 28.3266 118.764 28.3056C121.922 28.3056 123.177 27.0472 124.395 27.0472C124.621 27.0429 124.846 27.0835 125.056 27.1663C125.266 27.2492 125.456 27.3727 125.616 27.5294C125.776 27.6861 125.902 27.8728 125.986 28.0784C126.071 28.2839 126.112 28.5041 126.108 28.7256C126.108 31.0835 120.544 31.664 118.764 31.664C112.109 31.664 106.938 27.2431 106.938 20.3333C106.95 18.8271 107.268 17.3383 107.872 15.9536C108.477 14.5689 109.357 13.3159 110.46 12.2676C111.564 11.2193 112.869 10.3966 114.301 9.84742C115.732 9.29825 117.26 9.03355 118.797 9.06878C121.464 9.06878 125.878 9.77909 125.878 11.9424C125.886 12.1592 125.849 12.3753 125.77 12.5779C125.691 12.7805 125.571 12.9654 125.417 13.1218C125.264 13.2782 125.08 13.4028 124.877 13.4883C124.673 13.5738 124.454 13.6183 124.233 13.6194Z" fill="#353535"/>
<path d="M131.284 23.4647C133.326 22.7919 135.456 22.4113 137.609 22.3344V21.9468C137.677 21.1654 137.455 20.386 136.983 19.7526C136.702 19.4603 136.358 19.2332 135.977 19.0879C135.595 18.9425 135.184 18.8826 134.776 18.9126C133.809 18.9226 132.856 19.132 131.977 19.5271C131.48 19.8035 130.93 19.9789 130.362 20.0429C130.201 20.0461 130.041 20.0174 129.892 19.9586C129.743 19.8997 129.607 19.8119 129.494 19.7005C129.38 19.589 129.29 19.4561 129.23 19.3098C129.17 19.1636 129.141 19.0069 129.144 18.8492C129.144 18.0093 129.934 17.5584 130.89 17.1708C132.241 16.6399 133.683 16.3658 135.138 16.3632C135.976 16.3082 136.817 16.4263 137.606 16.7099C138.395 16.9934 139.114 17.4361 139.717 18.0093C140.632 19.1171 141.08 20.5259 140.968 21.9468V30.0518C140.955 30.4219 140.817 30.7771 140.575 31.062C140.334 31.347 140.003 31.5455 139.634 31.6267C139.266 31.7078 138.88 31.667 138.537 31.5105C138.195 31.3541 137.915 31.091 137.741 30.7621C136.45 31.4143 135.009 31.7262 133.558 31.667C130.89 31.667 128.386 30.1167 128.386 27.2461C128.388 26.3938 128.672 25.5651 129.194 24.8836C129.716 24.2021 130.449 23.7044 131.284 23.4647ZM137.609 28.4028V24.6259C134.052 24.8204 131.615 25.4659 131.615 27.1768C131.615 28.5973 133.063 29.2399 134.612 29.2399C135.668 29.2235 136.701 28.9347 137.607 28.4028H137.609Z" fill="#353535"/>
<path d="M155.233 17.0087C155.562 17.1482 155.842 17.3778 156.041 17.6698C156.24 17.9618 156.348 18.3038 156.353 18.6547C156.364 18.8474 156.335 19.0403 156.266 19.2214C156.198 19.4024 156.093 19.5678 155.957 19.7072C155.82 19.8466 155.656 19.9571 155.475 20.0318C155.293 20.1066 155.098 20.1439 154.901 20.1416C153.913 20.1416 153.451 19.3341 151.968 19.3341C149.433 19.3341 148.611 21.9483 148.611 24.2413V30.0503C148.603 30.4827 148.423 30.8949 148.109 31.1982C147.794 31.5015 147.371 31.6714 146.929 31.6714C146.709 31.6767 146.491 31.6386 146.286 31.5594C146.082 31.4801 145.895 31.3613 145.739 31.21C145.582 31.0588 145.458 30.8782 145.374 30.6789C145.29 30.4797 145.247 30.2659 145.25 30.0503V17.9783C145.263 17.5501 145.445 17.1437 145.759 16.8453C146.073 16.5469 146.493 16.38 146.93 16.38C147.367 16.38 147.787 16.5469 148.101 16.8453C148.415 17.1437 148.598 17.5501 148.611 17.9783V18.4307C149.021 17.7796 149.599 17.246 150.287 16.8838C150.975 16.5216 151.749 16.3436 152.529 16.3676C153.471 16.3567 154.401 16.5771 155.233 17.0087Z" fill="#353535"/>
<path d="M171.376 29.1455C171.376 29.8558 170.848 30.3407 169.827 30.7916C168.399 31.3771 166.864 31.6739 165.316 31.664C164.221 31.7132 163.129 31.5375 162.107 31.1482C161.086 30.7589 160.159 30.1646 159.387 29.4035C157.983 27.8776 157.238 25.8785 157.307 23.8257C157.265 21.8441 158.008 19.9236 159.381 18.4676C160.846 17.1355 162.765 16.3872 164.764 16.3692C166.762 16.3512 168.695 17.0648 170.185 18.3703C171.394 19.6497 172.042 21.3431 171.99 23.0859C172.014 23.3198 171.988 23.5561 171.913 23.7794C171.837 24.0026 171.715 24.2078 171.553 24.3815C171.392 24.5553 171.194 24.6936 170.974 24.7875C170.755 24.8814 170.517 24.9288 170.277 24.9266H160.857C160.926 25.9146 161.319 26.8545 161.978 27.6056C162.424 28.0898 162.975 28.4712 163.59 28.7221C164.205 28.9731 164.869 29.0875 165.534 29.0571C166.569 29.0558 167.591 28.8357 168.531 28.4117C169.257 28.089 169.62 27.7987 170.113 27.7987C170.462 27.8147 170.791 27.9652 171.027 28.2175C171.264 28.4697 171.389 28.8032 171.376 29.1455ZM168.707 22.6615C168.704 21.7283 168.366 20.8259 167.752 20.1122C167.381 19.7503 166.938 19.4664 166.451 19.2776C165.964 19.0889 165.443 18.9993 164.919 19.0143C164.354 18.9897 163.79 19.0804 163.263 19.2806C162.736 19.4807 162.256 19.7859 161.856 20.177C161.275 20.8869 160.931 21.754 160.868 22.6615H168.707Z" fill="#353535"/>
</g>
<defs>
<clipPath id="clip0">
<rect width="172" height="32" fill="white"/>
</clipPath>
</defs>
</svg>
