<svg width="33" height="45" viewBox="0 0 33 45" fill="none" xmlns="http://www.w3.org/2000/svg">
<path d="M29.404 27.6768C29.0281 30.6123 28.7399 33.8328 27.3532 36.3615C25.6006 39.3097 23.0596 41.7054 20.019 43.2765C13.4407 46.8032 5.86834 39.9888 4.14754 33.7238C3.6229 31.7386 3.24321 29.7176 3.01148 27.6768C2.92795 27.0394 2.84859 26.4188 2.76923 25.7814C2.73164 22.8711 3.00731 15.2726 6.94592 16.4719C7.01362 16.5021 7.09037 16.5045 7.15981 16.4786C7.22925 16.4528 7.28589 16.4007 7.31765 16.3335C7.35524 16.3 10.4209 10.7185 15.9801 17.9774C15.9801 17.9774 17.2331 18.489 15.7754 15.4613C16.8814 16.4776 17.814 17.6689 18.5362 18.988C18.5362 18.9545 19.4593 19.5667 18.979 17.3106C20.7875 19.4996 24.2666 22.6489 29.1408 22.3092C29.074 24.406 29.1408 26.314 29.4833 27.1694L29.404 27.6768Z" fill="#FFD0A6"/>
<path d="M10.3375 27.8991C8.63344 27.0604 7.30108 26.293 5.80165 28.1381C5.90998 27.5497 6.2399 27.0257 6.7229 26.6751C7.2059 26.3245 7.80485 26.1741 8.39537 26.2553C7.56003 25.5382 6.65369 25.6053 5.66382 25.7437C7.98606 23.7937 9.55231 25.9995 10.3375 27.8991Z" fill="#D6996B"/>
<path d="M5.86674 22.9424C5.59525 21.5711 8.2558 20.0321 9.34592 20.7156C9.40608 20.7497 9.45502 20.8007 9.48673 20.8624C9.51845 20.924 9.53156 20.9936 9.52447 21.0626C9.51737 21.1316 9.49038 21.197 9.44679 21.2508C9.40321 21.3047 9.34493 21.3446 9.27909 21.3656C6.85661 21.4705 7.06127 22.2924 6.27605 23.1814C6.13822 23.2485 5.86674 23.1101 5.86674 22.9424Z" fill="#D6996B"/>
<path d="M13.0314 30.432C12.7223 29.174 14.1883 28.2766 15.2826 28.4485C15.4497 28.482 15.4163 28.7882 15.2116 28.7882C14.6353 28.8259 13.4741 29.4759 13.779 30.2265C13.9837 30.7423 14.9402 30.7088 15.3829 30.5704C15.4546 30.5646 15.5266 30.5774 15.5919 30.6078C15.6572 30.6381 15.7136 30.6848 15.7556 30.7435C15.7976 30.8021 15.8238 30.8706 15.8317 30.9424C15.8396 31.0142 15.8288 31.0869 15.8005 31.1533C15.2116 32.1094 13.2361 31.4258 13.0314 30.432Z" fill="#D6996B"/>
<path d="M18.248 36.9739C18.5905 39.3348 17.6675 41.4567 16.2014 41.6621C14.7354 41.8676 13.236 40.1231 12.9478 37.7413C12.6596 35.3594 13.5284 33.292 14.9944 33.0865C16.4604 32.881 17.9598 34.6088 18.248 36.9739Z" fill="#D11C1C"/>
<path d="M24.2835 28.004C22.5418 26.4273 21.3598 27.3876 19.781 28.5492C20.2947 26.3602 21.4851 24.1334 24.0454 25.6137C23.0221 25.6473 22.0991 25.7521 21.4183 26.574C21.9874 26.4095 22.5974 26.465 23.1278 26.7297C23.6582 26.9944 24.0705 27.4491 24.2835 28.004Z" fill="#D6996B"/>
<path d="M24.5881 24.1668C24.561 24.2576 24.4993 24.3341 24.4165 24.3796C24.3336 24.4251 24.2362 24.4361 24.1454 24.41C23.4312 23.7558 23.7277 22.9381 21.1465 22.5943C21.0827 22.5648 21.0281 22.5183 20.9888 22.4598C20.9494 22.4013 20.9268 22.3331 20.9233 22.2627C20.9199 22.1922 20.9357 22.1221 20.9692 22.06C21.0027 21.998 21.0525 21.9463 21.1131 21.9107C22.2032 21.2565 24.8638 22.7662 24.5881 24.1668Z" fill="#D6996B"/>
<path d="M32.9959 18.1241C33.0628 14.6058 32.0061 11.1588 29.3497 8.50433L29.1241 8.28208C30.0528 7.80302 30.8557 7.11046 31.4673 6.26083C31.5935 6.0681 31.6999 5.86296 31.7847 5.64859C31.7847 5.64859 28.9195 8.76433 23.1557 4.31087C17.5672 -0.029354 11.3607 1.39642 9.13034 3.12413L8.97162 3.24993C9.24779 2.34742 9.67121 1.49718 10.2246 0.733856C10.4273 0.469837 10.6971 0.265574 11.0057 0.142578C10.7676 0.188706 6.90416 1.0232 5.12072 6.23148L4.64458 5.03215L4.54016 6.47051C4.54016 6.47051 2.92378 6.29019 2.22627 7.14985C2.53003 7.0074 2.86008 6.93027 3.19527 6.9234C3.42314 6.9208 3.64914 6.96504 3.85936 7.0534C3.73406 7.12888 3.61294 7.20855 3.50016 7.29242C1.09439 9.02013 0.250702 12.6559 0.242349 16.4593V16.518C0.246092 20.0153 0.858121 23.4851 2.05085 26.771C2.0029 26.7586 1.95401 26.7502 1.90467 26.7459C0.0961649 26.5278 -0.705759 30.26 0.756081 31.5642C1.17375 31.9835 2.66483 32.7257 3.14097 32.2812C3.82595 36.4831 6.26513 39.7456 9.60648 42.2784C12.1125 44.1613 15.0654 45.5661 18.2021 44.7945C21.51 43.9558 25.599 40.2404 27.3908 37.5021C28.307 36.0702 28.9342 34.4716 29.2369 32.797C32.0812 33.2667 33.944 26.9262 30.9911 26.5488H30.8366C32.1326 24.0117 32.8691 21.2242 32.9959 18.3757C32.9959 18.2919 32.9959 18.208 32.9959 18.1241ZM0.701784 28.0165C1.11945 27.3539 1.84202 26.9681 2.32234 27.2491C2.35993 27.5049 2.4017 27.7607 2.44346 28.0165C2.6523 29.329 2.88201 30.6206 3.10756 31.9416C0.000101121 31.0609 -0.0374891 29.1403 0.701784 28.0165ZM27.3532 36.3573C25.6006 39.3055 23.0596 41.7012 20.019 43.2723C13.4407 46.799 5.86835 39.9846 4.14755 33.7196C3.43334 31.2035 3.12426 28.4149 2.78595 25.7772C2.78595 25.6388 2.78595 25.4878 2.78595 25.3285C2.78595 25.1691 2.78595 25.0685 2.78595 24.9343C2.82354 21.6299 3.35816 15.3732 6.96264 16.4677C7.03034 16.4979 7.10709 16.5003 7.17653 16.4744C7.24597 16.4486 7.3026 16.3965 7.33436 16.3293C7.37195 16.2958 10.4376 10.7143 15.9968 17.9732C15.9968 17.9732 16.4145 18.1367 16.4855 17.7299C16.5398 17.4741 16.4855 16.9961 16.0678 16.1155C15.9843 15.9226 15.884 15.6961 15.7713 15.4739C16.8772 16.4901 17.8098 17.6815 18.5321 19.0006C18.5321 18.9754 19.0249 19.2983 19.1043 18.5812C19.1246 18.3078 19.1092 18.0329 19.0583 17.7635C19.0374 17.6293 19.0082 17.4783 18.9748 17.3148C20.7708 19.5122 24.2499 22.6447 29.1241 22.3218V22.6656C29.1241 22.7831 29.1241 22.9005 29.1241 23.0137C29.1241 23.2443 29.1241 23.4666 29.1241 23.6847C29.1241 25.2153 29.2244 26.5194 29.4917 27.182C29.4917 27.2701 29.4666 27.3581 29.4583 27.4462C29.0406 30.4235 28.7775 33.7615 27.3532 36.3573ZM29.3288 32.2896C29.6086 30.8932 29.7715 29.4339 29.9804 28.0249L30.043 27.6055C30.2839 27.4213 30.482 27.1866 30.6236 26.9178C30.9093 26.9808 31.1743 27.116 31.3935 27.3104C31.6128 27.5048 31.779 27.7522 31.8766 28.0291C32.3235 29.3542 31.1582 31.4132 29.3288 32.2896Z" fill="#5B5B68"/>
<path d="M30.9829 26.0623C30.9327 26.1714 30.8784 26.2804 30.8241 26.3894V26.0456L30.6195 26.4188C30.4779 26.6876 30.2798 26.9222 30.0389 27.1065L29.9763 27.5259H29.3999L29.4625 27.0352C29.4625 27.0101 29.4417 26.9849 29.4333 26.9555C29.1702 26.2175 29.0825 24.8085 29.0992 23.1814C29.0992 22.9634 29.0992 22.7621 29.0992 22.5105V22.1624C24.3169 22.5105 20.8836 19.466 19.0459 17.2854L18.9582 17.1932C19.0292 17.4962 19.0739 17.8049 19.0918 18.1157C19.1503 19.2564 18.5154 18.8412 18.5154 18.8706C17.8674 17.6725 17.0374 16.5832 16.0554 15.6416C15.9551 15.5368 15.8549 15.4403 15.7547 15.3439C16.0837 15.9415 16.3189 16.5865 16.4522 17.2561C16.5566 18.0948 15.9593 17.8432 15.9593 17.8432C10.4001 10.5843 7.33446 16.1658 7.29687 16.1993C7.26511 16.2665 7.20847 16.3186 7.13903 16.3444C7.06959 16.3703 6.99284 16.3679 6.92514 16.3377C3.4585 15.2642 2.84035 21.0721 2.76934 24.4479C2.76934 24.5821 2.76934 24.7162 2.76934 24.842C2.76934 25.1314 2.76934 25.3998 2.76934 25.6346C2.8487 26.2594 2.92806 26.8926 3.01159 27.5301H2.44356C2.40179 27.2743 2.36003 27.0185 2.32244 26.7626C2.39112 26.5881 2.40851 26.3975 2.37256 26.2133C2.34 26.0694 2.27834 25.9337 2.19141 25.8147C2.10447 25.6957 1.99412 25.5958 1.86718 25.5214L2.32661 24.4185C2.32661 24.6827 2.32661 24.9678 2.28485 25.2572C2.24027 25.7197 2.16068 26.1781 2.04678 26.6285C2.00083 26.511 1.95071 26.3852 1.90477 26.2594C0.771876 22.9705 0.206859 19.5115 0.234094 16.0316V15.9729C0.300921 12.1107 1.2532 8.47917 3.85528 6.91082C3.74108 6.86304 3.62204 6.82789 3.50026 6.80598C3.06382 6.74756 2.61986 6.81748 2.2222 7.00727C2.4822 6.72338 2.8213 6.52465 3.19536 6.43696C3.63347 6.32813 4.08624 6.29131 4.53608 6.32793L4.6405 4.88957L5.11664 6.0889C6.45736 2.17221 8.97172 0.729662 10.2414 0.21806C10.4877 0.122347 10.7421 0.049359 11.0016 0C10.1036 0.310316 9.42698 1.84512 9.13043 2.63769C9.02602 2.91865 8.96754 3.10735 8.96754 3.10735C11.0559 1.32933 17.4253 -0.280962 23.1683 4.1683C27.8336 7.77048 30.5986 6.42018 31.4841 5.77439C31.5944 5.69531 31.6978 5.60693 31.7931 5.5102C31.2794 6.81018 29.9094 7.70338 29.3665 8.02628C29.2245 8.10595 29.1368 8.14789 29.1368 8.14789C31.8558 10.7394 32.996 14.1445 32.996 17.6377C32.996 17.7216 32.996 17.8054 32.996 17.8893C32.9247 20.7282 32.2377 23.5173 30.9829 26.0623Z" fill="#40404C"/>
</svg>
