<svg width="43" height="51" viewBox="0 0 43 51" fill="none" xmlns="http://www.w3.org/2000/svg">
<g clip-path="url(#clip0)">
<path d="M29.404 33.6768C29.0281 36.6123 28.7399 39.8328 27.3532 42.3615C25.6006 45.3097 23.0596 47.7054 20.019 49.2765C13.4407 52.8032 5.86834 45.9888 4.14754 39.7238C3.6229 37.7386 3.24321 35.7176 3.01148 33.6768C2.92795 33.0394 2.84859 32.4188 2.76923 31.7814C2.73164 28.8711 3.00731 21.2726 6.94592 22.4719C7.01362 22.5021 7.09037 22.5045 7.15981 22.4786C7.22925 22.4528 7.28589 22.4007 7.31765 22.3335C7.35524 22.3 10.4209 16.7185 15.9801 23.9774C15.9801 23.9774 17.2331 24.489 15.7754 21.4613C16.8814 22.4776 17.814 23.6689 18.5362 24.988C18.5362 24.9545 19.4593 25.5667 18.979 23.3106C20.7875 25.4996 24.2666 28.6489 29.1408 28.3092C29.074 30.406 29.1408 32.314 29.4833 33.1694L29.404 33.6768Z" fill="#FFD0A6"/>
<path d="M10.3375 33.8991C8.63344 33.0604 7.30108 32.293 5.80165 34.1381C5.90998 33.5497 6.2399 33.0257 6.7229 32.6751C7.2059 32.3245 7.80485 32.1741 8.39537 32.2553C7.56003 31.5382 6.65369 31.6053 5.66382 31.7437C7.98606 29.7937 9.55231 31.9995 10.3375 33.8991Z" fill="#D6996B"/>
<path d="M5.86674 28.9424C5.59525 27.5711 8.2558 26.0321 9.34592 26.7156C9.40608 26.7497 9.45502 26.8007 9.48673 26.8624C9.51845 26.924 9.53156 26.9936 9.52447 27.0626C9.51737 27.1316 9.49038 27.197 9.44679 27.2508C9.40321 27.3047 9.34493 27.3446 9.27909 27.3656C6.85661 27.4705 7.06127 28.2924 6.27605 29.1814C6.13822 29.2485 5.86674 29.1101 5.86674 28.9424Z" fill="#D6996B"/>
<path d="M13.0314 36.432C12.7223 35.174 14.1883 34.2766 15.2826 34.4485C15.4497 34.482 15.4163 34.7882 15.2116 34.7882C14.6353 34.8259 13.4741 35.4759 13.779 36.2265C13.9837 36.7423 14.9402 36.7088 15.3829 36.5704C15.4546 36.5646 15.5266 36.5774 15.5919 36.6078C15.6572 36.6381 15.7136 36.6848 15.7556 36.7435C15.7976 36.8021 15.8238 36.8706 15.8317 36.9424C15.8396 37.0142 15.8288 37.0869 15.8005 37.1533C15.2116 38.1094 13.2361 37.4258 13.0314 36.432Z" fill="#D6996B"/>
<path d="M18.248 42.9739C18.5905 45.3348 17.6675 47.4567 16.2014 47.6621C14.7354 47.8676 13.236 46.1231 12.9478 43.7413C12.6596 41.3594 13.5284 39.292 14.9944 39.0865C16.4604 38.881 17.9598 40.6088 18.248 42.9739Z" fill="#D11C1C"/>
<path d="M24.2835 34.004C22.5418 32.4273 21.3598 33.3876 19.781 34.5492C20.2947 32.3602 21.4851 30.1334 24.0454 31.6137C23.0221 31.6473 22.0991 31.7521 21.4183 32.574C21.9874 32.4095 22.5974 32.465 23.1278 32.7297C23.6582 32.9944 24.0705 33.4491 24.2835 34.004Z" fill="#D6996B"/>
<path d="M24.5881 30.1668C24.561 30.2576 24.4993 30.3341 24.4165 30.3796C24.3336 30.4251 24.2362 30.4361 24.1454 30.41C23.4312 29.7558 23.7277 28.9381 21.1465 28.5943C21.0827 28.5648 21.0281 28.5183 20.9888 28.4598C20.9494 28.4013 20.9268 28.3331 20.9233 28.2627C20.9199 28.1922 20.9357 28.1221 20.9692 28.06C21.0027 27.998 21.0525 27.9463 21.1131 27.9107C22.2032 27.2565 24.8638 28.7662 24.5881 30.1668Z" fill="#D6996B"/>
<path d="M32.9959 24.1241C33.0628 20.6058 32.0061 17.1588 29.3497 14.5043L29.1241 14.2821C30.0528 13.803 30.8557 13.1105 31.4673 12.2608C31.5935 12.0681 31.6999 11.863 31.7847 11.6486C31.7847 11.6486 28.9195 14.7643 23.1557 10.3109C17.5672 5.97065 11.3607 7.39642 9.13034 9.12413L8.97162 9.24993C9.24779 8.34742 9.67121 7.49718 10.2246 6.73386C10.4273 6.46984 10.6971 6.26557 11.0057 6.14258C10.7676 6.18871 6.90416 7.0232 5.12072 12.2315L4.64458 11.0322L4.54016 12.4705C4.54016 12.4705 2.92378 12.2902 2.22627 13.1498C2.53003 13.0074 2.86008 12.9303 3.19527 12.9234C3.42314 12.9208 3.64914 12.965 3.85936 13.0534C3.73406 13.1289 3.61294 13.2086 3.50016 13.2924C1.09439 15.0201 0.250702 18.6559 0.242349 22.4593V22.518C0.246092 26.0153 0.858121 29.4851 2.05085 32.771C2.0029 32.7586 1.95401 32.7502 1.90467 32.7459C0.0961649 32.5278 -0.705759 36.26 0.756081 37.5642C1.17375 37.9835 2.66483 38.7257 3.14097 38.2812C3.82595 42.4831 6.26513 45.7456 9.60648 48.2784C12.1125 50.1613 15.0654 51.5661 18.2021 50.7945C21.51 49.9558 25.599 46.2404 27.3908 43.5021C28.307 42.0702 28.9342 40.4716 29.2369 38.797C32.0812 39.2667 33.944 32.9262 30.9911 32.5488H30.8366C32.1326 30.0117 32.8691 27.2242 32.9959 24.3757C32.9959 24.2919 32.9959 24.208 32.9959 24.1241ZM0.701784 34.0165C1.11945 33.3539 1.84202 32.9681 2.32234 33.2491C2.35993 33.5049 2.4017 33.7607 2.44346 34.0165C2.6523 35.329 2.88201 36.6206 3.10756 37.9416C0.000101121 37.0609 -0.0374891 35.1403 0.701784 34.0165ZM27.3532 42.3573C25.6006 45.3055 23.0596 47.7012 20.019 49.2723C13.4407 52.799 5.86835 45.9846 4.14755 39.7196C3.43334 37.2035 3.12426 34.4149 2.78595 31.7772C2.78595 31.6388 2.78595 31.4878 2.78595 31.3285C2.78595 31.1691 2.78595 31.0685 2.78595 30.9343C2.82354 27.6299 3.35816 21.3732 6.96264 22.4677C7.03034 22.4979 7.10709 22.5003 7.17653 22.4744C7.24597 22.4486 7.3026 22.3965 7.33436 22.3293C7.37195 22.2958 10.4376 16.7143 15.9968 23.9732C15.9968 23.9732 16.4145 24.1367 16.4855 23.7299C16.5398 23.4741 16.4855 22.9961 16.0678 22.1155C15.9843 21.9226 15.884 21.6961 15.7713 21.4739C16.8772 22.4901 17.8098 23.6815 18.5321 25.0006C18.5321 24.9754 19.0249 25.2983 19.1043 24.5812C19.1246 24.3078 19.1092 24.0329 19.0583 23.7635C19.0374 23.6293 19.0082 23.4783 18.9748 23.3148C20.7708 25.5122 24.2499 28.6447 29.1241 28.3218V28.6656C29.1241 28.7831 29.1241 28.9005 29.1241 29.0137C29.1241 29.2443 29.1241 29.4666 29.1241 29.6847C29.1241 31.2153 29.2244 32.5194 29.4917 33.182C29.4917 33.2701 29.4666 33.3581 29.4583 33.4462C29.0406 36.4235 28.7775 39.7615 27.3532 42.3573ZM29.3288 38.2896C29.6086 36.8932 29.7715 35.4339 29.9804 34.0249L30.043 33.6055C30.2839 33.4213 30.482 33.1866 30.6236 32.9178C30.9093 32.9808 31.1743 33.116 31.3935 33.3104C31.6128 33.5048 31.779 33.7522 31.8766 34.0291C32.3235 35.3542 31.1582 37.4132 29.3288 38.2896Z" fill="#5B5B68"/>
<path d="M30.9829 32.0623C30.9327 32.1714 30.8784 32.2804 30.8241 32.3894V32.0456L30.6195 32.4188C30.4779 32.6876 30.2798 32.9222 30.0389 33.1065L29.9763 33.5259H29.3999L29.4625 33.0352C29.4625 33.0101 29.4417 32.9849 29.4333 32.9555C29.1702 32.2175 29.0825 30.8085 29.0992 29.1814C29.0992 28.9634 29.0992 28.7621 29.0992 28.5105V28.1624C24.3169 28.5105 20.8836 25.466 19.0459 23.2854L18.9582 23.1932C19.0292 23.4962 19.0739 23.8049 19.0918 24.1157C19.1503 25.2564 18.5154 24.8412 18.5154 24.8706C17.8674 23.6725 17.0374 22.5832 16.0554 21.6416C15.9551 21.5368 15.8549 21.4403 15.7547 21.3439C16.0837 21.9415 16.3189 22.5865 16.4522 23.2561C16.5566 24.0948 15.9593 23.8432 15.9593 23.8432C10.4001 16.5843 7.33446 22.1658 7.29687 22.1993C7.26511 22.2665 7.20847 22.3186 7.13903 22.3444C7.06959 22.3703 6.99284 22.3679 6.92514 22.3377C3.4585 21.2642 2.84035 27.0721 2.76934 30.4479C2.76934 30.5821 2.76934 30.7162 2.76934 30.842C2.76934 31.1314 2.76934 31.3998 2.76934 31.6346C2.8487 32.2594 2.92806 32.8926 3.01159 33.5301H2.44356C2.40179 33.2743 2.36003 33.0185 2.32244 32.7626C2.39112 32.5881 2.40851 32.3975 2.37256 32.2133C2.34 32.0694 2.27834 31.9337 2.19141 31.8147C2.10447 31.6957 1.99412 31.5958 1.86718 31.5214L2.32661 30.4185C2.32661 30.6827 2.32661 30.9678 2.28485 31.2572C2.24027 31.7197 2.16068 32.1781 2.04678 32.6285C2.00083 32.511 1.95071 32.3852 1.90477 32.2594C0.771876 28.9705 0.206859 25.5115 0.234094 22.0316V21.9729C0.300921 18.1107 1.2532 14.4792 3.85528 12.9108C3.74108 12.863 3.62204 12.8279 3.50026 12.806C3.06382 12.7476 2.61986 12.8175 2.2222 13.0073C2.4822 12.7234 2.8213 12.5246 3.19536 12.437C3.63347 12.3281 4.08624 12.2913 4.53608 12.3279L4.6405 10.8896L5.11664 12.0889C6.45736 8.17221 8.97172 6.72966 10.2414 6.21806C10.4877 6.12235 10.7421 6.04936 11.0016 6C10.1036 6.31032 9.42698 7.84512 9.13043 8.63769C9.02602 8.91865 8.96754 9.10735 8.96754 9.10735C11.0559 7.32933 17.4253 5.71904 23.1683 10.1683C27.8336 13.7705 30.5986 12.4202 31.4841 11.7744C31.5944 11.6953 31.6978 11.6069 31.7931 11.5102C31.2794 12.8102 29.9094 13.7034 29.3665 14.0263C29.2245 14.106 29.1368 14.1479 29.1368 14.1479C31.8558 16.7394 32.996 20.1445 32.996 23.6377C32.996 23.7216 32.996 23.8054 32.996 23.8893C32.9247 26.7282 32.2377 29.5173 30.9829 32.0623Z" fill="#40404C"/>
</g>
<g clip-path="url(#clip1)">
<path fill-rule="evenodd" clip-rule="evenodd" d="M37.1795 17.4006C37.148 17.4006 37.1162 17.3923 37.0876 17.3751C37.0133 17.3304 36.9833 17.2389 37.017 17.16L38.9944 12.5473H37.1797C37.1185 12.5473 37.0618 12.5161 37.0295 12.4649C36.9974 12.4138 36.9944 12.35 37.0218 12.2965L39.6688 7.09646C39.6988 7.0377 39.7599 7.00061 39.8268 7.00061H42.6503C42.7145 7.00061 42.7738 7.03493 42.8049 7.0904C42.836 7.14569 42.8338 7.21329 42.7994 7.26668L40.7356 10.4673H42.8268C42.8954 10.4673 42.9577 10.5065 42.9867 10.5675C43.0156 10.6287 43.0061 10.7008 42.9618 10.7524L37.3147 17.3391C37.2801 17.3793 37.2302 17.4006 37.1795 17.4006Z" fill="#FF3030"/>
</g>
<g clip-path="url(#clip2)">
<path fill-rule="evenodd" clip-rule="evenodd" d="M33.1795 10.4006C33.148 10.4006 33.1162 10.3923 33.0876 10.3751C33.0133 10.3304 32.9833 10.2389 33.017 10.16L34.9944 5.54728H33.1797C33.1185 5.54728 33.0618 5.51608 33.0295 5.46494C32.9974 5.41381 32.9944 5.35002 33.0218 5.29646L35.6688 0.0964637C35.6988 0.0377037 35.7599 0.000610352 35.8268 0.000610352H38.6503C38.7145 0.000610352 38.7738 0.0349304 38.8049 0.090397C38.836 0.14569 38.8338 0.21329 38.7994 0.266677L36.7356 3.46728H38.8268C38.8954 3.46728 38.9577 3.50645 38.9867 3.56746C39.0156 3.62865 39.0061 3.70076 38.9618 3.75241L33.3147 10.3391C33.2801 10.3793 33.2302 10.4006 33.1795 10.4006Z" fill="#FF3030"/>
</g>
<defs>
<clipPath id="clip0">
<rect width="33" height="45" fill="white" transform="translate(0 6)"/>
</clipPath>
<clipPath id="clip1">
<rect width="6" height="13" fill="white" transform="translate(37 7)"/>
</clipPath>
<clipPath id="clip2">
<rect width="6" height="13" fill="white" transform="translate(33)"/>
</clipPath>
</defs>
</svg>
