<svg width="90" height="111" viewBox="0 0 90 111" fill="none" xmlns="http://www.w3.org/2000/svg">
<g clip-path="url(#clip0)">
<path d="M31.7878 66.7881C33.0574 66.7881 34.0866 65.7726 34.0866 64.5199C34.0866 63.2672 33.0574 62.2518 31.7878 62.2518C30.5182 62.2518 29.489 63.2672 29.489 64.5199C29.489 65.7726 30.5182 66.7881 31.7878 66.7881Z" fill="#F8C800"/>
<path fill-rule="evenodd" clip-rule="evenodd" d="M57.9398 58.2823C57.9398 56.3111 57.1651 54.4663 55.7499 53.0698L47.2205 44.6541L36.6611 55.0726L45.1906 63.4884C46.5994 64.8783 48.4756 65.6491 50.4735 65.6491C51.7478 65.6491 52.971 65.3332 54.0531 64.7519C54.0659 64.7456 54.0788 64.7393 54.0915 64.7329C54.6935 64.4043 55.2505 63.9873 55.7565 63.4945C57.1649 62.1048 57.9399 60.2535 57.9399 58.2823L57.9398 58.2823Z" fill="#F8C800"/>
<path d="M42.6988 29.9465C44.9197 29.9465 46.7201 28.1701 46.7201 25.9788C46.7201 23.7875 44.9197 22.0111 42.6988 22.0111C40.4779 22.0111 38.6775 23.7875 38.6775 25.9788C38.6775 28.1701 40.4779 29.9465 42.6988 29.9465Z" fill="#FFC225" fill-opacity="0.8"/>
<path fill-rule="evenodd" clip-rule="evenodd" d="M37.0643 34.6431C35.6555 33.2531 33.7793 32.4824 31.7813 32.4824C29.7835 32.4824 27.9137 33.2468 26.4984 34.6431C23.5849 37.5177 23.5849 42.1933 26.4984 45.0616L35.841 54.2797L46.4069 43.8612L37.0642 34.6431H37.0643Z" fill="#EF111A"/>
<path fill-rule="evenodd" clip-rule="evenodd" d="M50.7422 46.5321L56.563 52.2753C58.1895 53.8801 59.086 56.0155 59.086 58.2901C59.086 60.5583 58.1894 62.6938 56.563 64.3049C56.2429 64.6208 55.8971 64.9115 55.5321 65.1705C56.3837 65.4928 57.293 65.657 58.2087 65.657C62.3261 65.657 65.6752 62.3526 65.6752 58.2901V46.3869H50.7358V46.5321H50.7422L50.7422 46.5321Z" fill="#EF111A"/>
<path fill-rule="evenodd" clip-rule="evenodd" d="M58.2153 24.8404C54.0978 24.8404 50.7488 28.1447 50.7488 32.2073V45.2416L65.6881 45.2414V32.2071C65.6817 28.151 62.3327 24.8404 58.2153 24.8404V24.8404Z" fill="#F8C800"/>
</g>
<defs>
<clipPath id="clip0">
<rect width="90" height="111" fill="white"/>
</clipPath>
</defs>
</svg>
