<svg width="46" height="47" viewBox="0 0 46 47" fill="none" xmlns="http://www.w3.org/2000/svg">
<g clip-path="url(#clip0)">
<g filter="url(#filter0_d)">
<path d="M5.09 18.51L8.41 39.82L0 37.43L5.09 18.51Z" fill="#FFCA42"/>
<path d="M21 3C21 2.40666 21.1759 1.82664 21.5056 1.33329C21.8352 0.839943 22.3038 0.455426 22.8519 0.228363C23.4001 0.00129986 24.0033 -0.0581102 24.5853 0.0576455C25.1672 0.173401 25.7018 0.459123 26.1213 0.878681C26.5409 1.29824 26.8266 1.83279 26.9424 2.41473C27.0581 2.99667 26.9987 3.59987 26.7716 4.14805C26.5446 4.69623 26.1601 5.16477 25.6667 5.49441C25.1734 5.82405 24.5933 6 24 6C23.2044 6 22.4413 5.68393 21.8787 5.12132C21.3161 4.55871 21 3.79565 21 3Z" fill="white"/>
<path d="M19.1199 7.73C19.1161 7.01928 19.2692 6.31648 19.5682 5.67172C19.8673 5.02697 20.3049 4.45615 20.8499 4C20.7569 4.43859 20.7569 4.8918 20.8497 5.33042C20.9425 5.76905 21.1262 6.18337 21.3889 6.54669C21.6516 6.91001 21.9875 7.21427 22.3749 7.43987C22.7623 7.66546 23.1928 7.8074 23.6384 7.85652C24.084 7.90565 24.535 7.86088 24.9623 7.72509C25.3896 7.58931 25.7837 7.36552 26.1192 7.06815C26.4548 6.77077 26.7243 6.40641 26.9104 5.99854C27.0965 5.59066 27.1952 5.14832 27.1999 4.7C27.1986 4.46447 27.1717 4.22977 27.1199 4C27.7386 4.52842 28.2144 5.20399 28.5034 5.9645C28.7925 6.725 28.8857 7.54602 28.7743 8.35196C28.6628 9.1579 28.3505 9.92286 27.8659 10.5764C27.3813 11.23 26.7401 11.7511 26.0013 12.0919C25.2625 12.4327 24.4499 12.5821 23.6382 12.5265C22.8265 12.4708 22.0418 12.2118 21.3565 11.7734C20.6711 11.335 20.107 10.7312 19.7162 10.0176C19.3253 9.30404 19.1203 8.5036 19.1199 7.69V7.73Z" fill="white"/>
<path d="M34.09 39.12C33.42 43.12 33.09 46.12 33.66 46.48C34.6 47.05 24.81 44.4 15.55 41.82C20.71 41.09 28 40.05 34.09 39.12Z" fill="#FFCA42"/>
<path d="M11.47 39.44L6.72998 9.00005L17.83 7.27005C17.67 7.8091 17.5859 8.3678 17.58 8.93005C17.5758 9.92759 17.8048 10.9123 18.2488 11.8056C18.6927 12.6989 19.3394 13.4761 20.1371 14.075C20.9348 14.674 21.8615 15.0782 22.8432 15.2554C23.8249 15.4326 24.8344 15.3778 25.7912 15.0955C26.7479 14.8132 27.6255 14.3111 28.3537 13.6294C29.082 12.9477 29.6408 12.1052 29.9855 11.1691C30.3303 10.233 30.4515 9.22929 30.3394 8.23805C30.2273 7.24682 29.8851 6.29551 29.34 5.46005L38.4 4.05005C38.4 4.05005 43.89 33.78 45.92 34.05C47.95 34.32 11.47 39.44 11.47 39.44Z" fill="#FFCA42"/>
</g>
<rect x="14.0361" y="21.485" width="12.5834" height="1" rx="0.5" transform="rotate(-8.50795 14.0361 21.485)" fill="#DD864D"/>
<rect x="15.0361" y="24.485" width="20.1488" height="1" rx="0.5" transform="rotate(-8.50795 15.0361 24.485)" fill="#DD864D"/>
<rect x="17.0361" y="27.485" width="20.1488" height="1" rx="0.5" transform="rotate(-8.50795 17.0361 27.485)" fill="#DD864D"/>
</g>
<defs>
<filter id="filter0_d" x="-4" y="0" width="54.0017" height="54.5581" filterUnits="userSpaceOnUse" color-interpolation-filters="sRGB">
<feFlood flood-opacity="0" result="BackgroundImageFix"/>
<feColorMatrix in="SourceAlpha" type="matrix" values="0 0 0 0 0 0 0 0 0 0 0 0 0 0 0 0 0 0 127 0" result="hardAlpha"/>
<feOffset dy="4"/>
<feGaussianBlur stdDeviation="2"/>
<feComposite in2="hardAlpha" operator="out"/>
<feColorMatrix type="matrix" values="0 0 0 0 0 0 0 0 0 0 0 0 0 0 0 0 0 0 0.1 0"/>
<feBlend mode="normal" in2="BackgroundImageFix" result="effect1_dropShadow"/>
<feBlend mode="normal" in="SourceGraphic" in2="effect1_dropShadow" result="shape"/>
</filter>
<clipPath id="clip0">
<rect width="46" height="46.56" fill="white"/>
</clipPath>
</defs>
</svg>
