<svg width="36" height="36" viewBox="0 0 36 36" fill="none" xmlns="http://www.w3.org/2000/svg">
<g clip-path="url(#clip0)">
<path d="M18.06 3.12226e-06H19.374C19.6553 -0.016814 19.937 0.0241223 20.202 0.120304C20.436 0.216544 20.736 0.0120332 20.958 0.25865C21.5825 0.306596 22.2 0.421539 22.8 0.601507C23.2743 0.702364 23.7398 0.841154 24.192 1.01654C24.955 1.2881 25.6937 1.62415 26.4 2.02106C27.1877 2.46884 27.9508 2.95877 28.686 3.48873C29.6804 4.24309 30.6024 5.08887 31.44 6.01504C31.8622 6.44762 32.2457 6.9166 32.586 7.41654C33.2575 8.36076 33.8362 9.36797 34.314 10.4241C34.518 10.8812 34.704 11.3444 34.914 11.8135C35.0779 12.2496 35.2142 12.6956 35.322 13.1489C35.382 13.3895 35.478 13.6241 35.538 13.8707C35.598 14.1173 35.622 14.382 35.67 14.6346C35.718 14.8872 35.748 15.0135 35.79 15.206C35.832 15.3985 35.706 15.585 35.892 15.7293C35.892 15.7293 35.892 15.8075 35.892 15.8436C35.9781 16.6949 36.0141 17.5505 36 18.406C35.964 18.9293 35.946 19.4587 35.892 19.982C35.892 20.2346 35.778 20.4812 35.772 20.7459C35.7457 20.9802 35.7077 21.2131 35.658 21.4436C35.622 21.7023 35.448 21.9308 35.526 22.2075C35.202 22.9714 35.064 23.8015 34.734 24.5714C34.56 24.9744 34.374 25.3774 34.218 25.7744C34.0247 26.2601 33.7771 26.7222 33.48 27.1519C33.042 27.8376 32.592 28.5053 32.106 29.1549C31.7775 29.5743 31.427 29.9758 31.056 30.3579C30.756 30.6767 30.456 30.9594 30.126 31.2842C29.8348 31.5679 29.5262 31.8331 29.202 32.0782C28.5447 32.575 27.8617 33.0368 27.156 33.4617C26.6893 33.7371 26.2087 33.9881 25.716 34.2135C24.8569 34.6629 23.9433 34.9986 22.998 35.212C22.494 35.5429 21.864 35.4406 21.324 35.6932C21.0578 35.7661 20.7838 35.8065 20.508 35.8135C19.8763 35.909 19.2388 35.9613 18.6 35.9699C17.9769 36.0181 17.3511 36.0181 16.728 35.9699C16.074 35.8857 15.414 35.8436 14.772 35.7233C14.214 35.632 13.6628 35.5034 13.122 35.3384C12.612 35.1699 12.102 34.9895 11.598 34.791C10.8091 34.4812 10.0379 34.1277 9.288 33.7323C8.59976 33.3575 7.93818 32.9355 7.308 32.4692C6.40627 31.7897 5.56693 31.0308 4.8 30.2015C4.08263 29.4178 3.43797 28.5702 2.874 27.6692C2.4074 26.9781 2.00568 26.2451 1.674 25.4797C1.22037 24.5178 0.872326 23.5094 0.635997 22.4722C0.456126 21.8474 0.335589 21.2069 0.275997 20.5594C0.0479967 20.1805 0.275997 19.7414 0.137997 19.3564C0.000475442 18.6556 -0.0459105 17.9398 -3.31737e-06 17.2271C0.0113557 16.9275 0.0495087 16.6296 0.113997 16.3368C0.104366 16.0347 0.138727 15.7328 0.215997 15.4406C0.301203 15.1325 0.351521 14.8157 0.365997 14.4962C0.535664 13.6152 0.772356 12.7485 1.074 11.9038C1.43037 10.906 1.8741 9.94188 2.4 9.02256C2.83445 8.24593 3.33639 7.50924 3.9 6.82106C4.164 6.4782 4.464 6.17745 4.746 5.85865C4.93039 5.58412 5.15031 5.33533 5.4 5.1188C5.922 4.79399 6.282 4.29474 6.774 3.91579C7.266 3.53685 7.77 3.12181 8.316 2.78497C8.70738 2.5171 9.1163 2.27596 9.54 2.06316C9.92309 1.8037 10.35 1.6162 10.8 1.50978C11.5764 1.1138 12.3958 0.809026 13.242 0.601507C13.4538 0.502208 13.6777 0.431419 13.908 0.390981C14.1237 0.37038 14.3368 0.328061 14.544 0.264665C14.73 0.216544 14.952 0.300755 15.144 0.132334C15.144 0.132334 15.222 0.132334 15.264 0.132334C15.726 0.0902287 16.188 0.0300783 16.65 0.0120332C17.112 -0.00601192 17.58 3.12226e-06 18.06 3.12226e-06ZM18.06 0.499251H17.934C17.496 0.499251 17.058 0.499251 16.626 0.499251C16.194 0.499251 15.78 0.571432 15.366 0.625567C15.21 0.625567 15.066 0.715793 14.916 0.739853C14.766 0.763913 14.568 0.739853 14.43 0.775943C13.9193 0.888532 13.4195 1.04552 12.936 1.24512C12.1205 1.41388 11.3341 1.70165 10.602 2.09925C9.56687 2.56871 8.59021 3.1582 7.692 3.85564C7.092 4.33083 6.456 4.81203 5.892 5.33534C5.19329 5.99166 4.56028 6.7149 4.002 7.49474C3.57323 8.05577 3.1881 8.64899 2.85 9.26918C2.28569 10.2602 1.82331 11.3062 1.47 12.391C1.22513 13.1118 1.02475 13.847 0.869997 14.5925C0.85769 14.8709 0.815445 15.1472 0.743997 15.4165C0.654102 15.7494 0.619638 16.0949 0.641997 16.4391C0.558642 16.792 0.514375 17.1531 0.509997 17.5158C0.482627 18.1508 0.512751 18.787 0.599997 19.4165C0.701997 19.8015 0.629997 20.2165 0.713997 20.6196C0.787324 20.9101 0.839461 21.2056 0.869997 21.5038C0.926739 21.8097 1.00493 22.1112 1.104 22.406C1.36614 23.5203 1.75677 24.6003 2.268 25.6241C2.55543 26.2223 2.88841 26.7974 3.264 27.3444C3.80156 28.2384 4.44194 29.0661 5.172 29.8105C5.61 30.2256 6.03 30.6647 6.456 31.0917C6.56327 31.2203 6.68174 31.3391 6.81 31.4466C7.224 31.7474 7.668 32.0181 8.064 32.3429C8.56196 32.7244 9.09425 33.0587 9.654 33.3414C10.6305 33.8884 11.6649 34.3242 12.738 34.6406C13.3078 34.8411 13.8913 34.9999 14.484 35.1158C14.739 35.1334 14.992 35.1737 15.24 35.2361C15.4835 35.3339 15.7475 35.369 16.008 35.3384C16.308 35.2902 16.548 35.4887 16.836 35.4707C17.7992 35.4936 18.7628 35.4594 19.722 35.3684C20.286 35.2722 20.862 35.212 21.432 35.1098C21.9911 35.0215 22.5427 34.8908 23.082 34.7188C23.7869 34.5127 24.4766 34.2574 25.146 33.9549C25.68 33.6902 26.214 33.4135 26.736 33.1128C27.7144 32.5548 28.6332 31.8977 29.478 31.1519C30.4029 30.3386 31.2414 29.4315 31.98 28.4451C32.58 27.6331 33.072 26.7669 33.594 25.9128C33.78 25.606 33.84 25.2211 34.02 24.9023C34.346 24.1376 34.6324 23.3566 34.878 22.5624C34.9661 22.2823 35.0264 21.9942 35.058 21.7023C35.118 21.4376 35.22 21.1729 35.256 20.9083C35.2776 20.6059 35.3258 20.3059 35.4 20.012C35.4333 19.7022 35.4333 19.3896 35.4 19.0797C35.4 18.785 35.508 18.4782 35.514 18.1895C35.5546 17.7657 35.52 17.338 35.412 16.9263C35.3549 16.681 35.3549 16.4258 35.412 16.1805C35.46 15.8977 35.268 15.6752 35.28 15.4165C35.261 15.1793 35.2229 14.9439 35.166 14.7128C35.0941 14.0682 34.9471 13.4343 34.728 12.8241C34.2972 11.5187 33.7343 10.2611 33.048 9.07068C32.3506 7.93045 31.547 6.859 30.648 5.87068C30.1394 5.33481 29.6005 4.82871 29.034 4.35489C29.0086 4.32229 28.9782 4.29387 28.944 4.27068C28.296 3.89173 27.714 3.42256 27.09 3.00752C26.2487 2.45098 25.3443 1.99666 24.396 1.65414C23.5103 1.2513 22.5667 0.991445 21.6 0.884214C21.402 0.607522 21.072 0.848123 20.814 0.655642C20.556 0.463161 20.214 0.655642 19.932 0.529326C19.6469 0.471485 19.3531 0.471485 19.068 0.529326L18.06 0.499251Z" fill="black"/>
<path d="M18.06 0.505265H19.062C19.3471 0.447423 19.6409 0.447423 19.926 0.505265C20.238 0.655641 20.592 0.47519 20.808 0.631581C21.024 0.787972 21.408 0.58346 21.594 0.860152C22.563 0.968669 23.5088 1.23057 24.396 1.63609C25.3451 1.98431 26.2495 2.4447 27.09 3.00752C27.69 3.41654 28.29 3.88572 28.944 4.26466C28.9782 4.28786 29.0086 4.31627 29.034 4.34887C29.6005 4.8227 30.1394 5.3288 30.648 5.86466C31.547 6.85299 32.3505 7.92444 33.048 9.06466C33.7343 10.255 34.2972 11.5127 34.728 12.818C34.9471 13.4283 35.0941 14.0622 35.166 14.7068C35.2229 14.9379 35.261 15.1732 35.28 15.4105C35.28 15.6692 35.46 15.8917 35.412 16.1744C35.3549 16.4198 35.3549 16.675 35.412 16.9203C35.52 17.332 35.5546 17.7597 35.514 18.1835C35.514 18.4842 35.424 18.785 35.4 19.0737C35.4333 19.3836 35.4333 19.6961 35.4 20.006C35.3359 20.3008 35.2977 20.6007 35.286 20.9023C35.25 21.1669 35.148 21.4316 35.088 21.6962C35.0564 21.9882 34.9961 22.2763 34.908 22.5564C34.6527 23.3532 34.3563 24.1363 34.02 24.9023C33.84 25.2211 33.78 25.606 33.594 25.9128C33.072 26.7669 32.58 27.6331 31.98 28.4451C31.2414 29.4315 30.4029 30.3386 29.478 31.1519C28.6332 31.8977 27.7144 32.5548 26.736 33.1128C26.214 33.4135 25.68 33.7143 25.146 33.9549C24.4766 34.2574 23.7869 34.5127 23.082 34.7188C22.5427 34.8908 21.9911 35.0215 21.432 35.1098C20.862 35.212 20.286 35.2722 19.722 35.3684C18.7628 35.4594 17.7992 35.4936 16.836 35.4707C16.548 35.4707 16.308 35.2902 16.008 35.3383C15.7475 35.369 15.4835 35.3339 15.24 35.2361C14.992 35.1737 14.739 35.1334 14.484 35.1158C13.8913 34.9999 13.3078 34.8411 12.738 34.6406C11.6649 34.3242 10.6305 33.8884 9.65399 33.3414C9.09425 33.0587 8.56195 32.7244 8.06399 32.3429C7.66799 32.018 7.22399 31.7414 6.80999 31.4466C6.68173 31.3391 6.56326 31.2203 6.45599 31.0917C6.02999 30.6647 5.60999 30.2256 5.17199 29.8105C4.44194 29.0661 3.80156 28.2384 3.26399 27.3444C2.88841 26.7974 2.55542 26.2223 2.26799 25.6241C1.76296 24.5995 1.37839 23.5196 1.12199 22.406C1.02293 22.1112 0.944732 21.8097 0.88799 21.5038C0.857454 21.2056 0.805316 20.9101 0.73199 20.6196C0.64799 20.2165 0.73199 19.8015 0.61799 19.4165C0.523444 18.7917 0.485289 18.1595 0.50399 17.5278C0.508368 17.1651 0.552635 16.8041 0.63599 16.4511C0.613631 16.107 0.648094 15.7615 0.73799 15.4286C0.809438 15.1592 0.851683 14.8829 0.86399 14.6045C1.01874 13.859 1.21912 13.1238 1.46399 12.403C1.81731 11.3182 2.27968 10.2723 2.84399 9.28121C3.18209 8.66102 3.56723 8.0678 3.99599 7.50677C4.55049 6.72748 5.17946 6.00426 5.87399 5.34737C6.47399 4.82406 7.07399 4.34286 7.67399 3.86767C8.5722 3.17023 9.54886 2.58074 10.584 2.11128C11.3161 1.71368 12.1025 1.42591 12.918 1.25714C13.4015 1.05754 13.9013 0.90056 14.412 0.787972C14.55 0.727821 14.736 0.787972 14.898 0.751881C15.06 0.715791 15.192 0.655641 15.348 0.637596C15.78 0.601505 16.2 0.529325 16.626 0.51128C17.052 0.493235 17.496 0.51128 17.934 0.51128L18.06 0.505265ZM13.386 13.4316C13.3294 13.7967 13.3859 14.1704 13.548 14.5023C13.7195 14.953 13.9831 15.3628 14.322 15.7053C14.6926 15.9821 15.0956 16.2124 15.522 16.391C15.792 16.5293 16.152 16.391 16.446 16.5654C16.9959 16.4631 17.5316 16.2955 18.042 16.0662C18.4996 15.8143 18.8715 15.4309 19.11 14.9654C19.3501 14.5125 19.4836 14.0104 19.5 13.4977C19.5149 13.0798 19.4437 12.6633 19.291 12.2742C19.1382 11.8851 18.907 11.5317 18.612 11.2361C18.3356 10.9381 18.0001 10.7013 17.6272 10.5407C17.2542 10.3802 16.8519 10.2995 16.446 10.3038C16.039 10.3037 15.6362 10.385 15.261 10.5429C14.8857 10.7008 14.5457 10.9322 14.2608 11.2234C13.9758 11.5147 13.7517 11.86 13.6015 12.2392C13.4513 12.6183 13.378 13.0237 13.386 13.4316ZM26.13 13.1789C26.157 12.7497 26.078 12.3205 25.9001 11.9291C25.7222 11.5378 25.4508 11.1965 25.11 10.9353C24.5823 10.4547 23.8969 10.185 23.184 10.1774C22.6338 10.1691 22.0955 10.3378 21.648 10.6586C21.2452 10.9331 20.9006 11.2847 20.634 11.6932C20.3964 12.0815 20.264 12.5252 20.25 12.9805C20.2139 13.4078 20.2721 13.8379 20.4204 14.2402C20.5686 14.6425 20.8034 15.0071 21.108 15.3083C21.3777 15.5841 21.6999 15.8029 22.0554 15.9517C22.411 16.1005 22.7927 16.1762 23.178 16.1744C23.5637 16.186 23.9477 16.1177 24.3059 15.9738C24.6641 15.83 24.9889 15.6136 25.26 15.3383C25.5575 15.0671 25.7903 14.7321 25.9409 14.3582C26.0915 13.9844 26.1562 13.5813 26.13 13.1789ZM11.16 24.1925H10.8C10.7641 24.1891 10.728 24.1933 10.6939 24.2048C10.6597 24.2163 10.6284 24.2348 10.6018 24.2592C10.5753 24.2835 10.5541 24.3132 10.5397 24.3463C10.5252 24.3793 10.5178 24.415 10.518 24.4511C10.5192 24.4871 10.5281 24.5225 10.544 24.5548C10.56 24.5871 10.5826 24.6156 10.6105 24.6384C10.6383 24.6612 10.6707 24.6777 10.7055 24.6869C10.7402 24.6961 10.7765 24.6978 10.812 24.6917C11.262 24.6436 11.682 24.9143 12.138 24.8241C12.198 24.8241 12.294 24.794 12.318 24.8241C12.462 25.0165 12.66 24.9143 12.834 24.9444C13.008 24.9744 13.212 25.0286 13.404 25.0707C13.6934 25.1212 13.9798 25.1875 14.262 25.2692C14.7878 25.4421 15.335 25.5413 15.888 25.5639C16.428 25.5639 16.968 25.5639 17.508 25.5639C18.048 25.5639 18.552 25.4256 19.08 25.4256C20.04 25.4256 21 25.4256 21.954 25.4256C22.9173 25.3774 23.883 25.4136 24.84 25.5338C25.44 25.6541 26.07 25.4196 26.64 25.6722C26.6786 25.687 26.7214 25.687 26.76 25.6722C26.8271 25.648 26.8853 25.604 26.9271 25.546C26.9688 25.4881 26.9922 25.4188 26.994 25.3474C26.994 25.1429 26.868 25.185 26.754 25.1669C26.6061 25.1211 26.4559 25.0829 26.304 25.0526C25.908 25.0526 25.512 25.0526 25.104 25.0526C24.696 25.0526 24.306 24.9444 23.904 24.9383C22.968 24.9383 22.032 24.9383 21.096 24.9383C20.1529 24.9134 19.2092 24.9456 18.27 25.0346C17.4619 25.1128 16.6481 25.1128 15.84 25.0346C15.4484 24.9914 15.0598 24.9251 14.676 24.8361C14.214 24.7459 13.77 24.5955 13.296 24.5233C12.9988 24.5119 12.7034 24.4716 12.414 24.403C12 24.2466 11.502 24.3609 11.16 24.1925ZM16.02 19.3083C16.074 19.4466 15.912 19.6812 16.134 19.8797C16.2412 19.9832 16.3683 20.0638 16.5076 20.1165C16.6468 20.1692 16.7953 20.193 16.944 20.1865C17.284 20.1914 17.6231 20.2236 17.958 20.2827C18.4818 20.3712 19.0005 20.4877 19.512 20.6316C19.6782 20.6827 19.8558 20.6827 20.022 20.6316C20.7356 20.3289 21.4772 20.0972 22.236 19.9399C22.2769 19.9396 22.3173 19.9304 22.3543 19.9129C22.3914 19.8954 22.4242 19.87 22.4504 19.8385C22.4767 19.807 22.4958 19.7702 22.5064 19.7306C22.5171 19.6909 22.519 19.6495 22.512 19.609C22.512 19.4406 22.512 19.2722 22.512 19.1098C22.5065 18.9584 22.4656 18.8104 22.3926 18.6777C22.3197 18.5451 22.2167 18.4314 22.092 18.3459C22.092 18.3158 21.984 18.3459 21.93 18.3459C21.876 18.3459 21.882 18.412 21.888 18.4481C21.924 18.6226 21.888 18.791 21.96 18.9835C22.122 19.3203 21.96 19.4947 21.576 19.585C21.4625 19.6066 21.3503 19.6348 21.24 19.6692L19.878 20.1564C19.788 20.1564 19.62 20.2346 19.602 20.2045C19.446 19.9579 19.146 20.2045 19.002 20.006C18.4296 19.8481 17.8425 19.7493 17.25 19.7113H16.86C16.608 19.7113 16.512 19.597 16.512 19.3263C16.4696 19.1186 16.5105 18.9025 16.626 18.7248C16.71 18.6165 16.566 18.3399 16.446 18.3158C16.326 18.2917 16.206 18.418 16.134 18.5444C16.0133 18.7795 15.9732 19.048 16.02 19.3083ZM18 7.0797L17.91 6.99549C17.7805 6.87139 17.6328 6.76793 17.472 6.68872C16.6658 6.38296 15.8183 6.20047 14.958 6.14737C14.5753 6.14464 14.1933 6.18091 13.818 6.25564C13.0395 6.3981 12.2871 6.65767 11.586 7.02557C11.1563 7.30149 10.7718 7.64236 10.446 8.03609C10.386 8.10827 10.416 8.25263 10.404 8.36692C10.5149 8.38865 10.629 8.38865 10.74 8.36692C10.9241 8.25077 11.0987 8.12003 11.262 7.97594C12.013 7.34714 12.9184 6.93171 13.884 6.77293C14.6547 6.64078 15.444 6.66327 16.206 6.8391C16.6919 6.95252 17.1631 7.12207 17.61 7.34436C17.7 7.35038 18 7.1579 18 7.0797ZM25.098 7.15188C24.7848 7.15058 24.4726 7.18693 24.168 7.26015C23.6711 7.34332 23.1896 7.50151 22.74 7.72933C22.651 7.75828 22.5771 7.82135 22.5344 7.90475C22.4917 7.98814 22.4836 8.0851 22.512 8.17444C22.5321 8.20374 22.559 8.22777 22.5903 8.24451C22.6216 8.26126 22.6565 8.27023 22.692 8.27068C22.764 8.27068 22.83 8.21654 22.902 8.19248C23.6552 7.84365 24.4724 7.65522 25.302 7.6391C25.8527 7.65654 26.3855 7.83879 26.832 8.16241C27.03 8.30075 27.204 8.46918 27.432 8.59549C27.5195 8.64455 27.6213 8.66157 27.72 8.64361C27.75 8.64361 27.774 8.51128 27.792 8.4391C27.852 8.13835 27.594 8.10827 27.432 7.96993C27.1186 7.68385 26.751 7.46398 26.351 7.32343C25.951 7.18289 25.5269 7.12454 25.104 7.15188H25.098Z" fill="#FFC225"/>
<path d="M13.386 13.4316C13.3755 13.0207 13.4476 12.6118 13.5978 12.2294C13.748 11.8469 13.9734 11.4986 14.2605 11.2052C14.5476 10.9118 14.8906 10.6791 15.2691 10.5212C15.6477 10.3632 16.054 10.2832 16.464 10.2857C16.8699 10.2814 17.2722 10.3621 17.6452 10.5227C18.0181 10.6832 18.3536 10.9201 18.63 11.218C18.9251 11.5136 19.1562 11.867 19.309 12.2562C19.4618 12.6453 19.5329 13.0618 19.518 13.4797C19.5016 13.9924 19.3682 14.4944 19.128 14.9474C18.8895 15.4129 18.5176 15.7962 18.06 16.0481C17.5497 16.2775 17.0139 16.4451 16.464 16.5474C16.17 16.385 15.81 16.5113 15.54 16.3729C15.1136 16.1943 14.7106 15.9641 14.34 15.6872C14.0011 15.3447 13.7375 14.9349 13.566 14.4842C13.4014 14.1596 13.3387 13.7926 13.386 13.4316ZM13.86 13.3714C13.8529 13.635 13.8832 13.8983 13.95 14.1534C14.0637 14.4864 14.2365 14.7962 14.46 15.0677C14.7938 15.3856 15.1793 15.644 15.6 15.8316C15.864 15.9759 16.2 15.8015 16.386 16.0481C16.8774 15.9372 17.359 15.7863 17.826 15.597C18.209 15.3384 18.5272 14.9946 18.756 14.5925C18.9431 14.2449 19.042 13.8566 19.044 13.4617C19.0359 12.7706 18.7662 12.1084 18.2894 11.6092C17.8126 11.1099 17.1644 10.811 16.476 10.7729C15.228 10.785 13.734 11.9158 13.86 13.3714Z" fill="black"/>
<path d="M26.13 13.179C26.1562 13.5813 26.0915 13.9844 25.9409 14.3582C25.7903 14.7321 25.5575 15.0671 25.26 15.3383C24.9889 15.6136 24.6641 15.83 24.3059 15.9738C23.9476 16.1177 23.5637 16.186 23.178 16.1744C22.7927 16.1762 22.411 16.1005 22.0554 15.9517C21.6999 15.8029 21.3777 15.5841 21.108 15.3083C20.8034 15.0071 20.5686 14.6425 20.4204 14.2402C20.2721 13.8379 20.2139 13.4078 20.25 12.9805C20.264 12.5252 20.3964 12.0815 20.634 11.6932C20.9006 11.2847 21.2452 10.9331 21.648 10.6586C22.0955 10.3378 22.6338 10.1692 23.184 10.1774C23.8969 10.185 24.5823 10.4547 25.11 10.9353C25.4508 11.1965 25.7222 11.5378 25.9001 11.9291C26.078 12.3205 26.157 12.7497 26.13 13.179ZM25.632 13.2271C25.6551 12.8942 25.6078 12.5602 25.4933 12.2469C25.3787 11.9336 25.1995 11.6481 24.9673 11.409C24.735 11.17 24.4551 10.9828 24.1457 10.8597C23.8363 10.7366 23.5045 10.6804 23.172 10.6947C22.8532 10.6947 22.5377 10.7583 22.2437 10.8818C21.9498 11.0054 21.6833 11.1864 21.4599 11.4143C21.2365 11.6422 21.0606 11.9124 20.9425 12.2092C20.8244 12.506 20.7664 12.8234 20.772 13.1429C20.7672 13.4659 20.826 13.7868 20.9449 14.0871C21.0639 14.3874 21.2407 14.6613 21.4652 14.8931C21.6897 15.1249 21.9576 15.3101 22.2536 15.4381C22.5495 15.5661 22.8677 15.6344 23.19 15.6391C23.5286 15.6475 23.8651 15.5819 24.1759 15.4469C24.4867 15.3119 24.7645 15.1106 24.99 14.8571C25.2097 14.6505 25.3811 14.3978 25.4921 14.1171C25.6031 13.8363 25.6508 13.5345 25.632 13.2331V13.2271Z" fill="black"/>
<path d="M11.16 24.1925C11.502 24.3609 11.994 24.2466 12.45 24.4271C12.7394 24.4957 13.0348 24.536 13.332 24.5474C13.806 24.6196 14.25 24.7699 14.712 24.8602C15.0958 24.9491 15.4844 25.0154 15.876 25.0587C16.6841 25.1369 17.4979 25.1369 18.306 25.0587C19.2452 24.9696 20.1889 24.9375 21.132 24.9624C22.068 24.9624 23.004 24.9624 23.94 24.9624C24.342 24.9624 24.738 25.0587 25.14 25.0767C25.542 25.0947 25.932 25.0767 26.34 25.0767C26.4918 25.107 26.642 25.1452 26.79 25.191C26.904 25.191 27.036 25.191 27.03 25.3714C27.0282 25.4429 27.0048 25.5122 26.9631 25.5701C26.9213 25.6281 26.8631 25.672 26.796 25.6962C26.7573 25.7111 26.7146 25.7111 26.676 25.6962C26.076 25.4436 25.476 25.6962 24.876 25.5579C23.919 25.4377 22.9533 25.4015 21.99 25.4496C21.036 25.4496 20.076 25.4496 19.116 25.4496C18.588 25.4496 18.084 25.6301 17.544 25.588C17.004 25.5459 16.464 25.588 15.924 25.588C15.3575 25.559 14.7979 25.4497 14.262 25.2632C13.9798 25.1815 13.6934 25.1152 13.404 25.0647C13.212 25.0226 13.026 24.9744 12.834 24.9384C12.642 24.9023 12.462 25.0105 12.318 24.818C12.318 24.788 12.198 24.818 12.138 24.818C11.682 24.9083 11.262 24.6376 10.812 24.6857C10.7765 24.6917 10.7402 24.6901 10.7055 24.6809C10.6707 24.6717 10.6383 24.6551 10.6105 24.6323C10.5826 24.6096 10.56 24.5811 10.544 24.5488C10.5281 24.5165 10.5192 24.4811 10.518 24.4451C10.5178 24.409 10.5252 24.3733 10.5396 24.3402C10.5541 24.3072 10.5753 24.2775 10.6018 24.2532C10.6284 24.2288 10.6597 24.2103 10.6939 24.1988C10.728 24.1873 10.7641 24.1831 10.8 24.1865L11.16 24.1925Z" fill="black"/>
<path d="M16.02 19.3083C15.9718 19.0461 16.0119 18.7752 16.134 18.5384C16.206 18.412 16.272 18.2737 16.446 18.3098C16.62 18.3459 16.71 18.6105 16.626 18.7188C16.5106 18.8965 16.4696 19.1126 16.512 19.3203C16.512 19.591 16.608 19.6932 16.86 19.7053H17.238C17.8305 19.7433 18.4176 19.842 18.99 20C19.146 20.1985 19.446 19.9519 19.59 20.1985C19.59 20.2286 19.776 20.1985 19.866 20.1504L21.228 19.6632C21.3383 19.6287 21.4505 19.6006 21.564 19.579C21.966 19.5008 22.11 19.3263 21.948 18.9774C21.852 18.785 21.912 18.6165 21.876 18.4421C21.876 18.406 21.876 18.3459 21.918 18.3399C21.96 18.3338 22.05 18.3399 22.08 18.3399C22.2047 18.4254 22.3077 18.539 22.3807 18.6717C22.4536 18.8044 22.4945 18.9524 22.5 19.1038C22.5 19.2662 22.5 19.4346 22.5 19.603C22.507 19.6435 22.5051 19.6849 22.4944 19.7246C22.4838 19.7642 22.4647 19.801 22.4384 19.8325C22.4122 19.864 22.3794 19.8894 22.3424 19.9069C22.3053 19.9244 22.2649 19.9336 22.224 19.9338C21.4652 20.0912 20.7236 20.3229 20.01 20.6256C19.8438 20.6766 19.6662 20.6766 19.5 20.6256C18.9886 20.4817 18.4698 20.3652 17.946 20.2767C17.6111 20.2176 17.272 20.1854 16.932 20.1805C16.7833 20.187 16.6348 20.1632 16.4956 20.1105C16.3563 20.0578 16.2292 19.9772 16.122 19.8737C15.912 19.6812 16.074 19.4466 16.02 19.3083Z" fill="black"/>
<path d="M18 7.07971C18 7.1579 17.694 7.35038 17.61 7.32031C17.1612 7.09758 16.688 6.92802 16.2 6.81504C15.438 6.63921 14.6487 6.61672 13.878 6.74888C12.9124 6.90766 12.007 7.32308 11.256 7.95189C11.0927 8.09598 10.9181 8.22672 10.734 8.34286C10.623 8.3646 10.5089 8.3646 10.398 8.34286C10.398 8.22858 10.398 8.08422 10.44 8.01204C10.7658 7.6183 11.1503 7.27743 11.58 7.00151C12.2787 6.64309 13.027 6.39167 13.8 6.25565C14.1753 6.18092 14.5573 6.14464 14.94 6.14738C15.8003 6.20048 16.6478 6.38297 17.454 6.68873C17.6148 6.76793 17.7625 6.87139 17.892 6.9955L18 7.07971Z" fill="black"/>
<path d="M25.104 7.15188C25.522 7.12862 25.9405 7.18897 26.335 7.32941C26.7295 7.46985 27.0922 7.68759 27.402 7.96993C27.564 8.10827 27.822 8.13835 27.762 8.4391C27.762 8.51128 27.72 8.6376 27.69 8.64361C27.5913 8.66157 27.4895 8.64455 27.402 8.59549C27.204 8.46918 27.03 8.30075 26.802 8.16241C26.3555 7.83879 25.8227 7.65654 25.272 7.6391C24.4424 7.65522 23.6252 7.84365 22.872 8.19248C22.8 8.19248 22.734 8.27068 22.662 8.27068C22.6265 8.27023 22.5916 8.26126 22.5603 8.24451C22.529 8.22777 22.5021 8.20374 22.482 8.17444C22.4536 8.0851 22.4617 7.98814 22.5044 7.90475C22.5471 7.82135 22.621 7.75828 22.71 7.72933C23.1596 7.50151 23.6411 7.34332 24.138 7.26015C24.4543 7.184 24.7788 7.14763 25.104 7.15188Z" fill="black"/>
<path d="M13.86 13.3714C13.734 11.9158 15.228 10.785 16.458 10.7729C17.1464 10.811 17.7946 11.1099 18.2714 11.6092C18.7482 12.1084 19.0179 12.7706 19.026 13.4617C19.024 13.8566 18.9251 14.2449 18.738 14.5925C18.5092 14.9946 18.191 15.3384 17.808 15.597C17.341 15.7863 16.8594 15.9372 16.368 16.0481C16.164 15.8015 15.846 15.9759 15.582 15.8316C15.1677 15.6422 14.7884 15.3839 14.46 15.0677C14.2365 14.7962 14.0637 14.4864 13.95 14.1534C13.8832 13.8983 13.8529 13.635 13.86 13.3714ZM16.434 14.5444C16.5674 14.5652 16.7039 14.5481 16.828 14.4949C16.9521 14.4418 17.0589 14.3547 17.136 14.2436C17.3064 14.0942 17.4274 13.8965 17.483 13.6765C17.5387 13.4566 17.5263 13.2249 17.4475 13.0122C17.3688 12.7994 17.2274 12.6158 17.0421 12.4855C16.8568 12.3552 16.6363 12.2845 16.41 12.2827C16.2586 12.284 16.1091 12.3156 15.97 12.3755C15.8309 12.4354 15.7051 12.5224 15.6 12.6316C15.4902 12.7217 15.4039 12.8372 15.3485 12.9682C15.2931 13.0992 15.2703 13.2417 15.282 13.3835C15.259 13.5407 15.2729 13.7012 15.3225 13.8522C15.3722 14.0031 15.4562 14.1404 15.5681 14.2531C15.6799 14.3657 15.8164 14.4507 15.9667 14.5013C16.117 14.5519 16.277 14.5666 16.434 14.5444Z" fill="#FFC225"/>
<path d="M25.632 13.2331C25.6539 13.5403 25.6064 13.8486 25.4932 14.1349C25.38 14.4213 25.2039 14.6784 24.978 14.8872C24.7525 15.1407 24.4748 15.342 24.1639 15.477C23.8531 15.612 23.5167 15.6776 23.178 15.6692C22.8521 15.6669 22.53 15.5995 22.2304 15.4711C21.9308 15.3426 21.6597 15.1557 21.4329 14.921C21.2061 14.6864 21.0283 14.4089 20.9096 14.1046C20.791 13.8004 20.734 13.4755 20.742 13.1489C20.7364 12.8294 20.7944 12.512 20.9125 12.2152C21.0306 11.9184 21.2065 11.6482 21.4299 11.4203C21.6533 11.1924 21.9198 11.0114 22.2137 10.8878C22.5077 10.7643 22.8233 10.7007 23.142 10.7008C23.477 10.682 23.8121 10.7349 24.1251 10.8561C24.4381 10.9772 24.7218 11.1637 24.9574 11.4033C25.1929 11.6428 25.3749 11.9299 25.4912 12.2454C25.6075 12.5609 25.6555 12.8976 25.632 13.2331ZM23.4 12.2887C23.2698 12.2754 23.1383 12.29 23.0142 12.3315C22.8901 12.373 22.7762 12.4404 22.68 12.5293C22.41 12.7699 22.404 13.1308 22.242 13.4075C22.398 13.6722 22.386 14.009 22.626 14.2436C22.8785 14.4306 23.1822 14.5356 23.496 14.5444C23.7941 14.5349 24.0767 14.4087 24.2831 14.1928C24.4895 13.9769 24.6033 13.6885 24.6 13.3895C24.5946 13.2378 24.5592 13.0887 24.4957 12.9508C24.4322 12.813 24.342 12.6893 24.2303 12.5868C24.1186 12.4843 23.9876 12.4052 23.8451 12.354C23.7025 12.3028 23.5512 12.2806 23.4 12.2887Z" fill="#FFC225"/>
<path d="M16.434 14.5444C16.2757 14.5742 16.1126 14.5661 15.9581 14.5206C15.8036 14.4751 15.662 14.3935 15.5449 14.2826C15.4278 14.1717 15.3386 14.0346 15.2846 13.8825C15.2306 13.7304 15.2132 13.5676 15.234 13.4075C15.2237 13.2576 15.2519 13.1075 15.316 12.9717C15.3801 12.8358 15.4779 12.7187 15.6 12.6316C15.7066 12.5144 15.8363 12.4207 15.9809 12.3565C16.1255 12.2923 16.2818 12.259 16.44 12.2587C16.6663 12.2604 16.8868 12.3311 17.0721 12.4614C17.2574 12.5917 17.3988 12.7754 17.4775 12.9881C17.5563 13.2008 17.5687 13.4325 17.513 13.6525C17.4574 13.8724 17.3364 14.0702 17.166 14.2196C17.0897 14.3402 16.9795 14.4355 16.8492 14.4933C16.7189 14.5512 16.5744 14.5689 16.434 14.5444Z" fill="black"/>
<path d="M23.4 12.2887C23.5512 12.2806 23.7025 12.3028 23.8451 12.354C23.9876 12.4052 24.1186 12.4843 24.2303 12.5868C24.342 12.6893 24.4322 12.813 24.4957 12.9508C24.5592 13.0887 24.5946 13.2378 24.6 13.3895C24.6033 13.6895 24.4887 13.9788 24.281 14.1949C24.0733 14.411 23.7892 14.5365 23.49 14.5444C23.1762 14.5356 22.8725 14.4306 22.62 14.2436C22.38 14.015 22.392 13.6722 22.236 13.4075C22.398 13.1248 22.404 12.7699 22.674 12.5293C22.7709 12.4396 22.8858 12.3717 23.011 12.3302C23.1362 12.2887 23.2689 12.2746 23.4 12.2887Z" fill="black"/>
</g>
<defs>
<clipPath id="clip0">
<rect width="36" height="36" fill="white"/>
</clipPath>
</defs>
</svg>
