<svg width="36" height="36" viewBox="0 0 36 36" fill="none" xmlns="http://www.w3.org/2000/svg">
<g clip-path="url(#clip0)">
<path d="M17.8687 -2.17929e-07H19.1947C19.4741 -0.0263583 19.7559 -0.00608191 20.0287 0.0599998C20.3227 0.18 20.6287 0.00599978 20.8567 0.156C21.0847 0.306 21.4567 0.102 21.6487 0.39C22.3151 0.436155 22.9696 0.590157 23.5867 0.846C24.5819 1.1655 25.5443 1.57938 26.4607 2.082C27.3248 2.54468 28.1513 3.0743 28.9327 3.666C29.754 4.2719 30.5119 4.95941 31.1947 5.718C31.6797 6.22729 32.1175 6.77956 32.5027 7.368C32.7307 7.758 33.1027 8.076 33.3247 8.472C33.6547 9.036 33.9247 9.636 34.2187 10.23C34.6736 11.0858 35.0145 11.9976 35.2327 12.942C35.2815 13.2271 35.3704 13.5038 35.4967 13.764C35.6467 14.052 35.4487 14.364 35.7187 14.616C35.7198 14.9377 35.7601 15.2581 35.8387 15.57C35.921 16.0905 35.9731 16.6154 35.9947 17.142C35.9947 17.688 35.9947 18.228 35.9947 18.774C36.0032 19.363 35.957 19.9515 35.8567 20.532C35.7187 21.198 35.5807 21.87 35.4067 22.53C34.8996 24.5287 34.0468 26.4233 32.8867 28.128C32.2032 29.0897 31.4363 29.9891 30.5947 30.816C29.7341 31.6698 28.7938 32.4393 27.7867 33.114C26.8304 33.6667 25.8449 34.1674 24.8347 34.614C24.2473 34.8585 23.6463 35.0688 23.0347 35.244C22.5496 35.394 22.0569 35.5182 21.5587 35.616C21.2601 35.6252 20.9638 35.6716 20.6767 35.754C20.3587 35.91 20.0767 35.754 19.7767 35.856C18.9683 36.0107 18.1419 36.0491 17.3227 35.97C16.7197 35.9905 16.1162 35.9462 15.5227 35.838C14.6827 35.67 13.8487 35.472 13.0147 35.238C12.2599 35.0294 11.5185 34.7749 10.7947 34.476C10.4684 34.3556 10.1498 34.2154 9.84069 34.056C9.02964 33.6206 8.24616 33.1357 7.49469 32.604C6.99518 32.2601 6.52552 31.8747 6.09069 31.452C5.74869 31.104 5.31069 30.852 5.00469 30.468C4.51269 29.868 3.98469 29.268 3.51069 28.668C2.78372 27.6741 2.15288 26.6133 1.62669 25.5C1.29744 24.7796 1.01681 24.0379 0.786695 23.28C0.594695 22.68 0.444695 22.08 0.294695 21.48C0.174695 21.054 0.234695 20.604 0.126695 20.202C0.0108547 19.5993 -0.0334517 18.9851 -0.00530504 18.372C-0.0435604 17.7726 -0.0435604 17.1714 -0.00530504 16.572C0.0725173 15.8424 0.188678 15.1174 0.342695 14.4C0.468695 13.8 0.654695 13.2 0.780695 12.57C0.910851 12.1596 1.06923 11.7586 1.25469 11.37C1.64272 10.4416 2.08344 9.53614 2.57469 8.658C3.06287 7.87963 3.60416 7.13587 4.19469 6.432C4.76307 5.69695 5.40877 5.02509 6.12069 4.428C6.88776 3.74274 7.7243 3.13946 8.61669 2.628C9.43269 2.172 10.2547 1.734 11.0947 1.344C11.921 0.966638 12.7862 0.680934 13.6747 0.492C14.3527 0.354 15.0367 0.246 15.7087 0.114C16.4947 -0.0480002 17.2687 0.0959998 17.8687 -2.17929e-07ZM17.8687 0.498C17.2687 0.576 16.4467 0.36 15.6847 0.624C15.3421 0.592812 14.9969 0.642123 14.6767 0.768C14.3347 0.84 13.9867 0.906 13.6447 0.984C12.73 1.22037 11.8368 1.53348 10.9747 1.92C10.5187 2.106 10.0747 2.364 9.62469 2.592C8.52929 3.16718 7.51118 3.87885 6.59469 4.71C5.81855 5.39128 5.09824 6.13365 4.44069 6.93C3.68011 7.8586 3.01853 8.86404 2.46669 9.93C2.07747 10.6405 1.75026 11.3833 1.48869 12.15C1.44142 12.3557 1.37513 12.5566 1.29069 12.75C1.18869 12.954 1.24269 13.212 1.12269 13.35C1.00269 13.488 1.18269 13.824 0.924695 13.95C0.733992 14.7621 0.613547 15.5892 0.564695 16.422C0.45059 17.9499 0.51098 19.4858 0.744695 21C0.870695 21.6 1.00869 22.146 1.14069 22.722C1.35285 23.5757 1.65035 24.4059 2.02869 25.2C2.38131 25.9811 2.79457 26.7334 3.26469 27.45C3.87034 28.3933 4.56123 29.279 5.32869 30.096C6.09175 30.8551 6.91659 31.5495 7.79469 32.172C8.50059 32.671 9.23154 33.1336 9.98469 33.558C10.748 33.9771 11.5522 34.3169 12.3847 34.572C13.0858 34.8233 13.809 35.0081 14.5447 35.124C14.8213 35.1274 15.096 35.1698 15.3607 35.25C15.5918 35.3216 15.8328 35.356 16.0747 35.352C16.3045 35.4036 16.5368 35.4437 16.7707 35.472C17.2747 35.472 17.7727 35.472 18.2767 35.472C18.7855 35.5238 19.2994 35.4852 19.7947 35.358C20.0527 35.262 20.3467 35.418 20.6347 35.268C20.9227 35.118 21.2347 35.316 21.4987 35.1C22.1273 35.051 22.7446 34.9053 23.3287 34.668C24.7143 34.2308 26.0373 33.6156 27.2647 32.838C28.3549 32.1586 29.3705 31.3662 30.2947 30.474C30.6127 30.168 30.8947 29.79 31.1887 29.472C31.586 29.0421 31.9529 28.5849 32.2867 28.104C32.6316 27.6286 32.952 27.136 33.2467 26.628C33.4027 26.358 33.5287 26.076 33.6907 25.806C33.8296 25.5316 33.9518 25.2491 34.0567 24.96C34.2187 24.588 34.3687 24.21 34.5067 23.832C34.8378 23.0562 35.0502 22.235 35.1367 21.396C35.3467 21.198 35.1847 20.91 35.2747 20.706C35.3799 20.4859 35.4155 20.2389 35.3767 19.998C35.3287 19.734 35.5207 19.542 35.5147 19.302C35.5147 18.822 35.5147 18.336 35.5147 17.856C35.5811 17.4024 35.5811 16.9416 35.5147 16.488C35.3707 16.038 35.5567 15.558 35.2927 15.144C35.2616 14.4516 35.126 13.7679 34.8907 13.116C34.7697 12.648 34.6112 12.1905 34.4167 11.748C34.2641 11.3127 34.0878 10.8861 33.8887 10.47C33.6487 10.044 33.4207 9.612 33.1807 9.192C32.62 8.20504 31.9541 7.28166 31.1947 6.438C30.1534 5.26261 28.9634 4.2279 27.6547 3.36C26.7403 2.75631 25.7746 2.23429 24.7687 1.8C23.9454 1.39703 23.0617 1.13152 22.1527 1.014C21.689 0.799425 21.1873 0.679097 20.6767 0.66C20.14 0.535995 19.5892 0.48354 19.0387 0.504C18.7087 0.54 18.3727 0.51 17.8927 0.51L17.8687 0.498Z" fill="black"/>
<path d="M17.8927 0.509997C18.3727 0.509997 18.7087 0.539997 19.0387 0.509997C19.5892 0.489537 20.14 0.541992 20.6767 0.665997C21.1873 0.685094 21.689 0.805422 22.1527 1.02C23.0614 1.13562 23.945 1.3991 24.7687 1.8C25.7663 2.23555 26.724 2.75754 27.6307 3.36C28.9478 4.22621 30.146 5.26099 31.1947 6.438C31.9415 7.28343 32.5953 8.20674 33.1447 9.192C33.3847 9.612 33.6127 10.044 33.8527 10.47C34.0518 10.8861 34.2281 11.3127 34.3807 11.748C34.5752 12.1905 34.7337 12.648 34.8547 13.116C35.09 13.7679 35.2256 14.4516 35.2567 15.144C35.5207 15.558 35.3347 16.038 35.4787 16.488C35.5451 16.9416 35.5451 17.4024 35.4787 17.856C35.4787 18.336 35.4787 18.822 35.4787 19.302C35.4787 19.542 35.2927 19.734 35.3407 19.998C35.3794 20.2389 35.3439 20.4859 35.2387 20.706C35.1487 20.91 35.3107 21.198 35.1007 21.396C35.0142 22.235 34.8018 23.0562 34.4707 23.832C34.3327 24.21 34.1827 24.588 34.0207 24.96C33.9175 25.2469 33.7973 25.5274 33.6607 25.8C33.4987 26.07 33.3727 26.352 33.2167 26.622C32.922 27.13 32.6016 27.6226 32.2567 28.098C31.9229 28.579 31.556 29.0361 31.1587 29.466C30.8467 29.784 30.5587 30.162 30.2647 30.468C29.3405 31.3602 28.3249 32.1526 27.2347 32.832C26.0073 33.6096 24.6843 34.2248 23.2987 34.662C22.7146 34.8993 22.0973 35.045 21.4687 35.094C21.2107 35.31 20.8687 35.13 20.6047 35.262C20.3407 35.394 20.0047 35.262 19.7647 35.352C19.2694 35.4792 18.7554 35.5178 18.2467 35.466C17.7427 35.466 17.2447 35.466 16.7407 35.466C16.5068 35.4377 16.2745 35.3976 16.0447 35.346C15.8028 35.35 15.5618 35.3156 15.3307 35.244C15.066 35.1638 14.7913 35.1214 14.5147 35.118C13.779 35.0021 13.0558 34.8173 12.3547 34.566C11.5221 34.3109 10.7179 33.9711 9.95468 33.552C9.21188 33.1287 8.49096 32.6681 7.79468 32.172C6.92395 31.5408 6.10714 30.8384 5.35268 30.072C4.58523 29.255 3.89433 28.3693 3.28868 27.426C2.81141 26.7179 2.39013 25.9736 2.02868 25.2C1.65221 24.4155 1.35475 23.5954 1.14068 22.752C1.00868 22.152 0.870685 21.606 0.744685 21.03C0.50232 19.5228 0.431869 17.993 0.534685 16.47C0.583537 15.6372 0.703982 14.8101 0.894685 13.998C1.15268 13.86 0.936685 13.578 1.09268 13.398C1.24868 13.218 1.15868 12.984 1.26068 12.798C1.34512 12.6046 1.41141 12.4037 1.45868 12.198C1.72025 11.4313 2.04746 10.6885 2.43668 9.978C2.98852 8.91204 3.6501 7.90659 4.41068 6.978C5.07581 6.16387 5.80623 5.40536 6.59468 4.71C7.52047 3.87675 8.54877 3.16501 9.65468 2.592C10.1047 2.364 10.5487 2.106 11.0047 1.92C11.8749 1.5363 12.7761 1.22719 13.6987 0.995997C14.0407 0.917997 14.3887 0.851997 14.7307 0.779997C15.0509 0.65412 15.3961 0.604809 15.7387 0.635997C16.4707 0.371997 17.2627 0.599997 17.8927 0.509997ZM14.1247 10.038H13.6567C13.157 10.0262 12.6676 10.1802 12.2647 10.476C12.0127 10.656 11.8087 10.872 11.5807 11.076C11.2902 11.3469 11.0604 11.6762 10.9063 12.0423C10.7522 12.4084 10.6774 12.8029 10.6867 13.2C10.6682 13.6451 10.7442 14.0891 10.9097 14.5028C11.0752 14.9164 11.3263 15.2904 11.6467 15.6C12.094 16.0508 12.6564 16.3704 13.2727 16.524C13.7248 16.608 14.1886 16.608 14.6407 16.524C14.9796 16.4918 15.3063 16.3809 15.5947 16.2C16.1909 15.8586 16.6668 15.3409 16.9567 14.718C17.0407 14.502 17.0947 14.274 17.1667 14.052C17.1844 14.0167 17.2045 13.9827 17.2267 13.95C17.2538 13.9759 17.2762 14.0063 17.2927 14.04C17.358 14.3834 17.4585 14.7192 17.5927 15.042C17.8788 15.5103 18.2538 15.918 18.6967 16.242C18.9534 16.4473 19.2527 16.5928 19.5727 16.668C20.1615 16.8317 20.7839 16.8317 21.3727 16.668C22.2355 16.4 22.978 15.8399 23.4727 15.084C23.5761 14.8935 23.6586 14.6923 23.7187 14.484C23.8085 14.0906 23.8489 13.6874 23.8387 13.284C23.8654 12.7063 23.6892 12.1375 23.3407 11.676C23.0459 11.199 22.6333 10.806 22.1425 10.5349C21.6517 10.2638 21.0994 10.1236 20.5387 10.128C20.202 10.1393 19.8695 10.2062 19.5547 10.326C19.2491 10.3838 18.9601 10.5088 18.7087 10.692C18.1617 11.1107 17.7336 11.665 17.4667 12.3C17.4363 12.3983 17.4122 12.4986 17.3947 12.6C17.3947 12.6 17.3227 12.642 17.2867 12.642C17.2507 12.642 17.1907 12.642 17.1847 12.594C17.1887 12.454 17.1704 12.3143 17.1307 12.18C16.9665 11.8069 16.7655 11.4512 16.5307 11.118C16.2871 10.852 16.0178 10.6109 15.7267 10.398C15.7267 10.398 15.6367 10.398 15.6067 10.398C15.1736 10.1002 14.6461 9.97211 14.1247 10.038ZM17.9407 23.946C17.1073 23.9313 16.2737 23.9674 15.4447 24.054C14.9647 24.156 14.4607 24.186 13.9867 24.324C13.5172 24.4262 13.0951 24.6816 12.7867 25.05C12.0219 26.2725 11.5079 27.6349 11.2747 29.058C11.2599 29.0966 11.2599 29.1394 11.2747 29.178C11.3047 29.238 11.3647 29.334 11.4007 29.328C11.4367 29.322 11.7247 29.448 11.7667 29.226C11.7846 29.0502 11.8228 28.877 11.8807 28.71C11.938 28.5458 11.9822 28.3772 12.0127 28.206C12.2215 27.378 12.5151 26.5738 12.8887 25.806C13.109 25.3591 13.494 25.015 13.9627 24.846C14.2789 24.729 14.6068 24.6465 14.9407 24.6C15.4836 24.525 16.0306 24.4829 16.5787 24.474C17.3287 24.474 18.0847 24.474 18.8347 24.474C19.6847 24.4393 20.5353 24.5262 21.3607 24.732C22.0556 24.8774 22.6995 25.2045 23.2267 25.68C23.8025 26.3246 24.3356 27.006 24.8227 27.72C25.2187 28.212 25.5547 28.752 25.9207 29.268C25.9687 29.334 26.0047 29.352 26.1067 29.298C26.3467 29.16 26.4067 29.064 26.2627 28.86C26.0227 28.524 25.7587 28.194 25.5127 27.858C25.2667 27.522 25.1647 27.33 24.9787 27.078C24.6547 26.64 24.2947 26.226 23.9827 25.788C23.6334 25.2693 23.1504 24.8546 22.5847 24.588C21.7566 24.23 20.87 24.0267 19.9687 23.988C19.3447 23.916 18.7147 23.946 17.9407 23.946ZM12.9367 5.652C12.7807 5.652 12.6847 5.652 12.6607 5.862C12.5798 6.35994 12.4155 6.84068 12.1747 7.284C11.6494 8.46998 10.8949 9.54048 9.95468 10.434C9.72068 10.65 9.45668 10.842 9.21068 11.034C8.62423 11.5284 7.97699 11.9458 7.28468 12.276C7.05718 12.4233 6.8136 12.544 6.55868 12.636C6.30668 12.702 6.39068 12.882 6.42668 12.96C6.46268 13.038 6.56468 13.242 6.75668 13.116C7.29668 12.762 7.91468 12.582 8.44868 12.198C8.98268 11.814 9.43268 11.454 9.93668 11.106C10.5967 10.65 10.9567 9.942 11.5447 9.45C11.7547 8.964 12.1447 8.58 12.3127 8.076C12.4807 7.572 12.7927 7.104 13.0027 6.612C13.0903 6.37687 13.1546 6.13371 13.1947 5.886C13.1947 5.694 13.1227 5.616 12.9367 5.652ZM19.0207 20.19H19.6207C19.9812 20.1716 20.3225 20.0222 20.5807 19.77C20.7847 19.596 20.6167 19.362 20.7487 19.212C20.8807 19.062 20.6887 18.966 20.6467 18.954C20.6047 18.942 20.4067 18.864 20.3287 19.026C20.2827 19.1091 20.2426 19.1953 20.2087 19.284C20.1807 19.3895 20.1217 19.4842 20.0394 19.5559C19.957 19.6275 19.8551 19.6729 19.7467 19.686C19.5187 19.686 19.2907 19.686 19.0567 19.686C18.558 19.6474 18.0604 19.7739 17.6407 20.046C17.4597 20.1537 17.2511 20.2059 17.0407 20.196C16.4442 20.1121 15.843 20.066 15.2407 20.058C15.0547 20.058 14.8627 20.058 14.6767 20.058C14.5966 20.0656 14.5158 20.0544 14.4408 20.0252C14.3657 19.9961 14.2986 19.9498 14.2447 19.89C14.1497 19.813 14.0756 19.7132 14.0295 19.5999C13.9833 19.4866 13.9665 19.3635 13.9807 19.242C13.9807 19.038 14.0347 18.816 13.8067 18.69C13.7527 18.654 13.6687 18.588 13.6387 18.606C13.6021 18.6224 13.5699 18.6473 13.5449 18.6786C13.5199 18.7099 13.5026 18.7467 13.4947 18.786C13.4947 19.014 13.4947 19.242 13.4947 19.47C13.5197 19.7476 13.6406 20.0078 13.8366 20.2059C14.0326 20.4041 14.2914 20.5279 14.5687 20.556H15.8767C15.998 20.5548 16.1189 20.5689 16.2367 20.598C16.7983 20.7544 17.3976 20.7011 17.9227 20.448C18.2529 20.2497 18.6367 20.1595 19.0207 20.19ZM22.2007 6.39C22.2183 6.54468 22.2504 6.69736 22.2967 6.846C22.4801 7.35453 22.6987 7.84972 22.9507 8.328C23.3177 9.01086 23.7759 9.64063 24.3127 10.2C24.5107 10.4005 24.7277 10.5814 24.9607 10.74C25.6514 11.356 26.4716 11.8091 27.3607 12.066C27.5467 12.108 27.6547 12.126 27.7087 11.964C27.7627 11.802 27.8047 11.676 27.5407 11.658C27.4027 11.658 27.2887 11.46 27.1447 11.43C26.3758 11.189 25.6705 10.779 25.0807 10.23C24.5066 9.77275 24.0293 9.20572 23.6767 8.562C23.4159 8.19538 23.2135 7.79058 23.0767 7.362C22.9221 7.00882 22.8035 6.64096 22.7227 6.264C22.7227 6.114 22.5067 6.006 22.3447 6.03C22.1827 6.054 22.2607 6.222 22.2307 6.324C22.2158 6.34213 22.2037 6.36235 22.1947 6.384L22.2007 6.39Z" fill="#FFC225"/>
<path d="M14.1247 10.038C14.6536 9.97102 15.1884 10.1037 15.6247 10.41C15.6547 10.41 15.7207 10.41 15.7447 10.41C16.0358 10.6229 16.3052 10.864 16.5487 11.13C16.7835 11.4632 16.9845 11.8189 17.1487 12.192C17.1885 12.3263 17.2067 12.466 17.2027 12.606C17.2027 12.606 17.2687 12.654 17.3047 12.654C17.3407 12.654 17.4067 12.654 17.4127 12.612C17.4229 12.5151 17.4389 12.4189 17.4607 12.324C17.7276 11.689 18.1557 11.1347 18.7027 10.716C18.9541 10.5329 19.2431 10.4078 19.5487 10.35C19.8636 10.2302 20.1961 10.1633 20.5327 10.152C21.0934 10.1476 21.6458 10.2878 22.1365 10.5589C22.6273 10.83 23.04 11.223 23.3347 11.7C23.6833 12.1615 23.8594 12.7303 23.8327 13.308C23.8429 13.7114 23.8026 14.1146 23.7127 14.508C23.6526 14.7163 23.5702 14.9175 23.4667 15.108C22.972 15.8639 22.2295 16.424 21.3667 16.692C20.7779 16.8557 20.1556 16.8557 19.5667 16.692C19.2467 16.6168 18.9475 16.4713 18.6907 16.266C18.2479 15.942 17.8728 15.5343 17.5867 15.066C17.4526 14.7432 17.352 14.4074 17.2867 14.064C17.2702 14.0303 17.2479 13.9999 17.2207 13.974C17.1985 14.0067 17.1785 14.0407 17.1607 14.076C17.0887 14.298 17.0347 14.526 16.9507 14.742C16.6583 15.3551 16.1851 15.864 15.5947 16.2C15.3043 16.3963 14.9709 16.5197 14.6227 16.56C14.1706 16.644 13.7069 16.644 13.2547 16.56C12.641 16.3932 12.0847 16.0612 11.6467 15.6C11.3264 15.2904 11.0752 14.9164 10.9097 14.5028C10.7443 14.0891 10.6683 13.6451 10.6867 13.2C10.6774 12.8029 10.7522 12.4084 10.9063 12.0423C11.0604 11.6762 11.2903 11.3469 11.5807 11.076C11.8087 10.878 12.0127 10.662 12.2647 10.476C12.6676 10.1802 13.1571 10.0262 13.6567 10.038H14.1247ZM17.8267 13.452C17.7823 13.8451 17.8358 14.243 17.9824 14.6104C18.1289 14.9779 18.364 15.3034 18.6667 15.558C18.9751 15.8595 19.3512 16.0827 19.7635 16.209C20.1758 16.3353 20.6124 16.3611 21.0367 16.284C21.4934 16.2264 21.9167 16.0147 22.2367 15.684C22.3087 15.612 22.2967 15.594 22.2367 15.504C21.9969 14.9921 21.716 14.5005 21.3967 14.034C21.2537 13.816 21.0867 13.6147 20.8987 13.434C20.8147 13.368 20.6947 13.368 20.6827 13.524C20.686 13.6423 20.6591 13.7595 20.6045 13.8644C20.5499 13.9694 20.4694 14.0588 20.3707 14.124C19.9387 14.34 19.4767 14.604 19.0147 14.166C18.5287 14.07 18.6487 13.566 18.4147 13.296C18.4927 13.038 18.4687 12.732 18.7087 12.54C18.9487 12.348 18.9547 12.144 19.2247 12.132C19.2247 12.132 19.2247 12.024 19.2247 12.012C19.0449 11.9395 18.8738 11.8469 18.7147 11.736C18.5227 11.55 18.4267 11.67 18.3187 11.796C18.2107 11.922 18.2167 11.964 18.1627 12.042C18.012 12.2409 17.9044 12.469 17.8465 12.7117C17.7887 12.9544 17.7819 13.2065 17.8267 13.452ZM14.0887 16.038C14.5807 16.188 15.0067 15.888 15.4507 15.672C15.7712 15.4928 16.0521 15.2505 16.2764 14.9598C16.5007 14.669 16.6637 14.3358 16.7557 13.9803C16.8477 13.6248 16.8666 13.2543 16.8115 12.8913C16.7563 12.5282 16.6281 12.1801 16.4347 11.868C16.3747 11.7692 16.2797 11.6964 16.1686 11.6642C16.0575 11.632 15.9384 11.6426 15.8347 11.694C15.5707 11.814 15.3187 11.952 15.0607 12.09C15.0096 12.1262 14.9649 12.1708 14.9287 12.222C14.9728 12.2495 15.0189 12.2736 15.0667 12.294C15.3361 12.3851 15.568 12.5622 15.7267 12.798C15.8421 12.9376 15.9148 13.1075 15.936 13.2873C15.9573 13.4672 15.9263 13.6493 15.8467 13.812C15.7685 14.0059 15.641 14.176 15.4768 14.3054C15.3127 14.4349 15.1175 14.5192 14.9107 14.55C14.6012 14.5635 14.2984 14.4567 14.0658 14.2521C13.8332 14.0474 13.6888 13.7607 13.6627 13.452C13.6522 13.3977 13.6296 13.3465 13.5967 13.302L13.5067 13.386C12.9912 13.9318 12.5713 14.5606 12.2647 15.246C12.2227 15.348 12.1567 15.396 12.2647 15.474L12.5587 15.678C13.0061 15.9843 13.5517 16.1126 14.0887 16.038ZM11.1547 13.344C11.1862 13.625 11.2363 13.9036 11.3047 14.178C11.3926 14.4148 11.5116 14.6387 11.6587 14.844C11.7427 14.976 11.8507 14.958 11.9227 14.808C12.3169 13.9973 12.8558 13.2653 13.5127 12.648C13.6687 12.498 13.8727 12.396 14.0287 12.246C14.3406 11.9393 14.7096 11.6968 15.1147 11.532C15.3255 11.4356 15.5264 11.319 15.7147 11.184C15.7447 11.184 15.7567 11.064 15.7507 11.058C15.5167 10.92 15.2767 10.782 15.0367 10.668C14.6483 10.5503 14.2418 10.5035 13.8367 10.53C13.4757 10.5109 13.1152 10.5763 12.784 10.7211C12.4528 10.8659 12.1599 11.0861 11.9287 11.364C11.4313 11.9034 11.155 12.6102 11.1547 13.344ZM23.3227 13.536C23.2567 13.242 23.3647 12.936 23.2507 12.63C23.0609 12.0531 22.6907 11.5525 22.1947 11.202C21.754 10.8807 21.2289 10.6953 20.6842 10.6686C20.1394 10.642 19.5987 10.7752 19.1287 11.052C18.9427 11.142 18.9367 11.322 19.1287 11.4C20.0327 11.8158 20.8231 12.4436 21.4327 13.23C21.8294 13.6414 22.1485 14.1211 22.3747 14.646C22.4609 14.8414 22.5654 15.0282 22.6867 15.204C22.7167 15.264 22.7587 15.348 22.8427 15.204C23.2021 14.7258 23.373 14.1321 23.3227 13.536Z" fill="black"/>
<path d="M17.9407 23.946C18.7147 23.946 19.3447 23.946 19.9687 23.946C20.87 23.9847 21.7566 24.188 22.5847 24.546C23.1503 24.8126 23.6334 25.2273 23.9827 25.746C24.2947 26.184 24.6547 26.598 24.9787 27.036C25.1647 27.288 25.3327 27.558 25.5127 27.816C25.6927 28.074 26.0227 28.482 26.2627 28.818C26.4067 29.022 26.3467 29.118 26.1067 29.256C26.0047 29.31 25.9687 29.292 25.9207 29.226C25.5547 28.722 25.1947 28.2 24.8227 27.69C24.3356 26.976 23.8024 26.2946 23.2267 25.65C22.6995 25.1745 22.0556 24.8474 21.3607 24.702C20.5353 24.4962 19.6847 24.4093 18.8347 24.444C18.0847 24.444 17.3287 24.444 16.5787 24.444C16.0306 24.4529 15.4836 24.495 14.9407 24.57C14.6142 24.624 14.2945 24.7125 13.9867 24.834C13.5169 25.0045 13.1318 25.3509 12.9127 25.8C12.5391 26.5678 12.2455 27.372 12.0367 28.2C12.0062 28.3712 11.962 28.5398 11.9047 28.704C11.8468 28.871 11.8085 29.0442 11.7907 29.22C11.7487 29.442 11.5507 29.304 11.4247 29.322C11.2987 29.34 11.3287 29.232 11.2987 29.172C11.2839 29.1334 11.2839 29.0906 11.2987 29.052C11.5319 27.6289 12.0459 26.2665 12.8107 25.044C13.1191 24.6756 13.5412 24.4202 14.0107 24.318C14.4847 24.18 14.9887 24.15 15.4687 24.048C16.2899 23.9644 17.1154 23.9303 17.9407 23.946Z" fill="black"/>
<path d="M12.9367 5.652C13.1227 5.616 13.2127 5.694 13.1707 5.886C13.1396 6.13897 13.0833 6.38821 13.0027 6.63C12.7927 7.122 12.4987 7.59 12.3127 8.094C12.1267 8.598 11.7547 9 11.5447 9.468C10.9447 9.96 10.5967 10.668 9.9367 11.124C9.4327 11.472 8.9467 11.856 8.4487 12.216C7.9507 12.576 7.2967 12.78 6.7567 13.134C6.5647 13.26 6.4747 13.074 6.4267 12.978C6.3787 12.882 6.3067 12.72 6.5587 12.654C6.81362 12.562 7.0572 12.4413 7.2847 12.294C7.977 11.9638 8.62425 11.5464 9.2107 11.052C9.4567 10.842 9.7207 10.65 9.9547 10.452C10.895 9.55848 11.6494 8.48798 12.1747 7.302C12.4155 6.85868 12.5798 6.37794 12.6607 5.88C12.6847 5.64 12.7807 5.64 12.9367 5.652Z" fill="black"/>
<path d="M19.0207 20.19C18.6115 20.1473 18.1998 20.2423 17.8507 20.46C17.3256 20.7131 16.7263 20.7664 16.1647 20.61C16.047 20.5809 15.926 20.5668 15.8047 20.568H14.4967C14.2195 20.5399 13.9606 20.4161 13.7646 20.2179C13.5687 20.0198 13.4478 19.7596 13.4227 19.482C13.4227 19.254 13.4227 19.026 13.4227 18.798C13.4307 18.7587 13.4479 18.7219 13.4729 18.6906C13.498 18.6593 13.5301 18.6344 13.5667 18.618C13.5967 18.618 13.6807 18.666 13.7347 18.702C13.9627 18.828 13.9267 19.05 13.9087 19.254C13.8946 19.3755 13.9114 19.4986 13.9575 19.6119C14.0037 19.7252 14.0777 19.825 14.1727 19.902C14.2266 19.9617 14.2938 20.0081 14.3688 20.0372C14.4438 20.0664 14.5246 20.0776 14.6047 20.07C14.7907 20.07 14.9827 20.07 15.1687 20.07C15.771 20.078 16.3722 20.1241 16.9687 20.208C17.1791 20.2179 17.3878 20.1657 17.5687 20.058C17.9885 19.7859 18.486 19.6594 18.9847 19.698C19.2187 19.698 19.4467 19.698 19.6747 19.698C19.7831 19.6849 19.885 19.6395 19.9674 19.5679C20.0497 19.4962 20.1087 19.4015 20.1367 19.296C20.1706 19.2073 20.2107 19.1211 20.2567 19.038C20.3347 18.876 20.4787 18.936 20.5747 18.966C20.6707 18.996 20.8387 19.044 20.6767 19.224C20.5147 19.404 20.7127 19.608 20.5087 19.782C20.2506 20.0342 19.9092 20.1836 19.5487 20.202L19.0207 20.19Z" fill="black"/>
<path d="M22.1947 6.384C22.1916 6.36211 22.1916 6.3399 22.1947 6.318C22.2247 6.216 22.1107 6.06 22.3087 6.024C22.5067 5.988 22.6807 6.108 22.6867 6.258C22.7675 6.63497 22.8861 7.00283 23.0407 7.356C23.1775 7.78459 23.3799 8.18939 23.6407 8.556C24.0047 9.19385 24.4922 9.75273 25.0747 10.2C25.6645 10.749 26.3697 11.159 27.1387 11.4C27.2827 11.43 27.3967 11.622 27.5347 11.628C27.7987 11.628 27.7327 11.838 27.7027 11.934C27.6727 12.03 27.5407 12.078 27.3547 12.036C26.4655 11.7791 25.6454 11.326 24.9547 10.71C24.7217 10.5514 24.5047 10.3705 24.3067 10.17C23.7699 9.61064 23.3117 8.98086 22.9447 8.298C22.6926 7.81972 22.4741 7.32453 22.2907 6.816C22.2458 6.67516 22.2137 6.53058 22.1947 6.384Z" fill="black"/>
<path d="M17.8267 13.452C17.7895 13.2096 17.8023 12.9621 17.8642 12.7248C17.9261 12.4875 18.0359 12.2654 18.1867 12.072C18.2407 11.994 18.2827 11.898 18.3427 11.826C18.4027 11.754 18.5467 11.58 18.7387 11.766C18.8978 11.8769 19.0689 11.9695 19.2487 12.042V12.162C18.9787 12.162 18.9007 12.432 18.7327 12.57C18.5647 12.708 18.5167 13.068 18.4387 13.326C18.6607 13.596 18.5407 14.1 19.0387 14.196C19.5007 14.634 19.9627 14.37 20.3947 14.154C20.4934 14.0888 20.5739 13.9994 20.6285 13.8944C20.6831 13.7895 20.71 13.6723 20.7067 13.554C20.7067 13.398 20.8387 13.398 20.9227 13.464C21.1107 13.6447 21.2777 13.846 21.4207 14.064C21.74 14.5305 22.0209 15.0221 22.2607 15.534C22.3027 15.624 22.3147 15.642 22.2607 15.714C21.9406 16.0447 21.5173 16.2564 21.0607 16.314C20.6364 16.391 20.1998 16.3653 19.7875 16.239C19.3751 16.1127 18.9991 15.8895 18.6907 15.588C18.3791 15.333 18.1366 15.0037 17.9856 14.6305C17.8346 14.2572 17.78 13.8519 17.8267 13.452Z" fill="#FFC225"/>
<path d="M14.0887 16.038C13.5576 16.108 13.0193 15.9799 12.5767 15.678L12.2827 15.474C12.1687 15.396 12.2347 15.348 12.2827 15.246C12.5893 14.5606 13.0092 13.9318 13.5247 13.386L13.6147 13.302C13.6476 13.3465 13.6701 13.3977 13.6807 13.452C13.7067 13.7607 13.8512 14.0474 14.0838 14.2521C14.3164 14.4567 14.6192 14.5635 14.9287 14.55C15.1357 14.5171 15.3305 14.4306 15.4937 14.299C15.6568 14.1674 15.7827 13.9954 15.8587 13.8C15.9383 13.6373 15.9693 13.4552 15.948 13.2753C15.9267 13.0955 15.8541 12.9256 15.7387 12.786C15.5799 12.5502 15.348 12.3731 15.0787 12.282C15.0309 12.2616 14.9848 12.2375 14.9407 12.21C14.9769 12.1588 15.0215 12.1142 15.0727 12.078C15.3307 11.94 15.5827 11.802 15.8467 11.682C15.9503 11.6306 16.0695 11.62 16.1806 11.6522C16.2917 11.6844 16.3866 11.7572 16.4467 11.856C16.6401 12.1681 16.7683 12.5162 16.8234 12.8793C16.8786 13.2423 16.8596 13.6128 16.7677 13.9683C16.6757 14.3238 16.5127 14.657 16.2884 14.9478C16.0641 15.2385 15.7832 15.4808 15.4627 15.66C14.9947 15.888 14.5807 16.2 14.0887 16.038Z" fill="#FFC225"/>
<path d="M11.1547 13.344C11.1565 12.6094 11.435 11.9025 11.9347 11.364C12.1658 11.0861 12.4587 10.8659 12.7899 10.7211C13.1212 10.5763 13.4817 10.5109 13.8427 10.53C14.2477 10.5035 14.6542 10.5503 15.0427 10.668C15.2827 10.782 15.5227 10.92 15.7567 11.058C15.7567 11.058 15.7567 11.166 15.7207 11.184C15.5323 11.319 15.3314 11.4356 15.1207 11.532C14.7155 11.6968 14.3465 11.9393 14.0347 12.246C13.8787 12.396 13.6747 12.498 13.5187 12.648C12.8617 13.2653 12.3229 13.9973 11.9287 14.808C11.8567 14.958 11.7487 14.976 11.6647 14.844C11.5176 14.6387 11.3985 14.4148 11.3107 14.178C11.2402 13.9038 11.1881 13.6252 11.1547 13.344Z" fill="#FFC225"/>
<path d="M23.3227 13.536C23.371 14.1356 23.1957 14.7319 22.8307 15.21C22.7467 15.348 22.7047 15.264 22.6747 15.21C22.5534 15.0342 22.4489 14.8474 22.3627 14.652C22.1365 14.1271 21.8174 13.6474 21.4207 13.236C20.8117 12.4474 20.0213 11.8175 19.1167 11.4C18.9247 11.322 18.9307 11.142 19.1167 11.052C19.5867 10.7752 20.1273 10.642 20.6721 10.6686C21.2169 10.6953 21.742 10.8807 22.1827 11.202C22.6832 11.5506 23.0577 12.0514 23.2507 12.63C23.3947 12.948 23.2567 13.242 23.3227 13.536Z" fill="#FFC225"/>
</g>
<defs>
<clipPath id="clip0">
<rect width="36" height="36" fill="white"/>
</clipPath>
</defs>
</svg>
