<svg width="37" height="37" viewBox="0 0 37 37" fill="none" xmlns="http://www.w3.org/2000/svg">
<path d="M18.034 0.99999H18.874C19.274 0.947305 19.6803 0.965585 20.074 1.05399C20.422 1.19199 20.818 0.96399 21.118 1.25199C22.1454 1.37585 23.1532 1.62781 24.118 2.00199C24.8094 2.24701 25.4831 2.53971 26.134 2.87799C26.9642 3.28776 27.766 3.75281 28.534 4.26999C28.894 4.49199 29.164 4.86999 29.512 5.09199C30.1602 5.60238 30.7625 6.16854 31.312 6.78399C31.783 7.30425 32.2237 7.85115 32.632 8.42199C33.413 9.49603 34.073 10.653 34.6 11.872C34.9281 12.4701 35.1532 13.1192 35.266 13.792C35.308 14.0798 35.3951 14.3592 35.524 14.62C35.674 14.902 35.59 15.22 35.716 15.478C35.801 15.8734 35.8572 16.2744 35.884 16.678C36.0156 17.3029 36.066 17.9422 36.034 18.58C36.082 19.2251 36.082 19.8729 36.034 20.518C35.944 21.226 35.854 21.934 35.716 22.636C35.5005 23.543 35.2381 24.4382 34.93 25.318C34.6837 26.0512 34.3703 26.7602 33.994 27.436C33.592 28.2036 33.1263 28.9362 32.602 29.626C32.266 30.052 31.918 30.466 31.576 30.892C31.273 31.3036 30.9249 31.68 30.538 32.014C29.938 32.506 29.338 33.04 28.738 33.508C27.8873 34.1381 26.9817 34.6903 26.032 35.158C25.1969 35.5801 24.3278 35.9313 23.434 36.208C22.768 36.412 22.072 36.556 21.394 36.724C20.908 36.838 20.374 36.766 19.882 36.874C18.922 37.084 17.95 36.916 16.99 37C16.69 37 16.45 36.862 16.168 36.856C15.9067 36.8729 15.6445 36.8424 15.394 36.766C15.1063 36.6851 14.8105 36.6368 14.512 36.622C13.7834 36.4856 13.0656 36.2971 12.364 36.058C11.2786 35.7085 10.2328 35.2459 9.24399 34.678C7.36729 33.6242 5.69482 32.2423 4.30599 30.598C3.31411 29.4693 2.4823 28.2095 1.83399 26.854C1.35999 25.894 1.08999 24.862 0.633988 23.896C0.633988 23.194 0.213988 22.57 0.255988 21.856C0.063988 21.538 0.195988 21.178 0.117988 20.848C-0.00281362 19.8246 -0.0309278 18.7924 0.033988 17.764C0.0479817 17.5066 0.0881897 17.2512 0.153988 17.002C0.145822 16.7406 0.178206 16.4795 0.249988 16.228C0.313506 15.9388 0.361574 15.6463 0.393988 15.352C0.477988 15.088 0.441988 14.788 0.537988 14.53C0.855988 13.66 1.08999 12.766 1.46199 11.908C1.92754 10.8358 2.49198 9.8094 3.14799 8.84199C3.32199 8.58399 3.54399 8.35599 3.69999 8.07999C3.87718 7.82557 4.07807 7.58851 4.29999 7.37199C4.69599 6.92799 5.07399 6.46599 5.49999 6.05799C6.43624 5.14911 7.46827 4.34441 8.57799 3.65799C9.08306 3.34212 9.60592 3.05564 10.144 2.79999C10.666 2.55999 11.224 2.36799 11.746 2.13999C12.448 1.83399 13.198 1.71999 13.894 1.42599C14.1258 1.37427 14.3601 1.33422 14.596 1.30599C14.956 1.19799 15.364 1.25199 15.724 1.14999C16.0971 1.04657 16.4828 0.996081 16.87 0.99999H18.034ZM18.034 1.50399C17.6583 1.52502 17.2817 1.52502 16.906 1.50399C16.3356 1.49125 15.7657 1.54562 15.208 1.66599C14.7085 1.75224 14.2138 1.86439 13.726 2.00199C12.8054 2.21742 11.9089 2.52497 11.05 2.91999C10.1743 3.29283 9.33645 3.74892 8.54799 4.28199C7.6549 4.86216 6.81375 5.51861 6.03399 6.24399C5.32145 6.91757 4.66712 7.65018 4.07799 8.43399C3.51484 9.21421 2.99602 10.0255 2.52399 10.864C2.22399 11.41 2.00199 11.986 1.74999 12.55C1.49834 13.0756 1.31098 13.6296 1.19199 14.2C0.967621 14.8567 0.83438 15.5411 0.795988 16.234C0.555988 16.498 0.693988 16.834 0.675988 17.122C0.607721 17.4141 0.56159 17.7109 0.537988 18.01C0.633988 18.934 0.417988 19.888 0.669988 20.8C0.735988 21.07 0.633988 21.346 0.777988 21.634C0.861898 21.8977 0.902426 22.1733 0.897988 22.45C0.991835 23.0632 1.14454 23.666 1.35399 24.25C1.78982 25.6361 2.40503 26.9594 3.18399 28.186C3.86506 29.2642 4.65522 30.2695 5.54199 31.186C6.09934 31.7514 6.70128 32.2711 7.34199 32.74C8.05681 33.3341 8.82394 33.8622 9.63399 34.318C10.264 34.654 10.93 34.918 11.566 35.236C12.2476 35.5088 12.9424 35.7471 13.648 35.95C13.9133 36.0253 14.1841 36.0794 14.458 36.112C14.776 36.184 15.124 36.172 15.4 36.268C15.6519 36.3367 15.9132 36.365 16.174 36.352C16.456 36.352 16.696 36.526 17.002 36.496C17.434 36.454 17.872 36.496 18.31 36.496C18.7342 36.5103 19.1587 36.4781 19.576 36.4C19.984 36.298 20.428 36.472 20.812 36.22C21.532 36.22 22.192 35.884 22.906 35.842C23.163 35.6637 23.4595 35.5504 23.77 35.512C24.07 35.428 24.37 35.284 24.64 35.188C24.9357 35.0975 25.2228 34.981 25.498 34.84C26.206 34.438 26.944 34.072 27.622 33.64C28.339 33.172 29.0227 32.6547 29.668 32.092C30.4506 31.405 31.1751 30.6544 31.834 29.848C31.99 29.65 32.14 29.434 32.278 29.248C32.584 28.75 32.914 28.264 33.22 27.766C33.8034 26.7828 34.282 25.7411 34.648 24.658C34.9919 23.8005 35.2062 22.8966 35.284 21.976C35.554 21.634 35.368 21.208 35.506 20.818C35.5726 20.4067 35.5726 19.9873 35.506 19.576C35.506 19.39 35.506 19.204 35.506 19.012C35.524 18.1102 35.4819 17.2082 35.38 16.312C35.38 16.27 35.38 16.222 35.38 16.186C35.1799 15.5755 35.0215 14.952 34.906 14.32C34.6965 13.534 34.4257 12.7656 34.096 12.022C33.7786 11.306 33.4241 10.6071 33.034 9.92799C32.4776 8.98655 31.8219 8.10752 31.078 7.30599C30.262 6.38024 29.3465 5.54721 28.348 4.82199C27.88 4.49799 27.406 4.18599 26.92 3.89199C26.305 3.51359 25.661 3.18456 24.994 2.90799C24.67 2.79999 24.352 2.63799 24.034 2.52999C23.2682 2.20527 22.4601 1.99113 21.634 1.89399C21.46 1.61799 21.148 1.85799 20.902 1.69599C20.6413 1.60946 20.3657 1.5768 20.092 1.59999C19.828 1.59999 19.564 1.54599 19.3 1.53999C18.886 1.52199 18.466 1.52799 18.034 1.52799V1.50399Z" fill="black"/>
<path d="M18.034 1.52799C18.448 1.52799 18.868 1.52799 19.282 1.52799C19.546 1.52799 19.81 1.56399 20.074 1.58799C20.3545 1.56617 20.6364 1.60294 20.902 1.69599C21.148 1.85799 21.46 1.61799 21.634 1.89399C22.4601 1.99113 23.2682 2.20527 24.034 2.52999C24.364 2.63799 24.682 2.77599 25.006 2.90799C25.6668 3.18541 26.3048 3.51443 26.914 3.89199C27.4 4.18599 27.874 4.49199 28.342 4.82199C29.3404 5.54721 30.256 6.38024 31.072 7.30599C31.818 8.10722 32.4757 8.98626 33.034 9.92799C33.4293 10.5969 33.7897 11.2859 34.114 11.992C34.4436 12.7356 34.7145 13.504 34.924 14.29C35.0395 14.922 35.1978 15.5455 35.398 16.156C35.398 16.192 35.398 16.24 35.398 16.282C35.4999 17.1782 35.542 18.0802 35.524 18.982C35.524 19.174 35.524 19.36 35.524 19.546C35.5906 19.9573 35.5906 20.3767 35.524 20.788C35.386 21.178 35.572 21.604 35.302 21.946C35.2242 22.8666 35.0098 23.7705 34.666 24.628C34.3 25.7111 33.8214 26.7528 33.238 27.736C32.932 28.234 32.602 28.72 32.296 29.218C32.158 29.434 32.008 29.65 31.852 29.818C31.2026 30.6232 30.4882 31.3737 29.716 32.062C29.06 32.6364 28.3643 33.1637 27.634 33.64C26.956 34.09 26.218 34.456 25.51 34.84C25.2294 34.9861 24.9362 35.1066 24.634 35.2C24.346 35.296 24.064 35.44 23.764 35.524C23.4535 35.5624 23.157 35.6757 22.9 35.854C22.186 35.896 21.526 36.238 20.806 36.232C20.422 36.484 19.978 36.31 19.57 36.412C19.1418 36.4822 18.7071 36.5044 18.274 36.478C17.836 36.478 17.398 36.478 16.966 36.478C16.66 36.508 16.42 36.346 16.138 36.334C15.8771 36.347 15.6159 36.3187 15.364 36.25C15.088 36.154 14.764 36.166 14.422 36.094C14.1481 36.0614 13.8773 36.0073 13.612 35.932C12.9064 35.7291 12.2115 35.4908 11.53 35.218C10.894 34.894 10.228 34.618 9.59796 34.3C8.80336 33.8672 8.04844 33.3653 7.34196 32.8C6.70126 32.3311 6.09932 31.8114 5.54196 31.246C4.6552 30.3295 3.86504 29.3242 3.18396 28.246C2.41545 27.0178 1.81035 25.6946 1.38396 24.31C1.17452 23.726 1.02181 23.1232 0.927964 22.51C0.932402 22.2333 0.891874 21.9577 0.807964 21.694C0.633964 21.4 0.735964 21.094 0.669964 20.8C0.417964 19.888 0.633964 18.934 0.537964 17.998C0.561566 17.6989 0.607697 17.4021 0.675964 17.11C0.675964 16.81 0.555964 16.51 0.795964 16.222C0.835442 15.5331 0.968669 14.8529 1.19196 14.2C1.3138 13.6334 1.50315 13.0835 1.75596 12.562C2.00796 11.998 2.22996 11.422 2.52996 10.876C3.002 10.0375 3.52082 9.22622 4.08396 8.44599C4.67065 7.65827 5.32298 6.92164 6.03396 6.24399C6.81182 5.51889 7.65095 4.86244 8.54196 4.28199C9.33234 3.74859 10.1722 3.29248 11.05 2.91999C11.9151 2.52795 12.8177 2.2244 13.744 2.01399C14.2318 1.87639 14.7265 1.76424 15.226 1.67799C15.7837 1.55762 16.3536 1.50325 16.924 1.51599C17.2935 1.54035 17.664 1.54436 18.034 1.52799ZM14.134 10.666C13.7951 10.6617 13.458 10.7165 13.138 10.828C12.5072 11.1001 11.9454 11.5101 11.494 12.028C11.0669 12.616 10.7983 13.3041 10.714 14.026C10.6723 14.5417 10.761 15.0596 10.972 15.532C11.2114 16.2244 11.6817 16.8133 12.304 17.2C12.6258 17.4131 12.9777 17.577 13.348 17.686C13.7843 17.7871 14.2331 17.8235 14.68 17.794C15.172 17.7858 15.6511 17.6358 16.06 17.362C16.467 17.1435 16.8243 16.843 17.1093 16.4795C17.3943 16.116 17.6009 15.6974 17.716 15.25C17.716 15.214 17.812 15.172 17.854 15.172C17.879 15.1806 17.9017 15.1948 17.9204 15.2135C17.9392 15.2322 17.9534 15.255 17.962 15.28C18.0611 15.6943 18.2429 16.0844 18.4966 16.4267C18.7502 16.769 19.0704 17.0565 19.438 17.272C19.8623 17.5545 20.3453 17.7369 20.8504 17.8055C21.3555 17.8741 21.8697 17.8271 22.354 17.668C22.6895 17.5828 23.0095 17.4451 23.302 17.26C23.6961 16.9808 24.0391 16.6358 24.316 16.24C24.6893 15.644 24.9136 14.967 24.97 14.266C24.97 14.08 24.874 13.888 24.856 13.696C24.7836 13.1915 24.605 12.7082 24.332 12.2779C24.0589 11.8476 23.6976 11.4802 23.272 11.2C22.8273 10.9281 22.3301 10.7533 21.813 10.6871C21.296 10.6209 20.7708 10.6648 20.272 10.816C19.901 10.9317 19.5536 11.1125 19.246 11.35C18.59 11.798 18.1239 12.4737 17.938 13.246C17.938 13.276 17.848 13.306 17.794 13.312C17.7743 13.3107 17.7552 13.3045 17.7384 13.294C17.7217 13.2836 17.7078 13.2691 17.698 13.252C17.5619 12.6462 17.2361 12.0997 16.768 11.692C16.424 11.3477 16.0123 11.0787 15.5588 10.9021C15.1054 10.7255 14.6201 10.6451 14.134 10.666ZM18.37 28.216C19.0202 28.2462 19.6717 28.208 20.314 28.102C20.656 28 21.046 28.06 21.382 27.952C22.0665 27.7487 22.7361 27.4981 23.386 27.202C24.4387 26.6939 25.4078 26.0282 26.26 25.228C26.6324 24.8783 26.9737 24.4969 27.28 24.088C27.5456 23.7709 27.7807 23.4294 27.982 23.068C28.5574 22.1028 28.9918 21.0602 29.272 19.972C29.488 19.828 29.272 19.54 29.476 19.372C29.572 19.288 29.392 19.12 29.248 19.09C29.104 19.06 28.996 19.018 28.984 19.234C28.984 19.342 28.882 19.444 28.87 19.558C28.735 20.3241 28.4777 21.0636 28.108 21.748C27.5779 22.9078 26.8351 23.958 25.918 24.844C25.6396 25.1137 25.345 25.3661 25.036 25.6C24.5295 25.9744 23.9938 26.3074 23.434 26.596C22.7475 26.9556 22.023 27.2374 21.274 27.436C20.7797 27.5739 20.2734 27.6643 19.762 27.706C19.2004 27.736 18.6376 27.736 18.076 27.706C17.5048 27.7058 16.934 27.6757 16.366 27.616C15.7239 27.5179 15.0887 27.3796 14.464 27.202C13.178 26.8628 12.0135 26.1683 11.104 25.198C10.99 25.072 10.864 24.958 10.75 24.838C10.2222 24.2754 9.79229 23.6284 9.47796 22.924C9.26074 22.4075 9.07441 21.8786 8.91996 21.34C8.87298 21.173 8.8169 21.0088 8.75196 20.848C8.71865 20.7835 8.66387 20.7326 8.59705 20.7041C8.53024 20.6756 8.45559 20.6713 8.38596 20.692C8.23596 20.728 8.28996 20.86 8.29596 20.95C8.29682 21.0871 8.32117 21.2231 8.36796 21.352C8.55396 21.82 8.72196 22.294 8.88396 22.768C9.05931 23.2406 9.28458 23.6932 9.55596 24.118C9.85023 24.5718 10.1856 24.9976 10.558 25.39C11.068 25.9452 11.6586 26.4205 12.31 26.8C12.869 27.1079 13.4506 27.3727 14.05 27.592C14.2753 27.7057 14.5157 27.7865 14.764 27.832C15.04 27.832 15.292 28.06 15.586 27.97C16.303 28.1853 17.0528 28.2706 17.8 28.222L18.37 28.216ZM16.498 6.80799C16.57 6.80799 16.69 6.76599 16.702 6.72399C16.7087 6.62413 16.6944 6.52396 16.66 6.42999C16.66 6.39399 16.606 6.36999 16.576 6.33999C16.1481 5.92212 15.6681 5.56115 15.148 5.26599C14.6835 4.97791 14.1716 4.77474 13.636 4.66599C13.2396 4.57042 12.8247 4.58494 12.436 4.70799C11.7738 4.92693 11.1761 5.30618 10.696 5.81199C10.0845 6.51079 9.62301 7.32764 9.33996 8.21199C9.27996 8.35599 9.40596 8.50599 9.60396 8.53599C9.80196 8.56599 9.78996 8.53599 9.83796 8.34999C9.9887 7.91016 10.1901 7.48933 10.438 7.09599C10.692 6.4666 11.1451 5.93767 11.728 5.58999C12.1404 5.31663 12.6196 5.16104 13.114 5.13999C13.5868 5.16312 14.05 5.28149 14.476 5.48799C15.0599 5.73534 15.5914 6.0917 16.042 6.53799C16.156 6.66999 16.234 6.84999 16.498 6.80799ZM22.162 5.15199C22.0546 5.21019 21.9394 5.25263 21.82 5.27799C20.9836 5.43394 20.2386 5.90411 19.738 6.59199C19.6 6.74199 19.558 6.98199 19.42 7.13799C19.282 7.29399 19.588 7.35399 19.48 7.49199C19.5609 7.47597 19.6396 7.44976 19.714 7.41399C19.8103 7.35046 19.8955 7.27138 19.966 7.17999C20.3316 6.64634 20.8217 6.20976 21.394 5.90799C21.6736 5.76525 21.9804 5.68345 22.294 5.66799C22.813 5.76631 23.2983 5.99555 23.704 6.33399C24.2271 6.75522 24.6649 7.27249 24.994 7.85799C25.03 7.94799 25.132 8.00799 25.21 8.07999C25.288 8.15199 25.456 8.18799 25.552 8.03199C25.5958 7.9776 25.6197 7.90985 25.6197 7.83999C25.6197 7.77014 25.5958 7.70238 25.552 7.64799C25.1833 7.11565 24.7698 6.61583 24.316 6.15399C23.8838 5.80383 23.4052 5.5151 22.894 5.29599C22.6596 5.20781 22.4123 5.15915 22.162 5.15199ZM18.202 21.454C18.5131 21.4227 18.8129 21.32 19.078 21.154C19.5009 20.8601 20.0029 20.7011 20.518 20.698C20.704 20.698 20.89 20.698 21.076 20.698C21.4538 20.6806 21.8131 20.5296 22.09 20.272C22.1531 20.2364 22.2005 20.1784 22.2227 20.1095C22.245 20.0405 22.2404 19.9657 22.21 19.9C22.15 19.816 21.952 19.822 21.814 19.828C21.676 19.834 21.694 19.93 21.628 19.978C21.4416 20.1285 21.2074 20.2073 20.968 20.2C20.7683 20.1833 20.5676 20.1833 20.368 20.2C19.8584 20.2289 19.3666 20.397 18.946 20.686C18.7522 20.8597 18.5012 20.9558 18.241 20.9558C17.9807 20.9558 17.7297 20.8597 17.536 20.686C17.1682 20.4018 16.7452 20.1975 16.294 20.086C15.9815 20.038 15.6952 19.8832 15.484 19.648C15.4525 19.6226 15.4164 19.6037 15.3776 19.5924C15.3388 19.581 15.2981 19.5775 15.258 19.582C15.2178 19.5864 15.1789 19.5988 15.1436 19.6184C15.1082 19.6379 15.0771 19.6643 15.052 19.696C14.926 19.81 14.986 19.888 15.052 19.996C15.1926 20.1813 15.374 20.3317 15.5821 20.4358C15.7901 20.5398 16.0193 20.5946 16.252 20.596C16.4243 20.6205 16.5874 20.6886 16.726 20.794C16.894 20.896 17.038 21.046 17.212 21.142C17.5138 21.3201 17.8525 21.4269 18.202 21.454Z" fill="#FFC225"/>
<path d="M14.134 10.666C14.6223 10.641 15.1104 10.7183 15.5671 10.8929C16.0238 11.0675 16.439 11.3356 16.786 11.68C17.2542 12.0877 17.58 12.6342 17.716 13.24C17.7258 13.2571 17.7397 13.2716 17.7565 13.282C17.7732 13.2925 17.7923 13.2987 17.812 13.3C17.866 13.3 17.95 13.264 17.956 13.234C18.1419 12.4617 18.608 11.786 19.264 11.338C19.5716 11.1005 19.919 10.9197 20.29 10.804C20.7889 10.6528 21.314 10.6089 21.8311 10.6751C22.3481 10.7413 22.8453 10.9161 23.29 11.188C23.7191 11.4714 24.0826 11.8436 24.3558 12.2793C24.629 12.715 24.8057 13.2042 24.874 13.714C24.874 13.906 25.012 14.098 24.988 14.284C24.9316 14.9849 24.7073 15.662 24.334 16.258C24.0572 16.6538 23.7141 16.9988 23.32 17.278C23.0275 17.4631 22.7075 17.6008 22.372 17.686C21.8877 17.8451 21.3736 17.8921 20.8684 17.8235C20.3633 17.7549 19.8803 17.5725 19.456 17.29C19.0885 17.0745 18.7683 16.787 18.5146 16.4447C18.261 16.1024 18.0791 15.7123 17.98 15.298C17.9714 15.273 17.9572 15.2502 17.9385 15.2315C17.9198 15.2128 17.897 15.1986 17.872 15.19C17.83 15.19 17.74 15.232 17.734 15.268C17.6189 15.7154 17.4124 16.134 17.1273 16.4975C16.8423 16.861 16.485 17.1615 16.078 17.38C15.6692 17.6538 15.19 17.8038 14.698 17.812C14.2511 17.8415 13.8023 17.8051 13.366 17.704C12.9884 17.591 12.6303 17.4211 12.304 17.2C11.6774 16.8073 11.2066 16.2092 10.972 15.508C10.761 15.0356 10.6723 14.5177 10.714 14.002C10.7983 13.2801 11.0669 12.592 11.494 12.004C11.9454 11.4861 12.5072 11.0761 13.138 10.804C13.4595 10.7007 13.7965 10.654 14.134 10.666ZM21.334 17.314C21.8859 17.3393 22.4335 17.2061 22.912 16.93C23.3784 16.6606 23.7574 16.2628 24.004 15.784C24.2405 15.2923 24.4042 14.7688 24.49 14.23C24.256 13.948 24.436 13.576 24.274 13.258C24.084 12.8067 23.8249 12.3877 23.506 12.016C23.2141 11.7221 22.8591 11.4984 22.468 11.362C22.1322 11.2419 21.7803 11.1731 21.424 11.158C21.0425 11.1676 20.6637 11.224 20.296 11.326C19.9832 11.4325 19.6925 11.5952 19.438 11.806C19.2804 11.9068 19.1439 12.0372 19.036 12.19C18.7891 12.561 18.5705 12.9501 18.382 13.354C18.262 13.618 18.424 13.954 18.226 14.224C18.3308 14.7384 18.4814 15.2424 18.676 15.73C18.9597 16.2315 19.3745 16.6463 19.876 16.93C20.3105 17.1957 20.8129 17.3291 21.322 17.314H21.334ZM17.332 14.2C17.3797 13.7923 17.3251 13.3792 17.1732 12.9979C17.0214 12.6167 16.7769 12.2792 16.462 12.016C15.9171 11.4622 15.1748 11.1472 14.398 11.14C13.9702 11.1354 13.5457 11.2158 13.1492 11.3765C12.7527 11.5372 12.392 11.7749 12.088 12.076C11.5324 12.6466 11.2186 13.4096 11.212 14.206C11.2072 14.6124 11.285 15.0156 11.4408 15.391C11.5965 15.7664 11.8269 16.1063 12.118 16.39C12.7001 16.9688 13.4871 17.2944 14.308 17.296C14.7122 17.2994 15.1129 17.2212 15.4861 17.0659C15.8593 16.9106 16.1972 16.6815 16.4797 16.3923C16.7621 16.1032 16.9832 15.7599 17.1297 15.3832C17.2761 15.0064 17.345 14.604 17.332 14.2Z" fill="black"/>
<path d="M18.37 28.216H17.8C17.0528 28.2646 16.303 28.1793 15.586 27.964C15.292 28.054 15.04 27.856 14.764 27.826C14.5157 27.7805 14.2753 27.6997 14.05 27.586C13.4508 27.3686 12.8691 27.1059 12.31 26.8C11.6679 26.4222 11.0855 25.951 10.582 25.402C10.2096 25.0096 9.87422 24.5838 9.57996 24.13C9.30858 23.7052 9.0833 23.2526 8.90796 22.78C8.74596 22.306 8.57796 21.832 8.39196 21.364C8.34516 21.2351 8.32081 21.0991 8.31996 20.962C8.31996 20.872 8.25996 20.74 8.40996 20.704C8.47958 20.6833 8.55424 20.6876 8.62105 20.7161C8.68786 20.7446 8.74264 20.7955 8.77596 20.86C8.84089 21.0208 8.89698 21.185 8.94396 21.352C9.0984 21.8906 9.28473 22.4195 9.50196 22.936C9.81628 23.6404 10.2462 24.2874 10.774 24.85C10.888 24.97 11.014 25.084 11.128 25.21C12.0375 26.1803 13.202 26.8748 14.488 27.214C15.1127 27.3916 15.7479 27.5299 16.39 27.628C16.958 27.6877 17.5288 27.7178 18.1 27.718C18.6616 27.748 19.2244 27.748 19.786 27.718C20.2974 27.6763 20.8037 27.5859 21.298 27.448C22.047 27.2494 22.7715 26.9676 23.458 26.608C24.0099 26.3145 24.5376 25.9774 25.036 25.6C25.3449 25.3681 25.6394 25.1176 25.918 24.85C26.8351 23.964 27.5779 22.9138 28.108 21.754C28.4777 21.0696 28.735 20.3301 28.87 19.564C28.87 19.45 28.978 19.348 28.984 19.24C28.984 19.024 29.146 19.072 29.248 19.096C29.35 19.12 29.572 19.294 29.476 19.378C29.26 19.558 29.476 19.846 29.272 19.978C28.9918 21.0662 28.5574 22.1088 27.982 23.074C27.7807 23.4354 27.5456 23.7769 27.28 24.094C26.9737 24.5029 26.6324 24.8843 26.26 25.234C25.4078 26.0342 24.4387 26.6999 23.386 27.208C22.7361 27.5041 22.0665 27.7547 21.382 27.958C21.046 28.066 20.656 28.006 20.314 28.108C19.6715 28.212 19.02 28.2482 18.37 28.216Z" fill="black"/>
<path d="M16.498 6.80799C16.258 6.84999 16.156 6.66999 16.03 6.54399C15.5795 6.0977 15.048 5.74134 14.464 5.49399C14.0381 5.28749 13.5748 5.16913 13.102 5.14599C12.6077 5.16704 12.1284 5.32263 11.716 5.59599C11.1331 5.94367 10.68 6.47261 10.426 7.10199C10.1781 7.49533 9.97676 7.91616 9.82602 8.35599C9.77802 8.52399 9.72402 8.56599 9.59202 8.54199C9.46002 8.51799 9.26802 8.36199 9.32802 8.21799C9.61106 7.33365 10.0726 6.5168 10.684 5.81799C11.1641 5.31218 11.7619 4.93293 12.424 4.71399C12.8127 4.59095 13.2277 4.57642 13.624 4.67199C14.1596 4.78075 14.6716 4.98391 15.136 5.27199C15.6601 5.56442 16.1441 5.9234 16.576 6.33999C16.606 6.33999 16.654 6.39399 16.66 6.42999C16.6945 6.52397 16.7088 6.62413 16.702 6.72399C16.69 6.76599 16.57 6.78399 16.498 6.80799Z" fill="black"/>
<path d="M22.162 5.15199C22.4123 5.15915 22.6597 5.20781 22.894 5.29599C23.399 5.51656 23.8714 5.80525 24.298 6.15399C24.7519 6.61583 25.1654 7.11565 25.534 7.64799C25.5778 7.70239 25.6017 7.77014 25.6017 7.83999C25.6017 7.90985 25.5778 7.9776 25.534 8.03199C25.438 8.18799 25.324 8.20599 25.192 8.07999C25.06 7.95399 25.012 7.94799 24.976 7.85799C24.647 7.27249 24.2091 6.75522 23.686 6.33399C23.2855 5.99828 22.8067 5.7692 22.294 5.66799C21.9804 5.68345 21.6737 5.76525 21.394 5.90799C20.8218 6.20977 20.3317 6.64634 19.966 7.17999C19.8955 7.27139 19.8104 7.35046 19.714 7.41399C19.6396 7.44976 19.561 7.47597 19.48 7.49199C19.588 7.35399 19.258 7.31199 19.42 7.13799C19.582 6.96399 19.6 6.74199 19.738 6.59199C20.2387 5.90411 20.9836 5.43394 21.82 5.27799C21.9395 5.25263 22.0546 5.21019 22.162 5.15199Z" fill="black"/>
<path d="M18.202 21.454C17.8515 21.4232 17.5128 21.3123 17.212 21.13C17.038 21.034 16.894 20.884 16.726 20.782C16.5875 20.6766 16.4243 20.6085 16.252 20.584C16.0194 20.5826 15.7902 20.5278 15.5821 20.4238C15.374 20.3197 15.1927 20.1693 15.052 19.984C14.962 19.876 14.902 19.798 15.052 19.684C15.0771 19.6523 15.1082 19.6259 15.1436 19.6064C15.1789 19.5868 15.2178 19.5744 15.258 19.57C15.2982 19.5655 15.3388 19.569 15.3776 19.5804C15.4164 19.5917 15.4526 19.6106 15.484 19.636C15.6953 19.8712 15.9815 20.026 16.294 20.074C16.7452 20.1854 17.1682 20.3898 17.536 20.674C17.7297 20.8477 17.9808 20.9438 18.241 20.9438C18.5012 20.9438 18.7523 20.8477 18.946 20.674C19.361 20.3933 19.8439 20.2296 20.344 20.2C20.5436 20.1833 20.7443 20.1833 20.944 20.2C21.1835 20.2073 21.4176 20.1285 21.604 19.978C21.67 19.93 21.73 19.834 21.79 19.828C21.85 19.822 22.126 19.828 22.186 19.9C22.2164 19.9657 22.221 20.0405 22.1988 20.1095C22.1765 20.1784 22.1291 20.2364 22.066 20.272C21.7891 20.5296 21.4298 20.6806 21.052 20.698C20.866 20.698 20.68 20.698 20.494 20.698C19.979 20.7011 19.4769 20.8601 19.054 21.154C18.7961 21.3166 18.5049 21.4191 18.202 21.454Z" fill="black"/>
<path d="M21.322 17.314C20.7994 17.3393 20.2812 17.2076 19.834 16.936C19.3325 16.6523 18.9177 16.2375 18.634 15.736C18.4479 15.2377 18.3073 14.7236 18.214 14.2C18.412 13.936 18.25 13.6 18.37 13.33C18.5585 12.9261 18.7771 12.537 19.024 12.166C19.1319 12.0132 19.2684 11.8828 19.426 11.782C19.6804 11.5712 19.9712 11.4085 20.284 11.302C20.6517 11.2 21.0305 11.1436 21.412 11.134C21.7683 11.1491 22.1202 11.2179 22.456 11.338C22.8471 11.4744 23.2021 11.6981 23.494 11.992C23.8128 12.3637 24.0719 12.7827 24.262 13.234C24.424 13.552 24.262 13.924 24.478 14.206C24.3922 14.7448 24.2285 15.2683 23.992 15.76C23.7454 16.2388 23.3664 16.6366 22.9 16.906C22.424 17.1905 21.8762 17.3321 21.322 17.314ZM21.964 14.422C22.084 14.044 21.82 13.786 21.616 13.528C21.412 13.27 21.082 13.324 20.782 13.3C20.621 13.2774 20.4569 13.2977 20.3063 13.3588C20.1556 13.4199 20.0238 13.5196 19.924 13.648C19.8202 13.7541 19.7386 13.8799 19.684 14.0179C19.6294 14.156 19.6029 14.3036 19.606 14.452C19.648 14.7616 19.777 15.0529 19.978 15.292C20.2 15.592 20.548 15.466 20.77 15.676C21.046 15.49 21.424 15.58 21.67 15.31C21.7867 15.1965 21.8743 15.0565 21.9255 14.9019C21.9767 14.7473 21.9899 14.5827 21.964 14.422Z" fill="#FFC225"/>
<path d="M17.332 14.2C17.3449 14.602 17.2768 15.0024 17.1318 15.3775C16.9868 15.7527 16.7679 16.0948 16.488 16.3836C16.2081 16.6725 15.873 16.9021 15.5027 17.0588C15.1323 17.2155 14.7342 17.2962 14.332 17.296C13.5111 17.2944 12.724 16.9688 12.142 16.39C11.8509 16.1063 11.6205 15.7664 11.4647 15.391C11.309 15.0156 11.2312 14.6124 11.236 14.206C11.2426 13.4096 11.5564 12.6466 12.112 12.076C12.416 11.7749 12.7767 11.5372 13.1732 11.3765C13.5697 11.2158 13.9942 11.1355 14.422 11.14C15.1988 11.1472 15.9411 11.4622 16.486 12.016C16.7966 12.2817 17.0364 12.6203 17.1841 13.0014C17.3317 13.3826 17.3825 13.7944 17.332 14.2ZM16.198 14.038C16.2391 13.8686 16.2297 13.6908 16.1711 13.5267C16.1124 13.3625 16.0071 13.2191 15.868 13.114C15.7205 12.9827 15.5428 12.8898 15.3508 12.8436C15.1587 12.7974 14.9583 12.7993 14.7672 12.8491C14.576 12.899 14.4002 12.9952 14.2552 13.1294C14.1102 13.2635 14.0006 13.4313 13.936 13.618C13.8666 13.8157 13.8484 14.0278 13.883 14.2345C13.9176 14.4411 14.004 14.6357 14.134 14.8C14.1891 14.8948 14.2626 14.9776 14.3502 15.0435C14.4378 15.1095 14.5377 15.1572 14.644 15.184C14.9437 15.2579 15.2584 15.2433 15.55 15.142C15.958 14.932 16.33 14.626 16.198 14.062V14.038Z" fill="#FFC225"/>
<path d="M21.964 14.422C21.9899 14.5827 21.9767 14.7473 21.9255 14.9019C21.8744 15.0565 21.7867 15.1965 21.67 15.31C21.424 15.58 21.07 15.49 20.77 15.676C20.548 15.466 20.17 15.592 19.978 15.292C19.777 15.0529 19.648 14.7616 19.606 14.452C19.6029 14.3036 19.6294 14.156 19.684 14.0179C19.7386 13.8799 19.8202 13.7541 19.924 13.648C20.0238 13.5196 20.1556 13.4199 20.3063 13.3588C20.4569 13.2977 20.621 13.2774 20.782 13.3C21.082 13.3 21.412 13.264 21.616 13.528C21.82 13.792 22.084 14.044 21.964 14.422Z" fill="black"/>
<path d="M16.198 14.062C16.33 14.626 15.958 14.932 15.55 15.124C15.2584 15.2253 14.9437 15.2399 14.644 15.166C14.4323 15.1163 14.2489 14.9847 14.134 14.8C14.0109 14.6403 13.9286 14.4531 13.8941 14.2545C13.8596 14.0558 13.874 13.8518 13.936 13.66C14.0005 13.4733 14.1102 13.3055 14.2552 13.1714C14.4002 13.0372 14.576 12.941 14.7671 12.8911C14.9583 12.8413 15.1587 12.8394 15.3508 12.8856C15.5428 12.9318 15.7205 13.0247 15.868 13.156C16.0038 13.2597 16.1071 13.4001 16.1656 13.5607C16.2241 13.7213 16.2353 13.8952 16.198 14.062Z" fill="black"/>
</svg>
