<svg width="36" height="36" viewBox="0 0 36 36" fill="none" xmlns="http://www.w3.org/2000/svg">
<g clip-path="url(#clip0)">
<path d="M17.946 35.9639C17.61 35.9639 17.28 35.9639 16.944 35.9639C16.608 35.9639 16.398 35.8857 16.122 35.8436C15.8411 35.8459 15.561 35.8136 15.288 35.7474C14.9981 35.6663 14.7005 35.6159 14.4 35.597C13.6736 35.4623 12.9577 35.2754 12.258 35.0376C11.2647 34.7227 10.3073 34.3033 9.40203 33.7865C8.61545 33.342 7.85792 32.8478 7.13403 32.3068C6.19718 31.6097 5.3364 30.8153 4.56603 29.9368C3.78384 29.0494 3.08863 28.0886 2.49003 27.0677C2.03405 26.2996 1.6427 25.4948 1.32003 24.6617C1.00884 23.947 0.767707 23.2036 0.600034 22.4421C0.474034 21.8045 0.300034 21.185 0.216034 20.5293C0.207371 20.1006 0.173311 19.6728 0.114034 19.2481C0.0356543 18.7953 -0.00249526 18.3363 3.37078e-05 17.8767C-0.0479663 17.1549 0.222034 16.4571 0.126034 15.7353C0.336034 15.2 0.234034 14.5985 0.504034 14.0752C0.824652 12.2895 1.46714 10.5773 2.40003 9.02256C2.84766 8.21204 3.37208 7.44661 3.96603 6.73684C4.68254 5.88101 5.45847 5.077 6.28803 4.33083C6.93251 3.71322 7.6522 3.17968 8.43003 2.74286C9.03003 2.40602 9.63003 1.99699 10.23 1.70827C10.83 1.41955 12.384 0.866167 13.23 0.613535C13.8375 0.492187 14.4382 0.339605 15.03 0.156392C15.0897 0.147318 15.1504 0.147318 15.21 0.156392C15.732 0.102257 16.236 0.0421064 16.74 1.09337e-06C17.244 -0.0421042 17.736 1.09337e-06 18.24 1.09337e-06C18.6755 -0.0301314 19.1126 -0.0301314 19.548 1.09337e-06C20.4433 0.0902807 21.33 0.25118 22.2 0.481204C22.92 0.697746 23.652 0.878197 24.366 1.13684C25.2552 1.45782 26.1128 1.86054 26.928 2.33985C27.528 2.69474 28.128 3.09173 28.728 3.49474C29.1144 3.74462 29.4778 4.02845 29.814 4.34286C30.378 4.89624 30.954 5.44361 31.488 6.02707C32.2268 6.83344 32.8803 7.71433 33.438 8.65564C33.8012 9.25073 34.1239 9.86968 34.404 10.5083C34.8638 11.4676 35.2121 12.4767 35.442 13.5158C35.556 14.1534 35.73 14.7789 35.826 15.4286C35.886 15.8917 35.826 16.3669 35.94 16.818C35.9878 17.2031 36.0078 17.591 36 17.9789C35.9913 18.6954 35.9372 19.4107 35.838 20.1203C35.7772 20.8421 35.6506 21.5569 35.46 22.2556C35.268 22.9474 35.04 23.6271 34.794 24.3008C34.5575 25.0155 34.25 25.7047 33.876 26.3579C33.444 27.0797 33.03 27.8075 32.586 28.5173C32.442 28.7519 32.22 28.9383 32.052 29.1669C31.4141 30.0046 30.6901 30.7727 29.892 31.4586C29.1558 32.1409 28.3515 32.7456 27.492 33.2632C26.7215 33.733 25.9196 34.149 25.092 34.5083C24.414 34.785 23.73 35.0316 23.034 35.2662C22.5899 35.4081 22.1369 35.5206 21.678 35.603C21.486 35.6451 21.294 35.6932 21.078 35.7293C20.862 35.7654 20.706 35.6511 20.556 35.8376C20.556 35.8677 20.442 35.8376 20.382 35.8376L17.934 36L17.946 35.9639ZM17.868 0.517294C17.268 0.59549 16.506 0.409024 15.756 0.637595C15.5023 0.662914 15.25 0.701058 15 0.751881C14.754 0.842106 14.46 0.787971 14.178 0.884212C13.632 1.07068 13.05 1.17293 12.498 1.35338C12.0224 1.51018 11.5557 1.69291 11.1 1.90075C10.5116 2.14203 9.93857 2.41924 9.38403 2.73083C8.79026 3.08224 8.2173 3.46785 7.66803 3.88572C7.06803 4.32481 6.53403 4.76993 5.99403 5.24511C5.35892 5.85176 4.77679 6.51182 4.25403 7.21805C3.63118 8.00322 3.08281 8.84497 2.61603 9.73233C2.27403 10.3338 1.98003 11.0135 1.69803 11.6692C1.46403 12.2045 1.33203 12.7699 1.14003 13.3173C1.01403 13.6842 0.978034 14.0812 0.882034 14.4602C0.786034 14.8391 0.780034 15.2782 0.648034 15.6632C0.614745 15.9509 0.614745 16.2416 0.648034 16.5293C0.648034 16.8301 0.546034 17.1308 0.534034 17.4195C0.51304 17.7942 0.51304 18.1697 0.534034 18.5444C0.534034 18.9053 0.618034 19.2602 0.654034 19.6211C0.659111 20.0658 0.707338 20.509 0.798034 20.9444C0.990034 21.5459 1.08003 22.1955 1.25403 22.815C1.52305 23.702 1.84564 24.5718 2.22003 25.4195C2.50536 26.0808 2.85293 26.7132 3.25803 27.3083C3.821 28.2319 4.48293 29.0912 5.23203 29.8707C6.07922 30.7792 7.016 31.5995 8.02803 32.3188C8.54403 32.6436 9.03003 33.0226 9.56403 33.3053C10.5929 33.8742 11.6764 34.3377 12.798 34.6887C13.446 34.8872 14.112 35.0376 14.772 35.194C15.4193 35.3118 16.0721 35.3962 16.728 35.4466C17.35 35.5088 17.9759 35.5229 18.6 35.4887C19.2287 35.4862 19.8563 35.438 20.478 35.3444C20.7558 35.3373 21.0318 35.2969 21.3 35.2241C21.689 35.0739 22.0906 34.9592 22.5 34.8812C23.4252 34.6362 24.3283 34.3143 25.2 33.9188C25.9637 33.5867 26.6949 33.184 27.384 32.7158C28.0722 32.2853 28.728 31.8049 29.346 31.2782C30.3121 30.4179 31.1941 29.4673 31.98 28.4391C32.58 27.609 33.09 26.7308 33.612 25.8526C33.858 25.4376 33.99 24.9684 34.212 24.5353C34.4359 24.087 34.609 23.6148 34.728 23.1278C34.842 22.6526 34.95 22.1714 35.076 21.6962C35.202 21.2211 35.214 20.6917 35.358 20.1925C35.4029 19.8798 35.417 19.5635 35.4 19.2481C35.4 18.9474 35.508 18.6466 35.508 18.3579C35.5656 17.8481 35.5165 17.3319 35.364 16.8421C35.3752 16.1187 35.2925 15.3968 35.118 14.6947C35.0292 14.1132 34.9009 13.5384 34.734 12.9744C34.5196 12.2396 34.2508 11.5219 33.93 10.8271C33.3976 9.69347 32.7544 8.61553 32.01 7.60902C31.536 7.00752 31.026 6.40602 30.522 5.80451C29.9675 5.21818 29.3655 4.67899 28.722 4.19248C27.9131 3.57157 27.0587 3.0126 26.166 2.5203C25.5083 2.15196 24.8197 1.842 24.108 1.59399C23.572 1.37806 23.0204 1.20313 22.458 1.07068C21.9949 0.88031 21.5005 0.778311 21 0.769926C20.712 0.493234 20.34 0.703761 20.01 0.59549C19.6629 0.523433 19.3077 0.49915 18.954 0.523309C18.642 0.511279 18.33 0.517294 17.868 0.517294Z" fill="black"/>
<path d="M17.8681 0.517293C18.3301 0.517293 18.6421 0.517293 18.9541 0.517293C19.3003 0.499256 19.6473 0.527576 19.9861 0.601503C20.3161 0.709774 20.6881 0.499248 20.9761 0.77594C21.4742 0.772832 21.9686 0.862577 22.4341 1.0406C22.9964 1.17305 23.548 1.34799 24.0841 1.56391C24.7957 1.81193 25.4843 2.12188 26.1421 2.49023C27.0347 2.98252 27.8891 3.5415 28.6981 4.16241C29.3415 4.64891 29.9436 5.1881 30.4981 5.77444C31.0021 6.37594 31.5121 6.97744 31.9861 7.57895C32.7405 8.59395 33.3917 9.68208 33.9301 10.8271C34.252 11.5296 34.5207 12.2555 34.7341 12.9985C34.901 13.5625 35.0293 14.1373 35.1181 14.7188C35.2905 15.4131 35.3731 16.1267 35.3641 16.8421C35.5065 17.334 35.5453 17.8502 35.4781 18.3579C35.4781 18.6526 35.3881 18.9594 35.3701 19.2481C35.4002 19.5582 35.4002 19.8704 35.3701 20.1805C35.2261 20.6797 35.2141 21.191 35.0881 21.6842C34.9621 22.1774 34.8541 22.6406 34.7401 23.1158C34.6129 23.6017 34.4318 24.0719 34.2001 24.5173C33.9901 24.9504 33.8581 25.4196 33.6001 25.8346C33.0781 26.7128 32.5681 27.591 31.9681 28.4211C31.1868 29.4549 30.3088 30.4117 29.3461 31.2782C28.7301 31.8067 28.0764 32.2892 27.3901 32.7218C26.7009 33.19 25.9698 33.5927 25.2061 33.9248C24.3411 34.3088 23.4461 34.6206 22.5301 34.8571C22.1206 34.9351 21.719 35.0499 21.3301 35.2C21.0618 35.2729 20.7859 35.3133 20.5081 35.3203C19.8771 35.4234 19.2393 35.4797 18.6001 35.4887C17.977 35.5369 17.3511 35.5369 16.7281 35.4887C16.0722 35.4383 15.4193 35.3539 14.7721 35.2361C14.1121 35.0797 13.4461 34.9293 12.7981 34.7308C11.6764 34.3798 10.5929 33.9163 9.56405 33.3474C9.03005 33.0647 8.54405 32.6857 8.02805 32.3609C7.01602 31.6416 6.07924 30.8213 5.23205 29.9128C4.48047 29.1201 3.81847 28.2466 3.25805 27.3083C2.84532 26.718 2.48971 26.0896 2.19605 25.4316C1.8228 24.5937 1.50021 23.734 1.23005 22.8571C1.05605 22.2556 0.966054 21.6 0.774054 20.9865C0.683358 20.5511 0.635131 20.1079 0.630054 19.6632C0.600054 19.2481 0.534054 18.9173 0.510054 18.5564C0.491505 18.1856 0.493508 17.8141 0.516054 17.4436C0.516054 17.1489 0.606054 16.8421 0.630054 16.5534C0.596765 16.2656 0.596765 15.975 0.630054 15.6872C0.762054 15.2842 0.756054 14.8692 0.864054 14.4842C0.972054 14.0992 0.996054 13.7083 1.12205 13.3414C1.31405 12.794 1.44605 12.2286 1.68005 11.6932C1.96205 11.0376 2.28005 10.388 2.59805 9.75639C3.06925 8.85998 3.62371 8.01011 4.25405 7.21805C4.77872 6.51157 5.36286 5.85151 6.00005 5.24511C6.54005 4.76993 7.09805 4.32481 7.67405 3.88571C8.22332 3.46785 8.79628 3.08224 9.39005 2.73083C9.94459 2.41924 10.5177 2.14202 11.1061 1.90075C11.5618 1.69291 12.0285 1.51018 12.5041 1.35338C13.0561 1.17293 13.6381 1.07068 14.1841 0.88421C14.4661 0.78797 14.7841 0.842105 15.0061 0.751879C15.258 0.700856 15.5123 0.662711 15.7681 0.637594C16.5061 0.409022 17.2681 0.601503 17.8681 0.517293ZM11.1181 13.3474C11.0879 13.6726 11.1352 14.0004 11.2561 14.3038C11.4001 14.6165 11.4241 15.0015 11.7421 15.2241C11.973 15.6057 12.2843 15.9322 12.6543 16.1805C13.0244 16.4289 13.4441 16.5931 13.8841 16.6617C14.7765 16.7713 15.6786 16.558 16.4281 16.0602C17.0477 15.5522 17.4719 14.8442 17.6281 14.0571C17.6395 14.022 17.6535 13.9879 17.6701 13.9549C17.7032 13.9889 17.7315 14.0273 17.7541 14.0692C17.7961 14.1714 17.8321 14.2857 17.8801 14.388C17.9933 14.7185 18.1508 15.0322 18.3481 15.3203C18.8761 15.9218 19.4221 16.5233 20.3221 16.5654C20.6281 16.818 20.9941 16.6737 21.3301 16.6737C21.6809 16.6577 22.0244 16.5675 22.3381 16.409C22.9302 16.1387 23.4382 15.7126 23.8081 15.1759C24.0433 14.8401 24.1936 14.4521 24.2461 14.0451C24.2461 13.8647 24.1861 13.6241 24.2761 13.4977C24.3661 13.3714 24.2281 13.185 24.2341 13.0226C24.2573 12.668 24.1935 12.3131 24.0481 11.9891C23.9027 11.665 23.6802 11.3817 23.4001 11.1639C23.189 10.9161 22.9423 10.7012 22.6681 10.5263C21.9422 10.1071 21.0873 9.97208 20.2681 10.1474C19.7894 10.2337 19.3389 10.4354 18.9553 10.7351C18.5717 11.0348 18.2665 11.4235 18.0661 11.8677C17.9341 12.1203 17.8201 12.391 17.7001 12.6496C17.6763 12.695 17.6503 12.7392 17.6221 12.782C17.6036 12.747 17.5875 12.7108 17.5741 12.6737C17.4424 11.9771 17.0861 11.3431 16.5601 10.8692C16.1302 10.4956 15.6002 10.2571 15.0361 10.1835C14.6618 10.0014 14.2319 9.97125 13.8361 10.0992C13.0591 10.2201 12.3511 10.616 11.8404 11.2152C11.3296 11.8144 11.0499 12.5772 11.0521 13.3654L11.1181 13.3474ZM13.7161 24.1744L12.7141 24.3368C12.4621 24.3789 12.2041 24.409 11.9521 24.4692C11.7001 24.5293 11.4661 24.6015 11.2261 24.6797C10.5872 24.8926 9.98131 25.1943 9.42605 25.5759C9.21249 25.7341 9.01185 25.9091 8.82605 26.0993C8.79649 26.1381 8.77625 26.1833 8.76688 26.2313C8.75752 26.2793 8.75929 26.3288 8.77205 26.3759C8.77205 26.4301 8.93405 26.4421 9.01805 26.4662C9.07886 26.4808 9.14277 26.4753 9.20014 26.4503C9.25751 26.4254 9.30522 26.3824 9.33605 26.3278C9.73861 25.9193 10.2234 25.6015 10.7581 25.3955C11.537 25.055 12.3585 24.8223 13.2001 24.7038C13.6501 24.6256 14.1181 24.7038 14.5861 24.5835C15.0596 24.5143 15.5406 24.5143 16.0141 24.5835C16.4941 24.6256 16.9321 24.415 17.4001 24.4451C17.9057 24.4464 18.4108 24.4806 18.9121 24.5474C19.5121 24.6677 20.1721 24.5474 20.7961 24.6917C21.1524 24.7078 21.5063 24.7602 21.8521 24.8481C22.1341 24.9925 22.4521 24.8481 22.6981 25.0707C23.5333 25.2656 24.3183 25.6345 25.0021 26.1534C25.0819 26.2267 25.1778 26.2801 25.282 26.3094C25.3862 26.3386 25.4959 26.3429 25.6021 26.3218C25.6321 26.3218 25.6441 26.2556 25.6681 26.2256C25.4701 26.1534 25.6681 25.9188 25.4821 25.8165C25.0944 25.5596 24.6938 25.3227 24.2821 25.1068C23.9116 24.8656 23.4907 24.7133 23.0521 24.6617C22.2301 24.2406 21.3061 24.2466 20.4301 24.0602C20.0806 24 19.7235 24 19.3741 24.0602C18.9961 24.1143 18.6661 23.8977 18.3001 23.9278C17.7962 23.8819 17.2882 23.9267 16.8001 24.0602C15.7712 24.0177 14.7407 24.0479 13.7161 24.1504V24.1744ZM17.6821 20.7098C17.8574 20.651 18.0384 20.6106 18.2221 20.5895C18.6016 20.6226 18.9818 20.5342 19.3081 20.3368C19.8721 20.3368 20.1361 19.8737 20.4661 19.5308C20.6941 19.3023 20.6281 18.9654 20.6101 18.6647C20.6101 18.5925 20.4901 18.5083 20.4061 18.4602C20.3221 18.412 20.1361 18.4962 20.1181 18.6406C20.1284 18.8434 20.1062 19.0465 20.0521 19.2421C19.8961 19.597 19.5841 19.6812 19.2961 19.8436C18.8868 20.0218 18.4546 20.1413 18.0121 20.1985C17.5788 20.3067 17.1206 20.242 16.7341 20.018C16.4574 19.838 16.1687 19.6772 15.8701 19.5368C15.6601 19.4406 15.3721 19.2902 15.2101 19.3684C14.8861 19.5128 14.5081 19.4526 14.2201 19.6812C14.1676 19.7121 14.1064 19.7248 14.0461 19.7173C13.8421 19.7173 13.7761 19.603 13.8781 19.3925L14.4781 18.1895C14.5426 18.0713 14.5987 17.9487 14.6461 17.8226C14.6654 17.7508 14.657 17.6743 14.6225 17.6085C14.588 17.5427 14.53 17.4924 14.4601 17.4677C14.3221 17.3895 14.2201 17.5399 14.1721 17.6301C13.8781 18.1955 13.6141 18.7729 13.3261 19.3444C13.2891 19.4017 13.2695 19.4686 13.2695 19.5368C13.2695 19.6051 13.2891 19.672 13.3261 19.7293C13.4186 19.9117 13.5717 20.056 13.759 20.1373C13.9463 20.2186 14.1561 20.2317 14.3521 20.1744C14.6281 20.0842 14.8921 19.9639 15.1621 19.8737C15.2574 19.8411 15.3607 19.8411 15.4561 19.8737C15.7391 19.9969 16.0102 20.1459 16.2661 20.3188C16.683 20.5984 17.1822 20.7277 17.6821 20.6857V20.7098ZM16.1041 6.90526C15.9807 6.88716 15.8554 6.88716 15.7321 6.90526C15.1921 7.09173 14.6221 7.12782 14.0761 7.27218C13.2906 7.46982 12.5237 7.73548 11.7841 8.06617C11.0417 8.40603 10.336 8.82123 9.67805 9.30526C9.3491 9.57442 9.05484 9.88356 8.80205 10.2256C8.73005 10.3098 8.80205 10.5203 8.80205 10.6767C8.91139 10.6487 9.01786 10.6104 9.12005 10.5624C9.24004 10.4898 9.35085 10.403 9.45005 10.3038C10.3801 9.36135 11.519 8.65239 12.7741 8.23459C13.6308 7.90804 14.5198 7.67414 15.4261 7.53684C15.6961 7.50075 15.9661 7.4406 16.2481 7.42857C16.3278 7.41387 16.3988 7.36859 16.4458 7.30234C16.4929 7.23609 16.5123 7.15407 16.5001 7.07369C16.5001 6.86316 16.3321 6.94737 16.2301 6.93534C16.1897 6.91919 16.1473 6.90906 16.1041 6.90526ZM21.0781 7.01353C20.9341 7.06767 20.7721 6.95338 20.7481 7.1579C20.7371 7.23771 20.7546 7.31883 20.7974 7.38703C20.8402 7.45522 20.9056 7.50613 20.9821 7.53083C21.0181 7.53083 21.0661 7.53083 21.1021 7.53083C21.4921 7.6391 21.8821 7.76541 22.2721 7.86767C23.0231 8.11099 23.7501 8.42309 24.4441 8.8C25.2359 9.18856 25.9757 9.67561 26.6461 10.2496C26.9761 10.5263 27.2881 10.809 27.6121 11.0917C27.6121 11.0917 27.6721 11.1519 27.7081 11.1579C27.7441 11.1639 27.9121 11.1579 27.9361 11.1579C27.9872 11.0732 28.0044 10.9721 27.9841 10.8752C27.9841 10.803 27.8761 10.7489 27.8161 10.6947C27.4441 10.3459 27.0781 9.99098 26.6881 9.66015C26.1724 9.2369 25.6133 8.86991 25.0201 8.56541C24.1328 8.06707 23.1956 7.66385 22.2241 7.36241L21.0781 7.01353Z" fill="white"/>
<path d="M11.118 13.3474C11.1159 12.5592 11.3956 11.7963 11.9063 11.1971C12.4171 10.5979 13.1251 10.202 13.902 10.0812C14.2979 9.95321 14.7278 9.98338 15.102 10.1654C15.6572 10.2356 16.1803 10.4654 16.608 10.8271C17.1341 11.301 17.4903 11.935 17.622 12.6316C17.6355 12.6687 17.6515 12.7049 17.67 12.7399C17.6982 12.6971 17.7243 12.6529 17.748 12.6075C17.868 12.3489 17.982 12.0782 18.114 11.8256C18.3145 11.3814 18.6197 10.9927 19.0033 10.693C19.3869 10.3933 19.8374 10.1916 20.316 10.1053C21.1352 9.92998 21.9902 10.065 22.716 10.4842C22.9762 10.6757 23.2067 10.9047 23.4 11.1639C23.6729 11.3837 23.8886 11.6665 24.0286 11.9881C24.1686 12.3097 24.2288 12.6605 24.204 13.0105C24.204 13.1729 24.39 13.2872 24.246 13.4857C24.102 13.6842 24.246 13.8526 24.216 14.0331C24.1636 14.44 24.0133 14.8281 23.778 15.1639C23.4082 15.7006 22.9002 16.1267 22.308 16.397C21.9944 16.5555 21.6509 16.6457 21.3 16.6617C20.964 16.6617 20.598 16.806 20.292 16.5534C19.392 16.5173 18.846 15.9038 18.318 15.3083C18.1207 15.0201 17.9633 14.7065 17.85 14.3759C17.802 14.2737 17.766 14.1594 17.724 14.0571C17.7015 14.0153 17.6732 13.9769 17.64 13.9429C17.6235 13.9758 17.6094 14.01 17.598 14.0451C17.4419 14.8321 17.0177 15.5402 16.398 16.0481C15.6486 16.546 14.7464 16.7593 13.854 16.6496C13.414 16.581 12.9943 16.4168 12.6243 16.1685C12.2543 15.9202 11.9429 15.5937 11.712 15.212C11.394 14.9895 11.37 14.6105 11.226 14.2917C11.1172 13.9897 11.0802 13.6663 11.118 13.3474ZM14.4 16.1865C14.5853 16.1925 14.7706 16.1763 14.952 16.1384C15.5745 16.0012 16.1338 15.6605 16.542 15.1699C16.9468 14.6877 17.1903 14.0901 17.238 13.4617C17.2134 12.8527 17.0382 12.2595 16.728 11.7353C16.6787 11.6217 16.5928 11.5278 16.484 11.469C16.3752 11.4101 16.2499 11.3895 16.128 11.4105L15.492 11.5188C14.6703 11.6624 13.9237 12.0876 13.38 12.7218C12.8759 13.2942 12.4704 13.9467 12.18 14.6526C12.1382 14.708 12.1155 14.7756 12.1155 14.8451C12.1155 14.9146 12.1382 14.9822 12.18 15.0376C12.446 15.3778 12.782 15.6565 13.1651 15.8547C13.5481 16.053 13.9694 16.1661 14.4 16.1865ZM18.246 13.4256C18.2028 13.9062 18.3279 14.3869 18.6 14.785C18.7865 15.1426 19.0531 15.452 19.379 15.6889C19.7048 15.9258 20.081 16.0838 20.478 16.1504C20.9435 16.2289 21.4211 16.1927 21.8695 16.045C22.3179 15.8972 22.7238 15.6423 23.052 15.3023C23.1514 15.2142 23.2188 15.0955 23.2438 14.9649C23.2687 14.8343 23.2498 14.6991 23.19 14.5805C22.9393 13.9888 22.6059 13.4359 22.2 12.9384C21.6189 12.1926 20.7949 11.6753 19.872 11.4767C19.128 11.3444 19.002 11.3083 18.588 12.012C18.3252 12.4337 18.2092 12.9308 18.258 13.4256H18.246ZM11.646 13.4256C11.6205 13.6687 11.662 13.9142 11.766 14.1353C11.7876 14.1882 11.8056 14.2425 11.82 14.2977C11.8476 14.2536 11.8716 14.2073 11.892 14.1594C12.3137 13.2449 12.9399 12.4401 13.722 11.8075C14.0546 11.508 14.4505 11.288 14.88 11.1639C15.084 11.0977 15.3 11.0917 15.48 11.0075C15.534 11.0075 15.57 10.9173 15.612 10.8752L15.48 10.803C15.1825 10.6556 14.8576 10.5716 14.526 10.5564C13.9575 10.5682 13.4033 10.7368 12.924 11.0436C12.5453 11.2978 12.2293 11.6352 12 12.0301C11.7551 12.4497 11.6267 12.9274 11.628 13.4135L11.646 13.4256ZM20.934 10.5504C20.5852 10.5568 20.2424 10.6432 19.932 10.803C19.8793 10.8246 19.8252 10.8427 19.77 10.8571C19.8214 10.9196 19.8776 10.9779 19.938 11.0316C19.938 11.0316 20.01 11.0316 20.052 11.0316C21.1594 11.2633 22.1374 11.9084 22.788 12.8361C23.0527 13.2241 23.297 13.6257 23.52 14.0391C23.52 14.0932 23.628 14.1233 23.682 14.1594C23.7171 14.1168 23.7436 14.0678 23.76 14.015C23.76 13.8466 23.694 13.6301 23.76 13.5278C23.91 13.3353 23.73 13.209 23.76 13.0587C23.7694 12.7195 23.6994 12.3829 23.5556 12.0758C23.4118 11.7687 23.1982 11.4997 22.932 11.2902C22.6637 11.0354 22.3469 10.8375 22.0005 10.7083C21.6541 10.5791 21.2852 10.5213 20.916 10.5384L20.934 10.5504Z" fill="black"/>
<path d="M13.7161 24.1504C14.7407 24.0479 15.7712 24.0177 16.8001 24.0602C17.2905 23.928 17.8006 23.8852 18.3061 23.9338C18.6721 23.9338 19.0021 24.1203 19.3801 24.0662C19.7295 24.006 20.0866 24.006 20.4361 24.0662C21.3121 24.2586 22.2361 24.2526 23.0581 24.6677C23.5067 24.7047 23.9403 24.8469 24.3241 25.0827C24.7359 25.2987 25.1364 25.5356 25.5241 25.7925C25.7281 25.8947 25.5241 26.1293 25.7101 26.2015C25.7101 26.2015 25.6741 26.2917 25.6441 26.2977C25.5379 26.3188 25.4283 26.3146 25.324 26.2853C25.2198 26.256 25.1239 26.2026 25.0441 26.1293C24.3603 25.6104 23.5753 25.2415 22.7401 25.0466C22.5121 24.794 22.1761 24.9684 21.8941 24.8241C21.5426 24.7329 21.1827 24.6785 20.8201 24.6617C20.2201 24.4993 19.5481 24.6617 18.9361 24.5173C18.4263 24.4575 17.9132 24.4314 17.4001 24.4391C16.9321 24.409 16.4941 24.6196 16.0141 24.5774C15.5406 24.5083 15.0596 24.5083 14.5861 24.5774C14.1181 24.6737 13.6501 24.6196 13.2001 24.6977C12.3495 24.8059 11.5177 25.0305 10.7281 25.3654C10.1934 25.5714 9.70863 25.8892 9.30607 26.2977C9.28049 26.3555 9.2367 26.4033 9.18142 26.4337C9.12614 26.4642 9.06243 26.4756 9.00007 26.4662C8.91607 26.4662 8.77807 26.4301 8.75407 26.3759C8.7413 26.3288 8.73953 26.2793 8.7489 26.2313C8.75826 26.1833 8.77851 26.1381 8.80807 26.0993C8.99387 25.9091 9.1945 25.7341 9.40807 25.5759C9.96332 25.1943 10.5692 24.8926 11.2081 24.6797C11.4481 24.6015 11.6881 24.5233 11.9341 24.4692C12.1801 24.415 12.4441 24.379 12.6961 24.3368L13.7161 24.1504Z" fill="black"/>
<path d="M17.682 20.6857C17.1745 20.7151 16.6724 20.5686 16.26 20.2707C16.0033 20.1061 15.7321 19.9652 15.45 19.8496C15.3547 19.8171 15.2513 19.8171 15.156 19.8496C14.886 19.9398 14.622 20.0601 14.346 20.1504C14.1501 20.2076 13.9403 20.1945 13.753 20.1132C13.5657 20.032 13.4125 19.8877 13.32 19.7053C13.2831 19.6479 13.2634 19.5811 13.2634 19.5128C13.2634 19.4445 13.2831 19.3777 13.32 19.3203C13.608 18.7489 13.872 18.1714 14.166 17.606C14.214 17.5158 14.316 17.3654 14.454 17.4436C14.524 17.4683 14.582 17.5187 14.6165 17.5845C14.651 17.6503 14.6594 17.7267 14.64 17.7985C14.5927 17.9246 14.5365 18.0472 14.472 18.1654L13.872 19.3684C13.77 19.5789 13.836 19.6992 14.04 19.6932C14.1004 19.7008 14.1616 19.6881 14.214 19.6571C14.502 19.4286 14.88 19.4887 15.204 19.3444C15.366 19.2662 15.654 19.4165 15.864 19.5128C16.1627 19.6532 16.4514 19.8139 16.728 19.994C17.1146 20.218 17.5728 20.2827 18.006 20.1744C18.4485 20.1172 18.8808 19.9978 19.29 19.8195C19.578 19.6632 19.89 19.5789 20.046 19.218C20.1001 19.0224 20.1224 18.8193 20.112 18.6165C20.112 18.4722 20.28 18.3639 20.4 18.4361C20.52 18.5083 20.604 18.5684 20.604 18.6406C20.604 18.9414 20.688 19.2782 20.46 19.5068C20.13 19.8496 19.86 20.3008 19.302 20.3128C18.9758 20.5101 18.5956 20.5985 18.216 20.5654C18.0344 20.587 17.8554 20.6273 17.682 20.6857Z" fill="black"/>
<path d="M16.104 6.90526C16.1458 6.89926 16.1882 6.89926 16.23 6.90526C16.332 6.90526 16.494 6.83308 16.5 7.04361C16.5123 7.124 16.4928 7.20601 16.4458 7.27226C16.3987 7.33851 16.3278 7.38379 16.248 7.3985C15.966 7.3985 15.696 7.47068 15.426 7.50677C14.5198 7.64406 13.6307 7.87797 12.774 8.20451C11.519 8.62232 10.3801 9.33127 9.45002 10.2737C9.35081 10.3729 9.24001 10.4598 9.12002 10.5323C9.01783 10.5803 8.91136 10.6186 8.80202 10.6466C8.80202 10.4902 8.73002 10.2797 8.80202 10.1955C9.05672 9.86405 9.35091 9.56509 9.67802 9.30526C10.336 8.82123 11.0417 8.40603 11.784 8.06617C12.5236 7.73548 13.2905 7.46982 14.076 7.27218C14.622 7.12782 15.192 7.09173 15.732 6.90526C15.8554 6.88716 15.9807 6.88716 16.104 6.90526Z" fill="black"/>
<path d="M21.078 7.01353L22.224 7.3203C23.1956 7.62174 24.1328 8.02497 25.02 8.52331C25.6135 8.8297 26.1727 9.19871 26.688 9.62406C27.078 9.95489 27.444 10.3098 27.816 10.6586C27.876 10.7128 27.966 10.7669 27.984 10.8391C28.0043 10.936 27.9872 11.0371 27.936 11.1218C27.936 11.1639 27.786 11.1218 27.708 11.1218C27.63 11.1218 27.642 11.0797 27.612 11.0556C27.288 10.7729 26.976 10.4902 26.646 10.2135C25.9757 9.63952 25.2359 9.15247 24.444 8.76391C23.7501 8.387 23.023 8.0749 22.272 7.83158C21.882 7.72932 21.492 7.60301 21.102 7.49474C21.066 7.49474 21.018 7.49474 20.982 7.49474C20.9055 7.47004 20.8402 7.41913 20.7974 7.35094C20.7546 7.28274 20.7371 7.20162 20.748 7.12181C20.772 6.95338 20.934 7.06767 21.078 7.01353Z" fill="black"/>
<path d="M14.4 16.1865C13.9725 16.1636 13.5548 16.0492 13.175 15.8511C12.7951 15.6529 12.462 15.3755 12.198 15.0376C12.1562 14.9822 12.1335 14.9146 12.1335 14.8451C12.1335 14.7756 12.1562 14.708 12.198 14.6526C12.4884 13.9467 12.894 13.2942 13.398 12.7218C13.9418 12.0876 14.6883 11.6624 15.51 11.5188L16.134 11.4286C16.2559 11.4075 16.3813 11.4281 16.4901 11.487C16.5989 11.5459 16.6848 11.6397 16.734 11.7534C17.0442 12.2775 17.2195 12.8708 17.244 13.4797C17.1963 14.1082 16.9529 14.7057 16.548 15.188C16.1398 15.6786 15.5805 16.0192 14.958 16.1564C14.7739 16.1888 14.5866 16.1989 14.4 16.1865ZM16.362 13.7504C16.3677 13.5974 16.343 13.4448 16.2896 13.3014C16.2362 13.1581 16.155 13.0267 16.0507 12.9149C15.9464 12.8031 15.8211 12.713 15.682 12.65C15.5429 12.5869 15.3927 12.552 15.24 12.5474C14.9541 12.5632 14.6832 12.681 14.4763 12.8796C14.2695 13.0782 14.1403 13.3444 14.112 13.6301C14.1038 13.7867 14.1278 13.9433 14.1825 14.0902C14.2372 14.2371 14.3215 14.3712 14.4301 14.484C14.5388 14.5968 14.6694 14.6861 14.8139 14.7461C14.9584 14.8062 15.1136 14.8358 15.27 14.8331C15.4156 14.8435 15.5618 14.8228 15.6988 14.7724C15.8358 14.722 15.9606 14.643 16.065 14.5407C16.1693 14.4383 16.2508 14.315 16.3041 14.1788C16.3574 14.0425 16.3812 13.8965 16.374 13.7504H16.362Z" fill="white"/>
<path d="M18.2581 13.4256C18.2168 12.9354 18.337 12.4452 18.6001 12.0301C19.0141 11.3263 19.1401 11.3624 19.8841 11.4947C20.8001 11.6912 21.6191 12.2017 22.2001 12.9383C22.6123 13.4348 22.9518 13.9878 23.2081 14.5805C23.2679 14.6991 23.2868 14.8343 23.2618 14.9649C23.2368 15.0955 23.1694 15.2142 23.0701 15.3023C22.7418 15.6423 22.336 15.8972 21.8875 16.045C21.4391 16.1927 20.9616 16.2289 20.4961 16.1504C20.0958 16.0864 19.716 15.9296 19.3869 15.6926C19.0577 15.4556 18.7883 15.1448 18.6001 14.785C18.3322 14.3853 18.2113 13.9047 18.2581 13.4256ZM21.3721 13.5398C21.3851 13.2227 21.2726 12.9133 21.0591 12.6789C20.8456 12.4446 20.5483 12.3043 20.2321 12.2887C20.0735 12.2934 19.9177 12.3317 19.7749 12.4012C19.6322 12.4707 19.5058 12.5697 19.4041 12.6917C19.3139 12.772 19.2413 12.8701 19.1907 12.9798C19.1401 13.0895 19.1127 13.2085 19.1101 13.3293C19.1052 13.4903 19.1327 13.6506 19.1909 13.8008C19.249 13.9509 19.3366 14.0878 19.4486 14.2034C19.5605 14.319 19.6944 14.4108 19.8424 14.4735C19.9904 14.5362 20.1494 14.5685 20.3101 14.5684C20.4478 14.5746 20.5853 14.5516 20.7135 14.5008C20.8417 14.45 20.9578 14.3726 21.0541 14.2737C21.2101 14.0932 21.5101 13.8346 21.3721 13.5398Z" fill="white"/>
<path d="M11.628 13.4135C11.6267 12.9274 11.7552 12.4497 12 12.0301C12.2369 11.6347 12.5612 11.2993 12.948 11.0496C13.4273 10.7428 13.9815 10.5743 14.55 10.5624C14.8816 10.5776 15.2065 10.6616 15.504 10.809L15.636 10.8812C15.594 10.9233 15.558 10.9895 15.504 11.0135C15.306 11.0977 15.09 11.1038 14.904 11.1699C14.4745 11.294 14.0786 11.514 13.746 11.8135C12.9639 12.4461 12.3377 13.2509 11.916 14.1654C11.8957 14.2133 11.8716 14.2596 11.844 14.3038C11.8297 14.2485 11.8116 14.1942 11.79 14.1414C11.6682 13.9191 11.612 13.6666 11.628 13.4135Z" fill="white"/>
<path d="M20.916 10.5384C21.2831 10.5254 21.649 10.5863 21.9922 10.7175C22.3353 10.8487 22.6488 11.0475 22.914 11.3023C23.1802 11.5117 23.3938 11.7807 23.5376 12.0879C23.6814 12.395 23.7514 12.7316 23.742 13.0707C23.742 13.2211 23.91 13.3474 23.742 13.5399C23.658 13.6421 23.742 13.8587 23.742 14.0271C23.7256 14.0798 23.6991 14.1288 23.664 14.1714C23.61 14.1353 23.526 14.1053 23.502 14.0511C23.279 13.6377 23.0346 13.2361 22.77 12.8481C22.1194 11.9204 21.1414 11.2753 20.034 11.0436C19.992 11.0436 19.944 11.0436 19.92 11.0436C19.8595 10.99 19.8034 10.9316 19.752 10.8692C19.8072 10.8548 19.8613 10.8367 19.914 10.815C20.2224 10.6469 20.5653 10.5522 20.916 10.5384Z" fill="white"/>
<path d="M16.374 13.7504C16.3759 13.8925 16.3486 14.0334 16.2937 14.1644C16.2389 14.2955 16.1577 14.4138 16.0553 14.512C15.9528 14.6102 15.8313 14.6862 15.6982 14.7352C15.5652 14.7842 15.4235 14.8053 15.282 14.797C15.1256 14.7997 14.9703 14.7701 14.8258 14.71C14.6813 14.65 14.5507 14.5607 14.4421 14.4479C14.3335 14.3351 14.2492 14.201 14.1945 14.0541C14.1397 13.9072 14.1158 13.7506 14.124 13.594C14.1522 13.3083 14.2814 13.0421 14.4883 12.8435C14.6952 12.6449 14.9661 12.5271 15.252 12.5113C15.4078 12.5158 15.5611 12.5518 15.7027 12.6171C15.8443 12.6824 15.9713 12.7757 16.0761 12.8914C16.1809 13.0071 16.2613 13.1428 16.3125 13.2904C16.3636 13.438 16.3846 13.5945 16.374 13.7504Z" fill="black"/>
<path d="M21.372 13.5398C21.51 13.8526 21.21 14.0932 21.036 14.2737C20.9397 14.3726 20.8237 14.45 20.6955 14.5008C20.5672 14.5516 20.4298 14.5746 20.292 14.5684C20.1314 14.5685 19.9723 14.5362 19.8243 14.4735C19.6764 14.4108 19.5424 14.319 19.4305 14.2034C19.3186 14.0878 19.231 13.9509 19.1728 13.8008C19.1147 13.6506 19.0872 13.4903 19.092 13.3293C19.0946 13.2085 19.1221 13.0895 19.1727 12.9798C19.2233 12.8701 19.2959 12.772 19.386 12.6917C19.4878 12.5697 19.6142 12.4707 19.7569 12.4012C19.8996 12.3317 20.0554 12.2934 20.214 12.2887C20.3722 12.2941 20.5277 12.3309 20.6716 12.3968C20.8155 12.4627 20.945 12.5565 21.0527 12.6728C21.1603 12.789 21.2439 12.9255 21.2987 13.0743C21.3535 13.2231 21.3785 13.3813 21.372 13.5398Z" fill="black"/>
</g>
<defs>
<clipPath id="clip0">
<rect width="36" height="36" fill="white"/>
</clipPath>
</defs>
</svg>
