<svg width="36" height="36" viewBox="0 0 36 36" fill="none" xmlns="http://www.w3.org/2000/svg">
<path d="M17.916 1.1581e-06H19.44C19.7209 -0.0186976 20.0026 0.0200994 20.268 0.11402C20.502 0.216037 20.802 0.0120031 21.024 0.252043C21.6528 0.307653 22.2741 0.428318 22.878 0.612103C23.3537 0.717528 23.821 0.857933 24.276 1.03217C24.9156 1.25234 25.534 1.5295 26.124 1.86031C26.8551 2.23001 27.5625 2.64488 28.242 3.10252C28.686 3.40857 29.1 3.76263 29.526 4.09868C30.1962 4.64885 30.8221 5.2508 31.398 5.89898C32.1513 6.69714 32.8134 7.57671 33.372 8.52142C33.612 8.92349 33.846 9.33756 34.086 9.72162C34.329 10.1555 34.5299 10.6117 34.686 11.0838C34.878 11.6119 35.094 12.134 35.238 12.6801C35.346 13.1062 35.478 13.5443 35.58 13.9703C35.712 14.5344 35.754 15.1165 35.868 15.6806C35.954 16.4777 35.9861 17.2796 35.964 18.081C35.979 18.3729 35.979 18.6653 35.964 18.9572C35.9775 19.325 35.9514 19.6931 35.886 20.0553C35.796 20.3854 35.97 20.7515 35.718 21.0455C35.5828 22.2131 35.2797 23.3551 34.818 24.4361C34.4851 25.3672 34.0505 26.2587 33.522 27.0945C33.216 27.5806 32.886 28.0427 32.604 28.5288C32.43 28.8348 32.076 28.9848 32.004 29.3449C31.44 29.945 30.918 30.5931 30.306 31.1452C29.589 31.8104 28.8162 32.4127 27.996 32.9455C27.2572 33.4515 26.4763 33.8932 25.662 34.2657C24.9494 34.6102 24.2087 34.8933 23.448 35.1119C23.0098 35.2869 22.5494 35.4 22.08 35.4479C21.894 35.6639 21.594 35.5199 21.36 35.6759C21.126 35.832 20.832 35.5739 20.604 35.82C20.604 35.82 20.526 35.82 20.484 35.82C19.662 35.82 18.852 36.03 18.03 35.952C17.76 35.922 17.484 35.952 17.214 35.952C16.8921 35.9723 16.5692 35.9357 16.26 35.844C15.966 35.73 15.63 35.844 15.306 35.724C15.038 35.6496 14.762 35.6073 14.484 35.5979C13.7358 35.446 12.9982 35.2456 12.276 34.9978C11.1838 34.6409 10.1304 34.1744 9.13202 33.6056C8.50082 33.2388 7.88993 32.8382 7.30202 32.4054C6.20465 31.5903 5.19879 30.6587 4.30202 29.6269C3.66557 28.9125 3.1046 28.1343 2.62802 27.3046C2.23382 26.6349 1.87337 25.9459 1.54802 25.2402C1.16195 24.3941 0.854653 23.5143 0.630017 22.6118C0.544264 22.1516 0.432078 21.6968 0.294017 21.2495C0.192017 21.0035 0.330017 20.6434 0.144017 20.4034C0.144017 19.6233 -0.0599826 18.8551 0.0180173 18.075C0.0540322 17.7199 0.0540322 17.362 0.0180173 17.0068C-0.0239827 16.6888 0.144017 16.4067 0.162017 16.1187C0.180017 15.8306 0.0420174 15.5186 0.276017 15.2305C0.276461 14.6704 0.371812 14.1145 0.558017 13.5863C0.66364 12.9938 0.83261 12.4144 1.06202 11.858C1.32356 11.1732 1.61995 10.5022 1.95002 9.84764C2.3985 8.99592 2.90782 8.17766 3.47402 7.39923C4.13499 6.46507 4.88228 5.5951 5.70602 4.8008C6.65638 3.92167 7.69835 3.1471 8.81402 2.49042C9.41402 2.15436 10.014 1.86031 10.614 1.52426C11.0505 1.32187 11.4994 1.14749 11.958 1.00217C12.558 0.750126 13.218 0.624105 13.842 0.402068C14.082 0.318054 14.34 0.366062 14.598 0.270046C14.946 0.138024 15.366 0.216037 15.726 0.108019C16.5 -0.108017 17.286 0.0780142 17.916 1.1581e-06ZM18.078 0.504085C17.598 0.504085 17.118 0.504085 16.638 0.504085C16.1777 0.580752 15.7125 0.624868 15.246 0.636107C15.2065 0.627104 15.1655 0.627104 15.126 0.636107C14.6681 0.805867 14.1934 0.926562 13.71 0.996167C12.7851 1.21116 11.8829 1.51461 11.016 1.90232C10.1413 2.28121 9.30203 2.73707 8.50802 3.26455C7.77602 3.74611 7.07651 4.27534 6.41402 4.84881C5.55238 5.63845 4.76138 6.50188 4.05002 7.42924C3.4375 8.24775 2.88601 9.11022 2.40002 10.0097C2.00866 10.7419 1.68723 11.5094 1.44002 12.3021C1.19529 13.0041 1.0067 13.7245 0.876017 14.4564C0.861257 14.753 0.812949 15.0469 0.732017 15.3326C0.65329 15.5826 0.622749 15.8453 0.642017 16.1067C0.642017 16.3887 0.468017 16.6348 0.498017 16.9348C0.546017 17.3669 0.498017 17.811 0.498017 18.249C0.48968 18.6814 0.523844 19.1136 0.600017 19.5393C0.702017 19.9473 0.630017 20.3674 0.756017 20.7815C0.865831 21.2007 0.953948 21.6253 1.02002 22.0537C1.08002 22.3657 1.23002 22.6538 1.27802 22.9478C1.32816 23.2369 1.41276 23.519 1.53002 23.788C1.60392 24.0847 1.69406 24.3772 1.80002 24.6641C2.27402 25.4862 2.61602 26.3744 3.12602 27.1845C3.85821 28.3108 4.68737 29.371 5.60402 30.3531C5.86202 30.6351 6.20402 30.8451 6.47402 31.1152C6.89688 31.5207 7.35465 31.8882 7.84202 32.2134C8.34616 32.5855 8.87542 32.9224 9.42602 33.2215C10.2651 33.6652 11.1262 34.0658 12.006 34.4217C12.606 34.6318 13.206 34.8058 13.836 34.9798C14.307 35.144 14.8013 35.2311 15.3 35.2379C15.528 35.4239 15.804 35.3399 16.062 35.3639C16.32 35.3879 16.608 35.4719 16.884 35.4839C17.322 35.4839 17.76 35.4839 18.198 35.4839C18.6393 35.5299 19.0852 35.5035 19.518 35.4059C19.932 35.2619 20.376 35.4839 20.718 35.2019C21.3433 35.1359 21.9617 35.0154 22.566 34.8418C23.5909 34.55 24.5934 34.1851 25.566 33.7496C26.2143 33.4388 26.8417 33.086 27.444 32.6934C28.3592 32.1375 29.2156 31.4901 30 30.7611C30.7389 30.0839 31.4101 29.3362 32.004 28.5288C32.5534 27.7868 33.0525 27.0089 33.498 26.2004C33.856 25.515 34.1745 24.8097 34.452 24.088C34.7181 23.3378 34.9464 22.5747 35.136 21.8016C35.1831 21.6765 35.2211 21.5481 35.25 21.4176C35.25 21.2495 35.202 21.0515 35.25 20.9255C35.3364 20.7207 35.3774 20.4996 35.37 20.2774C35.422 20.0681 35.4601 19.8556 35.484 19.6413C35.442 18.045 35.628 16.4427 35.256 14.8405C35.088 14.1324 34.974 13.4182 34.746 12.7281C34.4684 11.863 34.1296 11.0187 33.732 10.2017C33.4711 9.65971 33.1766 9.13459 32.85 8.62944C32.2903 7.70067 31.6238 6.84066 30.864 6.06701C30.408 5.63494 29.97 5.18486 29.532 4.74079C29.0736 4.32446 28.5797 3.94897 28.056 3.6186C27.5569 3.20874 26.9986 2.87692 26.4 2.63444C25.866 2.11235 25.074 2.07035 24.498 1.63227C23.544 1.44624 22.698 0.948159 21.684 0.858144C21.2129 0.802357 20.746 0.716163 20.286 0.600101C19.8036 0.526573 19.3159 0.494451 18.828 0.504085C18.6 0.492083 18.33 0.504085 18.078 0.504085Z" fill="black"/>
<path d="M18.078 0.504002C18.33 0.504002 18.576 0.504002 18.828 0.504002C19.3159 0.494368 19.8037 0.52649 20.2861 0.600018C20.7461 0.714059 21.2131 0.798249 21.684 0.85206C22.674 0.942075 23.5441 1.45216 24.4981 1.62619C25.098 2.06426 25.866 2.10627 26.4 2.62836C26.9997 2.87637 27.5581 3.21431 28.056 3.63052C28.5798 3.96089 29.0737 4.33637 29.532 4.75271C29.97 5.19678 30.408 5.64686 30.864 6.07893C31.6238 6.85259 32.2904 7.71259 32.85 8.64136C33.1762 9.14263 33.4707 9.66372 33.732 10.2016C34.1296 11.0186 34.4684 11.8629 34.746 12.728C34.974 13.4182 35.088 14.1323 35.256 14.8404C35.628 16.4247 35.442 18.0269 35.484 19.6412C35.47 19.8548 35.4419 20.0673 35.4 20.2773C35.4074 20.4995 35.3665 20.7206 35.28 20.9254C35.214 21.0514 35.28 21.2495 35.28 21.4175C35.2512 21.548 35.2131 21.6764 35.166 21.8016C34.9765 22.5747 34.7482 23.3377 34.482 24.0879C34.2046 24.8097 33.8861 25.5149 33.528 26.2003C33.0825 27.0089 32.5834 27.7867 32.034 28.5287C31.4307 29.3375 30.7494 30.0852 30 30.761C29.2319 31.4958 28.3916 32.1512 27.492 32.7174C26.8897 33.11 26.2624 33.4628 25.614 33.7735C24.6415 34.209 23.6389 34.574 22.614 34.8657C22.0097 35.0393 21.3914 35.1598 20.7661 35.2258C20.394 35.5078 19.9501 35.2858 19.566 35.4298C19.1371 35.5135 18.6975 35.5277 18.264 35.4718C17.826 35.4718 17.3881 35.4718 16.95 35.4718C16.674 35.4718 16.404 35.3818 16.128 35.3518C15.852 35.3218 15.594 35.4118 15.366 35.2258C14.8674 35.2191 14.373 35.1319 13.9021 34.9678C13.302 34.7937 12.7021 34.6197 12.0721 34.4097C11.1922 34.0537 10.3311 33.6531 9.49205 33.2095C8.94145 32.9103 8.41219 32.5734 7.90805 32.2013C7.42068 31.8761 6.96291 31.5086 6.54005 31.1031C6.26405 30.8331 5.94005 30.623 5.67005 30.341C4.73733 29.3648 3.89208 28.3085 3.14405 27.1845C2.63405 26.4043 2.29205 25.4862 1.80005 24.664C1.68394 24.3778 1.58379 24.0853 1.50005 23.7879C1.3828 23.5189 1.29819 23.2369 1.24805 22.9477C1.20005 22.6477 1.05005 22.3476 0.99005 22.0536C0.923981 21.6253 0.835864 21.2006 0.72605 20.7814C0.60005 20.3673 0.69005 19.9472 0.60005 19.5392C0.535924 19.1123 0.513818 18.6802 0.53405 18.249C0.53405 17.8109 0.57005 17.3668 0.53405 16.9347C0.53405 16.6347 0.66605 16.3887 0.67805 16.1066C0.658782 15.8452 0.689323 15.5825 0.76805 15.3325C0.848982 15.0468 0.89729 14.7529 0.91205 14.4563C1.04273 13.7244 1.23132 13.004 1.47605 12.302C1.7117 11.5106 2.02105 10.7431 2.40005 10.0096C2.88193 9.10846 3.42941 8.24398 4.03805 7.42316C4.74941 6.4958 5.54042 5.63237 6.40205 4.84273C7.06454 4.26926 7.76405 3.74003 8.49605 3.25846C9.29006 2.73099 10.1294 2.27512 11.0041 1.89623C11.8709 1.50852 12.7731 1.20508 13.698 0.990083C14.1815 0.920478 14.6561 0.799783 15.114 0.630023C15.1535 0.62102 15.1946 0.62102 15.234 0.630023C15.7046 0.61935 16.1738 0.575231 16.638 0.498001C17.118 0.516004 17.598 0.504002 18.078 0.504002ZM19.074 13.3161C19.074 13.1301 19.074 13.0521 19.074 12.9681C19.0904 12.4269 18.9234 11.8961 18.6 11.4618C18.3809 11.1484 18.1229 10.864 17.832 10.6157C17.4796 10.3321 17.0704 10.1275 16.632 10.0156C16.1963 9.92412 15.751 9.88583 15.306 9.90157C15.1381 9.90157 14.88 9.90157 14.826 9.82956C14.772 9.75755 14.988 9.58952 15.054 9.44549C15.39 8.72537 15.726 8.01125 16.056 7.29113C16.1134 7.1479 16.1556 6.99907 16.182 6.84706C16.218 6.63702 16.0981 6.39098 15.96 6.40299C15.8221 6.41499 15.7261 6.54101 15.672 6.72104C15.5237 7.25956 15.3228 7.78217 15.0721 8.2813C14.6591 9.21362 14.0563 10.0496 13.302 10.7357C13.056 10.9697 12.876 11.2758 12.63 11.5158C12.2877 11.895 11.91 12.2406 11.502 12.548C10.7597 13.0967 9.98204 13.5959 9.17405 14.0423C8.94465 14.1465 8.72394 14.2689 8.51405 14.4083C8.44205 14.4563 8.44805 14.6244 8.44205 14.7384C8.51127 14.7661 8.58393 14.7843 8.65805 14.7924C8.77629 14.7897 8.8911 14.7521 8.98805 14.6844C10.099 14.1801 11.1332 13.5215 12.0601 12.728C12.0854 12.7093 12.1139 12.6951 12.144 12.686C12.1613 12.7201 12.1735 12.7565 12.18 12.7941C12.186 12.898 12.186 13.0022 12.18 13.1061C12.1629 13.6622 12.2933 14.213 12.5581 14.7024C12.6352 14.8118 12.6977 14.9308 12.744 15.0564C12.7442 15.1809 12.7239 15.3046 12.684 15.4225C12.6751 15.464 12.6751 15.507 12.684 15.5485C12.8777 16.1939 13.1779 16.8024 13.5721 17.3488C13.7281 17.5228 13.908 17.5048 14.064 17.2948C14.2385 17.0533 14.4702 16.859 14.7383 16.7291C15.0063 16.5992 15.3025 16.5379 15.6 16.5507C15.828 16.5507 16.1341 16.6347 16.272 16.5507C16.41 16.4667 16.746 16.5507 16.95 16.3406C17.15 16.188 17.3755 16.0721 17.616 15.9986C18.0206 15.7988 18.3568 15.4834 18.582 15.0924C18.9628 14.5829 19.1384 13.949 19.074 13.3161ZM19.2 12.53C19.1448 13.1285 19.3161 13.726 19.68 14.2043C19.9444 14.6607 20.3201 15.0427 20.772 15.3145C21.2981 15.5765 21.8673 15.7412 22.452 15.8006C22.734 15.8606 22.956 15.7045 23.214 15.6625C23.655 15.5693 24.0717 15.385 24.4374 15.1215C24.8032 14.858 25.1099 14.5211 25.338 14.1323C25.812 13.4722 25.71 12.716 25.71 11.9719C25.71 11.9119 25.662 11.8579 25.638 11.7979C25.7125 11.8107 25.7851 11.8329 25.854 11.8639C26.3401 12.1373 26.8409 12.3837 27.354 12.602C27.666 12.722 27.9541 12.8121 28.2901 12.9261C28.626 13.0401 29.004 12.9261 29.328 13.1361C29.436 13.2081 29.58 13.0461 29.598 12.8841C29.616 12.722 29.598 12.674 29.424 12.638C29.1955 12.5709 28.9599 12.5307 28.722 12.518C28.6258 12.5067 28.5323 12.4783 28.446 12.434C27.6969 12.2339 26.9798 11.9288 26.316 11.5278C25.7405 11.2091 25.2081 10.8178 24.732 10.3636C24.5749 10.2115 24.4019 10.0767 24.216 9.96158C24.0477 9.85316 23.8873 9.73283 23.736 9.60152C23.07 8.9054 22.41 8.19128 21.7441 7.48917C21.7441 7.19512 21.5161 7.26713 21.3481 7.26113C21.18 7.25513 21.186 7.36315 21.2041 7.46516C21.2282 7.53955 21.2625 7.61024 21.306 7.6752C21.6268 8.11447 21.995 8.51698 22.404 8.8754C22.524 9.00742 22.602 9.17545 22.722 9.30747C22.842 9.43949 22.83 9.4815 22.6441 9.4875C22.2187 9.45655 21.7911 9.49506 21.378 9.60152C20.7177 9.80967 20.1456 10.232 19.752 10.8017C19.3557 11.287 19.1584 11.9048 19.2 12.53ZM18.678 22.3116C17.9826 22.304 17.2874 22.3381 16.596 22.4137C16.1478 22.4727 15.7046 22.565 15.2701 22.6897C14.6978 22.8428 14.1996 23.1963 13.866 23.6859C13.488 24.322 13.2 24.9941 12.882 25.6542C12.396 26.6684 12.078 27.7485 11.58 28.7507C11.5018 28.9297 11.4531 29.1202 11.436 29.3148C11.436 29.3988 11.4781 29.4948 11.508 29.5849C11.616 29.5488 11.754 29.5488 11.832 29.4768C11.9393 29.3894 12.0152 29.2693 12.048 29.1348C12.2052 28.5778 12.4058 28.0341 12.648 27.5085C12.834 26.9804 13.086 26.4763 13.278 25.9542C13.5001 25.4192 13.7504 24.8964 14.028 24.388C14.1509 24.0871 14.3452 23.8207 14.5939 23.6116C14.8427 23.4025 15.1386 23.2571 15.456 23.1878C15.7713 23.0915 16.0918 23.0133 16.416 22.9537C16.758 22.9177 17.094 22.8397 17.43 22.8337C18.138 22.8337 18.852 22.8337 19.56 22.8337C20.268 22.8337 20.9461 22.9357 21.636 22.9417C21.9754 22.9372 22.3088 23.031 22.596 23.2118C22.8513 23.3698 23.0886 23.5549 23.304 23.7639C23.514 23.9739 23.682 24.232 23.904 24.46C24.2744 24.8942 24.5908 25.3718 24.846 25.8822C25.2314 26.596 25.5799 27.3291 25.89 28.0786C26.046 28.4747 26.1901 28.8767 26.34 29.2788C26.34 29.3328 26.34 29.4408 26.382 29.4408C26.5006 29.4676 26.6235 29.4676 26.742 29.4408C26.928 29.4048 26.868 29.2128 26.8321 29.1348C26.49 28.3186 26.262 27.4545 25.842 26.6684C25.548 26.1223 25.29 25.5582 24.9781 25.0181C24.4768 24.2498 23.8709 23.555 23.178 22.9537C22.8577 22.6624 22.4512 22.4833 22.0201 22.4437C21.21 22.3476 20.3881 22.3416 19.566 22.3056C19.3081 22.3056 19.056 22.3116 18.678 22.3116ZM15.804 17.8289C15.7889 17.9989 15.8075 18.1703 15.859 18.333C15.9105 18.4958 15.9938 18.6467 16.104 18.7771C16.2092 18.8854 16.3385 18.9674 16.4813 19.0164C16.6241 19.0654 16.7765 19.0801 16.926 19.0591C17.2561 19.0079 17.592 19.0079 17.9221 19.0591C18.2099 19.1821 18.4787 19.3458 18.72 19.5452C18.786 19.5872 18.84 19.6472 18.906 19.6952C19.1889 19.8649 19.4998 19.9828 19.824 20.0433C20.1146 19.9954 20.3899 19.8803 20.628 19.7072C20.9401 19.4972 21.228 19.1791 21.702 19.2931C21.876 19.1491 22.152 19.1791 22.218 18.8611C22.3129 18.6085 22.4232 18.362 22.548 18.1229C22.5912 17.9647 22.6014 17.7992 22.5781 17.6369C22.5781 17.4928 22.3561 17.3908 22.194 17.4088C22.032 17.4268 22.0681 17.5648 22.0861 17.6489C22.1 17.9681 22.0118 18.2835 21.834 18.549C21.756 18.711 21.66 18.8191 21.468 18.7891C21.2271 18.7775 20.9903 18.8543 20.802 19.0051C20.604 19.1251 20.394 19.2331 20.202 19.3591C19.842 19.5992 19.6861 19.6112 19.344 19.3591C19.0021 19.1071 18.744 18.9391 18.4741 18.759C18.2877 18.6085 18.0535 18.5297 17.814 18.537C17.4781 18.537 17.142 18.537 16.812 18.537C16.6809 18.534 16.556 18.4805 16.4633 18.3877C16.3705 18.295 16.3171 18.1701 16.314 18.0389C16.3291 17.8532 16.3291 17.6666 16.314 17.4808C16.2959 17.4341 16.2659 17.3929 16.227 17.3613C16.188 17.3298 16.1415 17.3089 16.092 17.3008C16.0433 17.3057 15.9964 17.3225 15.9556 17.3497C15.9148 17.3769 15.8813 17.4137 15.858 17.4568C15.8206 17.5772 15.8024 17.7028 15.804 17.8289ZM24.918 22.4737H24.96V22.9117C24.96 23.5118 25.374 23.8119 25.98 23.6139C26.184 23.5478 26.43 23.5238 26.532 23.3018C26.6302 23.0898 26.6911 22.8624 26.712 22.6297C26.6803 21.9763 26.414 21.3563 25.962 20.8834C25.752 20.5894 25.488 20.6374 25.284 20.9254C25.1949 21.0503 25.1298 21.1907 25.092 21.3395C25.02 21.7235 24.978 22.1016 24.918 22.4737ZM24.462 18.8731C24.4531 19.017 24.4531 19.1613 24.462 19.3051C24.498 19.5872 24.9 20.0013 25.062 19.9052C25.224 19.8092 25.482 19.9052 25.662 19.7372C25.8517 19.5883 26.032 19.428 26.202 19.2571C26.3298 19.137 26.4106 18.9753 26.43 18.8011C26.3989 18.6107 26.3205 18.4312 26.202 18.279C25.8976 17.9396 25.6412 17.56 25.4401 17.1508C25.4263 17.112 25.4041 17.0768 25.3751 17.0478C25.346 17.0187 25.3108 16.9965 25.272 16.9827C25.158 16.9527 25.032 16.8687 24.9361 17.0848C24.6637 17.6381 24.5027 18.2396 24.462 18.8551V18.8731ZM12.9541 20.0133C12.9756 19.7713 12.9312 19.528 12.8255 19.3093C12.7199 19.0906 12.5569 18.9046 12.354 18.771C12.3041 18.7223 12.242 18.6878 12.1742 18.6712C12.1064 18.6546 12.0354 18.6565 11.9685 18.6768C11.9017 18.697 11.8416 18.7348 11.7943 18.7862C11.7471 18.8376 11.7145 18.9008 11.7 18.9691C11.5219 19.4562 11.3716 19.9531 11.25 20.4573C11.1 21.2435 11.166 21.3455 11.85 21.3155C12.1004 21.2839 12.3437 21.2109 12.5701 21.0994C12.8161 21.0094 12.8041 20.7454 12.8701 20.5473C12.9165 20.3727 12.9446 20.1937 12.9541 20.0133Z" fill="white"/>
<path d="M16.944 11.6359C19.194 13.9163 18.888 14.5104 18.552 15.0625C18.3268 15.4535 17.9906 15.7689 17.586 15.9687C17.3455 16.0422 17.12 16.1581 16.92 16.3107C16.716 16.5208 16.452 16.3467 16.242 16.5208C16.032 16.6948 15.798 16.5208 15.57 16.5208C15.2743 16.5147 14.9816 16.5816 14.7179 16.7156C14.4542 16.8495 14.2276 17.0465 14.058 17.2889C13.902 17.4989 13.722 17.5169 13.566 17.3429C13.1719 16.7965 12.8717 16.188 12.678 15.5426C12.6691 15.5011 12.6691 15.4581 12.678 15.4166C12.7179 15.2986 12.7382 15.175 12.738 15.0505C12.6917 14.9249 12.6291 14.8059 12.552 14.6965C12.2873 14.2071 12.1569 13.6563 12.174 13.1002C12.18 12.9963 12.18 12.8921 12.174 12.7881C12.1675 12.7505 12.1553 12.7141 12.138 12.6801C12.1078 12.6892 12.0794 12.7034 12.054 12.7221C11.1331 13.5163 10.105 14.1769 9.00004 14.6845C8.90309 14.7522 8.78828 14.7898 8.67004 14.7925C8.59592 14.7843 8.52326 14.7662 8.45404 14.7385C8.45404 14.6244 8.45404 14.4564 8.52604 14.4084C8.73594 14.269 8.95664 14.1466 9.18604 14.0423C9.99403 13.596 10.7717 13.0968 11.514 12.5481C11.9074 12.2386 12.271 11.8931 12.6 11.5159C12.846 11.2759 13.026 10.9698 13.272 10.7358C14.0262 10.0496 14.6291 9.21371 15.042 8.28138C15.2928 7.78225 15.4937 7.25965 15.642 6.72112C15.696 6.54109 15.75 6.41507 15.93 6.40307C16.11 6.39107 16.188 6.63711 16.152 6.84715C16.1256 6.99916 16.0834 7.14799 16.026 7.29122C15.696 8.01134 15.36 8.72546 15.024 9.44558C14.958 9.5896 14.694 9.66761 14.796 9.82964C14.898 9.99167 15.108 9.88965 15.276 9.90165C15.721 9.88592 16.1663 9.9242 16.602 10.0157C17.0404 10.1276 17.4496 10.3322 17.802 10.6158C18.1034 10.8622 18.3717 11.1466 18.6 11.4619C18.9234 11.8962 19.0904 12.427 19.074 12.9682C19.074 13.0522 19.074 13.1302 16.944 11.6359C16.1972 11.1022 15.4838 10.523 14.808 9.90165C14.7755 9.90939 14.7449 9.92368 14.718 9.94366C14.718 9.94366 14.718 9.99167 14.718 10.0157C14.718 10.0397 14.784 9.97967 16.944 11.6359ZM15.642 10.4357C15.1761 10.3788 14.7041 10.469 14.292 10.6938C14.046 10.7838 13.866 11.0658 13.656 11.2639C13.446 11.4619 13.356 11.5519 13.218 11.708C12.9291 12.0288 12.7468 12.4313 12.696 12.8601C12.6423 13.1463 12.6465 13.4403 12.7084 13.7247C12.7702 14.0092 12.8884 14.2784 13.056 14.5164C13.1221 14.6378 13.2027 14.7506 13.296 14.8525C13.476 15.0205 13.71 14.9545 13.842 14.7145C13.974 14.4744 14.166 14.1444 14.328 13.8563C14.6444 13.4117 15.0153 13.0085 15.432 12.6561C15.9216 12.1276 16.5109 11.7013 17.166 11.4019C17.2701 11.349 17.3704 11.2889 17.466 11.2219C17.532 11.1799 17.598 11.1199 17.466 11.0478L17.148 10.8018C16.7147 10.4836 16.1748 10.3459 15.642 10.4177V10.4357ZM18.6 13.2562C18.6 13.1302 18.6 13.0042 18.6 12.8781C18.5853 12.5697 18.4968 12.2692 18.342 12.002C18.2716 11.8137 18.1322 11.6592 17.952 11.5699C17.766 11.4859 17.664 11.6659 17.544 11.774C17.424 11.882 17.424 11.774 17.376 11.822L16.686 12.26C16.59 12.3261 16.542 12.4041 16.686 12.4821C16.7833 12.5481 16.8856 12.6063 16.992 12.6561C17.28 12.7641 17.484 12.9202 17.466 13.2562C17.808 13.7243 17.496 14.1324 17.238 14.4564C17.1003 14.6191 16.9133 14.7323 16.7054 14.7789C16.4974 14.8255 16.2799 14.8028 16.086 14.7145C15.8738 14.6607 15.6849 14.539 15.5484 14.3677C15.4118 14.1965 15.3352 13.9853 15.33 13.7663C15.3188 13.709 15.3028 13.6528 15.282 13.5983C15.2343 13.6294 15.19 13.6656 15.15 13.7063C14.9625 13.9168 14.7862 14.1372 14.622 14.3664C14.5169 14.5457 14.4247 14.7322 14.346 14.9245C14.5265 14.954 14.7093 14.9661 14.892 14.9605C15.0056 14.944 15.1214 14.9673 15.2198 15.0263C15.3181 15.0854 15.3931 15.1766 15.432 15.2846C15.504 15.4466 15.756 15.6386 15.492 15.8847C15.372 15.9927 15.462 16.0887 15.636 16.0947C16.1324 16.105 16.6214 15.9739 17.046 15.7166C17.5287 15.519 17.9377 15.1758 18.2163 14.7349C18.4948 14.2939 18.6289 13.777 18.6 13.2562ZM15.144 15.6566C15.03 15.5726 14.94 15.4466 14.844 15.4406C14.388 15.4406 13.926 15.4406 13.47 15.4406C13.308 15.4406 13.32 15.5486 13.314 15.7406C13.314 16.1127 13.638 16.3407 13.728 16.6348C13.728 16.6348 13.848 16.7068 13.884 16.6888C14.1821 16.5514 14.469 16.3909 14.742 16.2087C14.892 16.0392 15.0173 15.8492 15.114 15.6446L15.144 15.6566Z" fill="black"/>
<path d="M19.2 12.5301C19.1584 11.9048 19.3557 11.2871 19.752 10.8018C20.1455 10.2321 20.7177 9.80975 21.378 9.6016C21.791 9.49513 22.2186 9.45662 22.644 9.48758C22.83 9.48758 22.866 9.45757 22.722 9.30755C22.578 9.15752 22.524 9.0075 22.404 8.87548C21.9949 8.51706 21.6267 8.11455 21.306 7.67528C21.2624 7.61031 21.2281 7.53963 21.204 7.46524C21.204 7.36322 21.204 7.2492 21.348 7.26121C21.492 7.27321 21.738 7.1952 21.744 7.48924C22.41 8.19136 23.07 8.90548 23.736 9.6016C23.8872 9.73291 24.0476 9.85324 24.216 9.96166C24.4019 10.0768 24.5749 10.2116 24.732 10.3637C25.2081 10.8179 25.7404 11.2091 26.316 11.5279C26.9797 11.9289 27.6968 12.2339 28.446 12.4341C28.5322 12.4784 28.6257 12.5068 28.722 12.5181C28.9599 12.5307 29.1954 12.571 29.424 12.6381C29.61 12.6741 29.61 12.7581 29.598 12.8841C29.586 13.0102 29.436 13.2082 29.328 13.1362C29.004 12.9201 28.632 13.0522 28.29 12.9262C27.948 12.8001 27.69 12.7221 27.354 12.6021C26.8406 12.3798 26.3398 12.1294 25.854 11.852C25.785 11.821 25.7125 11.7988 25.638 11.786C25.638 11.846 25.71 11.9 25.71 11.96C25.71 12.7041 25.812 13.4602 25.338 14.1204C25.1099 14.5092 24.8031 14.8461 24.4374 15.1096C24.0717 15.3731 23.655 15.5573 23.214 15.6506C22.956 15.6926 22.734 15.8486 22.452 15.7886C21.8673 15.7293 21.2981 15.5646 20.772 15.3025C20.32 15.0307 19.9443 14.6488 19.68 14.1924C19.3189 13.7172 19.1478 13.1246 19.2 12.5301ZM22.32 10.0277C21.7781 9.98125 21.2391 10.1445 20.814 10.4837C20.7 10.5498 20.7 10.6338 20.814 10.7058L21.564 11.1559C22.4641 11.6494 23.2161 12.3745 23.742 13.2562C24.102 13.5263 24.06 14.0003 24.3 14.3424C24.402 14.4804 24.378 14.5824 24.54 14.4084C24.8162 14.0781 25.0181 13.6923 25.132 13.2771C25.2458 12.8619 25.269 12.427 25.2 12.002C25.1693 11.8494 25.1125 11.7032 25.032 11.5699C24.9198 11.3563 24.7693 11.165 24.588 11.0058C24.264 10.7778 23.988 10.5017 23.652 10.2737C23.2443 10.0553 22.7788 9.9693 22.32 10.0277ZM19.704 12.6501C19.7192 12.8367 19.7514 13.0214 19.8 13.2022C19.9654 13.8026 20.3265 14.3306 20.826 14.7024C21.3561 15.1325 22.0289 15.3468 22.71 15.3025C22.908 15.3025 23.124 15.2065 23.346 15.1825C23.688 15.1525 23.946 14.9185 23.85 14.6484C23.7728 14.182 23.5647 13.747 23.25 13.3942C23.184 13.3282 23.166 13.2982 23.1 13.3942C23.0127 13.6034 22.8607 13.7791 22.6664 13.8957C22.4721 14.0123 22.2456 14.0637 22.02 14.0423C21.7942 14.0345 21.5761 13.9587 21.3941 13.8249C21.2121 13.6911 21.0748 13.5054 21 13.2922C20.9209 13.1192 20.8947 12.9266 20.9246 12.7388C20.9544 12.5509 21.0391 12.376 21.168 12.236C21.2612 12.1218 21.3658 12.0172 21.48 11.924C21.582 11.84 21.522 11.792 21.48 11.75C21.12 11.5099 20.76 11.2699 20.388 11.0478C20.346 11.0478 20.178 11.0958 20.142 11.1619C19.8428 11.5994 19.6895 12.1202 19.704 12.6501Z" fill="black"/>
<path d="M18.678 22.3117C19.056 22.3117 19.308 22.3117 19.554 22.3117C20.376 22.3477 21.198 22.3537 22.008 22.4497C22.4392 22.4894 22.8457 22.6684 23.166 22.9598C23.8589 23.561 24.4647 24.2558 24.966 25.0242C25.278 25.5643 25.536 26.1284 25.83 26.6744C26.25 27.4606 26.478 28.3247 26.82 29.1409C26.856 29.2189 26.916 29.4109 26.73 29.4469C26.6115 29.4737 26.4885 29.4737 26.37 29.4469C26.37 29.4469 26.37 29.3389 26.328 29.2849C26.178 28.8888 26.034 28.4867 25.878 28.0847C25.5679 27.3352 25.2194 26.6021 24.834 25.8883C24.5787 25.3779 24.2624 24.9003 23.892 24.4661C23.688 24.238 23.52 23.98 23.292 23.77C23.0766 23.5609 22.8392 23.3758 22.584 23.2179C22.2968 23.0371 21.9634 22.9433 21.624 22.9478C20.934 22.9478 20.238 22.8578 19.548 22.8398C18.858 22.8218 18.126 22.8398 17.418 22.8398C17.082 22.8398 16.746 22.9238 16.404 22.9598C16.0798 23.0194 15.7593 23.0975 15.444 23.1939C15.1265 23.2631 14.8307 23.4086 14.5819 23.6177C14.3331 23.8268 14.1389 24.0932 14.016 24.3941C13.7384 24.9025 13.488 25.4253 13.266 25.9603C13.074 26.4824 12.822 26.9865 12.636 27.5146C12.3938 28.0401 12.1932 28.5839 12.036 29.1409C12.0032 29.2753 11.9273 29.3954 11.82 29.4829C11.742 29.5549 11.604 29.5549 11.496 29.5909C11.466 29.5009 11.406 29.4049 11.424 29.3209C11.4411 29.1263 11.4897 28.9358 11.568 28.7568C12.066 27.7546 12.384 26.6744 12.87 25.6603C13.188 25.0002 13.47 24.3281 13.854 23.6919C14.1876 23.2024 14.6858 22.8489 15.258 22.6958C15.6926 22.5711 16.1358 22.4788 16.584 22.4197C17.2792 22.3417 17.9785 22.3056 18.678 22.3117Z" fill="black"/>
<path d="M15.804 17.8289C15.7997 17.7074 15.8139 17.5861 15.846 17.4689C15.8693 17.4257 15.9028 17.389 15.9436 17.3618C15.9844 17.3346 16.0312 17.3178 16.08 17.3129C16.1295 17.321 16.176 17.3418 16.2149 17.3734C16.2538 17.405 16.2839 17.4462 16.302 17.4929C16.3171 17.6786 16.3171 17.8652 16.302 18.0509C16.305 18.182 16.3585 18.3069 16.4512 18.3996C16.544 18.4924 16.6689 18.5458 16.8 18.5489C17.13 18.5489 17.466 18.5489 17.802 18.5489C18.0415 18.5416 18.2756 18.6204 18.462 18.7709C18.756 18.9689 19.062 19.1849 19.332 19.3709C19.602 19.5569 19.83 19.5929 20.19 19.3709C20.382 19.2449 20.592 19.1369 20.79 19.0169C20.9783 18.8662 21.2151 18.7894 21.456 18.8009C21.648 18.8309 21.744 18.7229 21.822 18.5609C21.9997 18.2954 22.088 17.9801 22.074 17.6609C22.074 17.5769 22.014 17.4449 22.182 17.4209C22.35 17.3969 22.554 17.5049 22.566 17.6489C22.5893 17.8112 22.5791 17.9766 22.536 18.1349C22.4091 18.3738 22.2969 18.6203 22.2 18.8729C22.134 19.1909 21.858 19.1609 21.684 19.3049C21.234 19.1909 20.922 19.5089 20.61 19.7189C20.3718 19.892 20.0965 20.007 19.806 20.0549C19.4817 19.9944 19.1709 19.8766 18.888 19.7069C18.822 19.6589 18.768 19.5989 18.702 19.5569C18.4606 19.3575 18.1919 19.1938 17.904 19.0709C17.574 19.0197 17.238 19.0197 16.908 19.0709C16.7585 19.0918 16.6061 19.0772 16.4633 19.0282C16.3204 18.9792 16.1912 18.8972 16.086 18.7889C15.9774 18.6557 15.8966 18.5022 15.8481 18.3373C15.7997 18.1725 15.7847 17.9996 15.804 17.8289Z" fill="black"/>
<path d="M24.918 22.4735C24.978 22.1015 25.02 21.7235 25.092 21.3455C25.1298 21.1967 25.1949 21.0563 25.284 20.9315C25.488 20.6435 25.752 20.5955 25.962 20.8895C26.414 21.3623 26.6803 21.9822 26.712 22.6355C26.6911 22.8681 26.6302 23.0955 26.532 23.3075C26.43 23.5295 26.184 23.5535 25.98 23.6195C25.38 23.8175 24.972 23.5415 24.96 22.9175V22.4795L24.918 22.4735ZM25.428 22.4075H25.464C25.4731 22.5313 25.4731 22.6556 25.464 22.7795C25.448 22.8596 25.4601 22.9427 25.4984 23.0149C25.5366 23.0871 25.5987 23.1438 25.674 23.1755C25.848 23.2535 25.974 23.1275 26.094 23.0075C26.1405 22.9681 26.1768 22.9181 26.1998 22.8616C26.2228 22.8052 26.2318 22.7441 26.226 22.6835C26.2187 22.2488 26.0472 21.8329 25.746 21.5195C25.692 21.4655 25.626 21.3695 25.596 21.5195C25.53 21.8255 25.482 22.1135 25.428 22.4075Z" fill="black"/>
<path d="M24.462 18.8548C24.5044 18.228 24.6716 17.616 24.954 17.0548C25.05 16.8388 25.176 16.9228 25.29 16.9528C25.3288 16.9665 25.364 16.9887 25.393 17.0178C25.4221 17.0469 25.4443 17.0821 25.458 17.1208C25.6591 17.53 25.9155 17.9095 26.22 18.2488C26.3385 18.401 26.4169 18.5805 26.448 18.7708C26.4286 18.9451 26.3478 19.1067 26.22 19.2268C26.05 19.3977 25.8696 19.558 25.68 19.7068C25.47 19.8568 25.248 19.7068 25.08 19.8748C24.912 20.0428 24.528 19.5688 24.48 19.2748C24.4655 19.1353 24.4595 18.995 24.462 18.8548ZM24.96 18.8128C24.96 19.2988 25.038 19.4128 25.32 19.2928C25.4405 19.2634 25.5527 19.207 25.6483 19.1281C25.7439 19.0491 25.8204 18.9495 25.872 18.8368C25.872 18.7888 25.938 18.7228 25.926 18.7048C25.692 18.4228 25.458 18.1468 25.218 17.8708C25.1946 17.8479 25.1657 17.8314 25.134 17.8228C25.1115 17.8526 25.097 17.8878 25.092 17.9248C25.044 18.2428 24.996 18.5608 24.96 18.8128Z" fill="black"/>
<path d="M12.954 20.0131C12.9446 20.1935 12.9164 20.3725 12.87 20.5471C12.804 20.7451 12.816 21.0091 12.57 21.0991C12.3437 21.2106 12.1004 21.2836 11.85 21.3151C11.142 21.3151 11.076 21.2431 11.25 20.4571C11.3716 19.953 11.5218 19.4561 11.7 18.9691C11.7145 18.9008 11.7471 18.8377 11.7943 18.7863C11.8415 18.7349 11.9017 18.6971 11.9685 18.6768C12.0353 18.6566 12.1064 18.6547 12.1742 18.6713C12.242 18.6879 12.3041 18.7223 12.354 18.7711C12.5569 18.9046 12.7199 19.0906 12.8255 19.3093C12.9312 19.528 12.9756 19.7712 12.954 20.0131ZM12.432 20.1451C12.432 19.9171 12.432 19.8331 12.432 19.7491C12.3686 19.5861 12.2679 19.4403 12.138 19.3231C12.046 19.4351 11.9804 19.5663 11.946 19.7071C11.9056 19.975 11.8268 20.2357 11.712 20.4811C11.616 20.7271 11.652 20.8171 11.94 20.8171C12.0116 20.8249 12.0838 20.8107 12.147 20.7764C12.2102 20.7421 12.2615 20.6893 12.294 20.6251C12.3514 20.4686 12.3975 20.3082 12.432 20.1451Z" fill="black"/>
<path d="M15.642 10.4177C16.1724 10.3407 16.7121 10.4719 17.148 10.7838L17.49 11.0178C17.598 11.0899 17.532 11.1499 17.49 11.1919C17.3944 11.2589 17.2941 11.319 17.19 11.3719C16.5283 11.6615 15.9308 12.0797 15.432 12.6021C15.0153 12.9544 14.6444 13.3577 14.328 13.8023C14.166 14.0904 13.998 14.4024 13.842 14.6604C13.686 14.9185 13.476 14.9665 13.296 14.7985C13.2027 14.6966 13.1221 14.5837 13.056 14.4624C12.8884 14.2244 12.7702 13.9552 12.7083 13.6707C12.6465 13.3863 12.6423 13.0923 12.696 12.8061C12.7487 12.3921 12.9243 12.0033 13.2 11.69C13.338 11.5339 13.488 11.3899 13.638 11.2459C13.788 11.1019 14.028 10.7658 14.274 10.6758C14.6913 10.4473 15.1702 10.357 15.642 10.4177Z" fill="white"/>
<path d="M18.6 13.2562C18.6173 13.7656 18.479 14.2682 18.2035 14.697C17.928 15.1259 17.5285 15.4606 17.058 15.6566C16.6334 15.9139 16.1444 16.045 15.648 16.0347C15.474 16.0347 15.384 15.9327 15.504 15.8246C15.768 15.5786 15.504 15.3866 15.444 15.2245C15.4051 15.1166 15.3301 15.0253 15.2317 14.9663C15.1334 14.9073 15.0176 14.884 14.904 14.9005C14.7213 14.9061 14.5385 14.894 14.358 14.8645C14.4367 14.6721 14.5289 14.4856 14.634 14.3064C14.7982 14.0771 14.9745 13.8568 15.162 13.6463C15.202 13.6056 15.2463 13.5694 15.294 13.5383C15.3148 13.5928 15.3308 13.649 15.342 13.7063C15.3471 13.9252 15.4238 14.1365 15.5604 14.3077C15.6969 14.4789 15.8857 14.6007 16.098 14.6544C16.2877 14.7363 16.4984 14.7561 16.7 14.7108C16.9015 14.6655 17.0836 14.5575 17.22 14.4024C17.478 14.1023 17.79 13.6943 17.448 13.2022C17.448 12.8601 17.262 12.7041 16.974 12.6021C16.8676 12.5523 16.7653 12.4941 16.668 12.4281C16.542 12.3501 16.59 12.272 16.668 12.206L17.4 11.792C17.448 11.792 17.526 11.792 17.568 11.744C17.61 11.6959 17.79 11.4559 17.976 11.5399C18.1561 11.6292 18.2956 11.7837 18.366 11.972C18.5171 12.2503 18.5974 12.5615 18.6 12.8781C18.564 13.0042 18.6 13.1302 18.6 13.2562Z" fill="white"/>
<path d="M15.114 15.6446C15.0065 15.8447 14.8712 16.0285 14.712 16.1906C14.439 16.3727 14.1521 16.5332 13.854 16.6706C13.818 16.6706 13.704 16.6706 13.698 16.6166C13.608 16.2986 13.278 16.0946 13.284 15.7226C13.284 15.5306 13.284 15.4286 13.44 15.4226C13.896 15.4226 14.358 15.4226 14.814 15.4226C14.91 15.4346 15 15.5606 15.114 15.6446Z" fill="white"/>
<path d="M14.808 9.96165L14.736 10.0156C14.736 10.0156 14.736 9.94965 14.736 9.94365C14.7629 9.92368 14.7935 9.90938 14.826 9.90165L14.808 9.96165Z" fill="white"/>
<path d="M22.3201 10.0277C22.7821 9.96491 23.2523 10.0489 23.6641 10.2677C23.9881 10.4958 24.2641 10.7718 24.6001 10.9998C24.7814 11.1591 24.9319 11.3503 25.0441 11.5639C25.121 11.6998 25.1738 11.8481 25.2001 12.002C25.2666 12.4269 25.241 12.8611 25.1251 13.2753C25.0091 13.6895 24.8055 14.0738 24.5281 14.4024C24.3661 14.5764 24.3901 14.4744 24.2881 14.3364C24.0481 13.9943 24.0901 13.5203 23.7301 13.2502C23.2041 12.3685 22.4522 11.6434 21.5521 11.1499L20.8021 10.6998C20.6881 10.6278 20.6881 10.5438 20.8021 10.4778C21.2311 10.1377 21.775 9.97642 22.3201 10.0277Z" fill="white"/>
<path d="M19.704 12.6501C19.6895 12.1203 19.8428 11.5994 20.142 11.1619C20.178 11.0959 20.346 11.0238 20.388 11.0478C20.76 11.2699 21.12 11.5099 21.48 11.75C21.546 11.792 21.606 11.84 21.48 11.924C21.3658 12.0172 21.2612 12.1218 21.168 12.236C21.0391 12.376 20.9545 12.5509 20.9246 12.7388C20.8947 12.9267 20.9209 13.1192 21 13.2922C21.0748 13.5054 21.2121 13.6911 21.3941 13.8249C21.5761 13.9588 21.7942 14.0345 22.02 14.0423C22.2417 14.0584 22.4628 14.0045 22.6523 13.8883C22.8417 13.772 22.9899 13.5992 23.076 13.3942C23.142 13.2742 23.16 13.3042 23.226 13.3942C23.5407 13.747 23.7488 14.182 23.826 14.6484C23.898 14.9185 23.664 15.1525 23.322 15.1825C23.1 15.1825 22.884 15.3026 22.686 15.3026C22.0049 15.3468 21.3321 15.1325 20.802 14.7025C20.3115 14.3268 19.9591 13.7993 19.8 13.2022C19.7514 13.0215 19.7193 12.8367 19.704 12.6501Z" fill="white"/>
<path d="M25.428 22.4076C25.482 22.1136 25.53 21.8076 25.59 21.5376C25.62 21.3756 25.686 21.4716 25.74 21.5376C26.0412 21.8511 26.2127 22.2669 26.22 22.7016C26.2258 22.7622 26.2168 22.8233 26.1938 22.8798C26.1708 22.9362 26.1345 22.9862 26.088 23.0256C25.968 23.1456 25.842 23.2716 25.668 23.1936C25.5927 23.1619 25.5307 23.1052 25.4924 23.033C25.4541 22.9609 25.442 22.8777 25.458 22.7976C25.4671 22.6737 25.4671 22.5494 25.458 22.4256L25.428 22.4076Z" fill="white"/>
<path d="M24.96 18.813C24.996 18.561 25.044 18.213 25.092 17.925C25.097 17.8879 25.1114 17.8528 25.134 17.823C25.1657 17.8315 25.1946 17.8481 25.218 17.871C25.458 18.147 25.692 18.423 25.926 18.705C25.926 18.705 25.884 18.789 25.872 18.837C25.8204 18.9497 25.7439 19.0493 25.6483 19.1282C25.5527 19.2072 25.4405 19.2635 25.32 19.293C25.038 19.407 24.96 19.299 24.96 18.813Z" fill="white"/>
<path d="M12.432 20.1452C12.3955 20.3085 12.3474 20.4689 12.288 20.6252C12.2555 20.6894 12.2042 20.7422 12.141 20.7765C12.0777 20.8108 12.0055 20.825 11.934 20.8172C11.646 20.8172 11.61 20.7272 11.706 20.4812C11.8208 20.2358 11.8996 19.9751 11.94 19.7072C11.9744 19.5664 12.04 19.4352 12.132 19.3232C12.2619 19.4404 12.3625 19.5862 12.426 19.7492C12.432 19.8332 12.432 19.9172 12.432 20.1452Z" fill="white"/>
</svg>
