<svg width="36" height="36" viewBox="0 0 36 36" fill="none" xmlns="http://www.w3.org/2000/svg">
<g clip-path="url(#clip0)">
<path d="M17.8785 0.0359561H19.0785C19.3835 -0.0247621 19.6975 -0.0247621 20.0025 0.0359561C20.2965 0.16183 20.6025 0.0359561 20.8305 0.149842C21.0585 0.263728 21.4305 0.149842 21.6765 0.383608C22.3421 0.443197 22.9951 0.600744 23.6145 0.851141C24.61 1.16722 25.5724 1.57872 26.4885 2.07991C27.3515 2.54845 28.1779 3.08143 28.9605 3.67432C29.8573 4.32391 30.6802 5.06961 31.4145 5.89809C32.2074 6.7867 32.9089 7.75259 33.5085 8.78121C33.8656 9.35811 34.1823 9.95894 34.4565 10.5794C34.8467 11.4568 35.1696 12.3625 35.4225 13.2887C35.5378 13.962 35.6981 14.6269 35.9025 15.2787C35.9145 15.3401 35.9145 15.4032 35.9025 15.4645C35.8545 16.034 36.0885 16.5854 36.0405 17.1668C35.9925 17.7482 36.0405 18.3297 36.0405 18.9171C36.0405 19.5045 35.9625 20.008 35.9205 20.5534C35.6565 20.8112 35.8725 21.1528 35.7225 21.4765C35.5725 21.8002 35.6445 22.1059 35.5365 22.3996C35.3341 23.0908 35.0958 23.7711 34.8225 24.4376C34.5885 24.9231 34.4385 25.4505 34.2225 25.9301C33.7692 26.8157 33.2519 27.6671 32.6745 28.4775C32.3054 29.0157 31.8833 29.5157 31.4145 29.97C31.1456 30.1905 30.9198 30.4587 30.7485 30.7612C30.2865 30.977 30.0285 31.4266 29.6505 31.7323C28.8593 32.3998 28.0144 33.0012 27.1245 33.5305C26.4105 33.9141 25.6785 34.2737 24.9405 34.6094C24.2161 34.9368 23.4602 35.1898 22.6845 35.3646C22.4364 35.4086 22.1933 35.4769 21.9585 35.5684C21.7365 35.6763 21.5025 35.5684 21.2625 35.7123C21.0225 35.8561 20.7285 35.7782 20.4465 35.8442C19.2006 36.02 17.9394 36.0622 16.6845 35.97C16.2585 35.8861 15.8325 35.9281 15.4245 35.8442C15.0165 35.7602 14.6025 35.7003 14.2245 35.5924C13.8465 35.4845 13.3545 35.3766 12.9285 35.2447C12.0983 34.9887 11.2831 34.6865 10.4865 34.3397C9.46051 33.8652 8.48038 33.2973 7.55854 32.6433C7.03648 32.2896 6.54839 31.8883 6.10054 31.4445C5.83054 31.1688 5.50054 30.965 5.23054 30.6833C4.42387 29.8358 3.68557 28.9259 3.02254 27.962C2.4776 27.1575 2.00381 26.3072 1.60654 25.4206C1.24973 24.6465 0.95676 23.8446 0.730538 23.023C0.531199 22.3636 0.380792 21.6904 0.280538 21.009C0.286865 20.6292 0.242474 20.2502 0.148538 19.8821C0.0483906 19.5316 0.00583748 19.1673 0.0225385 18.8032C0.0225385 18.4076 0.0225385 18.012 0.0225385 17.6044C-0.00751283 17.2294 -0.00751283 16.8525 0.0225385 16.4775C0.0603777 16.005 0.134597 15.5361 0.244538 15.0749C0.309242 14.8033 0.349403 14.5265 0.364538 14.2477C0.476142 13.6808 0.638803 13.1251 0.850539 12.5874C1.21361 11.4268 1.69409 10.3061 2.28454 9.24275C2.66696 8.55895 3.08971 7.89845 3.55054 7.26473C4.26039 6.30777 5.06441 5.42424 5.95054 4.62736C6.40654 4.20179 6.90454 3.82417 7.39654 3.42856C8.48895 2.64207 9.66388 1.9768 10.9005 1.44455C11.5062 1.13527 12.1526 0.913287 12.8205 0.785207C13.1316 0.671757 13.4532 0.589435 13.7805 0.539453C13.8945 0.359632 14.0745 0.449543 14.2305 0.419573C14.3766 0.367627 14.5273 0.329498 14.6805 0.305686C15.0465 0.305686 15.3825 0.0899022 15.7545 0.173818C16.4925 -0.095912 17.2605 0.107884 17.8785 0.0359561ZM18.0225 0.533459C17.5665 0.533459 17.1045 0.533459 16.6485 0.533459C16.1828 0.527647 15.7179 0.573888 15.2625 0.671321C14.6265 0.845147 13.9665 0.935057 13.3305 1.12687C12.4732 1.36846 11.6349 1.67299 10.8225 2.03795C10.0087 2.41004 9.22089 2.83659 8.46454 3.31468C7.43207 3.98777 6.47639 4.77165 5.61454 5.65234C4.99152 6.26744 4.41588 6.92866 3.89254 7.63036C3.45145 8.20136 3.05049 8.8022 2.69254 9.42856C2.29054 10.1958 1.92454 10.987 1.58854 11.7842C1.40823 12.2382 1.26966 12.7077 1.17454 13.1868C0.954381 13.8001 0.825018 14.4423 0.790538 15.0929C0.550538 15.3147 0.682539 15.6024 0.676539 15.8541C0.670539 16.1059 0.496539 16.3816 0.532539 16.6813C0.553568 17.0566 0.553568 17.4329 0.532539 17.8082C0.532539 18.1798 0.532539 18.5574 0.532539 18.9351C0.538254 19.3202 0.568313 19.7046 0.622539 20.0859C0.664539 20.4396 0.706538 20.7992 0.772539 21.1528C0.826456 21.6207 0.924902 22.0823 1.06654 22.5315C1.35454 23.2687 1.54054 24.042 1.87054 24.7672C2.06254 25.2048 2.26054 25.6483 2.47054 26.0799C2.68054 26.5115 2.98654 26.9071 3.21454 27.3387C3.70807 28.1296 4.25958 28.8829 4.86454 29.5924C5.1857 29.9772 5.53897 30.3342 5.92054 30.6593C6.28394 31.0174 6.6665 31.3556 7.06654 31.6723C7.69654 32.1399 8.35654 32.5774 9.01654 32.997C9.46704 33.3026 9.94511 33.5654 10.4445 33.7822C10.8765 33.956 11.2965 34.1418 11.7225 34.3337C12.6246 34.6384 13.5419 34.8964 14.4705 35.1069C14.7686 35.117 15.0646 35.1612 15.3525 35.2388C15.6285 35.3826 15.8745 35.2867 16.1265 35.3347C16.3751 35.4037 16.6308 35.4439 16.8885 35.4545C17.8851 35.5193 18.8856 35.4892 19.8765 35.3646C20.3265 35.2627 20.8185 35.3646 21.2565 35.2088C21.8343 35.1281 22.3978 34.9666 22.9305 34.7293C23.9805 34.6274 24.8445 33.992 25.8225 33.6983C26.1683 33.4532 26.5432 33.2519 26.9385 33.0989C27.334 32.8765 27.7129 32.6261 28.0725 32.3496C28.6971 31.8931 29.2978 31.4049 29.8725 30.8871C30.8382 29.9902 31.6942 28.9822 32.4225 27.8841C32.8845 27.2008 33.2985 26.4935 33.7245 25.7862C34.0665 25.2288 34.2045 24.5874 34.5045 23.988C34.6869 23.6089 34.8123 23.2049 34.8765 22.7892C35.0874 22.1504 35.2184 21.4881 35.2665 20.8172C35.4885 20.5295 35.2965 20.1698 35.4045 19.8761C35.5026 19.5459 35.5392 19.2005 35.5125 18.8571C35.5125 18.2577 35.5125 17.6044 35.5125 16.981C35.5125 16.3576 35.3625 15.7822 35.2785 15.1468C35.1813 14.3869 35.0105 13.6381 34.7685 12.9111C34.524 12.0938 34.2274 11.293 33.8805 10.5135C33.6645 10.0639 33.3825 9.63835 33.1365 9.1948C32.4943 8.04666 31.7079 6.98513 30.7965 6.03596C30.0636 5.25641 29.2602 4.54611 28.3965 3.91408C27.7456 3.41081 27.0532 2.96365 26.3265 2.57741C24.8824 1.77394 23.3185 1.20729 21.6945 0.899093L20.3625 0.641351C19.8825 0.563739 19.3967 0.527641 18.9105 0.533459H18.0225Z" fill="black"/>
<path d="M18.0226 0.533997H18.9046C19.3908 0.528179 19.8766 0.564277 20.3566 0.641889L21.6886 0.899632C23.3125 1.20783 24.8764 1.77448 26.3206 2.57795C27.0509 2.95977 27.7474 3.40293 28.4026 3.90263C29.2662 4.53466 30.0696 5.24496 30.8026 6.02451C31.7139 6.97368 32.5003 8.03521 33.1426 9.18335C33.3886 9.6269 33.6706 10.0525 33.8866 10.502C34.2334 11.2815 34.53 12.0823 34.7746 12.8996C35.0165 13.6267 35.1873 14.3754 35.2846 15.1354C35.3686 15.7348 35.4946 16.3342 35.5186 16.9696C35.5426 17.6049 35.5186 18.2223 35.5186 18.8457C35.5452 19.1891 35.5086 19.5345 35.4106 19.8647C35.3026 20.1584 35.4946 20.518 35.2726 20.8057C35.2186 21.4774 35.0816 22.1398 34.8646 22.7778C34.8003 23.1935 34.6749 23.5974 34.4926 23.9766C34.1926 24.576 34.0546 25.2233 33.7126 25.7748C33.2866 26.482 32.8726 27.1893 32.4106 27.8727C31.6923 28.9516 30.8506 29.9433 29.9026 30.8277C29.3279 31.3455 28.7271 31.8337 28.1026 32.2902C27.7429 32.5667 27.364 32.8171 26.9686 33.0395C26.5732 33.1925 26.1983 33.3938 25.8526 33.6389C24.8746 33.9326 24.0106 34.568 22.9606 34.6699C22.4278 34.9072 21.8643 35.0686 21.2866 35.1494C20.8486 35.2872 20.3566 35.2033 19.9066 35.3052C18.9261 35.4339 17.9358 35.47 16.9486 35.4131C16.6908 35.4025 16.4351 35.3623 16.1866 35.2932C15.9346 35.2453 15.6886 35.3412 15.4126 35.1973C15.1246 35.1198 14.8286 35.0755 14.5306 35.0655C13.6019 34.855 12.6847 34.5969 11.7826 34.2922C11.3566 34.1004 10.9366 33.9146 10.5046 33.7408C9.98811 33.5405 9.49188 33.2916 9.02255 32.9975C8.36255 32.578 7.70255 32.1404 7.07255 31.6729C6.67251 31.3561 6.28995 31.018 5.92655 30.6599C5.54498 30.3347 5.19172 29.9778 4.87055 29.5929C4.26559 28.8834 3.71408 28.1301 3.22055 27.3392C2.99255 26.9076 2.69255 26.512 2.47655 26.0805C2.26055 25.6489 2.06255 25.2053 1.87655 24.7678C1.54655 24.0425 1.36055 23.2693 1.07255 22.532C0.930913 22.0828 0.832467 21.6212 0.778549 21.1534C0.712549 20.7997 0.670549 20.4401 0.628549 20.0864C0.568799 19.7094 0.532728 19.3291 0.520549 18.9476C0.520549 18.57 0.520549 18.1923 0.520549 17.8207C0.541579 17.4454 0.541579 17.0692 0.520549 16.6938C0.484549 16.3941 0.652549 16.1544 0.664549 15.8667C0.676549 15.579 0.538549 15.3272 0.778549 15.1054C0.815726 14.4501 0.949153 13.8039 1.17455 13.1873C1.27655 12.7138 1.42114 12.2503 1.60655 11.8027C1.94255 11.0055 2.30855 10.2143 2.71055 9.44708C3.0685 8.82071 3.46946 8.21988 3.91055 7.64888C4.43389 6.94718 5.00953 6.28596 5.63255 5.67086C6.4944 4.79017 7.45008 4.00629 8.48255 3.3332C9.23258 2.84966 10.0144 2.41712 10.8226 2.03849C11.6351 1.67557 12.4734 1.37305 13.3306 1.1334C13.9666 0.94159 14.6266 0.851679 15.2626 0.677853C15.7199 0.579975 16.1868 0.533731 16.6546 0.539991C17.1106 0.522009 17.5726 0.533997 18.0226 0.533997ZM25.7326 12.8577C25.7657 12.6975 25.7657 12.5323 25.7326 12.3722C25.5549 11.6995 25.2126 11.0816 24.7366 10.574C24.4406 10.2804 24.0894 10.0483 23.7033 9.89086C23.3171 9.73347 22.9036 9.65395 22.4866 9.65687C22.361 9.67189 22.2341 9.67189 22.1086 9.65687C21.6111 9.63421 21.12 9.7753 20.7106 10.0585C19.9931 10.46 19.4596 11.124 19.2226 11.9106C19.1866 12.0365 19.1446 12.1684 19.0966 12.2942C19.0762 12.3358 19.0499 12.3741 19.0186 12.4081C18.9994 12.3744 18.9853 12.338 18.9766 12.3002C18.8271 11.7643 18.5371 11.278 18.1366 10.8916C17.6416 10.4133 17.0147 10.0939 16.3366 9.97456C15.9648 9.91084 15.5834 9.93132 15.2206 10.0345C14.8275 10.0859 14.4486 10.2146 14.1057 10.4132C13.7627 10.6117 13.4626 10.8762 13.2226 11.1913C12.7061 11.798 12.4269 12.5709 12.4366 13.3672C12.4383 13.6235 12.4787 13.8781 12.5566 14.1224C12.7629 14.9399 13.285 15.6425 14.0086 16.0765C14.5369 16.4358 15.171 16.6068 15.8086 16.562H15.9946C16.3818 16.5702 16.7667 16.4996 17.1257 16.3542C17.4847 16.2089 17.8103 15.992 18.0826 15.7168C18.5176 15.3349 18.8201 14.8249 18.9466 14.2603C19 14.1091 19.0662 13.9627 19.1446 13.8227C19.1926 13.9546 19.2346 14.0805 19.2826 14.2063C19.3307 14.352 19.3888 14.4942 19.4566 14.6319C19.8095 15.2442 20.3494 15.7276 20.9972 16.0113C21.6449 16.295 22.3666 16.364 23.0566 16.2083C23.7091 16.0536 24.3042 15.7168 24.7726 15.2373C25.3948 14.602 25.7399 13.7465 25.7326 12.8577ZM18.3526 27.6988C18.7066 27.6988 19.0666 27.6988 19.4206 27.6988C19.9344 27.6721 20.4436 27.5876 20.9386 27.4471C21.6509 27.2639 22.3441 27.013 23.0086 26.6978C23.3926 26.512 23.7586 26.2902 24.1246 26.0984C24.6988 25.778 25.2309 25.3874 25.7086 24.9356C25.8826 24.7618 26.0806 24.6239 26.2666 24.4681C26.4526 24.3122 26.3506 24.1744 26.3446 24.0245C26.3386 23.8747 26.0866 23.9526 25.9666 24.0245C25.5406 24.3602 25.1146 24.6958 24.7006 25.0375C23.8276 25.7316 22.8493 26.282 21.8026 26.6679C21.1263 26.9194 20.4239 27.0943 19.7086 27.1893C19.2711 27.2193 18.832 27.2193 18.3946 27.1893C17.9394 27.2427 17.479 27.2326 17.0266 27.1594C16.6186 27.0455 16.1806 27.1893 15.8266 26.9376C15.0526 26.9855 14.3926 26.554 13.6546 26.4401C12.4906 25.8047 11.2546 25.2413 10.5166 24.0425C10.433 23.9314 10.3181 23.8479 10.1866 23.8027C10.1146 23.8027 10.0006 23.5809 9.98255 23.7368C9.96455 23.8926 9.70655 23.9346 9.92855 24.0844C10.0006 24.1324 10.0066 24.2643 10.0666 24.3362C10.4225 24.7676 10.8139 25.1686 11.2366 25.535C12.0788 26.2066 13.0393 26.7148 14.0686 27.0335C14.5947 27.2546 15.1547 27.3843 15.7246 27.4171C16.0606 27.6329 16.4746 27.4171 16.7866 27.567C17.0986 27.7168 17.5546 27.6029 17.9326 27.6629C18.0717 27.6831 18.212 27.6951 18.3526 27.6988ZM15.8326 18.1084C15.8326 18.3002 15.8326 18.486 15.8326 18.6719C15.8293 18.8418 15.8781 19.0087 15.9725 19.1501C16.0668 19.2915 16.2023 19.4007 16.3606 19.4631C16.4566 19.499 16.5406 19.6549 16.6366 19.4631C17.4779 19.3395 18.3369 19.4711 19.1026 19.8407C19.202 19.9097 19.3169 19.9535 19.4371 19.9681C19.5574 19.9827 19.6794 19.9678 19.7926 19.9246C20.1586 19.7448 20.5666 19.6908 20.9266 19.4751C21.2186 19.3122 21.5415 19.2122 21.8745 19.1813C22.1506 19.1454 22.2406 19.0195 22.2166 18.7798C22.1907 18.442 22.1466 18.1058 22.0846 17.7728C22.0655 17.7193 22.0328 17.6718 21.9896 17.635C21.9465 17.5982 21.8944 17.5733 21.8386 17.563C21.7831 17.576 21.7324 17.6042 21.6921 17.6444C21.6518 17.6847 21.6236 17.7353 21.6106 17.7907C21.5621 17.9697 21.5836 18.1604 21.6706 18.3242C21.7318 18.4514 21.7426 18.597 21.7006 18.7318C21.7006 18.7798 21.4846 18.7738 21.3646 18.7977C21.2446 18.8217 21.1786 18.8457 21.0826 18.8697C20.7878 18.9627 20.5009 19.0789 20.2246 19.2173C19.8885 19.3612 19.5466 19.553 19.1686 19.2952C18.9701 19.129 18.7195 19.0378 18.4606 19.0375C18.2026 19.0375 17.9806 18.8697 17.6986 18.9116C17.387 18.9356 17.0741 18.9356 16.7626 18.9116C16.4086 18.9116 16.3366 18.8337 16.3306 18.4801C16.3246 18.1264 16.3306 17.8147 16.3306 17.4791C16.3351 17.4078 16.3141 17.3372 16.2712 17.28C16.2283 17.2229 16.1663 17.1829 16.0966 17.1674C15.9706 17.1254 15.8326 17.3052 15.8266 17.497C15.8206 17.6888 15.8326 17.8986 15.8326 18.0844V18.1084ZM14.9446 5.79074C14.5101 5.73957 14.071 5.73957 13.6366 5.79074C13.2568 5.86552 12.8866 5.98212 12.5326 6.13839C12.1946 6.32272 11.846 6.48684 11.4886 6.6299C11.3203 6.70125 11.1764 6.81996 11.0746 6.97156C10.9846 7.07346 11.0746 7.27126 11.2426 7.25927C11.3593 7.26187 11.4749 7.23508 11.5786 7.18135C12.4633 6.58078 13.5089 6.26113 14.5786 6.26427C15.3474 6.18968 16.1233 6.27332 16.8586 6.51002C17.0506 6.59394 17.0446 6.38415 17.1286 6.28824C17.2126 6.19234 17.0746 6.05448 17.0206 6.0305C16.6557 5.88769 16.2714 5.80079 15.8806 5.77276C15.5686 5.75473 15.2556 5.76074 14.9446 5.79074ZM24.2386 6.26427C23.7346 6.31821 23.2306 6.34219 22.7326 6.42611C22.3985 6.5325 22.0578 6.6166 21.7126 6.67785C21.6676 6.68563 21.6249 6.70316 21.5874 6.72922C21.55 6.75527 21.5187 6.78921 21.4959 6.82865C21.473 6.86809 21.459 6.91206 21.455 6.95746C21.451 7.00286 21.457 7.0486 21.4726 7.09144C21.5446 7.24728 21.6406 7.24129 21.8326 7.18734C22.2007 7.05884 22.5805 6.96649 22.9666 6.91162C23.3626 6.83878 23.7639 6.79868 24.1666 6.79174C24.3526 6.79174 24.5446 6.79174 24.7246 6.79174C24.9046 6.79174 25.1086 6.88764 25.3246 6.91162C25.8712 6.95863 26.3973 7.14207 26.8546 7.44509C27.0275 7.52544 27.1958 7.6155 27.3586 7.71482C27.5326 7.86467 27.5746 7.55298 27.7126 7.64888C27.6909 7.56884 27.6628 7.49066 27.6286 7.41512C27.4551 7.12276 27.1759 6.90817 26.8486 6.81571C26.0215 6.46792 25.1357 6.28076 24.2386 6.26427Z" fill="white"/>
<path d="M25.7325 12.8571C25.7592 13.7445 25.4335 14.6064 24.8265 15.2548C24.353 15.719 23.7584 16.0409 23.1105 16.1838C22.4206 16.3395 21.6989 16.2705 21.0511 15.9868C20.4033 15.7031 19.8635 15.2197 19.5105 14.6074C19.4428 14.4697 19.3847 14.3275 19.3365 14.1818C19.2885 14.0559 19.2465 13.9301 19.1985 13.7982C19.1202 13.9382 19.054 14.0846 19.0005 14.2358C18.8741 14.8004 18.5716 15.3104 18.1365 15.6923C17.8643 15.9675 17.5387 16.1844 17.1797 16.3297C16.8207 16.4751 16.4358 16.5457 16.0485 16.5375H15.8625C15.225 16.5823 14.5909 16.4113 14.0625 16.052C13.339 15.618 12.8169 14.9154 12.6105 14.0979C12.5327 13.8536 12.4923 13.599 12.4905 13.3427C12.4715 12.5614 12.7309 11.7987 13.2225 11.1908C13.6974 10.5638 14.3999 10.1483 15.1785 10.034C15.5414 9.9308 15.9227 9.91031 16.2945 9.97403C16.9727 10.0934 17.5996 10.4128 18.0945 10.8911C18.4951 11.2775 18.7851 11.7638 18.9345 12.2997C18.9432 12.3375 18.9574 12.3738 18.9765 12.4076C19.0079 12.3736 19.0342 12.3352 19.0545 12.2937C19.1025 12.1678 19.1445 12.036 19.1805 11.9101C19.4204 11.1279 19.9535 10.4686 20.6685 10.0699C21.078 9.78676 21.5691 9.64568 22.0665 9.66834C22.1921 9.68335 22.319 9.68335 22.4445 9.66834C22.8616 9.66541 23.2751 9.74493 23.6612 9.90233C24.0474 10.0597 24.3986 10.2919 24.6945 10.5854C25.1706 11.0931 25.5129 11.711 25.6905 12.3836C25.736 12.5371 25.7503 12.6981 25.7325 12.8571ZM22.4445 10.1898C21.7277 10.1567 21.0262 10.4044 20.4894 10.8802C19.9526 11.356 19.6229 12.0223 19.5705 12.7373C19.5281 13.5007 19.7841 14.2507 20.2845 14.8292C20.5368 15.123 20.8472 15.3615 21.1962 15.5296C21.5452 15.6978 21.9253 15.7919 22.3125 15.8062C23.0713 15.8143 23.8025 15.5229 24.3474 14.9954C24.8923 14.4679 25.2068 13.7469 25.2225 12.989C25.2347 12.4754 25.0971 11.9694 24.8265 11.5325C24.5967 11.118 24.256 10.7755 23.8425 10.5435C23.434 10.262 22.9379 10.1365 22.4445 10.1898ZM18.5745 13.1868C18.6134 12.9428 18.6015 12.6933 18.5396 12.454C18.4776 12.2148 18.367 11.9908 18.2145 11.7962C17.9314 11.3469 17.5338 10.9807 17.0625 10.7353C16.6834 10.5215 16.2559 10.408 15.8205 10.4056C15.0612 10.4196 14.3371 10.7284 13.8017 11.2666C13.2663 11.8047 12.9618 12.53 12.9525 13.2887C12.9501 13.6593 13.0264 14.0261 13.1764 14.365C13.3263 14.7039 13.5466 15.0072 13.8225 15.2548C14.2705 15.744 14.8936 16.0369 15.5565 16.0699C15.9663 16.1111 16.3801 16.061 16.7682 15.9232C17.1562 15.7853 17.5088 15.5632 17.8005 15.2727C18.0847 15.0104 18.3028 14.6847 18.4373 14.3223C18.5718 13.9598 18.6188 13.5708 18.5745 13.1868Z" fill="black"/>
<path d="M18.3526 27.6983C18.2067 27.7073 18.0604 27.7073 17.9146 27.6983C17.5366 27.6384 17.1586 27.7822 16.7686 27.6024C16.3786 27.4226 16.0426 27.6683 15.7066 27.4525C15.1367 27.4197 14.5767 27.29 14.0506 27.0689C13.0213 26.7502 12.0608 26.242 11.2186 25.5704C10.7959 25.204 10.4045 24.803 10.0486 24.3716C9.98856 24.2997 9.98256 24.1678 9.91056 24.1199C9.68856 23.97 9.95256 23.8801 9.96456 23.7722C9.97656 23.6643 10.0966 23.8082 10.1686 23.8382C10.3001 23.8833 10.415 23.9669 10.4986 24.0779C11.2546 25.2767 12.4726 25.8222 13.6366 26.4755C14.3746 26.5894 15.0346 27.021 15.8086 26.973C16.1806 27.2248 16.6186 27.0809 17.0086 27.1948C17.461 27.268 17.9214 27.2781 18.3766 27.2248C18.814 27.2548 19.2531 27.2548 19.6906 27.2248C20.4059 27.1298 21.1083 26.9549 21.7846 26.7033C22.8313 26.3175 23.8096 25.7671 24.6826 25.0729C25.0966 24.7313 25.5226 24.3956 25.9486 24.0599C26.0686 23.964 26.3206 23.946 26.3266 24.0599C26.3326 24.1738 26.4106 24.3776 26.2486 24.5035C26.0866 24.6294 25.8646 24.7972 25.6906 24.971C25.2129 25.4228 24.6808 25.8135 24.1066 26.1339C23.7406 26.3496 23.3746 26.5714 22.9906 26.7333C22.3261 27.0484 21.6329 27.2993 20.9206 27.4825C20.4256 27.6231 19.9164 27.7075 19.4026 27.7343C19.0666 27.7103 18.7066 27.6983 18.3526 27.6983Z" fill="black"/>
<path d="M15.8325 18.0839C15.8325 17.8981 15.8325 17.7123 15.8325 17.5205C15.8325 17.3287 15.9765 17.1488 16.1025 17.1908C16.1723 17.2064 16.2342 17.2463 16.2771 17.3035C16.3201 17.3606 16.3411 17.4312 16.3365 17.5025C16.3365 17.8382 16.3365 18.1738 16.3365 18.5035C16.3365 18.8332 16.4145 18.9291 16.7685 18.9351C17.0801 18.9591 17.393 18.9591 17.7045 18.9351C17.9865 18.8931 18.2085 19.0849 18.4665 19.0609C18.7255 19.0612 18.9761 19.1525 19.1745 19.3187C19.5525 19.5764 19.8945 19.3846 20.2305 19.2408C20.5069 19.1024 20.7938 18.9861 21.0885 18.8931C21.1845 18.8931 21.2745 18.8392 21.3705 18.8212C21.4665 18.8032 21.6885 18.8212 21.7065 18.7552C21.7485 18.6205 21.7378 18.4748 21.6765 18.3477C21.5896 18.1839 21.5681 17.9932 21.6165 17.8142C21.6295 17.7588 21.6578 17.7081 21.6981 17.6679C21.7383 17.6276 21.7891 17.5994 21.8445 17.5864C21.9003 17.5968 21.9524 17.6216 21.9956 17.6584C22.0388 17.6953 22.0715 17.7428 22.0905 17.7962C22.1524 18.1273 22.1964 18.4614 22.2225 18.7972C22.2225 19.037 22.1565 19.1628 21.8805 19.1988C21.5501 19.2185 21.2274 19.3062 20.9325 19.4565C20.5725 19.6723 20.1645 19.7263 19.7985 19.9061C19.6854 19.9493 19.5634 19.9642 19.4431 19.9496C19.3229 19.935 19.208 19.8912 19.1085 19.8222C18.3429 19.4526 17.4838 19.321 16.6425 19.4446C16.5465 19.6304 16.4625 19.4745 16.3665 19.4446C16.2082 19.3822 16.0728 19.273 15.9784 19.1316C15.8841 18.9902 15.8352 18.8233 15.8385 18.6533C15.8205 18.4615 15.8325 18.2757 15.8325 18.0839Z" fill="black"/>
<path d="M14.9445 5.79021C15.256 5.7662 15.569 5.7662 15.8805 5.79021C16.2713 5.81825 16.6557 5.90514 17.0205 6.04795C17.0745 6.04795 17.2845 6.12587 17.1285 6.30569C16.9725 6.48551 17.0505 6.61139 16.8585 6.52747C16.1233 6.29077 15.3473 6.20713 14.5785 6.28172C13.5089 6.27858 12.4632 6.59823 11.5785 7.1988C11.4748 7.25253 11.3593 7.27933 11.2425 7.27672C11.1045 7.27672 10.9845 7.09091 11.0745 6.98901C11.1764 6.83741 11.3202 6.7187 11.4885 6.64735C11.8459 6.50429 12.1945 6.34017 12.5325 6.15584C12.8865 5.99957 13.2568 5.88297 13.6365 5.80819C14.071 5.75702 14.51 5.75702 14.9445 5.80819V5.79021Z" fill="black"/>
<path d="M24.2385 6.26374C25.1307 6.29843 26.0082 6.50183 26.8245 6.86314C27.1518 6.9556 27.4311 7.17019 27.6045 7.46254C27.6387 7.53809 27.6668 7.61626 27.6885 7.69631C27.5505 7.6004 27.5085 7.91209 27.3345 7.76224C27.1717 7.66292 27.0035 7.57287 26.8305 7.49251C26.3733 7.18949 25.8472 7.00606 25.3005 6.95905C25.1085 6.95905 24.9225 6.86314 24.7005 6.83917C24.4785 6.81519 24.3285 6.83917 24.1425 6.83917C23.7399 6.84611 23.3385 6.88621 22.9425 6.95905C22.5564 7.01392 22.1766 7.10627 21.8085 7.23477C21.6165 7.28872 21.5205 7.29471 21.4485 7.13887C21.4329 7.09602 21.4269 7.05029 21.431 7.00489C21.435 6.95948 21.4489 6.91551 21.4718 6.87608C21.4947 6.83664 21.526 6.8027 21.5634 6.77665C21.6009 6.75059 21.6436 6.73306 21.6885 6.72528C22.0337 6.66403 22.3745 6.57993 22.7085 6.47353C23.2305 6.34166 23.7345 6.31769 24.2385 6.26374Z" fill="black"/>
<path d="M22.4446 10.1898C22.9426 10.1353 23.4436 10.263 23.8546 10.5495C24.2681 10.7815 24.6088 11.124 24.8386 11.5385C25.1038 11.9749 25.2372 12.4786 25.2226 12.989C25.2052 13.7479 24.8884 14.4692 24.3411 14.9958C23.7938 15.5223 23.0603 15.8115 22.3006 15.8002C21.9133 15.7859 21.5333 15.6918 21.1842 15.5236C20.8352 15.3555 20.5248 15.117 20.2726 14.8232C19.7721 14.2447 19.5161 13.4947 19.5586 12.7313C19.6125 12.0152 19.9445 11.3485 20.4837 10.8736C21.0229 10.3988 21.7267 10.1534 22.4446 10.1898ZM22.5646 11.6883C22.3921 11.6726 22.2183 11.6981 22.0577 11.7628C21.897 11.8274 21.754 11.9292 21.6406 12.0599C21.5317 12.1513 21.4468 12.2679 21.3935 12.3995C21.3401 12.5312 21.3199 12.6739 21.3346 12.8152C21.3346 13.1449 21.3346 13.4446 21.6466 13.6903C21.8678 13.9191 22.1685 14.0543 22.4866 14.0679C22.7909 14.0282 23.0736 13.8892 23.2906 13.6723C23.5076 13.4555 23.6468 13.1732 23.6866 12.8691C23.6852 12.5581 23.5675 12.2588 23.3566 12.03C23.1586 11.8561 22.9246 11.5684 22.5646 11.6823V11.6883Z" fill="white"/>
<path d="M18.5745 13.1868C18.6176 13.5684 18.5706 13.9548 18.4372 14.3149C18.3038 14.6751 18.0878 14.999 17.8065 15.2607C17.5148 15.5512 17.1622 15.7733 16.7742 15.9112C16.3861 16.049 15.9723 16.0992 15.5625 16.0579C14.8993 16.0296 14.274 15.741 13.8225 15.2548C13.547 15.0091 13.3265 14.708 13.1756 14.3712C13.0246 14.0345 12.9465 13.6697 12.9465 13.3007C12.9558 12.542 13.2603 11.8167 13.7957 11.2785C14.3311 10.7404 15.0552 10.4316 15.8145 10.4176C16.2499 10.42 16.6774 10.5335 17.0565 10.7473C17.5278 10.9927 17.9254 11.3588 18.2085 11.8082C18.3604 12.0009 18.4713 12.2226 18.5342 12.4597C18.5971 12.6968 18.6109 12.9442 18.5745 13.1868ZM17.8365 13.0909C17.8543 12.9345 17.8323 12.7761 17.7725 12.6305C17.7128 12.4848 17.6171 12.3566 17.4945 12.2577C17.2579 12.0462 16.954 11.9251 16.6365 11.9161C16.3183 11.9161 16.013 12.0424 15.788 12.2672C15.563 12.492 15.4365 12.7969 15.4365 13.1149C15.4444 13.4276 15.5742 13.7249 15.7984 13.9433C16.0226 14.1616 16.3234 14.2838 16.6365 14.2837C16.7944 14.2904 16.9519 14.2645 17.0993 14.2077C17.2467 14.151 17.3808 14.0645 17.4934 13.9538C17.6059 13.843 17.6944 13.7104 17.7535 13.564C17.8125 13.4176 17.8408 13.2607 17.8365 13.1029V13.0909Z" fill="white"/>
<path d="M22.5645 11.6823C22.9245 11.5684 23.1645 11.8561 23.3805 12.048C23.5915 12.2768 23.7092 12.5761 23.7105 12.8871C23.6708 13.1911 23.5316 13.4735 23.3146 13.6903C23.0975 13.9071 22.8149 14.0462 22.5105 14.0859C22.1924 14.0723 21.8917 13.9371 21.6705 13.7083C21.3585 13.4625 21.3765 13.1628 21.3585 12.8332C21.3347 12.6916 21.3464 12.5463 21.3924 12.4104C21.4385 12.2744 21.5175 12.1519 21.6225 12.0539C21.7378 11.9206 21.8838 11.8172 22.0478 11.7524C22.2119 11.6877 22.3892 11.6637 22.5645 11.6823Z" fill="black"/>
<path d="M17.8366 13.1029C17.843 13.258 17.818 13.4128 17.763 13.558C17.708 13.7033 17.6242 13.8359 17.5166 13.9479C17.409 14.0598 17.2798 14.1489 17.1368 14.2097C16.9938 14.2706 16.84 14.3018 16.6846 14.3017C16.3714 14.3018 16.0707 14.1796 15.8465 13.9612C15.6223 13.7429 15.4924 13.4456 15.4846 13.1329C15.4846 12.8149 15.611 12.51 15.836 12.2852C16.0611 12.0604 16.3663 11.9341 16.6846 11.9341C17.002 11.9431 17.3059 12.0642 17.5426 12.2757C17.6556 12.379 17.7415 12.5085 17.7928 12.6527C17.844 12.7969 17.8591 12.9515 17.8366 13.1029Z" fill="black"/>
</g>
<defs>
<clipPath id="clip0">
<rect width="36" height="36" fill="white"/>
</clipPath>
</defs>
</svg>
