<svg width="160" height="40" viewBox="0 0 160 40" fill="none" xmlns="http://www.w3.org/2000/svg">
<rect width="160" height="40" rx="20" fill="url(#paint0_linear)"/>
<path d="M53.354 26.14C52.598 26.14 51.8653 26.0327 51.156 25.818C50.456 25.6033 49.9007 25.3187 49.49 24.964L50.12 23.55C50.5213 23.8673 51.0113 24.1287 51.59 24.334C52.178 24.53 52.766 24.628 53.354 24.628C54.082 24.628 54.6233 24.5113 54.978 24.278C55.342 24.0447 55.524 23.7367 55.524 23.354C55.524 23.074 55.4213 22.8453 55.216 22.668C55.02 22.4813 54.768 22.3367 54.46 22.234C54.152 22.1313 53.732 22.0147 53.2 21.884C52.4533 21.7067 51.8467 21.5293 51.38 21.352C50.9227 21.1747 50.526 20.8993 50.19 20.526C49.8633 20.1433 49.7 19.63 49.7 18.986C49.7 18.4447 49.8447 17.9547 50.134 17.516C50.4327 17.068 50.876 16.7133 51.464 16.452C52.0613 16.1907 52.7893 16.06 53.648 16.06C54.2453 16.06 54.8333 16.1347 55.412 16.284C55.9907 16.4333 56.49 16.648 56.91 16.928L56.336 18.342C55.9067 18.09 55.4587 17.8987 54.992 17.768C54.5253 17.6373 54.0727 17.572 53.634 17.572C52.9153 17.572 52.3787 17.6933 52.024 17.936C51.6787 18.1787 51.506 18.5007 51.506 18.902C51.506 19.182 51.604 19.4107 51.8 19.588C52.0053 19.7653 52.262 19.9053 52.57 20.008C52.878 20.1107 53.298 20.2273 53.83 20.358C54.558 20.526 55.1553 20.7033 55.622 20.89C56.0887 21.0673 56.4853 21.3427 56.812 21.716C57.148 22.0893 57.316 22.5933 57.316 23.228C57.316 23.7693 57.1667 24.2593 56.868 24.698C56.5787 25.1367 56.1353 25.4867 55.538 25.748C54.9407 26.0093 54.2127 26.14 53.354 26.14ZM59.1207 16.2H60.9407V26H59.1207V16.2ZM70.2834 20.988H72.0054V24.894C71.5014 25.2953 70.9134 25.6033 70.2414 25.818C69.5694 26.0327 68.8787 26.14 68.1694 26.14C67.1707 26.14 66.2701 25.9253 65.4674 25.496C64.6647 25.0573 64.0347 24.4553 63.5774 23.69C63.1201 22.9247 62.8914 22.0613 62.8914 21.1C62.8914 20.1387 63.1201 19.2753 63.5774 18.51C64.0347 17.7447 64.6647 17.1473 65.4674 16.718C66.2794 16.2793 67.1894 16.06 68.1974 16.06C69.0187 16.06 69.7654 16.1953 70.4374 16.466C71.1094 16.7367 71.6741 17.1333 72.1314 17.656L70.9834 18.776C70.2367 18.0293 69.3361 17.656 68.2814 17.656C67.5907 17.656 66.9747 17.8007 66.4334 18.09C65.9014 18.3793 65.4814 18.7853 65.1734 19.308C64.8747 19.8307 64.7254 20.428 64.7254 21.1C64.7254 21.7533 64.8747 22.3413 65.1734 22.864C65.4814 23.3867 65.9014 23.7973 66.4334 24.096C66.9747 24.3947 67.5861 24.544 68.2674 24.544C69.0327 24.544 69.7047 24.376 70.2834 24.04V20.988ZM83.1138 16.2V26H81.6158L76.2118 19.364V26H74.4058V16.2H75.9038L81.3078 22.836V16.2H83.1138ZM93.823 26.14C92.4696 26.14 91.415 25.762 90.659 25.006C89.903 24.2407 89.525 23.1487 89.525 21.73V16.2H91.345V21.66C91.345 23.5827 92.1756 24.544 93.837 24.544C95.489 24.544 96.315 23.5827 96.315 21.66V16.2H98.107V21.73C98.107 23.1487 97.729 24.2407 96.973 25.006C96.2263 25.762 95.1763 26.14 93.823 26.14ZM104.688 16.2C105.537 16.2 106.275 16.34 106.9 16.62C107.535 16.9 108.02 17.3013 108.356 17.824C108.692 18.3467 108.86 18.9673 108.86 19.686C108.86 20.3953 108.692 21.016 108.356 21.548C108.02 22.0707 107.535 22.472 106.9 22.752C106.275 23.032 105.537 23.172 104.688 23.172H102.476V26H100.656V16.2H104.688ZM104.604 21.632C105.397 21.632 105.999 21.464 106.41 21.128C106.821 20.792 107.026 20.3113 107.026 19.686C107.026 19.0607 106.821 18.58 106.41 18.244C105.999 17.908 105.397 17.74 104.604 17.74H102.476V21.632H104.604Z" fill="white"/>
<defs>
<linearGradient id="paint0_linear" x1="6.19888e-07" y1="8" x2="169.529" y2="37.4771" gradientUnits="userSpaceOnUse">
<stop stop-color="#E53C84"/>
<stop offset="1" stop-color="#794899"/>
</linearGradient>
</defs>
</svg>
