<svg width="65" height="66" viewBox="0 0 65 66" fill="none" xmlns="http://www.w3.org/2000/svg">
<g filter="url(#filter0_d)">
<path d="M26.7694 30.9375C26.3947 30.9375 26.0286 30.8252 25.7183 30.6151C25.408 30.405 25.1677 30.1068 25.0285 29.7589L24.5679 28.6073C24.2896 27.9114 23.8091 27.3149 23.1885 26.8947C22.5679 26.4746 21.8356 26.25 21.0861 26.25H14.25V31.875C14.25 32.8696 14.6451 33.8234 15.3483 34.5266C16.0516 35.2299 17.0054 35.625 18 35.625H24.5625L25.1554 37.4038C25.5288 38.5238 26.245 39.4979 27.2028 40.1882C28.1605 40.8785 29.3112 41.25 30.4918 41.25H33.9375V30.9375H26.7694Z" fill="#F9B7B7"/>
<path d="M24.5625 35.625L25.1554 37.4038C25.5288 38.5238 26.245 39.4979 27.2028 40.1882C28.1605 40.8785 29.3112 41.25 30.4918 41.25H33.9375V30.9375H27.6875L24.5625 35.625Z" fill="#CBE2EF"/>
<path d="M18 35.625V26.25H14.25V31.875C14.25 32.8696 14.6451 33.8234 15.3483 34.5266C16.0516 35.2299 17.0054 35.625 18 35.625Z" fill="#D27676"/>
<path d="M56.4375 30H28.3125V43.125H60.1875V33.75C60.1875 32.7554 59.7924 31.8016 59.0891 31.0984C58.3859 30.3951 57.4321 30 56.4375 30Z" fill="#338DBF"/>
<path d="M12.375 35.625H19.875C20.3723 35.625 20.8492 35.8225 21.2008 36.1742C21.5525 36.5258 21.75 37.0027 21.75 37.5V39.375C21.75 39.8723 21.5525 40.3492 21.2008 40.7008C20.8492 41.0525 20.3723 41.25 19.875 41.25H10.5V37.5C10.5 37.0027 10.6975 36.5258 11.0492 36.1742C11.4008 35.8225 11.8777 35.625 12.375 35.625Z" fill="#338DBF"/>
<path d="M33.9375 30H32.0625V32.8125H33.9375V30Z" fill="#5CA4CC"/>
<path d="M33.9375 34.6875H32.0625V36.5625H33.9375V34.6875Z" fill="#5CA4CC"/>
<path d="M33.9375 38.4375H32.0625V41.25H33.9375V38.4375Z" fill="#5CA4CC"/>
<path d="M37.9375 19.3172C36.8518 17.0423 36.4978 14.4868 36.9244 12.0025C37.351 9.51813 38.5371 7.22707 40.3195 5.44466C42.1019 3.66225 44.393 2.47612 46.8774 2.04954C49.3617 1.62295 51.9172 1.97689 54.1921 3.06263L53.3839 4.75453C51.4589 3.83591 49.2965 3.5365 47.1943 3.89752C45.0922 4.25854 43.1536 5.26223 41.6453 6.77046C40.1371 8.27869 39.1334 10.2173 38.7724 12.3195C38.4114 14.4217 38.7108 16.5841 39.6294 18.5091L37.9375 19.3172Z" fill="#EA8383"/>
<path d="M41.7668 17.7529L41.1084 15.9971L48.0001 13.4128V6.5625H49.8751V14.7122L41.7668 17.7529Z" fill="#EA8383"/>
<path d="M21.75 21.5625H17.0625V19.2993L19.4868 16.875H17.0625V15H21.75V17.2632L19.3257 19.6875H21.75V21.5625Z" fill="#353535" fill-opacity="0.68"/>
<path d="M25.5 10.3125H18.9375V6.96926L23.625 4.15676V3.75H18.9375V1.875H25.5V5.21824L20.8125 8.03074V8.4375H25.5V10.3125Z" fill="#353535" fill-opacity="0.68"/>
<path d="M12.375 17.8125H4.875V14.4983L10.5 10.7483V10.3125H4.875V8.4375H12.375V11.7517L6.75 15.5017V15.9375H12.375V17.8125Z" fill="#353535" fill-opacity="0.68"/>
<path d="M56.9099 6.10754V6.10757C56.9099 10.3271 55.2337 14.3739 52.25 17.3576C49.2663 20.3412 45.2196 22.0175 41 22.0175H41C43.11 24.1265 45.9712 25.3111 48.9544 25.3107C51.9377 25.3104 54.7987 24.1252 56.9081 22.0157C59.0176 19.9062 60.2029 17.0452 60.2032 14.062C60.2035 11.0787 59.0189 8.21749 56.9099 6.10754Z" fill="#0071AF"/>
<path d="M33 17.8125H28.3125V15.5493L30.7368 13.125H28.3125V11.25H33V13.5132L30.5757 15.9375H33V17.8125Z" fill="#353535" fill-opacity="0.68"/>
<path d="M30.1875 26.25H26.4375V23.9868L27.9243 22.5H26.4375V20.625H30.1875V22.8882L28.7007 24.375H30.1875V26.25Z" fill="#353535" fill-opacity="0.68"/>
<path d="M10.6287 36.8211C10.5439 37.0374 10.5003 37.2677 10.5 37.5V41.25H16.125C14.841 41.2498 13.5957 40.8104 12.5959 40.0047C11.5961 39.1991 10.9019 38.0757 10.6287 36.8211Z" fill="#2B78A3"/>
<path d="M60.1797 33.5186C60.1784 33.4968 60.1765 33.4752 60.1748 33.4536C60.1702 33.3953 60.1643 33.3373 60.1571 33.2797C60.1547 33.2602 60.1524 33.2405 60.1496 33.2211C60.1281 33.0684 60.0971 32.9172 60.0568 32.7684C60.054 32.7579 60.0509 32.7475 60.0479 32.737C60.0289 32.6694 60.0082 32.6026 59.9856 32.5365C59.9831 32.5291 59.9807 32.5217 59.9781 32.5143C59.8991 32.2883 59.7986 32.0704 59.678 31.8636C58.9414 35.8786 57.4128 39.7068 55.1814 43.125H60.1875V33.75C60.1875 33.6722 60.1844 33.5952 60.1797 33.5186Z" fill="#2B78A3"/>
<path d="M60.1875 48.75V43.125C60.1875 42.6277 59.99 42.1508 59.6383 41.7992C59.2867 41.4475 58.8098 41.25 58.3125 41.25H10.5V48.75H60.1875Z" fill="#00659D"/>
<path d="M58.3126 41.25H56.3112C54.7642 44.0341 52.7981 46.5637 50.4819 48.75H60.1876V43.125C60.1876 42.6277 59.9901 42.1508 59.6384 41.7992C59.2868 41.4475 58.8099 41.25 58.3126 41.25Z" fill="#005686"/>
<path d="M8.15625 57.1875C7.53465 57.1875 6.93851 56.9406 6.49897 56.501C6.05943 56.0615 5.8125 55.4654 5.8125 54.8438V29.5312C5.8125 28.9096 6.05943 28.3135 6.49897 27.874C6.93851 27.4344 7.53465 27.1875 8.15625 27.1875C8.77785 27.1875 9.37399 27.4344 9.81353 27.874C10.2531 28.3135 10.5 28.9096 10.5 29.5312V45C10.5 45.4973 10.6975 45.9742 11.0492 46.3258C11.4008 46.6775 11.8777 46.875 12.375 46.875H58.3125C58.8098 46.875 59.2867 47.0725 59.6383 47.4242C59.99 47.7758 60.1875 48.2527 60.1875 48.75V54.8438C60.1875 55.4654 59.9406 56.0615 59.501 56.501C59.0615 56.9406 58.4654 57.1875 57.8438 57.1875C57.2221 57.1875 56.626 56.9406 56.1865 56.501C55.7469 56.0615 55.5 55.4654 55.5 54.8438V53.4375C55.5 52.9402 55.3025 52.4633 54.9508 52.1117C54.5992 51.76 54.1223 51.5625 53.625 51.5625H12.375C11.8777 51.5625 11.4008 51.76 11.0492 52.1117C10.6975 52.4633 10.5 52.9402 10.5 53.4375V54.8438C10.5 55.4654 10.2531 56.0615 9.81353 56.501C9.37399 56.9406 8.77785 57.1875 8.15625 57.1875Z" fill="#575757"/>
<path d="M58.3124 46.875H52.3072C50.7347 48.6321 48.9676 50.2047 47.0398 51.5625H53.6249C54.1222 51.5625 54.5991 51.76 54.9507 52.1117C55.3024 52.4633 55.4999 52.9402 55.4999 53.4375V54.8438C55.4999 55.4654 55.7468 56.0615 56.1864 56.501C56.6259 56.9406 57.222 57.1875 57.8436 57.1875C58.4652 57.1875 59.0614 56.9406 59.5009 56.501C59.9405 56.0615 60.1874 55.4654 60.1874 54.8438V48.75C60.1874 48.2527 59.9899 47.7758 59.6382 47.4242C59.2866 47.0725 58.8097 46.875 58.3124 46.875Z" fill="#4A4A4A"/>
</g>
<defs>
<filter id="filter0_d" x="-1" y="0" width="68" height="68" filterUnits="userSpaceOnUse" color-interpolation-filters="sRGB">
<feFlood flood-opacity="0" result="BackgroundImageFix"/>
<feColorMatrix in="SourceAlpha" type="matrix" values="0 0 0 0 0 0 0 0 0 0 0 0 0 0 0 0 0 0 127 0" result="hardAlpha"/>
<feOffset dy="4"/>
<feGaussianBlur stdDeviation="2"/>
<feComposite in2="hardAlpha" operator="out"/>
<feColorMatrix type="matrix" values="0 0 0 0 0 0 0 0 0 0 0 0 0 0 0 0 0 0 0.1 0"/>
<feBlend mode="normal" in2="BackgroundImageFix" result="effect1_dropShadow"/>
<feBlend mode="normal" in="SourceGraphic" in2="effect1_dropShadow" result="shape"/>
</filter>
</defs>
</svg>
