<svg width="185" height="30" viewBox="0 0 185 30" fill="none" xmlns="http://www.w3.org/2000/svg">
<path d="M19.5184 8.27726H16.1946C16.0667 7.56703 15.8288 6.94203 15.4808 6.40226C15.1328 5.86248 14.7066 5.40439 14.2024 5.02796C13.6981 4.65154 13.1335 4.36745 12.5085 4.17569C11.8906 3.98393 11.2336 3.88805 10.5376 3.88805C9.2805 3.88805 8.15479 4.2041 7.16047 4.8362C6.17325 5.46831 5.392 6.39515 4.81672 7.61674C4.24854 8.83834 3.96444 10.3298 3.96444 12.0912C3.96444 13.8667 4.24854 15.3653 4.81672 16.5869C5.392 17.8085 6.1768 18.7318 7.17112 19.3568C8.16544 19.9818 9.28405 20.2943 10.5269 20.2943C11.2159 20.2943 11.8693 20.202 12.4872 20.0173C13.1122 19.8256 13.6768 19.545 14.1811 19.1757C14.6853 18.8064 15.1115 18.3554 15.4595 17.8227C15.8146 17.2829 16.0596 16.665 16.1946 15.969L19.5184 15.9797C19.3409 17.0521 18.9964 18.0393 18.485 18.9413C17.9808 19.8362 17.3309 20.6104 16.5355 21.2638C15.7471 21.9101 14.8451 22.4108 13.8295 22.7659C12.8139 23.121 11.7059 23.2986 10.5056 23.2986C8.61643 23.2986 6.93319 22.8511 5.45592 21.9562C3.97865 21.0542 2.81388 19.7652 1.9616 18.089C1.11643 16.4129 0.693848 14.4136 0.693848 12.0912C0.693848 9.76163 1.11998 7.76234 1.97226 6.09331C2.82453 4.41717 3.9893 3.13166 5.46658 2.23677C6.94385 1.33478 8.62354 0.883789 10.5056 0.883789C11.6633 0.883789 12.7429 1.05069 13.7443 1.3845C14.7528 1.7112 15.6583 2.19416 16.4609 2.83336C17.2635 3.46547 17.9275 4.23961 18.4531 5.15581C18.9786 6.0649 19.3338 7.10538 19.5184 8.27726Z" fill="#353535" fill-opacity="0.9"/>
<path d="M29.4639 23.3625C28.427 23.3625 27.4895 23.1707 26.6514 22.7872C25.8133 22.3966 25.1493 21.8319 24.6592 21.0933C24.1763 20.3547 23.9348 19.4491 23.9348 18.3767C23.9348 17.4534 24.1123 16.6934 24.4675 16.0969C24.8226 15.5003 25.302 15.028 25.9057 14.68C26.5094 14.3319 27.1841 14.0692 27.9298 13.8916C28.6756 13.714 29.4355 13.5791 30.2097 13.4868C31.1898 13.3731 31.9852 13.2808 32.596 13.2098C33.2068 13.1317 33.6507 13.0074 33.9277 12.8369C34.2047 12.6665 34.3432 12.3895 34.3432 12.0059V11.9314C34.3432 11.001 34.0804 10.2801 33.5548 9.76873C33.0364 9.25737 32.2622 9.00169 31.2324 9.00169C30.1599 9.00169 29.3148 9.23961 28.6969 9.71547C28.0861 10.1842 27.6635 10.7062 27.4291 11.2815L24.4355 10.5997C24.7906 9.60538 25.3091 8.80282 25.9909 8.19203C26.6798 7.57413 27.4717 7.12669 28.3666 6.8497C29.2615 6.56561 30.2025 6.42356 31.1898 6.42356C31.8432 6.42356 32.5356 6.50169 33.2672 6.65794C34.0058 6.80709 34.6947 7.08407 35.3339 7.4889C35.9802 7.89373 36.5094 8.47257 36.9213 9.22541C37.3332 9.97115 37.5392 10.9406 37.5392 12.1338V23.0003H34.4284V20.7631H34.3006C34.0946 21.175 33.7856 21.5798 33.3737 21.9775C32.9618 22.3753 32.4327 22.7055 31.7864 22.9683C31.14 23.2311 30.3659 23.3625 29.4639 23.3625ZM30.1564 20.8057C31.0371 20.8057 31.7899 20.6317 32.4149 20.2836C33.047 19.9356 33.5264 19.4811 33.8531 18.92C34.1869 18.3518 34.3538 17.7446 34.3538 17.0983V14.9889C34.2402 15.1025 34.02 15.2091 33.6933 15.3085C33.3737 15.4008 33.0079 15.4825 32.596 15.5535C32.1841 15.6175 31.7828 15.6778 31.3922 15.7346C31.0016 15.7844 30.6749 15.827 30.4121 15.8625C29.7942 15.9406 29.2295 16.072 28.7182 16.2567C28.2139 16.4413 27.8091 16.7077 27.5037 17.0557C27.2054 17.3966 27.0562 17.8511 27.0562 18.4193C27.0562 19.2077 27.3474 19.8042 27.9298 20.2091C28.5122 20.6068 29.2544 20.8057 30.1564 20.8057Z" fill="#353535" fill-opacity="0.9"/>
<path d="M46.4673 13.2844V23.0003H43.2819V6.63663H46.3394V9.29998H46.5419C46.9183 8.43351 47.5078 7.73748 48.3103 7.21191C49.12 6.68635 50.1392 6.42356 51.3679 6.42356C52.4829 6.42356 53.4595 6.65794 54.2975 7.12669C55.1356 7.58834 55.7855 8.27726 56.2471 9.19345C56.7088 10.1096 56.9396 11.2425 56.9396 12.5919V23.0003H53.7542V12.9754C53.7542 11.7893 53.4453 10.8625 52.8274 10.1949C52.2095 9.52015 51.3607 9.18279 50.2812 9.18279C49.5426 9.18279 48.8856 9.3426 48.3103 9.6622C47.7421 9.9818 47.2911 10.4506 46.9573 11.0684C46.6306 11.6792 46.4673 12.4179 46.4673 13.2844Z" fill="#353535" fill-opacity="0.9"/>
<path d="M74.8671 6.91362C74.7535 5.9051 74.2848 5.12385 73.4609 4.56987C72.637 4.00879 71.6001 3.72825 70.3501 3.72825C69.4552 3.72825 68.6811 3.8703 68.0277 4.15439C67.3742 4.43137 66.8664 4.8149 66.5042 5.30495C66.1491 5.78791 65.9715 6.33834 65.9715 6.95623C65.9715 7.4747 66.0923 7.92214 66.3338 8.29856C66.5823 8.67498 66.9055 8.99103 67.3032 9.24672C67.7081 9.49529 68.1413 9.70481 68.6029 9.87527C69.0646 10.0386 69.5085 10.1736 69.9346 10.2801L72.0653 10.8341C72.7613 11.0045 73.4751 11.2354 74.2066 11.5265C74.9382 11.8177 75.6164 12.2013 76.2414 12.6771C76.8664 13.153 77.3707 13.7425 77.7542 14.4456C78.1448 15.1487 78.3402 15.9903 78.3402 16.9704C78.3402 18.2062 78.0206 19.3035 77.3813 20.2623C76.7492 21.2211 75.8295 21.9775 74.6221 22.5315C73.4218 23.0855 71.9694 23.3625 70.2649 23.3625C68.6313 23.3625 67.218 23.1032 66.0248 22.5848C64.8316 22.0663 63.8977 21.3312 63.223 20.3795C62.5482 19.4207 62.1754 18.2844 62.1044 16.9704H65.4069C65.4708 17.7588 65.7265 18.4158 66.174 18.9413C66.6285 19.4598 67.2073 19.8469 67.9105 20.1025C68.6207 20.3511 69.3984 20.4754 70.2436 20.4754C71.174 20.4754 72.0014 20.3298 72.7258 20.0386C73.4573 19.7403 74.0326 19.3284 74.4517 18.8028C74.8707 18.2702 75.0802 17.6487 75.0802 16.9385C75.0802 16.2922 74.8956 15.7631 74.5262 15.3511C74.164 14.9392 73.6704 14.5983 73.0454 14.3284C72.4275 14.0585 71.7279 13.8206 70.9467 13.6146L68.3686 12.9115C66.6214 12.4356 65.2365 11.7361 64.2137 10.8128C63.1981 9.88947 62.6903 8.66788 62.6903 7.14799C62.6903 5.89089 63.0312 4.79359 63.713 3.85609C64.3948 2.91859 65.3181 2.19061 66.4829 1.67214C67.6477 1.14657 68.9616 0.883789 70.4247 0.883789C71.9019 0.883789 73.2052 1.14302 74.3345 1.66149C75.4708 2.17995 76.3657 2.89373 77.0191 3.80282C77.6725 4.70481 78.0135 5.74174 78.0419 6.91362H74.8671Z" fill="#353535" fill-opacity="0.9"/>
<path d="M93.884 16.214V6.63663H97.08V23.0003H93.9479V20.1665H93.7775C93.4011 21.04 92.7974 21.768 91.9664 22.3504C91.1425 22.9257 90.1163 23.2133 88.8876 23.2133C87.8364 23.2133 86.906 22.9825 86.0964 22.5209C85.2938 22.0521 84.6617 21.3596 84.2001 20.4434C83.7455 19.5273 83.5182 18.3944 83.5182 17.045V6.63663H86.7036V16.6615C86.7036 17.7765 87.0126 18.6643 87.6305 19.3248C88.2484 19.9854 89.0509 20.3156 90.0381 20.3156C90.6347 20.3156 91.2278 20.1665 91.8173 19.8682C92.4138 19.5699 92.9074 19.1189 93.2981 18.5152C93.6958 17.9115 93.8911 17.1444 93.884 16.214Z" fill="#353535" fill-opacity="0.9"/>
<path d="M102.86 29.1366V6.63663H105.971V9.28933H106.237C106.422 8.94842 106.688 8.55424 107.036 8.1068C107.384 7.65936 107.867 7.26873 108.485 6.93493C109.103 6.59402 109.92 6.42356 110.935 6.42356C112.256 6.42356 113.435 6.75737 114.472 7.42498C115.509 8.0926 116.322 9.05495 116.912 10.3121C117.508 11.5692 117.807 13.0819 117.807 14.8504C117.807 16.6189 117.512 18.1352 116.923 19.3994C116.333 20.6565 115.523 21.626 114.494 22.3078C113.464 22.9825 112.288 23.3199 110.967 23.3199C109.973 23.3199 109.16 23.153 108.528 22.8192C107.903 22.4854 107.413 22.0947 107.057 21.6473C106.702 21.1998 106.429 20.8021 106.237 20.4541H106.045V29.1366H102.86ZM105.981 14.8184C105.981 15.969 106.148 16.9775 106.482 17.844C106.816 18.7105 107.299 19.3888 107.931 19.8788C108.563 20.3618 109.337 20.6033 110.254 20.6033C111.205 20.6033 112.001 20.3511 112.64 19.8469C113.279 19.3355 113.762 18.643 114.089 17.7694C114.423 16.8959 114.589 15.9122 114.589 14.8184C114.589 13.7389 114.426 12.7694 114.099 11.9101C113.78 11.0507 113.297 10.3724 112.651 9.87527C112.011 9.37811 111.212 9.12953 110.254 9.12953C109.33 9.12953 108.549 9.36745 107.91 9.84331C107.278 10.3192 106.798 10.9832 106.472 11.8355C106.145 12.6878 105.981 13.6821 105.981 14.8184Z" fill="#353535" fill-opacity="0.9"/>
<path d="M122.876 29.1366V6.63663H125.986V9.28933H126.253C126.437 8.94842 126.704 8.55424 127.052 8.1068C127.4 7.65936 127.883 7.26873 128.501 6.93493C129.119 6.59402 129.935 6.42356 130.951 6.42356C132.272 6.42356 133.451 6.75737 134.488 7.42498C135.525 8.0926 136.338 9.05495 136.928 10.3121C137.524 11.5692 137.822 13.0819 137.822 14.8504C137.822 16.6189 137.528 18.1352 136.938 19.3994C136.349 20.6565 135.539 21.626 134.509 22.3078C133.479 22.9825 132.304 23.3199 130.983 23.3199C129.989 23.3199 129.175 23.153 128.543 22.8192C127.918 22.4854 127.428 22.0947 127.073 21.6473C126.718 21.1998 126.445 20.8021 126.253 20.4541H126.061V29.1366H122.876ZM125.997 14.8184C125.997 15.969 126.164 16.9775 126.498 17.844C126.832 18.7105 127.315 19.3888 127.947 19.8788C128.579 20.3618 129.353 20.6033 130.269 20.6033C131.221 20.6033 132.016 20.3511 132.656 19.8469C133.295 19.3355 133.778 18.643 134.104 17.7694C134.438 16.8959 134.605 15.9122 134.605 14.8184C134.605 13.7389 134.442 12.7694 134.115 11.9101C133.795 11.0507 133.312 10.3724 132.666 9.87527C132.027 9.37811 131.228 9.12953 130.269 9.12953C129.346 9.12953 128.565 9.36745 127.925 9.84331C127.293 10.3192 126.814 10.9832 126.487 11.8355C126.16 12.6878 125.997 13.6821 125.997 14.8184Z" fill="#353535" fill-opacity="0.9"/>
<path d="M149.784 23.3305C148.25 23.3305 146.911 22.979 145.768 22.2758C144.624 21.5727 143.736 20.589 143.104 19.3248C142.472 18.0606 142.156 16.5834 142.156 14.893C142.156 13.1956 142.472 11.7112 143.104 10.4399C143.736 9.16859 144.624 8.18138 145.768 7.47825C146.911 6.77513 148.25 6.42356 149.784 6.42356C151.318 6.42356 152.657 6.77513 153.8 7.47825C154.944 8.18138 155.832 9.16859 156.464 10.4399C157.096 11.7112 157.412 13.1956 157.412 14.893C157.412 16.5834 157.096 18.0606 156.464 19.3248C155.832 20.589 154.944 21.5727 153.8 22.2758C152.657 22.979 151.318 23.3305 149.784 23.3305ZM149.795 20.6565C150.789 20.6565 151.613 20.3937 152.266 19.8682C152.92 19.3426 153.403 18.643 153.715 17.7694C154.035 16.8959 154.195 15.9335 154.195 14.8824C154.195 13.8383 154.035 12.8795 153.715 12.0059C153.403 11.1253 152.92 10.4186 152.266 9.88592C151.613 9.35325 150.789 9.08691 149.795 9.08691C148.793 9.08691 147.962 9.35325 147.302 9.88592C146.648 10.4186 146.162 11.1253 145.842 12.0059C145.53 12.8795 145.374 13.8383 145.374 14.8824C145.374 15.9335 145.53 16.8959 145.842 17.7694C146.162 18.643 146.648 19.3426 147.302 19.8682C147.962 20.3937 148.793 20.6565 149.795 20.6565Z" fill="#353535" fill-opacity="0.9"/>
<path d="M162.467 23.0003V6.63663H165.546V9.23606H165.717C166.015 8.35538 166.541 7.66291 167.293 7.15865C168.053 6.64728 168.913 6.3916 169.872 6.3916C170.07 6.3916 170.305 6.3987 170.575 6.41291C170.852 6.42711 171.068 6.44487 171.225 6.46618V9.51305C171.097 9.47754 170.869 9.43848 170.543 9.39586C170.216 9.34615 169.889 9.32129 169.563 9.32129C168.81 9.32129 168.139 9.48109 167.549 9.80069C166.967 10.1132 166.505 10.55 166.164 11.1111C165.823 11.665 165.653 12.2971 165.653 13.0074V23.0003H162.467Z" fill="#353535" fill-opacity="0.9"/>
<path d="M184.086 6.63663V9.19345H175.148V6.63663H184.086ZM177.545 2.71618H180.731V18.1956C180.731 18.8135 180.823 19.2787 181.008 19.5912C181.192 19.8966 181.43 20.1061 181.721 20.2197C182.02 20.3263 182.343 20.3795 182.691 20.3795C182.947 20.3795 183.17 20.3618 183.362 20.3263C183.554 20.2908 183.703 20.2623 183.809 20.241L184.385 22.8724C184.2 22.9434 183.937 23.0145 183.596 23.0855C183.255 23.1636 182.829 23.2062 182.318 23.2133C181.48 23.2275 180.699 23.0784 179.974 22.7659C179.25 22.4534 178.664 21.9704 178.216 21.317C177.769 20.6636 177.545 19.8433 177.545 18.8561V2.71618Z" fill="#353535" fill-opacity="0.9"/>
</svg>
